<svg width="104" height="55" viewBox="0 0 104 55" fill="none" xmlns="http://www.w3.org/2000/svg">
<path fill-rule="evenodd" clip-rule="evenodd" d="M11.9612 3.69683L23.4081 2.18577C24.1594 2.08447 24.86 2.12668 25.51 2.30396C26.16 2.48123 26.7847 2.79357 27.3756 3.24098C27.9581 3.68839 28.4224 4.21177 28.7685 4.79424C29.1062 5.37671 29.3256 6.05204 29.4354 6.79491L30.9211 17.9632C31.0224 18.7145 30.9802 19.4152 30.8029 20.0652C30.6257 20.7152 30.3133 21.3399 29.8659 21.9308C29.4016 22.5132 28.8867 22.9944 28.3042 23.3236C27.7217 23.6613 27.0633 23.8808 26.312 23.9821L21.3989 24.6321C20.8249 24.7081 20.4113 25.2399 20.4872 25.8224C20.5041 25.949 20.5463 26.0672 20.5885 26.1769C20.8671 26.8438 21.1626 27.5022 21.4749 28.1354C21.8126 28.8023 22.1587 29.4354 22.5301 30.0432C22.7158 30.3555 22.9353 30.651 23.1632 30.9549C22.0996 30.6425 21.0866 30.2542 20.1243 29.7899C19.1197 29.3088 18.1742 28.7516 17.2879 28.1185C16.3846 27.4854 15.5573 26.7509 14.7891 25.9659C14.5528 25.7211 14.2151 25.6198 13.9028 25.662L9.68195 26.2191C8.93064 26.3204 8.24687 26.2782 7.58842 26.1009C6.93842 25.9237 6.31374 25.6113 5.71438 25.1639C5.13191 24.7165 4.66762 24.1931 4.32151 23.6107C3.98384 23.0282 3.76436 22.3528 3.65462 21.61L2.17733 10.4333C2.07603 9.68195 2.11824 8.98129 2.29552 8.33129C2.47279 7.68128 2.78513 7.04816 3.23254 6.46568C3.67994 5.87477 4.19488 5.41048 4.7858 5.06437C5.36827 4.72671 6.0436 4.50722 6.78647 4.39748L11.9696 3.70527L11.9612 3.69683ZM53.5531 45.7024H54.4058C55.1824 45.7024 55.8071 45.0693 55.8071 44.3011V42.0219C55.8071 41.2452 55.1739 40.6206 54.4058 40.6206H49.3239C48.5473 40.6206 47.9226 41.2537 47.9226 42.0219V44.3011C47.9226 45.0777 48.5557 45.7024 49.3239 45.7024H50.1849L48.5304 54.1694H55.1486L53.5531 45.7024ZM22.8678 54.1694C23.5262 45.6264 21.8464 45.9979 29.0049 43.3134C32.5757 41.9712 37.1342 40.2829 40.418 38.24L46.5466 54.1694H22.8678ZM44.6725 33.3439C44.8329 32.027 40.9413 27.0295 40.2322 24.6321C38.7127 22.2093 38.1725 18.3684 39.827 15.8021C40.4939 14.7891 40.2069 12.9742 40.2069 11.5813C40.2069 -2.33894 64.6033 -2.34739 64.6033 11.5813C64.6033 13.3456 64.1981 14.6794 65.152 16.0638C66.7474 18.3768 65.9286 22.4795 64.5779 24.6321C63.7169 27.1561 59.6311 31.9172 59.9182 33.3439C60.1545 40.4939 44.6219 40.2491 44.6725 33.3439ZM63.5987 37.5056C66.5955 39.4218 70.8416 40.992 74.2436 42.1316C80.9209 44.3602 80.8956 44.6641 80.8534 54.1694H57.259L63.5987 37.5056ZM85.9606 0.835112L97.3315 2.44746C98.3361 2.59097 99.2477 2.91175 100.083 3.39293C100.902 3.8741 101.628 4.53255 102.236 5.34295C102.844 6.15334 103.274 7.03127 103.511 7.95141C103.747 8.87155 103.798 9.84234 103.654 10.8553L102.076 21.9561C101.932 22.9691 101.611 23.8892 101.13 24.7081C100.649 25.5269 99.9906 26.2444 99.1802 26.8607C98.3698 27.4685 97.4919 27.8906 96.5717 28.1354C95.6516 28.3717 94.6808 28.4224 93.6678 28.2789L89.9788 27.7555C89.2191 28.473 88.4087 29.1484 87.5645 29.7477C86.56 30.4484 85.5216 31.0646 84.4073 31.5711C83.293 32.0945 82.1365 32.525 80.9041 32.8627C79.6885 33.2004 78.4053 33.4452 77.0716 33.5971C76.6833 33.6393 76.3034 33.4705 76.0754 33.1328C75.7547 32.6516 75.8897 32.0016 76.3709 31.6809C77.0462 31.2419 77.6372 30.7692 78.1268 30.2795C78.5995 29.8068 79.0047 29.3088 79.3255 28.7938V28.7769C79.68 28.2198 80.0177 27.6373 80.3131 27.0548C80.4145 26.8522 80.5242 26.6328 80.6255 26.4133L77.1138 25.9152C76.1092 25.7717 75.1975 25.4509 74.3618 24.9698C73.543 24.4886 72.817 23.8301 72.2092 23.0197C71.6014 22.2093 71.1709 21.3314 70.9345 20.4113C70.7066 19.4743 70.6559 18.5035 70.791 17.5073L72.3696 6.40659C72.5131 5.40204 72.8339 4.49034 73.315 3.65462C73.7962 2.83578 74.4547 2.11824 75.2651 1.502C76.0754 0.894203 76.9534 0.463679 77.8735 0.227314C78.7937 -0.00905233 79.7644 -0.0597022 80.7774 0.0838057L85.9353 0.818228L85.9606 0.835112ZM90.0379 10.1294C90.0379 10.1209 90.0801 10.104 90.0886 10.0956C90.6964 9.77481 91.4477 9.99429 91.7853 10.5936C92.123 11.2014 91.912 11.9612 91.321 12.2989L88.9658 14.1813L88.9574 14.1898C89.6327 14.9917 90.3503 15.8443 91.2197 16.9164C91.2282 16.9164 91.2451 16.9586 91.2535 16.9671C91.5827 17.5749 91.3548 18.3262 90.7639 18.6639C90.1561 19.0015 89.3964 18.7905 89.0502 18.1996L87.1424 15.7768L84.745 17.8535C84.2892 18.3768 83.5041 18.4359 82.9807 17.9801C82.4573 17.5327 82.3814 16.7476 82.8288 16.2158C82.8372 16.2073 82.8625 16.1736 82.871 16.1736C83.9262 15.2956 84.7703 14.5781 85.5639 13.9028L83.521 11.6235C82.9976 11.1677 82.9469 10.3826 83.3943 9.85922C83.8418 9.33584 84.6268 9.25987 85.1586 9.70727C85.1671 9.71572 85.2009 9.74104 85.2009 9.74948C86.045 10.7625 86.7372 11.5898 87.3957 12.3579C88.1554 11.6742 88.9912 10.9735 90.0379 10.1294ZM91.8782 3.80657L80.5073 2.18577C79.7644 2.08447 79.0638 2.11824 78.4138 2.28707C77.7638 2.45591 77.1391 2.75981 76.5482 3.20721C75.9657 3.64618 75.493 4.16112 75.1469 4.74359C74.8008 5.32606 74.5728 5.98451 74.4715 6.73582L72.8929 17.8366C72.7916 18.5794 72.8254 19.2801 72.9942 19.9301C73.1631 20.5801 73.467 21.2048 73.9144 21.7957C74.3702 22.3866 74.8852 22.8678 75.4592 23.197C76.0417 23.5431 76.6917 23.7626 77.4261 23.8723L82.3054 24.5646C82.8794 24.649 83.2762 25.1808 83.2002 25.7548C83.1833 25.8815 83.1327 25.9912 83.0904 26.1094C82.8034 26.7678 82.508 27.4178 82.1872 28.0425C81.8411 28.7094 81.495 29.3256 81.1151 29.925C80.9294 30.2289 80.7099 30.5244 80.482 30.8198C81.5456 30.5244 82.5586 30.136 83.5125 29.6971C84.5171 29.2328 85.4626 28.6756 86.3574 28.0594C87.2606 27.4263 88.0963 26.7172 88.873 25.9405C89.1093 25.7042 89.447 25.6029 89.7593 25.6451L93.9548 26.2444C94.6977 26.3457 95.3815 26.312 96.0315 26.1431C96.6815 25.9743 97.3062 25.6704 97.9055 25.2314C98.488 24.7925 98.9607 24.2775 99.3068 23.6951C99.6529 23.1126 99.8809 22.4541 99.9822 21.7028L101.561 10.6021C101.662 9.85922 101.628 9.15857 101.459 8.50856C101.291 7.85856 100.987 7.23387 100.539 6.64296C100.1 6.06049 99.5854 5.58775 99.0029 5.25009C98.4205 4.90398 97.762 4.67606 97.0107 4.57476L91.8529 3.84034L91.8782 3.80657ZM11.5982 14.4346C11.3787 14.1645 11.2943 13.8268 11.3281 13.4976C11.3703 13.1683 11.5222 12.8644 11.7924 12.645C12.0625 12.4255 12.4002 12.3411 12.7294 12.3748C13.0586 12.417 13.3625 12.569 13.582 12.8391L15.4729 15.2197L20.521 10.2982C20.521 10.2897 20.5632 10.2644 20.5632 10.256C21.1457 9.87611 21.9223 10.0281 22.3191 10.6021C22.7074 11.1761 22.5723 11.9612 21.9983 12.3664L15.971 17.997C15.971 17.997 15.9372 18.0223 15.9288 18.0223C15.6586 18.208 15.3378 18.2671 15.0339 18.2249C14.7301 18.1827 14.4346 18.0223 14.2236 17.7606L11.5982 14.4346ZM17.9463 0.77602L6.49945 2.28707C5.48645 2.42214 4.56632 2.73448 3.73059 3.20721C2.90331 3.67994 2.16889 4.32995 1.54421 5.14879C0.919528 5.95919 0.489004 6.83712 0.235755 7.75726C-0.00905233 8.67739 -0.0681438 9.65662 0.0669224 10.6781L1.55265 21.8463C1.68772 22.8678 2.00006 23.7879 2.47279 24.6152C2.94552 25.4425 3.59553 26.1769 4.41437 26.8016C5.22476 27.4263 6.10269 27.8484 7.03128 28.11C7.95141 28.3549 8.93064 28.4139 9.95208 28.2789L13.658 27.7893C14.4093 28.5237 15.2197 29.2075 16.0554 29.8068C17.0599 30.5244 18.1067 31.149 19.2041 31.664C20.3184 32.2042 21.4834 32.6432 22.7158 32.9978C23.9314 33.3523 25.2146 33.6056 26.5568 33.7744C26.9367 33.825 27.3334 33.6562 27.5613 33.3185C27.8906 32.8374 27.7639 32.1789 27.2828 31.8497C26.6074 31.4023 26.025 30.9211 25.5353 30.4315C25.0626 29.9503 24.6574 29.4523 24.3366 28.9204V28.912C23.9821 28.3464 23.6613 27.7639 23.3574 27.173C23.2561 26.962 23.1548 26.7425 23.0535 26.5315L26.5906 26.0672C27.5951 25.9405 28.5237 25.6198 29.3594 25.147C30.1867 24.6743 30.9211 24.0243 31.5458 23.2055C32.1705 22.3951 32.601 21.5171 32.8542 20.5885C33.0991 19.6515 33.1497 18.6807 33.0231 17.6762L31.5289 6.49945C31.3938 5.4949 31.0815 4.56632 30.6088 3.73059C30.136 2.90331 29.486 2.16889 28.6672 1.54421C27.8568 0.919528 26.9789 0.489004 26.0587 0.235755C25.1386 -0.00905233 24.1594 -0.0681438 23.1464 0.0669224L17.9632 0.759137L17.9463 0.77602Z" fill="#E35326"/>
</svg>
