<svg width="89" height="89" viewBox="0 0 89 89" fill="none" xmlns="http://www.w3.org/2000/svg">
<rect width="89" height="89" rx="5.15942" fill="#F2F4F6"/>
<g clip-path="url(#clip0_883:358)">
<path fill-rule="evenodd" clip-rule="evenodd" d="M19.4976 30.316L26.6704 29.3692C27.1412 29.3057 27.5803 29.3321 27.9876 29.4432C28.3949 29.5543 28.7863 29.75 29.1566 30.0304C29.5216 30.3107 29.8125 30.6387 30.0294 31.0037C30.241 31.3687 30.3785 31.7919 30.4473 32.2574L31.3783 39.2556C31.4418 39.7264 31.4153 40.1655 31.3042 40.5728C31.1931 40.9801 30.9974 41.3715 30.7171 41.7418C30.4261 42.1068 30.1035 42.4083 29.7385 42.6146C29.3735 42.8262 28.9609 42.9637 28.4901 43.0272L25.4115 43.4345C25.0518 43.4821 24.7926 43.8154 24.8402 44.1804C24.8508 44.2597 24.8772 44.3338 24.9037 44.4025C25.0782 44.8204 25.2634 45.233 25.4591 45.6297C25.6707 46.0476 25.8876 46.4444 26.1203 46.8252C26.2367 47.0209 26.3742 47.2061 26.517 47.3965C25.8505 47.2008 25.2158 46.9575 24.6127 46.6665C23.9833 46.365 23.3908 46.0159 22.8354 45.6192C22.2694 45.2224 21.751 44.7622 21.2696 44.2703C21.1215 44.1169 20.9099 44.0534 20.7142 44.0799L18.0694 44.429C17.5986 44.4925 17.1701 44.466 16.7575 44.3549C16.3502 44.2438 15.9588 44.0481 15.5832 43.7678C15.2182 43.4874 14.9273 43.1595 14.7104 42.7945C14.4988 42.4295 14.3613 42.0063 14.2925 41.5408L13.3668 34.5372C13.3033 34.0664 13.3298 33.6274 13.4409 33.2201C13.552 32.8128 13.7477 32.416 14.028 32.0511C14.3084 31.6808 14.6311 31.3898 15.0013 31.173C15.3663 30.9614 15.7895 30.8238 16.255 30.7551L19.5029 30.3213L19.4976 30.316ZM45.56 56.6376H46.0943C46.5809 56.6376 46.9724 56.2409 46.9724 55.7595V54.3313C46.9724 53.8447 46.5756 53.4532 46.0943 53.4532H42.9099C42.4232 53.4532 42.0318 53.85 42.0318 54.3313V55.7595C42.0318 56.2462 42.4285 56.6376 42.9099 56.6376H43.4494L42.4126 61.9432H46.5598L45.56 56.6376ZM26.3319 61.9432C26.7445 56.59 25.6918 56.8228 30.1775 55.1406C32.4151 54.2996 35.2715 53.2416 37.3292 51.9615L41.1695 61.9432H26.3319ZM39.9952 48.8935C40.0957 48.0683 37.6572 44.9368 37.2128 43.4345C36.2607 41.9164 35.9221 39.5096 36.9589 37.9015C37.3768 37.2667 37.197 36.1294 37.197 35.2566C37.197 26.5339 52.4842 26.5286 52.4842 35.2566C52.4842 36.3622 52.2303 37.1979 52.8281 38.0655C53.8278 39.5148 53.3147 42.0856 52.4684 43.4345C51.9288 45.0161 49.3686 47.9995 49.5485 48.8935C49.6966 53.3739 39.9635 53.2205 39.9952 48.8935ZM51.8548 51.5013C53.7326 52.7021 56.3933 53.686 58.5251 54.4001C62.7093 55.7966 62.6934 55.987 62.6669 61.9432H47.8822L51.8548 51.5013ZM65.8672 28.5228L72.9925 29.5332C73.6219 29.6231 74.1932 29.8241 74.7169 30.1256C75.23 30.4271 75.6849 30.8397 76.0658 31.3475C76.4466 31.8553 76.7164 32.4055 76.8645 32.982C77.0126 33.5586 77.0444 34.1669 76.9545 34.8017L75.9653 41.7577C75.8754 42.3924 75.6743 42.969 75.3728 43.4821C75.0713 43.9952 74.6587 44.4449 74.1509 44.831C73.6431 45.2119 73.093 45.4763 72.5164 45.6297C71.9398 45.7779 71.3315 45.8096 70.6967 45.7197L68.3851 45.3917C67.909 45.8413 67.4012 46.2645 66.8723 46.6401C66.2428 47.0791 65.5921 47.4653 64.8939 47.7827C64.1957 48.1106 63.471 48.3804 62.6987 48.592C61.937 48.8036 61.1329 48.957 60.2971 49.0522C60.0538 49.0786 59.8158 48.9728 59.673 48.7613C59.472 48.4597 59.5566 48.0524 59.8581 47.8514C60.2813 47.5764 60.6516 47.2801 60.9584 46.9733C61.2546 46.6771 61.5085 46.365 61.7095 46.0423V46.0318C61.9317 45.6826 62.1433 45.3177 62.3284 44.9527C62.3919 44.8257 62.4606 44.6882 62.5241 44.5506L60.3236 44.2386C59.6941 44.1486 59.1228 43.9476 58.5991 43.6461C58.086 43.3446 57.6311 42.932 57.2503 42.4242C56.8694 41.9164 56.5996 41.3662 56.4515 40.7897C56.3087 40.2025 56.277 39.5942 56.3616 38.97L57.3508 32.014C57.4407 31.3846 57.6417 30.8133 57.9432 30.2896C58.2447 29.7765 58.6573 29.3269 59.1651 28.9407C59.673 28.5598 60.2231 28.2901 60.7997 28.142C61.3762 27.9938 61.9846 27.9621 62.6193 28.052L65.8513 28.5122L65.8672 28.5228ZM68.4221 34.3468C68.4221 34.3415 68.4486 34.3309 68.4539 34.3256C68.8347 34.1246 69.3055 34.2622 69.5171 34.6377C69.7287 35.0186 69.5965 35.4947 69.2262 35.7062L67.7504 36.8859L67.7451 36.8911C68.1682 37.3937 68.6179 37.9279 69.1627 38.5997C69.168 38.5997 69.1786 38.6262 69.1839 38.6315C69.3902 39.0123 69.2473 39.4831 68.8771 39.6947C68.4962 39.9063 68.0201 39.774 67.8032 39.4038L66.6078 37.8856L65.1055 39.1869C64.8199 39.5148 64.3279 39.5519 63.9999 39.2662C63.672 38.9859 63.6244 38.4939 63.9047 38.1607C63.91 38.1554 63.9259 38.1342 63.9312 38.1342C64.5924 37.5841 65.1214 37.1345 65.6186 36.7113L64.3385 35.2831C64.0105 34.9974 63.9788 34.5055 64.2591 34.1775C64.5395 33.8496 65.0314 33.802 65.3647 34.0823C65.37 34.0876 65.3911 34.1035 65.3911 34.1088C65.9201 34.7435 66.3539 35.2619 66.7665 35.7433C67.2425 35.3148 67.7662 34.8758 68.4221 34.3468ZM69.5753 30.3848L62.4501 29.3692C61.9846 29.3057 61.5455 29.3269 61.1382 29.4326C60.7309 29.5384 60.3395 29.7289 59.9692 30.0092C59.6042 30.2843 59.308 30.607 59.0911 30.972C58.8742 31.3369 58.7314 31.7495 58.6679 32.2203L57.6787 39.1763C57.6153 39.6418 57.6364 40.0808 57.7422 40.4881C57.848 40.8955 58.0384 41.2869 58.3188 41.6572C58.6044 42.0275 58.9271 42.329 59.2868 42.5353C59.6518 42.7521 60.0591 42.8897 60.5193 42.9584L63.5768 43.3922C63.9365 43.4451 64.1851 43.7783 64.1375 44.138C64.1269 44.2174 64.0952 44.2862 64.0687 44.3602C63.8889 44.7728 63.7037 45.1801 63.5027 45.5716C63.2858 45.9894 63.069 46.3756 62.8309 46.7512C62.7145 46.9416 62.577 47.1267 62.4342 47.3119C63.1007 47.1267 63.7355 46.8834 64.3332 46.6083C64.9627 46.3174 65.5551 45.9683 66.1158 45.5821C66.6818 45.1854 67.2055 44.7411 67.6922 44.2544C67.8403 44.1063 68.0519 44.0428 68.2476 44.0693L70.8766 44.4449C71.3421 44.5083 71.7705 44.4872 72.1778 44.3814C72.5852 44.2756 72.9766 44.0852 73.3522 43.8101C73.7172 43.535 74.0134 43.2123 74.2303 42.8474C74.4471 42.4824 74.59 42.0698 74.6534 41.599L75.6426 34.643C75.7061 34.1775 75.6849 33.7385 75.5791 33.3312C75.4733 32.9239 75.2829 32.5324 75.0025 32.1621C74.7275 31.7971 74.4048 31.5009 74.0398 31.2893C73.6748 31.0725 73.2622 30.9296 72.7915 30.8662L69.5594 30.406L69.5753 30.3848ZM19.2701 37.0445C19.1326 36.8753 19.0797 36.6637 19.1009 36.4574C19.1273 36.2511 19.2225 36.0607 19.3918 35.9231C19.5611 35.7856 19.7727 35.7327 19.979 35.7539C20.1853 35.7803 20.3757 35.8755 20.5132 36.0448L21.6981 37.5365L24.8614 34.4526C24.8614 34.4473 24.8878 34.4314 24.8878 34.4261C25.2528 34.1881 25.7395 34.2833 25.9881 34.643C26.2314 35.0027 26.1468 35.4947 25.7871 35.7486L22.0102 39.2768C22.0102 39.2768 21.989 39.2927 21.9838 39.2927C21.8145 39.409 21.6135 39.4461 21.423 39.4196C21.2326 39.3932 21.0475 39.2927 20.9152 39.1287L19.2701 37.0445ZM23.248 28.4858L16.0751 29.4326C15.4404 29.5173 14.8638 29.713 14.3401 30.0092C13.8217 30.3054 13.3615 30.7128 12.9701 31.2259C12.5786 31.7337 12.3089 32.2838 12.1502 32.8604C11.9968 33.437 11.9597 34.0506 12.0444 34.6906L12.9754 41.6889C13.06 42.329 13.2557 42.9055 13.552 43.4239C13.8482 43.9423 14.2555 44.4025 14.7686 44.794C15.2764 45.1854 15.8265 45.4499 16.4084 45.6139C16.985 45.7673 17.5986 45.8043 18.2386 45.7197L20.5608 45.4129C21.0316 45.8731 21.5394 46.3015 22.0631 46.6771C22.6926 47.1267 23.3485 47.5182 24.0362 47.8408C24.7344 48.1794 25.4644 48.4545 26.2367 48.6766C26.9984 48.8988 27.8024 49.0575 28.6435 49.1633C28.8815 49.195 29.1302 49.0892 29.273 48.8776C29.4793 48.5761 29.3999 48.1635 29.0984 47.9572C28.6752 47.6769 28.3103 47.3754 28.0034 47.0685C27.7072 46.767 27.4533 46.4549 27.2523 46.1217V46.1164C27.0301 45.762 26.8291 45.397 26.6387 45.0267C26.5752 44.8945 26.5117 44.7569 26.4483 44.6247L28.6647 44.3338C29.2941 44.2544 29.876 44.0534 30.3997 43.7572C30.9181 43.461 31.3783 43.0537 31.7697 42.5406C32.1612 42.0327 32.4309 41.4826 32.5896 40.9007C32.743 40.3136 32.7748 39.7053 32.6954 39.0758L31.7591 32.0722C31.6745 31.4427 31.4788 30.8609 31.1826 30.3372C30.8863 29.8188 30.479 29.3586 29.9659 28.9672C29.4581 28.5757 28.908 28.3059 28.3314 28.1472C27.7548 27.9938 27.1412 27.9568 26.5065 28.0415L23.2586 28.4752L23.248 28.4858Z" fill="#E35326"/>
</g>
<defs>
<clipPath id="clip0_883:358">
<rect width="65" height="33.9441" fill="white" transform="translate(12 28)"/>
</clipPath>
</defs>
</svg>
