<svg width="43" height="50" viewBox="0 0 43 50" fill="none" xmlns="http://www.w3.org/2000/svg">
<path d="M8.68075 0.200024H8.68191H41.5946C41.9153 0.203591 42.2218 0.333443 42.4474 0.561447C42.6733 0.789685 42.8 1.09784 42.8 1.41896L42.8 42.8757L42.8 42.877C42.8013 43.0676 42.757 43.2558 42.6709 43.4258C42.5848 43.5959 42.4593 43.7429 42.3049 43.8546L42.3036 43.8556L34.9904 49.2381C34.9903 49.2381 34.9903 49.2382 34.9903 49.2382C34.9077 49.2982 34.8175 49.3468 34.722 49.3827H34.6765H34.6453L34.6156 49.3922C34.5068 49.427 34.3935 49.4459 34.2793 49.4486H1.37151C1.05718 49.4363 0.759704 49.303 0.541334 49.0765C0.322164 48.8491 0.199795 48.5456 0.2 48.2298V48.2296V6.50742C0.200691 6.49223 0.200709 6.47702 0.200053 6.46183C0.201403 6.36249 0.217778 6.26391 0.248631 6.16944L0.258514 6.13918V6.10735V6.07336C0.297088 5.98192 0.344584 5.89448 0.400324 5.81231L0.437103 5.7694L0.43732 5.76959L0.443839 5.76111C0.508884 5.67646 0.585729 5.60158 0.672027 5.53876L7.98473 0.419868L7.98571 0.419174C8.18876 0.275215 8.43185 0.198567 8.68075 0.200024ZM9.12808 2.63792H9.06507L9.01343 2.67404L5.75132 4.95606L5.23115 5.31994H5.86596H33.9085H33.9551L33.997 5.29928C35.321 4.64573 36.5843 3.87589 37.7721 2.99881L38.2609 2.63792H37.6533H9.12808ZM8.63803 7.75783H8.43803V7.95783V18.8047V19.1396L8.73285 18.9808L10.7296 17.9057L10.7306 17.9051C10.9087 17.8078 11.1084 17.7569 11.3114 17.7569C11.5141 17.7569 11.7135 17.8077 11.8915 17.9048C11.8917 17.9049 11.8919 17.905 11.8921 17.9051L13.7486 18.9357L14.0457 19.1006V18.7609V7.95783V7.75783H13.8457H8.63803ZM2.7867 7.75783H2.5867V7.95783V46.8107V47.0107H2.7867H32.8625H33.0625V46.8107V7.95783V7.75783H32.8625H16.6836H16.4836V7.95783V21.1642C16.4734 21.485 16.3414 21.7899 16.1144 22.0169C15.8875 22.2438 15.5828 22.3758 15.2622 22.3861C15.0565 22.3845 14.8542 22.3327 14.6731 22.2351C14.6728 22.235 14.6724 22.2348 14.6721 22.2346L11.3901 20.4145L11.2946 20.3615L11.1984 20.4132L7.79728 22.2418L7.79714 22.2419C7.61135 22.3419 7.40276 22.3921 7.19178 22.3873C6.98081 22.3826 6.77467 22.3232 6.59355 22.2149C6.41243 22.1066 6.26252 21.9531 6.1585 21.7695C6.05448 21.5859 5.99991 21.3785 6.00013 21.1674V21.1672V7.95783V7.75783H5.80013H2.7867ZM35.5004 45.421V45.8163L35.8189 45.5821L40.2952 42.2907L40.3767 42.2308V42.1296V4.46166V4.04477L40.0515 4.30567C38.668 5.41571 37.1798 6.38844 35.6078 7.21008L35.5004 7.26619V7.38733V45.421Z" fill="#E35326" stroke="white" stroke-width="0.4"/>
</svg>
