<svg width="64" height="46" viewBox="0 0 64 46" fill="none" xmlns="http://www.w3.org/2000/svg">
<path d="M42.1265 34.8795C41.4591 34.6215 40.7697 34.3554 40.0871 34.0728C38.4833 33.4012 37.5175 32.9615 36.9646 32.6967L36.9474 30.9996C37.3981 30.4398 37.9997 29.428 38.3475 27.7625C38.4271 27.7186 38.5053 27.6685 38.5821 27.6143C39.4704 26.9839 40.0467 25.732 40.0892 24.9054C40.1043 24.6715 40.2037 22.6513 39.1885 21.6388C39.325 20.4548 39.3881 19.5699 39.3291 18.9546C39.0294 15.852 36.0406 12.6416 31.5564 12.6416C27.0763 12.6416 24.0855 15.8506 23.7823 18.9567C23.7239 19.574 23.7857 20.4583 23.9222 21.6395C22.9021 22.6554 23.0057 24.6742 23.0215 24.9047C23.0757 25.7444 23.6279 26.9825 24.5451 27.6246C24.6164 27.6747 24.6898 27.7207 24.7639 27.7618C25.1103 29.4274 25.7126 30.4392 26.1646 30.9996L26.1468 32.6953C25.5918 32.9608 24.6274 33.3998 23.0277 34.0693C22.3403 34.354 21.6523 34.6195 20.9855 34.8774C18.3054 35.9132 15.9903 36.8077 14.9943 38.3621C13.966 39.9632 14.1052 43.627 14.1725 44.7115C14.2191 45.4681 14.8674 46.0375 15.626 45.9963C16.382 45.9497 16.9568 45.2987 16.9109 44.5428C16.8032 42.7777 16.9376 40.4146 17.3032 39.8445C17.8163 39.0447 20.0259 38.1906 21.9754 37.4374C22.6614 37.172 23.3693 36.8983 24.082 36.6033C27.2807 35.2643 28.132 34.7676 28.2184 34.7155C28.6259 34.4699 28.8763 34.0309 28.8818 33.5555L28.914 30.4769C28.9181 30.0461 28.7604 29.6709 28.4187 29.4081C28.4105 29.4006 27.6072 28.6515 27.3287 26.4708C27.278 26.0729 27.055 25.7169 26.7196 25.4974C26.5097 25.3602 26.2689 25.2841 26.024 25.2745C25.9074 25.1188 25.7777 24.8601 25.7599 24.725C25.7407 24.441 25.7777 24.0349 25.8388 23.7598C26.0213 23.6995 26.1907 23.6007 26.3354 23.4669C26.662 23.1658 26.8225 22.7247 26.7662 22.2843C26.6729 21.5558 26.4548 19.8498 26.5152 19.2208C26.699 17.3357 28.6355 15.3869 31.5578 15.3869C34.4814 15.3869 36.4172 17.3357 36.599 19.2173C36.6586 19.8436 36.4405 21.5538 36.3465 22.2843C36.2903 22.7247 36.4508 23.1651 36.7766 23.4662C36.9214 23.6 37.0915 23.6988 37.2733 23.7598C37.3336 24.0356 37.3707 24.4438 37.3522 24.7326C37.3336 24.8684 37.2067 25.1215 37.0915 25.2745C36.8466 25.2841 36.6051 25.3595 36.3952 25.4967C36.0591 25.7162 35.8362 26.0716 35.7847 26.4701C35.5083 28.6158 34.7269 29.3766 34.7324 29.3766C34.7324 29.3766 34.7324 29.3766 34.7331 29.3766C34.3922 29.6393 34.1946 30.0468 34.1994 30.4769L34.2303 33.5555C34.2351 34.0309 34.4862 34.4699 34.893 34.7162C34.9794 34.7683 35.83 35.265 39.0342 36.6067C39.7428 36.8996 40.4521 37.174 41.1387 37.4395C43.0876 38.1927 45.2971 39.0461 45.8095 39.8466C46.1751 40.4159 46.3096 42.7791 46.2012 44.5441C46.1552 45.3008 46.7301 45.9511 47.486 45.9977C47.5148 45.9991 47.543 45.9998 47.5718 45.9998C48.2907 45.9998 48.895 45.4407 48.9396 44.7129C49.0068 43.6284 49.1461 39.9646 48.1185 38.3649C47.1225 36.8098 44.8073 35.9153 42.1265 34.8795Z" fill="#E35326"/>
<path d="M56.9707 0H6.13877C2.75418 0 0 2.75349 0 6.13877V33.7416C0 37.1269 2.75418 39.8804 6.13877 39.8804H11.0222C11.7795 39.8804 12.3942 39.2658 12.3942 38.5084C12.3942 37.7511 11.7795 37.1365 11.0222 37.1365H6.13877C4.26675 37.1365 2.74389 35.6136 2.74389 33.7416V6.13877C2.74389 4.26675 4.26675 2.74389 6.13877 2.74389H56.9707C58.8427 2.74389 60.3656 4.26675 60.3656 6.13877V33.7416C60.3656 35.6136 58.8427 37.1365 56.9707 37.1365H52.3445C51.5872 37.1365 50.9726 37.7511 50.9726 38.5084C50.9726 39.2658 51.5872 39.8804 52.3445 39.8804H56.9707C60.356 39.8804 63.1095 37.1269 63.1095 33.7416V6.13877C63.1095 2.75349 60.3553 0 56.9707 0Z" fill="#E35326"/>
</svg>
