<svg width="92" height="91" viewBox="0 0 92 91" fill="none" xmlns="http://www.w3.org/2000/svg">
<g clip-path="url(#clip0_69:143)">
<path d="M44.9226 87.5443C44.9226 86.3359 44.8998 83.8255 44.872 81.9656L44.8214 78.584H45.3301H45.8387L45.8583 83.7233L45.878 88.8625L47.693 88.883L49.508 88.9035V89.3225V89.7414H47.2153H44.9227L44.9226 87.5443ZM54.1503 88.6483C54.1665 88.3038 54.2772 85.6542 54.3964 82.7602C54.5156 79.8663 54.6423 77.4729 54.678 77.4417C54.7136 77.4104 54.9393 77.3309 55.1795 77.2649L55.6163 77.1449L58.9018 81.9432C60.7088 84.5823 62.1973 86.7844 62.2096 86.8368C62.2232 86.8947 62.0516 86.9841 61.7712 87.065L61.3104 87.198L60.4108 85.8443L59.5112 84.4906L57.3945 85.0964C56.2302 85.4295 55.2522 85.7268 55.2211 85.757C55.19 85.7872 55.1415 86.5248 55.1134 87.396L55.0623 88.98L54.6351 89.1026C54.4001 89.17 54.1883 89.2363 54.1644 89.2499C54.1405 89.2635 54.1342 88.9928 54.1503 88.6483ZM57.5321 84.1124C58.2256 83.9169 58.8228 83.7308 58.8593 83.6987C58.8958 83.6666 58.4681 82.9412 57.909 82.0866C57.3499 81.232 56.5701 80.0389 56.1762 79.4354C55.7822 78.8319 55.4367 78.3613 55.4083 78.3897C55.3564 78.4416 55.1687 84.6147 55.2161 84.7111C55.2301 84.7395 55.4732 84.6964 55.7563 84.6153C56.0395 84.5342 56.8386 84.3079 57.5321 84.1124ZM35.9051 88.6718C34.0729 88.2197 32.898 87.1129 32.4694 85.4354C32.1636 84.2386 32.2048 82.9077 32.5885 81.5835C33.1284 79.7205 34.3739 78.2667 35.9434 77.6676C36.5689 77.4288 37.8748 77.3672 38.5813 77.5432C39.1822 77.6929 40.2264 78.2043 40.6124 78.538L40.895 78.7823L40.7589 79.199C40.6841 79.4282 40.6077 79.6422 40.5893 79.6747C40.5708 79.7071 40.3978 79.5946 40.2048 79.4247C38.9346 78.3066 37.3905 78.0354 36.0198 78.6896C35.3317 79.018 34.823 79.4744 34.3675 80.1723C33.6699 81.2408 33.2888 82.5365 33.2836 83.857C33.2785 85.1726 33.5938 86.0498 34.3453 86.811C35.0152 87.4895 36.1443 87.9363 37.076 87.8917L37.5482 87.8691L38.1003 85.9586C38.404 84.9078 38.6533 84.0443 38.6544 84.0397C38.6554 84.0352 38.2522 83.9181 37.7583 83.7795C37.2645 83.6409 36.8328 83.5036 36.7991 83.4744C36.7294 83.4138 36.8841 82.7287 36.981 82.6688C37.0384 82.6334 39.7227 83.3707 39.7944 83.4416C39.811 83.458 39.4868 84.6555 39.0741 86.1028L38.3237 88.7342L38.0983 88.7793C37.6478 88.8694 36.4723 88.8118 35.9051 88.6718ZM64.1232 79.8501C62.4734 77.3108 61.1059 75.1872 61.0843 75.131C61.0595 75.0663 61.2384 74.9096 61.5717 74.7039L62.0982 74.379L66.4446 77.0679C71.391 80.1279 71.4844 80.1835 71.4251 80.031C71.4017 79.9707 70.4107 78.4254 69.223 76.5971C68.0352 74.7687 66.8461 72.9382 66.5805 72.5292L66.0976 71.7855L66.4329 71.5548C66.6174 71.4279 66.7965 71.3245 66.8309 71.325C66.8778 71.3257 72.5984 80.0602 72.9108 80.6081C72.9848 80.7378 72.031 81.3687 71.8419 81.315C71.7683 81.2942 69.6636 80.019 67.1647 78.4813C64.6659 76.9436 62.6065 75.7003 62.5883 75.7185C62.5575 75.7493 63.4975 77.2168 66.6365 82.0386L67.9153 84.0029L67.537 84.2356C67.329 84.3636 67.1507 84.4681 67.1408 84.4677C67.1309 84.4674 65.773 82.3894 64.1232 79.8501ZM24.4654 84.0632C24.0987 83.8147 23.9996 83.7079 24.026 83.5895C24.1335 83.1063 25.5907 73.1746 25.5724 73.0504C25.5579 72.9524 24.6026 74.3061 22.8101 76.965C21.303 79.2005 20.046 81.0295 20.0167 81.0295C19.9561 81.0295 19.3219 80.5729 19.3219 80.5292C19.3219 80.5067 25.4727 71.3608 25.5561 71.2592C25.6119 71.1914 26.5818 71.9638 26.5817 72.0759C26.5816 72.1458 26.2205 74.5579 25.7793 77.4362C25.3381 80.3145 24.977 82.7217 24.977 82.7854C24.977 82.9361 25.0289 82.8617 28.0267 78.4132L30.5797 74.6249L30.9489 74.8659C31.152 74.9984 31.3051 75.1413 31.2891 75.1833C31.202 75.4129 25.1098 84.3562 25.0319 84.3689C24.9807 84.3773 24.7258 84.2397 24.4654 84.0632ZM13.0116 74.2446C12.2161 73.2952 11.5063 72.4435 11.4342 72.352C11.3041 72.1868 11.3335 72.1601 15.4791 68.6789C17.7758 66.7503 19.7124 65.1309 19.7826 65.0805C19.8937 65.0006 20.1055 65.2215 21.4181 66.7871C22.9027 68.5577 22.9239 68.5879 22.7861 68.7403C22.7092 68.8255 22.5549 68.9603 22.4432 69.0399L22.2402 69.1846L21.0676 67.7758C20.4227 67.001 19.8666 66.3647 19.8318 66.3619C19.7615 66.3562 16.955 68.681 16.8455 68.8357C16.7966 68.9047 17.0994 69.3187 17.8772 70.2462C18.4826 70.9682 18.9878 71.587 18.9997 71.6212C19.0117 71.6555 18.8707 71.807 18.6865 71.958L18.3515 72.2325L17.251 70.9042C16.6457 70.1736 16.1033 69.5738 16.0457 69.5712C15.9224 69.5656 12.6852 72.2436 12.6797 72.3558C12.6777 72.3978 13.2254 73.0856 13.8968 73.8842C14.5683 74.6828 15.1179 75.3547 15.1182 75.3773C15.1185 75.3999 14.9701 75.5427 14.7884 75.6946L14.4579 75.9708L13.0116 74.2446ZM74.1883 71.9999C71.7734 70.1136 69.7975 68.5376 69.7975 68.4975C69.7975 68.3364 70.9675 66.9266 71.6034 66.3215C73.1014 64.896 74.6924 64.5617 76.4657 65.2999C77.7091 65.8176 79.2603 67.0851 80.0027 68.1901C80.5504 69.0053 80.7813 69.6948 80.8219 70.6363C80.8822 72.037 80.5482 72.8928 79.3271 74.4658L78.579 75.4295L74.1883 71.9999ZM79.1172 73.2331C80.1747 71.7644 80.2001 70.262 79.1923 68.7871C78.3672 67.5795 76.6493 66.3429 75.3251 66.0035C74.3247 65.747 73.1853 66.0584 72.3244 66.8236C71.8391 67.255 71.0308 68.2709 71.1112 68.3484C71.1453 68.3812 72.805 69.6822 74.7995 71.2394C78.089 73.8076 78.4377 74.0601 78.5525 73.9563C78.622 73.8933 78.8762 73.5679 79.1172 73.2331ZM6.90364 51.0186C3.83536 50.1129 1.32063 49.3677 1.31533 49.3626C1.31004 49.3574 1.29285 48.7045 1.27712 47.9116L1.24854 46.4699L6.74479 44.4921C9.76774 43.4043 12.2549 42.5282 12.2718 42.5451C12.2888 42.5621 12.3224 43.1603 12.3465 43.8745L12.3905 45.1731L11.2519 45.5287C10.6257 45.7242 10.0674 45.8997 10.0113 45.9185C9.92802 45.9464 9.91924 46.2728 9.96358 47.6912C9.99346 48.6474 10.0294 49.45 10.0435 49.4748C10.0576 49.4997 10.6379 49.6702 11.333 49.8538L12.5969 50.1876L12.5975 50.9167C12.5978 51.3177 12.62 51.878 12.6468 52.1617C12.6859 52.5767 12.6746 52.6763 12.5889 52.6714C12.5303 52.6681 9.97191 51.9243 6.90364 51.0186ZM8.109 47.8439C8.08634 47.1609 8.05583 46.5884 8.04119 46.5717C8.00714 46.5328 3.56197 47.7925 3.47903 47.8645C3.42877 47.9082 7.7535 49.054 8.06185 49.0787C8.1269 49.0839 8.13933 48.7584 8.109 47.8439ZM80.0536 52.3153L79.6109 52.2876L79.6549 51.8521C79.6791 51.6126 79.7833 50.1991 79.8865 48.7111C79.9896 47.223 80.0852 45.9944 80.0988 45.9808C80.1323 45.9472 91.1866 46.7251 91.2277 46.7639C91.2722 46.8058 91.1001 49.2446 91.0491 49.2956C91.0266 49.3181 88.9721 49.1935 86.4836 49.0188C83.357 48.7994 81.9435 48.7262 81.909 48.7821C81.8815 48.8265 81.8174 49.5578 81.7666 50.4072C81.6379 52.5578 81.7057 52.3748 81.0444 52.3574C80.743 52.3494 80.2971 52.3305 80.0536 52.3153ZM79.5084 40.5937C79.3608 39.7412 79.3205 39.3459 79.3774 39.3107C79.5107 39.2283 90.1586 37.3752 90.2647 37.4159C90.3616 37.4531 90.8179 39.8214 90.7426 39.8967C90.6974 39.9419 80.1061 41.8208 79.8798 41.8238C79.735 41.8257 79.7036 41.7217 79.5084 40.5937ZM7.45781 37.5964C4.51652 36.6345 2.2804 35.8646 2.28033 35.8137C2.28008 35.6292 3.59296 31.6809 3.8072 31.2219C4.0819 30.6334 4.71243 29.9524 5.22224 29.6936C6.27301 29.1602 7.92925 29.5622 8.7088 30.5397C9.0578 30.9774 9.23446 31.5192 9.23446 32.1521V32.6145L9.42084 32.3402C9.79213 31.7938 9.87516 31.7793 12.7689 31.7546C14.1874 31.7425 15.3481 31.7535 15.3481 31.779C15.3481 31.8046 15.1698 32.3885 14.9519 33.0767L14.5558 34.3279L12.4492 34.2877C9.94928 34.24 9.94668 34.2406 9.59146 34.9739C9.47258 35.2193 9.3866 35.4307 9.40041 35.4438C9.41421 35.4569 10.3938 35.7823 11.5773 36.167L13.7291 36.8664L13.3287 38.0661C13.0045 39.0373 12.9004 39.268 12.7817 39.2777C12.7011 39.2842 10.3054 38.5276 7.45781 37.5964ZM7.77158 34.394C7.97993 33.691 7.97817 33.3839 7.76337 32.9591C7.55577 32.5485 7.06259 32.2206 6.54639 32.1501C6.04006 32.0809 5.55672 32.323 5.28887 32.7801C5.11026 33.0849 4.76851 34.0261 4.81978 34.072C4.85533 34.1038 7.43443 34.9324 7.52297 34.9404C7.56939 34.9446 7.68126 34.6987 7.77158 34.394ZM78.4569 35.1518C78.0877 34.7088 77.6191 34.0072 77.3 33.4196C76.3478 31.6661 76.3727 29.7355 77.3676 28.1698C77.7637 27.5464 78.718 26.6459 79.4412 26.2131C82.2859 24.5107 85.1497 24.7857 86.9074 26.9301C87.5611 27.7275 88.1997 29.3377 88.2653 30.3538L88.2913 30.7562L87.336 31.1582L86.3808 31.5601L86.3334 30.9806C86.2718 30.2257 86.1591 29.8279 85.8275 29.194C85.2089 28.0116 84.0556 27.5092 82.6361 27.804C81.1628 28.1099 79.8346 29.0276 79.3005 30.1086C78.687 31.3503 79.0025 32.6559 80.2035 33.8452L80.752 34.3884L80.4331 34.5495C80.2578 34.6381 79.8011 34.8816 79.4183 35.0904L78.7222 35.4702L78.4569 35.1518ZM13.8215 25.6217C11.784 24.1937 10.0817 23.0366 10.0387 23.0505C9.99566 23.0644 9.71973 23.4176 9.42551 23.8354C9.13129 24.2532 8.83106 24.6786 8.75832 24.7809L8.62608 24.9667L7.99412 24.5302C7.64654 24.2901 7.2788 24.0294 7.17692 23.9509L6.99169 23.8082L9.11909 20.7617C10.2892 19.0861 11.2557 17.7033 11.2668 17.6887C11.278 17.6741 11.6516 17.9134 12.097 18.2205C12.5927 18.5623 12.8921 18.817 12.8689 18.8774C12.8481 18.9316 12.5549 19.3679 12.2173 19.8469C11.8797 20.326 11.6035 20.7508 11.6035 20.791C11.6035 20.8312 13.2877 22.0429 15.3463 23.4837C17.8296 25.2218 19.0704 26.134 19.0336 26.1944C18.8197 26.5457 17.6111 28.2226 17.5732 28.2206C17.5473 28.2193 15.859 27.0498 13.8215 25.6217ZM72.485 24.8964L71.4279 23.7912L73.1941 19.881C74.1655 17.7304 74.9507 15.943 74.939 15.9091C74.9273 15.8753 73.6176 17.1042 72.0287 18.6401L69.1396 21.4327L68.347 20.6056L67.5544 19.7786L68.0264 19.3113C68.8741 18.4722 75.3754 12.2158 75.5141 12.1058C75.6368 12.0085 75.7458 12.0994 76.7019 13.096L77.7546 14.1934L76.311 17.5591C75.5171 19.4103 74.7677 21.159 74.6458 21.445L74.4241 21.9652L74.6108 21.8184C74.7134 21.7376 75.9702 20.5406 77.4036 19.1584C78.837 17.7762 80.0333 16.6368 80.062 16.6263C80.0908 16.6158 80.4604 16.9769 80.8834 17.4287L81.6525 18.2502L77.653 22.1094C75.4532 24.232 73.6284 25.976 73.5978 25.9851C73.5672 25.9942 73.0664 25.5043 72.485 24.8964ZM21.5545 21.9373C21.3929 21.7167 21.1168 21.34 20.9409 21.1001C20.765 20.8602 20.6211 20.6349 20.6211 20.5993C20.6211 20.5638 20.8659 20.4582 21.1651 20.3647C22.0435 20.0903 22.5409 19.8178 22.9931 19.3634C23.3945 18.96 23.6015 18.554 23.6015 18.1699C23.6015 17.8925 23.2744 17.3594 22.9879 17.1698C22.5663 16.8907 22.0684 16.9138 20.8314 17.2697C19.9621 17.5197 19.7104 17.5611 19.0545 17.5617C18.391 17.5623 18.2347 17.5363 17.8685 17.3646C17.2133 17.0572 16.5473 16.3916 16.208 15.7051C15.9338 15.1503 15.9212 15.091 15.9212 14.3527C15.9212 13.6165 15.9343 13.5542 16.2033 13.0114C16.5494 12.313 17.0784 11.7098 17.8557 11.1273C18.4361 10.6923 19.7381 9.96128 19.8003 10.0354C20.2844 10.6127 20.988 11.6484 20.9112 11.6706C19.0893 12.1994 17.9999 13.2573 18.3685 14.1398C18.6284 14.7619 19.1657 15.0678 19.8082 14.9596C19.9821 14.9303 20.5238 14.7936 21.0119 14.6558C22.5316 14.227 23.326 14.2344 24.1726 14.6852C24.632 14.9299 25.3264 15.6051 25.6017 16.0747C26.2747 17.2232 26.1702 18.5924 25.3185 19.786C24.7465 20.5875 23.666 21.4305 22.4001 22.0627L21.8484 22.3383L21.5545 21.9373ZM62.1173 16.6371C60.8975 16.3096 59.7348 15.4753 59.1932 14.539C58.9132 14.0548 58.7548 13.4486 58.7548 12.8609C58.7548 11.8604 58.9421 11.3896 60.7882 7.74836C61.7381 5.87469 62.5417 4.31345 62.5739 4.27895C62.6062 4.24445 63.1549 4.47783 63.7933 4.79758L64.9541 5.37895L63.9658 7.30577C61.1826 12.7318 61.2385 12.6109 61.2385 13.2053C61.2385 13.8666 61.4016 14.1344 61.98 14.4226C62.7021 14.7824 63.3754 14.6325 63.8378 14.0088C63.9468 13.8617 64.8302 12.1767 65.801 10.2643C66.7717 8.35184 67.5743 6.77648 67.5846 6.76346C67.6142 6.72581 69.9122 7.89097 69.9122 7.94365C69.9122 7.96975 69.1367 9.51426 68.1888 11.3759C67.1281 13.4591 66.3176 14.9558 66.0812 15.2682C65.6118 15.8882 64.9542 16.3855 64.3207 16.5994C63.75 16.7922 62.7581 16.8091 62.1173 16.6371ZM37.51 13.3636C35.5281 12.8574 34.1193 11.2578 33.5222 8.83573C33.3028 7.9457 33.2809 6.33473 33.4784 5.61869C33.9726 3.82682 35.2597 2.56889 37.1017 2.07764C37.7852 1.89537 39.6345 1.79247 39.9576 1.91872C40.134 1.98763 40.1631 2.06686 40.2902 2.82407C40.3668 3.28048 40.4467 3.74469 40.4678 3.85565L40.5061 4.05739L40.0206 3.9434C39.3787 3.7927 38.3821 3.84882 37.8046 4.06817C36.9607 4.3887 36.4624 4.90776 36.156 5.78565C35.9723 6.31176 35.9736 7.66339 36.1585 8.34823C36.582 9.91747 37.6859 11.0682 38.9152 11.2217C39.6592 11.3147 40.7479 10.9698 41.5661 10.3819C41.7697 10.2357 41.9508 10.1408 41.9686 10.1711C41.9865 10.2013 42.1273 10.6902 42.2816 11.2574L42.5622 12.2888L42.4058 12.4154C42.1869 12.5927 41.2578 12.9699 40.4479 13.2104C39.6028 13.4614 38.1826 13.5354 37.51 13.3636ZM49.6226 12.9026C48.3769 12.6292 47.3306 11.894 46.7377 10.8756C46.1926 9.9391 45.9372 8.45135 46.073 7.0029C46.342 4.13396 47.4897 2.29535 49.4315 1.62249C50.0793 1.39805 51.4303 1.37588 52.1827 1.57734C53.8318 2.0189 54.9172 3.09644 55.3919 4.76324C55.5987 5.48935 55.6742 6.9249 55.5533 7.83074C55.1711 10.6929 53.7699 12.551 51.6972 12.9441C51.1758 13.043 50.1705 13.0229 49.6226 12.9026ZM51.2438 10.9773C51.8841 10.6735 52.3597 9.89654 52.6792 8.63215C53.0265 7.25834 53.0561 5.46484 52.7459 4.60209C52.3501 3.50144 51.2985 3.01969 50.3457 3.5025C49.4361 3.96343 48.8123 5.5779 48.6918 7.78282C48.5992 9.47819 48.9768 10.5184 49.8518 10.9783C50.1592 11.1398 50.9025 11.1393 51.2438 10.9773Z" fill="black"/>
</g>
<defs>
<clipPath id="clip0_69:143">
<rect width="91.1195" height="90.6119" fill="white" transform="translate(0.547852 0.190918)"/>
</clipPath>
</defs>
</svg>
