<svg width="89" height="89" viewBox="0 0 89 89" fill="none" xmlns="http://www.w3.org/2000/svg">
<rect width="89" height="89" rx="5.15942" fill="#F2F4F6"/>
<g clip-path="url(#clip0_880:374)">
<path d="M42.1665 20C47.9953 20 53.2814 22.3512 57.1097 26.1305C60.9387 29.9258 63.2951 35.1496 63.2951 40.9422C63.2951 45.1676 62.0233 49.1164 59.8534 52.4043L68.9997 62.284L62.6901 67.9996L53.8701 58.3816C50.5219 60.5941 46.4914 61.8852 42.1665 61.8852C36.3381 61.8852 31.0521 59.534 27.223 55.7547C23.4758 52.0398 21.1392 46.957 21.0415 41.3121C20.9863 41.1098 20.9867 40.8977 21.0395 40.6973C21.1053 35.0168 23.4636 29.8723 27.223 26.1305C31.0521 22.3355 36.3224 20 42.1665 20ZM23.6918 37.6344C23.9385 37.3961 24.1876 37.1633 24.439 36.9367C29.3164 32.5363 35.1089 30.1855 41.08 30.0672C47.038 29.9492 53.1481 32.0574 58.6738 36.573C59.3844 37.1535 60.0828 37.7711 60.7677 38.4262C60.2022 34.298 58.2663 30.5953 55.4359 27.7898C52.0411 24.4254 47.3442 22.3355 42.1665 22.3355C36.9888 22.3355 32.2919 24.4254 28.8971 27.7902C26.2491 30.4148 24.3839 33.8254 23.6918 37.6344ZM60.6739 44.0676C59.7691 45.0594 58.8035 45.957 57.7875 46.7613C53.3673 50.2586 47.9972 51.9805 42.5579 52.0051C37.1366 52.0293 31.6491 50.3656 26.9727 47.0918C25.8385 46.298 24.7516 45.4094 23.7245 44.4273C24.4418 48.1652 26.2905 51.5109 28.8975 54.0953C32.2923 57.4602 36.9892 59.5496 42.1669 59.5496C47.3442 59.5496 52.0411 57.4602 55.4359 54.0953C58.1264 51.4281 60.0083 47.9504 60.6739 44.0676ZM41.9068 38.9859C42.109 38.9859 42.3041 39.0145 42.4885 39.068C42.3332 39.2371 42.239 39.4617 42.239 39.7082C42.239 40.2344 42.6694 40.6609 43.1998 40.6609C43.46 40.6609 43.6964 40.5582 43.8694 40.3918C43.9364 40.5937 43.9731 40.8098 43.9731 41.034C43.9731 42.1652 43.0481 43.0824 41.9064 43.0824C40.7651 43.0824 39.8397 42.1652 39.8397 41.034C39.8401 39.9027 40.7655 38.9859 41.9068 38.9859ZM41.9068 33.7129C43.9459 33.7129 45.7922 34.5324 47.1294 35.8574C48.4662 37.1824 49.2927 39.0125 49.2927 41.034C49.2927 43.0551 48.4658 44.8855 47.1294 46.2102C45.7922 47.5355 43.9463 48.3547 41.9068 48.3547C39.8673 48.3547 38.021 47.5352 36.6842 46.2102C35.3474 44.8852 34.5205 43.0547 34.5205 41.034C34.5205 39.0125 35.3474 37.1824 36.6842 35.8574C38.0206 34.5324 39.8673 33.7129 41.9068 33.7129ZM45.462 37.5098C44.5528 36.6082 43.2952 36.0504 41.9068 36.0504C40.518 36.0504 39.2604 36.6086 38.3512 37.5098C37.4416 38.4113 36.8788 39.6578 36.8788 41.034C36.8788 42.4102 37.4416 43.6566 38.3512 44.5582C39.2608 45.4598 40.518 46.0176 41.9068 46.0176C43.2956 46.0176 44.5528 45.4594 45.462 44.5582C46.3716 43.6566 46.9343 42.4105 46.9343 41.034C46.9343 39.6574 46.3716 38.4109 45.462 37.5098ZM26.0655 38.7086C25.2749 39.4219 24.5135 40.1891 23.7852 41.0086C25.1701 42.6008 26.7118 43.9769 28.3627 45.1324C32.6289 48.1184 37.6233 49.6367 42.5484 49.6145C47.4546 49.5926 52.2977 48.0398 56.284 44.8863C57.6445 43.8098 58.9056 42.5453 60.0363 41.0902C59.0884 40.1105 58.1221 39.2207 57.1416 38.4203C52.0793 34.2828 46.5198 32.3508 41.1273 32.4574C35.7474 32.5641 30.5054 34.7031 26.0655 38.7086Z" fill="#E35326"/>
</g>
<defs>
<clipPath id="clip0_880:374">
<rect width="48" height="48" fill="white" transform="translate(21 20)"/>
</clipPath>
</defs>
</svg>
