<svg width="56" height="56" viewBox="0 0 56 56" fill="none" xmlns="http://www.w3.org/2000/svg">
<path d="M24.6943 0C31.4945 0 37.6616 2.74303 42.1279 7.15221C46.5952 11.5801 49.3443 17.6745 49.3443 24.4326C49.3443 29.3622 47.8605 33.9691 45.329 37.805L55.9997 49.3313L48.6385 55.9995L38.3485 44.7786C34.4422 47.3598 29.7399 48.866 24.6943 48.866C17.8945 48.866 11.7274 46.123 7.26013 41.7138C2.88849 37.3798 0.162422 31.4499 0.0483949 24.8641C-0.015975 24.6281 -0.0155152 24.3806 0.046096 24.1468C0.12288 17.5196 2.87423 11.5176 7.26013 7.15221C11.7274 2.7248 17.8761 0 24.6943 0ZM3.14045 20.5734C3.42828 20.2954 3.71886 20.0238 4.0122 19.7595C9.70251 14.6257 16.4604 11.8831 23.4266 11.7451C30.3777 11.6074 37.5062 14.067 43.9528 19.3352C44.7818 20.0124 45.5966 20.7329 46.3957 21.4972C45.7359 16.6811 43.4774 12.3612 40.1752 9.08815C36.2146 5.16296 30.7349 2.7248 24.6943 2.7248C18.6536 2.7248 13.1739 5.16296 9.21329 9.08861C6.124 12.1507 3.94783 16.1296 3.14045 20.5734ZM46.2862 28.0788C45.2306 29.2359 44.1041 30.2832 42.9188 31.2215C37.7618 35.3017 31.4968 37.3105 25.1508 37.3393C18.826 37.3675 12.424 35.4266 6.96816 31.6071C5.6449 30.6811 4.37681 29.6443 3.17861 28.4986C4.01542 32.8594 6.17227 36.7628 9.21375 39.7779C13.1743 43.7035 18.6541 46.1412 24.6947 46.1412C30.7349 46.1412 36.2146 43.7035 40.1752 39.7779C43.3142 36.6661 45.5097 32.6088 46.2862 28.0788ZM24.3913 22.1503C24.6271 22.1503 24.8547 22.1835 25.0699 22.246C24.8888 22.4433 24.7789 22.7053 24.7789 22.9929C24.7789 23.6068 25.2809 24.1044 25.8998 24.1044C26.2033 24.1044 26.4791 23.9846 26.681 23.7904C26.7592 24.026 26.8019 24.2781 26.8019 24.5396C26.8019 25.8594 25.7228 26.9295 24.3908 26.9295C23.0593 26.9295 21.9797 25.8594 21.9797 24.5396C21.9801 23.2199 23.0597 22.1503 24.3913 22.1503ZM24.3913 15.9984C26.7702 15.9984 28.9243 16.9545 30.4843 18.5003C32.0439 20.0462 33.0081 22.1812 33.0081 24.5396C33.0081 26.8976 32.0435 29.0331 30.4843 30.5785C28.9243 32.1248 26.7707 33.0805 24.3913 33.0805C22.0119 33.0805 19.8578 32.1243 18.2982 30.5785C16.7386 29.0327 15.774 26.8971 15.774 24.5396C15.774 22.1812 16.7386 20.0462 18.2982 18.5003C19.8573 16.9545 22.0119 15.9984 24.3913 15.9984ZM28.539 20.4281C27.4783 19.3762 26.0111 18.7255 24.3913 18.7255C22.771 18.7255 21.3038 19.3767 20.2431 20.4281C19.1819 21.4799 18.5253 22.9341 18.5253 24.5396C18.5253 26.1452 19.1819 27.5994 20.2431 28.6512C21.3043 29.7031 22.771 30.3538 24.3913 30.3538C26.0115 30.3538 27.4783 29.7026 28.539 28.6512C29.6002 27.5994 30.2567 26.1456 30.2567 24.5396C30.2567 22.9337 29.6002 21.4794 28.539 20.4281ZM5.90974 21.8267C4.98741 22.6589 4.0991 23.5539 3.24942 24.51C4.8651 26.3676 6.66378 27.9731 8.58982 29.3212C13.567 32.8047 19.3939 34.5762 25.1398 34.5502C30.8637 34.5247 36.514 32.7131 41.1647 29.034C42.7519 27.7781 44.2232 26.3029 45.5423 24.6053C44.4365 23.4623 43.3091 22.4242 42.1652 21.4904C36.2592 16.6633 29.773 14.4092 23.4818 14.5337C17.2053 14.6581 11.0897 17.1536 5.90974 21.8267Z" fill="#E35326"/>
</svg>
