<svg width="20" height="20" viewBox="0 0 20 20" fill="none" xmlns="http://www.w3.org/2000/svg">
<path d="M18.3333 15.0042C18.3333 15.4625 17.9617 15.8333 17.5042 15.8333H10.8292C10.6093 15.8333 10.3984 15.746 10.2429 15.5905C10.0874 15.435 10 15.2241 10 15.0042C10 14.7842 10.0874 14.5733 10.2429 14.4178C10.3984 14.2623 10.6093 14.175 10.8292 14.175H17.5042C17.9625 14.175 18.3333 14.5458 18.3333 15.0042V15.0042Z" fill="white"/>
<path d="M18.3333 10C18.3333 10.4583 17.9617 10.8292 17.5042 10.8292H2.49582C2.27591 10.8292 2.06501 10.7418 1.90951 10.5863C1.75401 10.4308 1.66666 10.2199 1.66666 10C1.66666 9.7801 1.75401 9.56919 1.90951 9.41369C2.06501 9.2582 2.27591 9.17084 2.49582 9.17084H17.5042C17.9625 9.17084 18.3333 9.5425 18.3333 10V10Z" fill="white"/>
<path d="M17.5042 5.82499C17.7241 5.82499 17.935 5.73763 18.0905 5.58213C18.246 5.42663 18.3333 5.21573 18.3333 4.99582C18.3333 4.77591 18.246 4.56501 18.0905 4.40951C17.935 4.25401 17.7241 4.16666 17.5042 4.16666H7.49582C7.38694 4.16666 7.27911 4.1881 7.17851 4.22977C7.07792 4.27144 6.98651 4.33252 6.90951 4.40951C6.83252 4.48651 6.77144 4.57792 6.72977 4.67851C6.6881 4.77911 6.66666 4.88694 6.66666 4.99582C6.66666 5.10471 6.6881 5.21253 6.72977 5.31313C6.77144 5.41373 6.83252 5.50514 6.90951 5.58213C6.98651 5.65913 7.07792 5.7202 7.17851 5.76187C7.27911 5.80354 7.38694 5.82499 7.49582 5.82499H17.5042Z" fill="white"/>
</svg>
