<svg width="20" height="20" viewBox="0 0 20 20" fill="none" xmlns="http://www.w3.org/2000/svg">
<path d="M15.8333 5.83333H4.16667C3.24619 5.83333 2.5 6.57952 2.5 7.49999V14.1667C2.5 15.0871 3.24619 15.8333 4.16667 15.8333H15.8333C16.7538 15.8333 17.5 15.0871 17.5 14.1667V7.49999C17.5 6.57952 16.7538 5.83333 15.8333 5.83333Z" stroke="white" stroke-width="1.66667" stroke-linecap="round" stroke-linejoin="round"/>
<path d="M7.5 4.99999C7.5 4.55797 7.6756 4.13404 7.98816 3.82148C8.30072 3.50892 8.72464 3.33333 9.16667 3.33333H10.8333C11.2754 3.33333 11.6993 3.50892 12.0118 3.82148C12.3244 4.13404 12.5 4.55797 12.5 4.99999V5.83333H7.5V4.99999Z" stroke="white" stroke-width="1.66667" stroke-linecap="round" stroke-linejoin="round"/>
<path d="M8.33331 10L8.50915 10.0883C8.97203 10.3198 9.48245 10.4403 9.99998 10.4403C10.5175 10.4403 11.0279 10.3198 11.4908 10.0883L11.6666 10" stroke="white" stroke-width="1.66667" stroke-linecap="round" stroke-linejoin="round"/>
</svg>
