<svg width="60" height="56" viewBox="0 0 60 56" fill="none" xmlns="http://www.w3.org/2000/svg">
<path d="M38 13C37.2089 13 36.4355 13.2346 35.7777 13.6741C35.1199 14.1136 34.6072 14.7384 34.3045 15.4693C34.0017 16.2002 33.9225 17.0044 34.0769 17.7804C34.2312 18.5563 34.6122 19.269 35.1716 19.8284C35.731 20.3878 36.4437 20.7688 37.2196 20.9231C37.9956 21.0775 38.7998 20.9983 39.5307 20.6955C40.2616 20.3928 40.8864 19.8801 41.3259 19.2223C41.7654 18.5645 42 17.7911 42 17C42 15.9391 41.5786 14.9217 40.8284 14.1716C40.0783 13.4214 39.0609 13 38 13ZM38 19C37.6044 19 37.2178 18.8827 36.8889 18.6629C36.56 18.4432 36.3036 18.1308 36.1522 17.7654C36.0009 17.3999 35.9613 16.9978 36.0384 16.6098C36.1156 16.2219 36.3061 15.8655 36.5858 15.5858C36.8655 15.3061 37.2219 15.1156 37.6098 15.0384C37.9978 14.9613 38.3999 15.0009 38.7654 15.1522C39.1308 15.3036 39.4432 15.56 39.6629 15.8889C39.8827 16.2178 40 16.6044 40 17C40 17.5304 39.7893 18.0391 39.4142 18.4142C39.0391 18.7893 38.5304 19 38 19Z" fill="#E35326"/>
<path d="M27 13C26.2089 13 25.4355 13.2346 24.7777 13.6741C24.1199 14.1136 23.6072 14.7384 23.3045 15.4693C23.0017 16.2002 22.9225 17.0044 23.0769 17.7804C23.2312 18.5563 23.6122 19.269 24.1716 19.8284C24.731 20.3878 25.4437 20.7688 26.2196 20.9231C26.9956 21.0775 27.7998 20.9983 28.5307 20.6955C29.2616 20.3928 29.8864 19.8801 30.3259 19.2223C30.7654 18.5645 31 17.7911 31 17C31 15.9391 30.5786 14.9217 29.8284 14.1716C29.0783 13.4214 28.0609 13 27 13ZM27 19C26.6044 19 26.2178 18.8827 25.8889 18.6629C25.56 18.4432 25.3036 18.1308 25.1522 17.7654C25.0009 17.3999 24.9613 16.9978 25.0384 16.6098C25.1156 16.2219 25.3061 15.8655 25.5858 15.5858C25.8655 15.3061 26.2219 15.1156 26.6098 15.0384C26.9978 14.9613 27.3999 15.0009 27.7654 15.1522C28.1308 15.3036 28.4432 15.56 28.6629 15.8889C28.8827 16.2178 29 16.6044 29 17C29 17.5304 28.7893 18.0391 28.4142 18.4142C28.0391 18.7893 27.5304 19 27 19Z" fill="#E35326"/>
<path d="M49 13C48.2089 13 47.4355 13.2346 46.7777 13.6741C46.1199 14.1136 45.6072 14.7384 45.3045 15.4693C45.0017 16.2002 44.9225 17.0044 45.0769 17.7804C45.2312 18.5563 45.6122 19.269 46.1716 19.8284C46.731 20.3878 47.4437 20.7688 48.2196 20.9231C48.9956 21.0775 49.7998 20.9983 50.5307 20.6955C51.2616 20.3928 51.8864 19.8801 52.3259 19.2223C52.7654 18.5645 53 17.7911 53 17C53 15.9391 52.5786 14.9217 51.8284 14.1716C51.0783 13.4214 50.0609 13 49 13ZM49 19C48.6044 19 48.2178 18.8827 47.8889 18.6629C47.56 18.4432 47.3036 18.1308 47.1522 17.7654C47.0009 17.3999 46.9613 16.9978 47.0384 16.6098C47.1156 16.2219 47.3061 15.8655 47.5858 15.5858C47.8655 15.3061 48.2219 15.1156 48.6098 15.0384C48.9978 14.9613 49.3999 15.0009 49.7654 15.1522C50.1308 15.3036 50.4432 15.56 50.6629 15.8889C50.8827 16.2178 51 16.6044 51 17C51 17.5304 50.7893 18.0391 50.4142 18.4142C50.0391 18.7893 49.5304 19 49 19Z" fill="#E35326"/>
<path d="M56.529 0H19.471C18.5469 0.00476307 17.6624 0.375965 17.0117 1.03214C16.3609 1.68832 15.9971 2.57587 16 3.5V31C15.9971 31.9241 16.3609 32.8117 17.0117 33.4679C17.6624 34.124 18.5469 34.4952 19.471 34.5H51.171L58.289 41.7C58.4282 41.8408 58.6061 41.937 58.8001 41.9766C58.9941 42.0162 59.1954 41.9973 59.3787 41.9224C59.5619 41.8474 59.7188 41.7197 59.8294 41.5555C59.94 41.3913 59.9994 41.198 60 41V3.5C60.0029 2.57587 59.6391 1.68832 58.9884 1.03214C58.3376 0.375965 57.4531 0.00476307 56.529 0ZM58 38.565L52.3 32.8C52.2072 32.7053 52.0964 32.63 51.9742 32.5785C51.8519 32.527 51.7207 32.5003 51.588 32.5H19.471C19.0772 32.4955 18.7013 32.3351 18.4256 32.054C18.1498 31.7728 17.9968 31.3938 18 31V3.5C17.9968 3.10621 18.1498 2.72721 18.4256 2.44605C18.7013 2.16488 19.0772 2.00449 19.471 2H56.529C56.9228 2.00449 57.2987 2.16488 57.5745 2.44605C57.8502 2.72721 58.0032 3.10621 58 3.5V38.565Z" fill="#E35326"/>
<path d="M37 39.0001C36.7348 39.0001 36.4804 39.1055 36.2929 39.293C36.1054 39.4806 36 39.7349 36 40.0001V45.0001C35.9898 45.4071 35.8187 45.7934 35.5243 46.0746C35.2298 46.3557 34.836 46.5087 34.429 46.5001H7.312C7.16608 46.5 7.02189 46.5318 6.88957 46.5933C6.75724 46.6548 6.63997 46.7445 6.546 46.8561L2 52.2591V17.5001C2.01023 17.0932 2.18128 16.7068 2.47572 16.4257C2.77016 16.1446 3.16399 15.9915 3.571 16.0001H11.286C11.5512 16.0001 11.8056 15.8948 11.9931 15.7072C12.1806 15.5197 12.286 15.2654 12.286 15.0001C12.286 14.7349 12.1806 14.4806 11.9931 14.293C11.8056 14.1055 11.5512 14.0001 11.286 14.0001H3.571C2.63367 13.9919 1.73132 14.3557 1.06188 15.0118C0.392435 15.668 0.0105553 16.5628 0 17.5001V55.0001C6.20942e-06 55.2052 0.0630644 55.4053 0.180628 55.5734C0.298192 55.7414 0.464577 55.8692 0.657232 55.9395C0.849886 56.0098 1.0595 56.0192 1.25765 55.9663C1.4558 55.9135 1.63292 55.801 1.765 55.6441L7.777 48.5001H34.429C35.3663 48.5084 36.2687 48.1446 36.9381 47.4884C37.6076 46.8323 37.9894 45.9374 38 45.0001V40.0001C38 39.7349 37.8946 39.4806 37.7071 39.293C37.5196 39.1055 37.2652 39.0001 37 39.0001Z" fill="#E35326"/>
</svg>
