<svg width="20" height="20" viewBox="0 0 20 20" fill="none" xmlns="http://www.w3.org/2000/svg">
<path fill-rule="evenodd" clip-rule="evenodd" d="M10.0009 12.661L14.9328 17.7105C15.4276 18.221 15.7495 18.2262 16.2533 17.7105L17.2428 16.6971C17.7276 16.201 17.7605 15.8752 17.2428 15.3452L12.0214 10L17.2433 4.65476C17.7324 4.15238 17.7419 3.81333 17.2433 3.30238L16.2538 2.28952C15.7405 1.76381 15.4233 1.78809 14.9333 2.28952L10.0009 7.33905L5.06903 2.29C4.57903 1.78857 4.26189 1.76429 3.74856 2.29L2.75903 3.30286C2.25998 3.81381 2.26903 4.15286 2.75903 4.65524L7.98046 10L2.75903 15.3452C2.24141 15.8752 2.26903 16.201 2.75903 16.6971L3.74808 17.7105C4.2476 18.2262 4.56951 18.221 5.06856 17.7105L10.0009 12.661V12.661Z" fill="white"/>
</svg>
