<svg width="89" height="89" viewBox="0 0 89 89" fill="none" xmlns="http://www.w3.org/2000/svg">
<rect width="89" height="89" rx="5.15942" fill="#F2F4F6"/>
<g clip-path="url(#clip0_222:556)">
<path d="M42.3382 56.5319C43.3902 57.3168 44.5653 57.9216 45.8154 58.3216C48.4195 59.1452 51.3115 59.0183 54.2128 57.7828C54.4085 57.6962 54.63 57.6873 54.832 57.7581L58.5477 58.9966L58.1297 55.9776C58.1099 55.8315 58.1279 55.6827 58.1821 55.5455C58.2364 55.4083 58.3249 55.2874 58.4393 55.1943C59.2016 54.6042 59.8616 53.8929 60.3931 53.0887C61.1502 51.9536 61.452 50.5751 61.2384 49.2275C60.9667 47.7977 60.3263 46.4635 59.3806 45.3571C59.1948 45.1217 58.9936 44.8926 58.7861 44.6666C58.9706 43.9978 59.1021 43.3155 59.1794 42.6261C59.7351 43.1387 60.2526 43.6913 60.7275 44.2795C61.8586 45.624 62.6205 47.2395 62.9384 48.9674C63.2212 50.7233 62.8368 52.5215 61.8608 54.0083C61.3224 54.8341 60.6663 55.5768 59.9132 56.213L60.4117 60.0525C60.4419 60.2006 60.4328 60.354 60.3851 60.4975C60.3375 60.641 60.253 60.7694 60.1402 60.87C60.0274 60.9706 59.8901 61.0399 59.7422 61.0708C59.5942 61.1018 59.4407 61.0933 59.297 61.0464L54.5781 59.4982C51.6341 60.7449 48.3446 60.9126 45.289 59.972C43.1779 59.288 41.2607 58.1096 39.697 56.535C39.8982 56.535 40.1088 56.5536 40.3348 56.5629C41.0098 56.5814 41.6786 56.5629 42.3351 56.5319H42.3382ZM47.3264 38.9042C47.7179 38.9036 48.1007 39.0191 48.4265 39.2362C48.7523 39.4532 49.0064 39.762 49.1566 40.1235C49.3068 40.485 49.3465 40.8829 49.2705 41.2669C49.1945 41.6509 49.0063 42.0038 48.7297 42.2808C48.4531 42.5578 48.1006 42.7466 47.7167 42.8231C47.3328 42.8997 46.9348 42.8607 46.5731 42.7111C46.2114 42.5614 45.9022 42.3078 45.6846 41.9824C45.4671 41.6569 45.351 41.2743 45.351 40.8828C45.351 40.3586 45.559 39.8558 45.9294 39.4848C46.2998 39.1139 46.8022 38.9051 47.3264 38.9042ZM34.2659 38.9042C34.6574 38.9036 35.0402 39.0191 35.366 39.2362C35.6918 39.4532 35.9459 39.762 36.0961 40.1235C36.2463 40.485 36.286 40.8829 36.21 41.2669C36.134 41.6509 35.9458 42.0038 35.6692 42.2808C35.3926 42.5578 35.0401 42.7466 34.6562 42.8231C34.2723 42.8997 33.8743 42.8607 33.5126 42.7111C33.1508 42.5614 32.8417 42.3078 32.6241 41.9824C32.4066 41.6569 32.2904 41.2743 32.2904 40.8828C32.2904 40.3586 32.4985 39.8558 32.8689 39.4848C33.2392 39.1139 33.7417 38.9051 34.2659 38.9042ZM40.7962 38.9042C41.1876 38.9036 41.5705 39.0191 41.8963 39.2362C42.222 39.4532 42.4761 39.762 42.6264 40.1235C42.7766 40.485 42.8162 40.8829 42.7402 41.2669C42.6642 41.6509 42.476 42.0038 42.1994 42.2808C41.9229 42.5578 41.5703 42.7466 41.1864 42.8231C40.8025 42.8997 40.4045 42.8607 40.0428 42.7111C39.6811 42.5614 39.3719 42.3078 39.1544 41.9824C38.9368 41.6569 38.8207 41.2743 38.8207 40.8828C38.8199 40.3594 39.0268 39.8571 39.396 39.4861C39.7652 39.1151 40.2666 38.9059 40.79 38.9042H40.7962ZM41.1925 27.9988H41.208C45.5243 28.1412 49.3948 29.677 52.1661 32.052C54.9993 34.4795 56.6961 37.7833 56.5815 41.3937C56.47 45.0041 54.5751 48.2057 51.5963 50.4661C48.6826 52.6769 44.7162 53.9836 40.3998 53.8721C39.2293 53.8381 38.0644 53.6971 36.9195 53.451C35.923 53.2373 34.9463 52.94 33.9996 52.5623L26.9306 55.3491L29.2993 49.7168C28.0234 48.6142 26.972 47.2759 26.203 45.7751C25.361 44.139 24.9466 42.3165 24.9985 40.4772C25.113 36.8637 27.008 33.659 29.9867 31.4048C32.9035 29.1847 36.8669 27.8811 41.1863 27.9988H41.1925ZM41.1399 29.965H41.1244C37.2663 29.8566 33.7457 31.0147 31.1726 32.953C28.6615 34.8727 27.0607 37.5449 26.9709 40.5298C26.9304 42.0408 27.27 43.5378 27.9586 44.8833C28.7206 46.3507 29.7918 47.6353 31.0983 48.6485L31.6835 49.1161L30.5534 51.8006L34.0244 50.4351L34.396 50.593C35.3416 50.9954 36.3234 51.3065 37.3282 51.522C38.3593 51.7422 39.408 51.8697 40.4618 51.9028C44.323 52.0143 47.8466 50.8624 50.4197 48.9117C52.9309 47.0043 54.5317 44.3322 54.6215 41.3473C54.7237 38.3531 53.2746 35.5973 50.8842 33.5475C48.4349 31.4482 45.0011 30.0919 41.1461 29.9743L41.1399 29.965Z" fill="#E35326"/>
</g>
<defs>
<clipPath id="clip0_222:556">
<rect width="38.0483" height="33.1033" fill="white" transform="translate(25 28)"/>
</clipPath>
</defs>
</svg>
