<svg width="89" height="89" viewBox="0 0 89 89" fill="none" xmlns="http://www.w3.org/2000/svg">
<rect width="89" height="89" rx="5.15942" fill="#F2F4F6"/>
<g clip-path="url(#clip0_880:385)">
<path d="M40.4419 31.2091C36.0783 31.2091 34.739 31.2482 30.3321 31.2482C29.8137 31.2482 29.3384 31.2872 28.9064 31.3653C28.4311 31.4434 27.9991 31.5606 27.6103 31.7168C27.1782 31.8731 26.7894 32.0683 26.4005 32.3027C26.0117 32.537 25.6661 32.8104 25.3204 33.1229C24.9748 33.4353 24.6724 33.7478 24.4131 34.0993C24.1539 34.4508 23.9379 34.8023 23.7651 35.1928C23.5923 35.5834 23.4626 35.974 23.3762 36.3645C23.2898 36.7941 23.2466 37.2238 23.2466 37.6534V50.6591C23.2466 51.1277 23.2898 51.5574 23.3762 51.9479C23.4626 52.3775 23.5923 52.7681 23.7651 53.1196C23.9379 53.5102 24.1539 53.8617 24.4131 54.2132C24.6724 54.5647 24.9748 54.8771 25.3204 55.1896C25.6661 55.502 26.0549 55.7754 26.4437 56.0098C26.8326 56.2441 27.2214 56.4394 27.6535 56.5956C28.0855 56.7518 28.5176 56.869 28.9496 56.9471C29.4248 57.0252 29.9001 57.0643 30.3753 57.0643H35.8191C35.9919 57.0643 36.1647 57.1033 36.2943 57.1814C36.4239 57.2596 36.5536 57.3377 36.6832 57.4548C37.1152 57.9626 37.5473 58.4703 38.0225 58.939C38.4977 59.4076 38.973 59.8763 39.5347 60.3059C40.0531 60.7356 40.5716 61.1652 41.1764 61.5557C41.7381 61.9463 42.3429 62.3369 42.9046 62.6884C43.4662 63.0399 44.0711 63.3523 44.7192 63.6648C45.324 63.9772 45.9721 64.2506 46.6202 64.524C46.7066 64.5631 46.793 64.5631 46.8362 64.524C46.9658 64.4459 47.009 64.3287 46.9226 64.2116C46.793 64.0163 46.7066 63.8601 46.577 63.6648C46.4905 63.4695 46.3609 63.3133 46.2745 63.118C46.1017 62.7274 45.9289 62.3759 45.7561 61.9854C45.5833 61.5948 45.4104 61.2042 45.2808 60.7746C45.1512 60.3841 44.9784 59.9935 44.8488 59.6029C44.7192 59.2124 44.5896 58.8218 44.4599 58.3922C44.4167 58.275 44.4167 58.1579 44.4167 58.0407C44.4167 57.7673 44.5464 57.533 44.7192 57.3377C44.9352 57.1424 45.1944 57.0252 45.4968 57.0252H51.8479C52.3663 57.0252 52.8416 56.9862 53.2736 56.9081C53.7057 56.8299 54.1377 56.7128 54.5698 56.5565C54.9586 56.4003 55.3906 56.205 55.7363 55.9707C56.1251 55.7364 56.514 55.463 56.8596 55.1115C57.2052 54.799 57.5076 54.4866 57.7669 54.1351C58.0261 53.7836 58.2421 53.4321 58.4149 53.0415C58.5878 52.6509 58.7174 52.2604 58.8038 51.8698C58.8902 51.4402 58.9334 51.0106 58.9334 50.581V47.9251C58.9334 46.5972 60.8344 46.5972 61.18 47.5346V50.581C61.18 51.1668 61.1368 51.7136 61.0072 52.2604C60.8776 52.8072 60.7048 53.3149 60.4888 53.8617C60.2727 54.3694 59.9703 54.8381 59.6247 55.3068C59.279 55.7754 58.8902 56.205 58.4149 56.5956C57.9829 57.0252 57.4644 57.3767 56.9892 57.6892C56.4707 58.0016 55.9523 58.236 55.4338 58.4703C54.8722 58.6656 54.2673 58.8218 53.7057 58.939C53.1008 59.0561 52.4959 59.0952 51.8479 59.0952H47.3546C47.3114 59.0952 47.3114 59.0952 47.2682 59.0952C47.1386 59.1343 47.0522 59.2514 47.0954 59.3686C47.1818 59.6029 47.2682 59.8763 47.3546 60.1497C47.4842 60.5012 47.6571 60.8918 47.8299 61.2433C48.0027 61.5948 48.1323 61.9463 48.3051 62.2587V62.2978C48.4779 62.6493 48.6508 62.9618 48.8668 63.3133C49.0828 63.6257 49.342 63.9772 49.6013 64.2897C49.8605 64.6021 50.1629 64.9146 50.5086 65.2661C50.8542 65.5785 51.1998 65.93 51.6319 66.2034C51.8479 66.3987 51.9775 66.633 52.0207 66.9064C52.0207 67.1408 51.9343 67.4142 51.7615 67.6094C51.6319 67.7657 51.459 67.8438 51.243 67.8828C51.0702 67.9219 50.8542 67.9219 50.6382 67.8828C49.8173 67.6875 48.9964 67.4532 48.2187 67.2189C47.441 66.9845 46.6634 66.7111 45.9289 66.3987C45.1944 66.1253 44.4599 65.7738 43.7687 65.4613C43.0774 65.1098 42.3861 64.7583 41.7381 64.3678C41.09 63.9772 40.4419 63.5867 39.8371 63.157C39.2322 62.7274 38.6274 62.2587 38.0657 61.7901C37.5905 61.3995 37.1152 60.9699 36.6832 60.5012C36.2511 60.0716 35.7759 59.6029 35.387 59.1343C35.3438 59.0561 35.2574 59.0171 35.171 59.0171H30.3321C29.6841 59.0171 29.0792 58.978 28.4743 58.8609C27.8695 58.7437 27.3078 58.5875 26.7462 58.3922C26.1845 58.1969 25.6661 57.9235 25.1476 57.6111C24.6292 57.2986 24.1539 56.9471 23.7219 56.5565C23.2466 56.1269 22.8578 55.6973 22.5122 55.2677C22.1665 54.799 21.8641 54.3303 21.6481 53.8226C21.432 53.3149 21.2592 52.8072 21.1296 52.2604C21.0432 51.7917 21 51.2449 21 50.6591V37.5753C21 36.9894 21.0432 36.4426 21.1728 35.8959C21.3024 35.3491 21.4752 34.8413 21.6913 34.3336C21.9073 33.8259 22.2097 33.3572 22.5554 32.8885C22.901 32.4199 23.2898 31.9902 23.7651 31.5997C24.2403 31.1701 24.7156 30.8186 25.1908 30.5061C25.7093 30.1937 26.2277 29.9593 26.7462 29.725C27.3078 29.5297 27.9127 29.3735 28.5176 29.2563C29.1224 29.1391 29.7273 29.1001 30.3753 29.1001C34.9118 29.1001 36.4239 29.1001 40.9604 29.1001C42.0405 29.3735 42.0837 31.2091 40.4419 31.2091ZM46.1017 33.24C45.8857 33.6306 45.8425 34.1774 45.8857 34.6851C45.9289 34.9194 45.9721 35.1538 46.0153 35.3881C46.1017 35.6225 46.1881 35.8959 46.2745 36.1302C46.4041 36.3645 46.5338 36.5989 46.6634 36.8332C46.793 37.0285 46.9658 37.2628 47.1386 37.419C47.5707 37.8487 48.0459 38.2002 48.6076 38.3173C49.6013 38.5907 51.3294 37.8096 52.2367 37.5362C52.4095 37.4972 52.6256 37.4972 52.7552 37.5753C52.928 37.6534 53.0576 37.7705 53.144 37.9268C53.144 37.9658 53.144 37.9658 53.1872 38.0049C53.2304 38.1611 53.3168 38.3173 53.36 38.4736C53.7921 39.6452 54.1809 40.7779 54.6562 41.6762C54.6994 41.7543 54.7426 41.8714 54.7858 41.9496V41.9886C54.9154 42.262 55.0882 42.5354 55.261 42.8088C55.4338 43.0822 55.5635 43.2775 55.7363 43.4337C55.8227 43.5118 55.9523 43.5899 56.0819 43.5899C56.2115 43.5899 56.3843 43.5118 56.6436 43.3165C56.73 43.1993 56.8596 43.1212 56.9892 43.0041C57.0756 42.926 57.2052 42.8088 57.378 42.6526C57.8533 42.262 58.5446 41.6762 58.8038 41.3637L58.6742 41.3247C57.2052 40.895 57.2916 40.192 57.378 39.5671C57.4212 39.3718 57.4212 39.1766 57.378 39.0594C57.378 39.0203 57.3348 39.0594 57.2484 38.9813C57.2052 38.9422 57.162 38.9422 57.1188 38.9032C56.9028 38.747 56.7732 38.5907 56.6436 38.3954C56.514 38.1611 56.4707 37.9268 56.4275 37.6924C56.3843 37.4581 56.4275 37.1847 56.4707 36.9504C56.514 36.6379 56.6004 36.3645 56.6868 36.1302C56.73 36.013 56.7732 35.9349 56.8596 35.8568C56.946 35.7787 57.0756 35.7396 57.2052 35.7006C60.2295 35.0757 61.7849 35.5834 63.2538 36.0521C63.4698 36.1302 63.7291 36.2083 63.9451 36.2864C63.297 35.7006 62.7354 35.0366 62.1737 34.2945C61.2664 33.1229 60.4888 31.834 59.8407 30.5061C59.1494 29.1782 58.631 27.8112 58.2421 26.5224C57.9829 25.6241 57.7669 24.7258 57.6805 23.9447C57.0324 24.9601 56.1251 26.1709 54.829 27.4207C53.6193 28.4361 46.577 32.2636 46.1017 33.24ZM64.1611 30.2327C64.2043 30.7404 64.0315 31.4434 63.7291 32.0293C63.5131 32.4589 63.2538 32.8104 62.9946 33.0057C63.5563 33.7868 64.2043 34.5289 64.8524 35.1538C65.5005 35.7787 66.1485 36.2864 66.8398 36.677H66.883C66.883 36.677 66.9262 36.677 66.9694 36.677C67.0126 36.677 67.0558 36.677 67.099 36.6379C67.1422 36.6379 67.1854 36.5989 67.1854 36.5989C67.315 36.4817 67.4014 36.3255 67.4446 36.1302C67.5311 35.8959 67.5743 35.6615 67.5743 35.3881C67.6175 34.5289 67.4446 33.4744 67.099 32.3027C66.7102 31.0138 66.1053 29.6078 65.414 28.2408C64.7228 26.9129 63.9019 25.585 63.081 24.4915C62.3033 23.4369 61.4824 22.5386 60.748 21.9528C60.4887 21.7185 60.1863 21.5622 59.9703 21.4451C59.7543 21.3279 59.5815 21.2889 59.4086 21.2889H59.3654C59.3222 21.3279 59.279 21.367 59.2358 21.4451C58.9766 22.0309 58.9766 22.9683 59.1494 24.1009C59.3222 25.2335 59.7111 26.5224 60.2295 27.8503C60.3591 27.8112 60.4455 27.8112 60.6184 27.8112C61.0936 27.7722 61.6985 27.8112 62.3033 28.0065C62.9082 28.2018 63.5131 28.5533 63.8587 29.1391C63.9883 29.4125 64.1179 29.764 64.1611 30.2327ZM66.7966 38.0049C66.7534 38.0049 66.667 38.0049 66.6238 38.0049C66.5806 38.0049 66.4941 38.0049 66.4509 37.9658L66.2349 37.9268C65.7165 37.8877 65.1548 37.7705 64.5932 37.6924H64.55C63.9451 37.5753 63.4266 37.419 62.9082 37.2238C61.6985 36.7941 60.4023 36.3255 57.9397 36.7941C57.8965 36.9113 57.8965 36.9894 57.8965 37.1066C57.8965 37.2238 57.8533 37.38 57.8965 37.4972C57.8965 37.5753 57.9397 37.6534 57.9397 37.7315C57.9397 37.7705 57.9829 37.8096 57.9829 37.8096L58.0261 37.8487C58.3717 38.083 58.5446 38.2002 58.6742 38.5126C58.8038 38.786 58.7606 39.0594 58.7606 39.3328C58.7174 39.6062 58.7174 39.8796 59.063 39.9967C59.495 40.1139 59.9271 40.2701 60.1863 40.7779C60.2295 40.8169 60.2295 40.895 60.2727 40.9341C60.2727 40.9731 60.2727 41.0513 60.2727 41.0903C60.1863 41.8324 58.9766 42.8869 58.2853 43.4727C58.1557 43.5899 58.0261 43.7071 57.9397 43.7852L57.8965 43.8242C57.8101 43.9024 57.7237 43.9805 57.6373 44.0586V44.2148C57.0756 44.7225 56.514 44.9178 56.0387 44.9178C55.5203 44.9178 55.0882 44.6835 54.6994 44.332C54.4401 44.0976 54.2241 43.7852 54.0081 43.4727C53.8353 43.1603 53.6625 42.8478 53.4896 42.4963C53.4464 42.4182 53.4032 42.3011 53.36 42.2229C52.8848 41.2856 52.4527 40.192 52.0639 39.0203C50.811 39.489 49.6445 39.9967 48.2187 39.6062C47.3978 39.3718 46.7066 38.9032 46.1017 38.3173C45.8857 38.083 45.6697 37.8096 45.4968 37.5362C45.324 37.2628 45.1512 36.9894 45.0216 36.677C44.892 36.3645 44.7624 36.0911 44.676 35.7787C44.5896 35.4662 44.5032 35.1538 44.5032 34.8413C44.4167 34.0602 44.5031 33.3181 44.8056 32.6932C45.7129 30.8967 51.6751 28.5533 54.0081 26.2099C55.5635 24.6086 56.4707 23.1245 57.1188 22.0309V21.9919C57.5076 21.367 57.8101 20.8592 58.1125 20.5077C58.1989 20.4296 58.2853 20.3515 58.3717 20.2734C58.4581 20.1953 58.5446 20.1562 58.6742 20.0781C58.8038 20.0781 58.8902 20.0391 59.0198 20C59.1494 20 59.279 20 59.4086 20C59.7543 20.0391 60.0999 20.1172 60.4888 20.2734C60.8776 20.4296 61.2232 20.664 61.6121 20.9764C62.4329 21.6404 63.3402 22.5777 64.2043 23.7103C65.1116 24.882 65.9325 26.249 66.667 27.655C67.4014 29.1001 68.0495 30.5842 68.4815 31.9902C68.8704 33.2791 69.0432 34.4508 69 35.4272C68.9568 35.8568 68.8704 36.2083 68.7408 36.5598C68.6112 36.9113 68.4383 37.1847 68.1791 37.4581L68.1359 37.4972L68.0927 37.5753C67.9199 37.6924 67.7471 37.7705 67.5743 37.8487C67.4014 37.9268 67.2286 37.9658 67.099 37.9658C67.0558 37.9658 66.9694 37.9658 66.9262 37.9658L66.7966 38.0049ZM49.3852 51.284C49.9469 51.284 50.4221 50.8544 50.4221 50.3466C50.4221 49.8389 49.9469 49.4093 49.3852 49.4093L38.2817 49.2531L36.1647 49.1359C35.6031 49.0968 35.0846 49.4874 35.0414 50.0342C34.9982 50.5419 35.4302 51.0106 36.0351 51.0496L38.1521 51.1668C38.1953 51.1277 48.4347 51.2449 49.3852 51.284ZM46.0585 45.3474C46.6202 45.3474 47.0954 44.9178 47.0954 44.4101C47.0954 43.9024 46.6202 43.4727 46.0585 43.4727H31.0666C30.5049 43.4727 30.0297 43.9024 30.0297 44.4101C30.0297 44.9178 30.5049 45.3474 31.0666 45.3474H46.0585ZM41.3924 39.6843C41.9541 39.6843 42.4293 39.2547 42.4293 38.7469C42.4293 38.2392 41.9541 37.8096 41.3924 37.8096H31.0666C30.5049 37.8096 30.0297 38.2392 30.0297 38.7469C30.0297 39.2547 30.5049 39.6843 31.0666 39.6843H41.3924Z" fill="#E35326"/>
</g>
<defs>
<clipPath id="clip0_880:385">
<rect width="48" height="48" fill="white" transform="translate(21 20)"/>
</clipPath>
</defs>
</svg>
