<svg width="65" height="72" viewBox="0 0 65 72" fill="none" xmlns="http://www.w3.org/2000/svg">
<path d="M26.3317 16.6455C20.4739 16.6455 18.6759 16.7035 12.7601 16.7035C12.0641 16.7035 11.4261 16.7615 10.8461 16.8775C10.2081 16.9935 9.62816 17.1675 9.10618 17.3995C8.52619 17.6315 8.00421 17.9215 7.48222 18.2695C6.96024 18.6175 6.49625 19.0235 6.03226 19.4875C5.56827 19.9514 5.16228 20.4154 4.81429 20.9374C4.4663 21.4594 4.17631 21.9814 3.94432 22.5614C3.71233 23.1414 3.53833 23.7213 3.42233 24.3013C3.30634 24.9393 3.24834 25.5773 3.24834 26.2153V45.5287C3.24834 46.2247 3.30634 46.8627 3.42233 47.4427C3.53833 48.0807 3.71233 48.6606 3.94432 49.1826C4.17631 49.7626 4.4663 50.2846 4.81429 50.8066C5.16228 51.3286 5.56827 51.7926 6.03226 52.2565C6.49625 52.7205 7.01823 53.1265 7.54022 53.4745C8.0622 53.8225 8.58419 54.1125 9.16417 54.3445C9.74416 54.5765 10.3241 54.7505 10.9041 54.8665C11.5421 54.9825 12.1801 55.0405 12.8181 55.0405H20.1259C20.3579 55.0405 20.5899 55.0985 20.7639 55.2145C20.9378 55.3305 21.1118 55.4465 21.2858 55.6205C21.8658 56.3744 22.4458 57.1284 23.0838 57.8244C23.7218 58.5204 24.3598 59.2164 25.1137 59.8543C25.8097 60.4923 26.5057 61.1303 27.3177 61.7103C28.0716 62.2903 28.8836 62.8703 29.6376 63.3922C30.3916 63.9142 31.2036 64.3782 32.0735 64.8422C32.8855 65.3062 33.7555 65.7122 34.6255 66.1182C34.7415 66.1762 34.8575 66.1762 34.9155 66.1182C35.0895 66.0022 35.1475 65.8282 35.0315 65.6542C34.8575 65.3642 34.7415 65.1322 34.5675 64.8422C34.4515 64.5522 34.2775 64.3202 34.1615 64.0302C33.9295 63.4502 33.6975 62.9283 33.4655 62.3483C33.2335 61.7683 33.0015 61.1883 32.8275 60.5503C32.6535 59.9703 32.4215 59.3904 32.2475 58.8104C32.0735 58.2304 31.8995 57.6504 31.7255 57.0124C31.6675 56.8384 31.6675 56.6644 31.6675 56.4904C31.6675 56.0844 31.8415 55.7365 32.0735 55.4465C32.3635 55.1565 32.7115 54.9825 33.1175 54.9825H41.6433C42.3393 54.9825 42.9772 54.9245 43.5572 54.8085C44.1372 54.6925 44.7172 54.5185 45.2972 54.2865C45.8192 54.0545 46.3991 53.7645 46.8631 53.4165C47.3851 53.0685 47.9071 52.6625 48.3711 52.1406C48.8351 51.6766 49.2411 51.2126 49.5891 50.6906C49.937 50.1686 50.227 49.6466 50.459 49.0666C50.691 48.4867 50.865 47.9067 50.981 47.3267C51.097 46.6887 51.155 46.0507 51.155 45.4127V41.4688C51.155 39.4969 53.7069 39.4969 54.1709 40.8889V45.4127C54.1709 46.2827 54.1129 47.0947 53.9389 47.9067C53.7649 48.7186 53.5329 49.4726 53.243 50.2846C52.953 51.0386 52.547 51.7346 52.083 52.4305C51.619 53.1265 51.097 53.7645 50.459 54.3445C49.879 54.9825 49.1831 55.5045 48.5451 55.9684C47.8491 56.4324 47.1531 56.7804 46.4571 57.1284C45.7032 57.4184 44.8912 57.6504 44.1372 57.8244C43.3252 57.9984 42.5132 58.0564 41.6433 58.0564H35.6114C35.5534 58.0564 35.5534 58.0564 35.4954 58.0564C35.3214 58.1144 35.2055 58.2884 35.2635 58.4624C35.3794 58.8104 35.4954 59.2164 35.6114 59.6223C35.7854 60.1443 36.0174 60.7243 36.2494 61.2463C36.4814 61.7683 36.6554 62.2903 36.8874 62.7543V62.8123C37.1194 63.3342 37.3514 63.7982 37.6414 64.3202C37.9314 64.7842 38.2794 65.3062 38.6274 65.7702C38.9753 66.2342 39.3813 66.6982 39.8453 67.2201C40.3093 67.6841 40.7733 68.2061 41.3533 68.6121C41.6433 68.9021 41.8173 69.2501 41.8753 69.6561C41.8753 70.0041 41.7593 70.41 41.5273 70.7C41.3533 70.932 41.1213 71.048 40.8313 71.106C40.5993 71.164 40.3093 71.164 40.0193 71.106C38.9173 70.816 37.8154 70.468 36.7714 70.1201C35.7274 69.7721 34.6835 69.3661 33.6975 68.9021C32.7115 68.4961 31.7255 67.9741 30.7976 67.5101C29.8696 66.9881 28.9416 66.4662 28.0716 65.8862C27.2017 65.3062 26.3317 64.7262 25.5197 64.0882C24.7077 63.4502 23.8958 62.7543 23.1418 62.0583C22.5038 61.4783 21.8658 60.8403 21.2858 60.1443C20.7059 59.5063 20.0679 58.8104 19.5459 58.1144C19.4879 57.9984 19.3719 57.9404 19.2559 57.9404H12.7601C11.8901 57.9404 11.0781 57.8824 10.2661 57.7084C9.45417 57.5344 8.70019 57.3024 7.94621 57.0124C7.19223 56.7224 6.49625 56.3164 5.80027 55.8525C5.10429 55.3885 4.4663 54.8665 3.88632 54.2865C3.24834 53.6485 2.72635 53.0105 2.26237 52.3725C1.79838 51.6766 1.39239 50.9806 1.1024 50.2266C0.812406 49.4726 0.580412 48.7186 0.406417 47.9067C0.29042 47.2107 0.232422 46.3987 0.232422 45.5287V26.0993C0.232422 25.2293 0.29042 24.4173 0.464415 23.6053C0.638411 22.7934 0.870404 22.0394 1.1604 21.2854C1.45039 20.5314 1.85638 19.8354 2.32036 19.1395C2.78435 18.4435 3.30634 17.8055 3.94432 17.2255C4.5823 16.5875 5.22028 16.0656 5.85827 15.6016C6.55425 15.1376 7.25023 14.7896 7.94621 14.4416C8.70019 14.1516 9.51216 13.9196 10.3241 13.7456C11.1361 13.5716 11.9481 13.5136 12.8181 13.5136C18.9079 13.5136 20.9378 13.5136 27.0277 13.5136C28.4776 13.9196 28.5356 16.6455 26.3317 16.6455ZM33.9295 19.6615C33.6395 20.2414 33.5815 21.0534 33.6395 21.8074C33.6975 22.1554 33.7555 22.5034 33.8135 22.8514C33.9295 23.1994 34.0455 23.6053 34.1615 23.9533C34.3355 24.3013 34.5095 24.6493 34.6835 24.9973C34.8575 25.2873 35.0895 25.6353 35.3214 25.8673C35.9014 26.5053 36.5394 27.0273 37.2934 27.2012C38.6274 27.6072 40.9473 26.4473 42.1653 26.0413C42.3973 25.9833 42.6872 25.9833 42.8612 26.0993C43.0932 26.2153 43.2672 26.3893 43.3832 26.6213C43.3832 26.6793 43.3832 26.6793 43.4412 26.7373C43.4992 26.9692 43.6152 27.2012 43.6732 27.4332C44.2532 29.1732 44.7752 30.8551 45.4132 32.1891C45.4712 32.3051 45.5292 32.4791 45.5872 32.5951V32.6531C45.7612 33.0591 45.9932 33.4651 46.2251 33.8711C46.4571 34.2771 46.6311 34.567 46.8631 34.799C46.9791 34.915 47.1531 35.031 47.3271 35.031C47.5011 35.031 47.7331 34.915 48.0811 34.625C48.1971 34.451 48.3711 34.335 48.5451 34.1611C48.6611 34.0451 48.8351 33.8711 49.0671 33.6391C49.705 33.0591 50.633 32.1891 50.981 31.7251L50.807 31.6671C48.8351 31.0291 48.9511 29.9852 49.0671 29.0572C49.1251 28.7672 49.1251 28.4772 49.0671 28.3032C49.0671 28.2452 49.0091 28.3032 48.8931 28.1872C48.8351 28.1292 48.7771 28.1292 48.7191 28.0712C48.4291 27.8392 48.2551 27.6072 48.0811 27.3172C47.9071 26.9692 47.8491 26.6213 47.7911 26.2733C47.7331 25.9253 47.7911 25.5193 47.8491 25.1713C47.9071 24.7073 48.0231 24.3013 48.1391 23.9533C48.1971 23.7793 48.2551 23.6633 48.3711 23.5473C48.4871 23.4313 48.6611 23.3734 48.8351 23.3154C52.895 22.3874 54.9829 23.1414 56.9548 23.8373C57.2448 23.9533 57.5928 24.0693 57.8828 24.1853C57.0128 23.3154 56.2589 22.3294 55.5049 21.2274C54.2869 19.4875 53.243 17.5735 52.373 15.6016C51.445 13.6296 50.749 11.5997 50.227 9.68573C49.879 8.35177 49.5891 7.01781 49.4731 5.85784C48.6031 7.3658 47.3851 9.16375 45.6452 11.0197C44.0212 12.5277 34.5675 18.2115 33.9295 19.6615ZM58.1728 15.1956C58.2308 15.9496 57.9988 16.9935 57.5928 17.8635C57.3028 18.5015 56.9548 19.0235 56.6069 19.3135C57.3608 20.4734 58.2308 21.5754 59.1008 22.5034C59.9708 23.4313 60.8407 24.1853 61.7687 24.7653H61.8267C61.8267 24.7653 61.8847 24.7653 61.9427 24.7653C62.0007 24.7653 62.0587 24.7653 62.1167 24.7073C62.1747 24.7073 62.2327 24.6493 62.2327 24.6493C62.4067 24.4753 62.5227 24.2433 62.5807 23.9533C62.6967 23.6053 62.7547 23.2574 62.7547 22.8514C62.8127 21.5754 62.5807 20.0094 62.1167 18.2695C61.5947 16.3555 60.7827 14.2676 59.8548 12.2377C58.9268 10.2657 57.8248 8.29377 56.7229 6.66981C55.6789 5.10386 54.5769 3.7699 53.5909 2.89992C53.243 2.55193 52.837 2.31994 52.547 2.14594C52.257 1.97195 52.025 1.91395 51.793 1.91395H51.735C51.677 1.97195 51.619 2.02994 51.561 2.14594C51.213 3.01592 51.213 4.40788 51.445 6.08983C51.677 7.77178 52.199 9.68573 52.895 11.6577C53.069 11.5997 53.1849 11.5997 53.4169 11.5997C54.0549 11.5417 54.8669 11.5997 55.6789 11.8897C56.4909 12.1797 57.3028 12.7016 57.7668 13.5716C57.9408 13.9776 58.1148 14.4996 58.1728 15.1956ZM61.7107 26.7373C61.6527 26.7373 61.5367 26.7373 61.4787 26.7373C61.4207 26.7373 61.3047 26.7373 61.2467 26.6793L60.9567 26.6213C60.2608 26.5633 59.5068 26.3893 58.7528 26.2733H58.6948C57.8828 26.0993 57.1868 25.8673 56.4909 25.5773C54.8669 24.9393 53.127 24.2433 49.821 24.9393C49.763 25.1133 49.763 25.2293 49.763 25.4033C49.763 25.5773 49.705 25.8093 49.763 25.9833C49.763 26.0993 49.821 26.2153 49.821 26.3313C49.821 26.3893 49.879 26.4473 49.879 26.4473L49.937 26.5053C50.401 26.8533 50.633 27.0273 50.807 27.4912C50.981 27.8972 50.923 28.3032 50.923 28.7092C50.865 29.1152 50.865 29.5212 51.329 29.6952C51.909 29.8692 52.489 30.1012 52.837 30.8551C52.895 30.9131 52.895 31.0291 52.953 31.0871C52.953 31.1451 52.953 31.2611 52.953 31.3191C52.837 32.4211 51.213 33.9871 50.285 34.857C50.111 35.031 49.937 35.205 49.821 35.321L49.763 35.379C49.647 35.495 49.5311 35.611 49.4151 35.727V35.959C48.6611 36.713 47.9071 37.003 47.2691 37.003C46.5731 37.003 45.9932 36.655 45.4712 36.133C45.1232 35.785 44.8332 35.321 44.5432 34.857C44.3112 34.393 44.0792 33.9291 43.8472 33.4071C43.7892 33.2911 43.7312 33.1171 43.6732 33.0011C43.0352 31.6091 42.4552 29.9852 41.9333 28.2452C40.2513 28.9412 38.6854 29.6952 36.7714 29.1152C35.6694 28.7672 34.7415 28.0712 33.9295 27.2012C33.6395 26.8533 33.3495 26.4473 33.1175 26.0413C32.8855 25.6353 32.6535 25.2293 32.4795 24.7653C32.3055 24.3013 32.1315 23.8953 32.0155 23.4314C31.8995 22.9674 31.7835 22.5034 31.7835 22.0394C31.6675 20.8794 31.7835 19.7775 32.1895 18.8495C33.4075 16.1816 41.4113 12.7016 44.5432 9.22174C46.6311 6.84381 47.8491 4.63987 48.7191 3.01592V2.95792C49.2411 2.02994 49.647 1.27596 50.053 0.753979C50.169 0.637982 50.285 0.521985 50.401 0.405989C50.517 0.289992 50.633 0.231994 50.807 0.115997C50.981 0.115997 51.097 0.0579984 51.271 0C51.445 0 51.619 0 51.793 0C52.257 0.0579984 52.721 0.173995 53.243 0.405989C53.7649 0.637982 54.2289 0.985973 54.7509 1.44996C55.8529 2.43593 57.0708 3.82789 58.2308 5.50985C59.4488 7.2498 60.5507 9.27974 61.5367 11.3677C62.5227 13.5136 63.3927 15.7176 63.9727 17.8055C64.4946 19.7195 64.7266 21.4594 64.6686 22.9094C64.6106 23.5473 64.4946 24.0693 64.3206 24.5913C64.1466 25.1133 63.9146 25.5193 63.5667 25.9253L63.5087 25.9833L63.4507 26.0993C63.2187 26.2733 62.9867 26.3893 62.7547 26.5053C62.5227 26.6213 62.2907 26.6793 62.1167 26.6793C62.0587 26.6793 61.9427 26.6793 61.8847 26.6793L61.7107 26.7373ZM38.3374 46.4567C39.0913 46.4567 39.7293 45.8187 39.7293 45.0647C39.7293 44.3108 39.0913 43.6728 38.3374 43.6728L23.4318 43.4408L20.5899 43.2668C19.8359 43.2088 19.1399 43.7888 19.0819 44.6008C19.0239 45.3547 19.6039 46.0507 20.4159 46.1087L23.2578 46.2827C23.3158 46.2247 37.0614 46.3987 38.3374 46.4567ZM33.8715 37.641C34.6255 37.641 35.2635 37.003 35.2635 36.249C35.2635 35.495 34.6255 34.857 33.8715 34.857H13.746C12.9921 34.857 12.3541 35.495 12.3541 36.249C12.3541 37.003 12.9921 37.641 13.746 37.641H33.8715ZM27.6077 29.2312C28.3616 29.2312 28.9996 28.5932 28.9996 27.8392C28.9996 27.0852 28.3616 26.4473 27.6077 26.4473H13.746C12.9921 26.4473 12.3541 27.0852 12.3541 27.8392C12.3541 28.5932 12.9921 29.2312 13.746 29.2312H27.6077Z" fill="#E35326"/>
</svg>
