<svg width="89" height="89" viewBox="0 0 89 89" fill="none" xmlns="http://www.w3.org/2000/svg">
<rect width="89" height="89" rx="5.15942" fill="#F2F4F6"/>
<g clip-path="url(#clip0_222:558)">
<path d="M25.0308 44.3546C24.9003 44.3591 24.7701 44.3377 24.6478 44.2919C24.5255 44.246 24.4135 44.1765 24.3181 44.0873C24.2213 43.9951 24.1438 43.8846 24.09 43.7623C24.0361 43.64 24.0071 43.5082 24.0044 43.3746C24.0002 43.2432 24.0219 43.1123 24.0683 42.9894C24.1148 42.8664 24.1851 42.7539 24.2751 42.6582C24.3652 42.5625 24.4733 42.4855 24.5932 42.4317C24.7131 42.3779 24.8424 42.3483 24.9738 42.3446L28.0565 42.2377C28.3204 42.2312 28.5763 42.3285 28.7693 42.5085C28.9127 42.6442 29.0129 42.8191 29.0572 43.0115C29.1015 43.2039 29.0879 43.4051 29.0182 43.5897C28.9485 43.7744 28.8258 43.9344 28.6655 44.0496C28.5052 44.1647 28.3144 44.2299 28.1171 44.237L25.0308 44.3404V44.3546ZM48.2707 37.4051C48.5303 37.401 48.7886 37.4432 49.0333 37.5298C49.5346 37.7055 49.9791 38.0133 50.3199 38.4208C50.6933 38.8537 50.928 39.3889 50.9934 39.9568C51.0232 40.2424 51.0088 40.5309 50.9507 40.8121C51.2075 41.0393 51.4276 41.305 51.6029 41.5998C51.8509 42.0226 51.9744 42.5068 51.9592 42.9968C51.9411 43.5133 51.763 44.0114 51.4496 44.4223C51.2124 44.7366 50.9231 45.0078 50.5943 45.2242C50.6335 45.9198 50.4418 46.6089 50.049 47.1843C49.6879 47.7527 49.1164 48.155 48.4595 48.3034C48.2842 48.9104 47.885 49.4283 47.3425 49.7524C46.8001 50.0766 46.1549 50.1828 45.5372 50.0496C45.2611 49.9716 45.0046 49.836 44.7847 49.6517C44.5648 49.4675 44.3864 49.2387 44.2613 48.9805C44.1126 49.259 43.9053 49.502 43.6537 49.6928C43.4021 49.8835 43.1121 50.0174 42.8037 50.0853C42.4822 50.1457 42.1514 50.1359 41.834 50.0565C41.5166 49.9772 41.2201 49.8302 40.9648 49.6255C40.5373 49.2997 40.2423 48.83 40.1344 48.3034C39.9147 48.2942 39.6974 48.2534 39.4893 48.1822C39.0004 48.0087 38.5654 47.7101 38.2277 47.3162C37.8641 46.9008 37.6267 46.3901 37.5435 45.8443C37.4993 45.5324 37.5102 45.2152 37.5756 44.907C37.3442 44.699 37.1438 44.459 36.9804 44.1942C36.714 43.7665 36.5732 43.2726 36.5741 42.7687C36.584 42.2288 36.765 41.706 37.0909 41.2754C37.317 40.9736 37.5901 40.7101 37.8999 40.495C37.8999 40.3987 37.8999 40.299 37.8999 40.2027C37.9243 39.5153 38.1748 38.8551 38.6126 38.3246C38.9902 37.8423 39.5341 37.5182 40.138 37.4158C40.157 37.3236 40.1832 37.2331 40.2164 37.145C40.411 36.6428 40.772 36.2226 41.2392 35.9546C41.7089 35.673 42.2662 35.5753 42.8037 35.6802C43.0954 35.743 43.3706 35.8661 43.6118 36.0417C43.8531 36.2172 44.0549 36.4413 44.2043 36.6995C44.3552 36.4417 44.5578 36.2181 44.7995 36.0426C45.0412 35.8672 45.3167 35.7438 45.6085 35.6802C46.0934 35.5871 46.5955 35.6599 47.034 35.8869C47.4669 36.1046 47.8245 36.4473 48.0604 36.8705C48.1499 37.0368 48.217 37.2141 48.26 37.398L48.2707 37.4051ZM44.7674 37.7223V47.5264C44.8127 47.5875 44.8432 47.6583 44.8565 47.7331C44.9955 48.5885 45.3661 49.0019 45.7867 49.1159C45.9911 49.1601 46.2028 49.1587 46.4066 49.1119C46.6105 49.0651 46.8016 48.974 46.9663 48.8451C47.1367 48.7366 47.2795 48.59 47.3835 48.4168C47.4874 48.2436 47.5495 48.0486 47.565 47.8472C47.565 47.4124 47.2514 46.917 46.3961 46.4822C46.3358 46.457 46.2815 46.4196 46.2364 46.3723C46.1913 46.3251 46.1564 46.269 46.134 46.2076C46.1116 46.1463 46.1021 46.081 46.1061 46.0158C46.1102 45.9506 46.1276 45.8869 46.1574 45.8288C46.1873 45.7707 46.2287 45.7193 46.2793 45.678C46.3299 45.6367 46.3885 45.6062 46.4514 45.5886C46.5143 45.571 46.5801 45.5666 46.6448 45.5756C46.7095 45.5847 46.7716 45.607 46.8273 45.6412C47.7753 46.1223 48.2528 46.7103 48.4382 47.3197C48.7851 47.196 49.0818 46.9619 49.2828 46.6533C49.5963 46.1984 49.7308 45.6438 49.6606 45.0959C49.6394 44.9981 49.6498 44.8962 49.6901 44.8046C49.7304 44.7131 49.7987 44.6367 49.8851 44.5863C50.2074 44.4076 50.49 44.165 50.7155 43.8735C50.9146 43.618 51.0281 43.3062 51.0398 42.9825C51.0442 42.6676 50.9602 42.3577 50.7974 42.088C50.6347 41.8101 50.4178 41.5677 50.1595 41.3752C50.0692 41.3179 50.0005 41.2322 49.9643 41.1315C49.9282 41.0308 49.9266 40.9209 49.9599 40.8193C50.0477 40.5703 50.0782 40.3047 50.049 40.0424C49.9986 39.6706 49.8413 39.3215 49.5964 39.0374C49.3671 38.7616 49.068 38.5524 48.7304 38.4315C48.574 38.3756 48.408 38.3513 48.2421 38.3602C48.1513 38.6694 47.9944 38.9551 47.7824 39.1977C47.7453 39.2523 47.6971 39.2985 47.6409 39.3332C47.5848 39.3679 47.5219 39.3904 47.4565 39.3993C47.3911 39.4081 47.3245 39.4031 47.2612 39.3846C47.1978 39.366 47.1391 39.3343 47.0888 39.2915C47.0385 39.2488 46.9978 39.1959 46.9692 39.1364C46.9407 39.0768 46.925 39.012 46.9232 38.946C46.9214 38.88 46.9335 38.8143 46.9587 38.7533C46.984 38.6923 47.0218 38.6373 47.0696 38.5919C47.2302 38.4281 47.3339 38.2171 47.3653 37.9899C47.3968 37.7627 47.3543 37.5315 47.2443 37.3303C47.1035 37.076 46.8884 36.8708 46.6277 36.7422C46.3775 36.61 46.0899 36.5661 45.8116 36.6175C45.4089 36.6995 45.0204 37.0345 44.7781 37.7259L44.7674 37.7223ZM47.1837 40.9298C47.0893 40.8534 47.0278 40.7437 47.0119 40.6234C46.996 40.503 47.0269 40.3812 47.0982 40.2829C47.1695 40.1846 47.2757 40.1175 47.3951 40.0953C47.5145 40.0731 47.6378 40.0975 47.7396 40.1635C47.8394 40.2348 47.9285 40.3096 48.0141 40.3845C48.6175 40.9228 48.9892 41.6737 49.0511 42.48C49.114 43.2757 48.8889 44.0674 48.4168 44.711C48.3491 44.8037 48.2707 44.8963 48.1816 44.9961C48.0974 45.0906 47.9792 45.1479 47.8529 45.1552C47.7266 45.1626 47.6025 45.1194 47.508 45.0353C47.4135 44.9512 47.3562 44.833 47.3489 44.7066C47.3415 44.5803 47.3847 44.4563 47.4688 44.3617C47.5281 44.2957 47.584 44.2267 47.6363 44.155C47.9748 43.6932 48.1378 43.1259 48.096 42.5549C48.0558 41.9931 47.8005 41.4685 47.3833 41.0901C47.3213 41.0326 47.2559 40.9791 47.1873 40.9298H47.1837ZM43.8159 38.2177L43.7945 38.182C43.5664 37.259 43.1209 36.8349 42.6612 36.7565C42.3514 36.7012 42.0321 36.7608 41.7631 36.924C41.492 37.0348 41.2626 37.2281 41.1073 37.4764C41.0345 37.7085 41.0359 37.9575 41.1112 38.1887C41.1866 38.42 41.3323 38.6219 41.5279 38.7665C41.62 38.852 41.6744 38.9707 41.6791 39.0963C41.6838 39.222 41.6384 39.3443 41.5528 39.4365C41.5105 39.4821 41.4595 39.519 41.4029 39.5449C41.3463 39.5709 41.2852 39.5854 41.223 39.5877C41.0973 39.5924 40.975 39.547 40.8828 39.4615C40.5527 39.1763 40.3063 38.8067 40.17 38.3923C39.8396 38.4811 39.5477 38.6766 39.3397 38.9483C39.0398 39.3183 38.8695 39.7765 38.855 40.2526C38.8512 40.3968 38.8596 40.5411 38.8799 40.6838C38.8917 40.7747 38.8772 40.867 38.838 40.9497C38.7988 41.0325 38.7367 41.1023 38.659 41.1507C38.3464 41.3347 38.0719 41.5766 37.85 41.8635C37.6427 42.1341 37.5267 42.4636 37.5185 42.8043C37.5198 43.1276 37.6125 43.4439 37.7858 43.7167C37.9415 43.9655 38.1436 44.182 38.381 44.3546C38.4657 44.4139 38.5289 44.4992 38.5611 44.5975C38.5932 44.6958 38.5925 44.802 38.5592 44.8999C38.4681 45.1654 38.4401 45.4485 38.4772 45.7267C38.5349 46.0941 38.6955 46.4376 38.9405 46.7174C39.1683 46.9827 39.4604 47.1852 39.7887 47.3055C39.9142 47.3475 40.045 47.3715 40.1772 47.3768C40.3625 46.7638 40.8899 46.1472 41.845 45.6519C41.9007 45.6177 41.9628 45.5954 42.0275 45.5863C42.0922 45.5773 42.1581 45.5817 42.221 45.5993C42.2839 45.6169 42.3424 45.6474 42.393 45.6887C42.4436 45.73 42.4851 45.7814 42.5149 45.8395C42.5447 45.8976 42.5622 45.9613 42.5662 46.0265C42.5702 46.0917 42.5608 46.157 42.5383 46.2183C42.5159 46.2797 42.4811 46.3358 42.436 46.383C42.3909 46.4303 42.3365 46.4677 42.2763 46.4929C41.3782 46.9527 41.0396 47.4801 41.0396 47.9434C41.0482 48.1262 41.0978 48.3048 41.1848 48.4658C41.2718 48.6268 41.3939 48.7662 41.5421 48.8736C41.6902 48.9937 41.8621 49.0809 42.0464 49.1294C42.2307 49.178 42.4233 49.1867 42.6113 49.1551C43.071 49.0589 43.5165 48.6348 43.7446 47.7082C43.7587 47.6521 43.7829 47.5989 43.8159 47.5514V38.2177ZM40.2948 40.4878C40.3399 40.4443 40.3932 40.4101 40.4516 40.3872C40.51 40.3643 40.5723 40.353 40.635 40.3542C40.6977 40.3554 40.7596 40.3689 40.8171 40.3939C40.8746 40.419 40.9266 40.4551 40.9701 40.5003C41.0136 40.5455 41.0478 40.5988 41.0708 40.6572C41.0937 40.7155 41.1049 40.7779 41.1038 40.8406C41.1026 40.9033 41.0891 40.9652 41.064 41.0226C41.039 41.0801 41.0028 41.1321 40.9576 41.1757C40.5561 41.5686 40.3202 42.1004 40.2983 42.6618C40.2756 43.247 40.4683 43.8201 40.84 44.2726C40.919 44.3709 40.9556 44.4966 40.9419 44.6219C40.9282 44.7472 40.8653 44.8619 40.767 44.9409C40.7183 44.9799 40.6624 45.0091 40.6025 45.0265C40.5426 45.044 40.4798 45.0495 40.4177 45.0427C40.2924 45.029 40.1777 44.9661 40.0988 44.8678C39.5812 44.2288 39.3151 43.4227 39.3504 42.6012C39.3789 41.7936 39.7171 41.028 40.2948 40.4629V40.4878ZM39.8885 59.4154C39.6861 59.4209 39.489 59.3499 39.3366 59.2166C39.1841 59.0833 39.0875 58.8974 39.0659 58.6961C39.0443 58.4947 39.0994 58.2926 39.2201 58.1301C39.3409 57.9675 39.5184 57.8564 39.7174 57.8188C39.2577 55.2065 37.9997 53.7703 36.6703 52.2485C35.6368 51.0653 34.5641 49.8358 33.7159 48.0254C32.8793 46.2988 32.4432 44.4057 32.4401 42.4872C32.4824 40.4168 33.0175 38.3864 34.001 36.564L34.0224 36.5284C35.2672 34.3669 37.1954 32.6806 39.5036 31.735C41.3111 31.0086 43.2671 30.7286 45.2058 30.9189C47.1278 31.0933 48.9875 31.6909 50.6513 32.6688C52.7841 33.896 54.4555 35.7889 55.409 38.0573C55.9578 39.3878 56.2621 40.8063 56.3071 42.2448C56.3434 43.9304 56.0291 45.6052 55.3841 47.1629C54.4397 49.4972 53.1923 50.9477 52.027 52.3056C50.9578 53.5529 49.9528 54.7183 49.3968 56.5002C49.578 56.5449 49.7381 56.6511 49.8497 56.8007C49.9613 56.9502 50.0175 57.1339 50.0086 57.3204C49.9998 57.5068 49.9265 57.6843 49.8013 57.8227C49.676 57.9611 49.5066 58.0517 49.322 58.079L49.0511 58.1182C49.0012 58.5066 48.9692 58.92 48.9549 59.3655H49.044C49.1488 59.351 49.2555 59.3573 49.3579 59.384C49.4603 59.4107 49.5565 59.4574 49.6409 59.5212C49.7252 59.5851 49.7962 59.665 49.8498 59.7563C49.9033 59.8476 49.9383 59.9485 49.9528 60.0534C49.9673 60.1582 49.961 60.2649 49.9343 60.3673C49.9076 60.4697 49.861 60.5658 49.7971 60.6502C49.7332 60.7346 49.6534 60.8056 49.5621 60.8591C49.4708 60.9126 49.3698 60.9476 49.265 60.9621L48.9906 61.0013V61.1617C49.0118 61.4619 49.0118 61.7632 48.9906 62.0634H49.0369C49.2435 62.0493 49.4476 62.1149 49.6072 62.2468C49.7668 62.3787 49.8698 62.5668 49.8949 62.7723C49.92 62.9779 49.8654 63.1852 49.7422 63.3517C49.6191 63.5181 49.4368 63.631 49.2329 63.6671L48.6342 63.7384C48.245 64.7735 47.5113 65.6431 46.5564 66.201C45.9494 66.5541 45.2687 66.7615 44.5678 66.8068C43.8644 66.8413 43.1639 66.6953 42.5329 66.3827C41.7348 65.984 41.0799 65.3478 40.6583 64.5616C40.5403 64.5021 40.4389 64.4143 40.3631 64.3061C40.2872 64.1979 40.2393 64.0727 40.2235 63.9415C40.21 63.8352 40.2185 63.7272 40.2484 63.6243C40.1004 63.1843 39.9966 62.7307 39.9384 62.2701H39.9134C39.7017 62.2994 39.487 62.2434 39.3166 62.1144C39.2322 62.0505 39.1612 61.9706 39.1077 61.8793C39.0542 61.788 39.0192 61.6871 39.0047 61.5822C38.9902 61.4774 38.9964 61.3707 39.0231 61.2683C39.0499 61.1659 39.0965 61.0698 39.1604 60.9854C39.2893 60.815 39.4808 60.7028 39.6925 60.6735L39.8849 60.6485C39.8849 60.2102 39.8849 59.8003 39.8849 59.4119L39.8885 59.4154ZM41.2178 57.605L47.7717 56.6748C48.3348 54.2977 49.5536 52.8722 50.8865 51.3291C51.9771 50.0603 53.1424 48.7061 53.9906 46.6034C54.5607 45.2361 54.8399 43.7651 54.8103 42.284C54.7694 41.0248 54.5001 39.7834 54.0156 38.6204C53.1879 36.6572 51.7378 35.0206 49.8886 33.9624C48.4184 33.0954 46.7738 32.5659 45.0739 32.4122C43.3718 32.2443 41.6543 32.4888 40.0667 33.1249C38.0686 33.9474 36.3993 35.4087 35.3196 37.2804C34.4536 38.8859 33.9809 40.6741 33.9404 42.4978C33.9447 44.1935 34.3321 45.8662 35.0737 47.391C35.7856 48.8091 36.7045 50.1135 37.8001 51.2613C39.3005 52.9791 40.7189 54.6042 41.2178 57.605ZM47.5223 58.3391L41.3853 59.2087C41.3853 59.5972 41.4103 60.007 41.3853 60.4382L47.4438 59.5794C47.4438 59.141 47.4688 58.7276 47.5044 58.3391H47.5223ZM41.4637 62.0598C41.5028 62.3637 41.5659 62.664 41.6526 62.9579L47.5151 62.2451C47.5547 61.9223 47.5619 61.5964 47.5365 61.2722V61.2045L41.478 62.0669L41.4637 62.0598ZM42.4865 64.4796C42.701 64.7054 42.953 64.8923 43.2314 65.032C43.6371 65.2276 44.0862 65.3159 44.5357 65.2886C45.0018 65.2566 45.4543 65.1176 45.8579 64.8824C46.2618 64.6462 46.6095 64.3252 46.8772 63.9415L42.4865 64.4796ZM63.4455 40.8193C63.5761 40.8055 63.7082 40.8176 63.8341 40.8549C63.96 40.8922 64.0774 40.9541 64.1793 41.0368C64.2813 41.1196 64.366 41.2217 64.4284 41.3373C64.4908 41.4528 64.5298 41.5796 64.5432 41.7102C64.5701 41.9744 64.4909 42.2384 64.3232 42.4443C64.1554 42.6501 63.9128 42.7809 63.6487 42.8079L60.5802 43.1322C60.4493 43.146 60.3169 43.1336 60.1909 43.0956C60.0648 43.0577 59.9476 42.995 59.846 42.9113C59.6893 42.7869 59.5733 42.6185 59.5132 42.4277C59.453 42.2368 59.4514 42.0324 59.5086 41.8406C59.5657 41.6489 59.679 41.4786 59.8338 41.3518C59.9886 41.2251 60.1778 41.1476 60.377 41.1293L63.4455 40.8086V40.8193ZM57.6721 28.3458C57.8212 28.1266 58.0502 27.9744 58.31 27.9217C58.4385 27.8957 58.5708 27.8953 58.6995 27.9204C58.8281 27.9456 58.9505 27.9958 59.0597 28.0683C59.1689 28.1408 59.2628 28.2341 59.336 28.3428C59.4091 28.4516 59.4601 28.5737 59.4861 28.7022C59.5119 28.8306 59.5119 28.9629 59.4862 29.0914C59.4605 29.2199 59.4096 29.342 59.3364 29.4506L57.6222 32.0166C57.5494 32.1265 57.4555 32.2208 57.346 32.2942C57.2365 32.3676 57.1136 32.4186 56.9843 32.4442C56.7244 32.4929 56.4557 32.4379 56.2359 32.291C56.1257 32.2185 56.0311 32.1247 55.9577 32.0152C55.8843 31.9056 55.8334 31.7825 55.8082 31.6531C55.7823 31.5244 55.7826 31.3919 55.8089 31.2633C55.8352 31.1348 55.8871 31.0128 55.9614 30.9047L57.6721 28.3387V28.3458ZM44.4217 23.9765C44.4255 23.7078 44.5357 23.4514 44.7282 23.2638C44.8717 23.1281 45.052 23.0379 45.2466 23.0045C45.4412 22.971 45.6414 22.9958 45.8219 23.0758C46.0024 23.1558 46.1553 23.2874 46.2612 23.454C46.3672 23.6206 46.4216 23.8148 46.4175 24.0122L46.3426 27.0949C46.3473 27.231 46.3241 27.3667 46.2746 27.4936C46.2251 27.6204 46.1501 27.7359 46.0545 27.8328C45.9588 27.9297 45.8443 28.0061 45.7181 28.0573C45.5919 28.1085 45.4565 28.1334 45.3204 28.1305C45.1842 28.1276 45.05 28.0969 44.9261 28.0404C44.8022 27.9838 44.6911 27.9026 44.5996 27.8017C44.5082 27.7007 44.4383 27.5822 44.3942 27.4533C44.3501 27.3245 44.3328 27.1879 44.3433 27.0521L44.4217 23.9658V23.9765ZM28.9903 28.9303C28.8039 28.7475 28.6963 28.4992 28.6903 28.2383C28.6843 27.9773 28.7804 27.7244 28.9582 27.5333C29.1361 27.3484 29.3789 27.2398 29.6353 27.2303C29.8986 27.2233 30.1543 27.3192 30.3481 27.4976C31.0929 28.2104 31.8556 28.9053 32.604 29.6039C32.7022 29.6953 32.7811 29.8055 32.8362 29.9279C32.8913 30.0503 32.9214 30.1825 32.9247 30.3166C32.9307 30.5798 32.8349 30.835 32.6575 31.0294C32.4747 31.2157 32.2264 31.3234 31.9655 31.3294C31.7045 31.3354 31.4515 31.2392 31.2604 31.0615C30.5477 30.3736 29.7458 29.6039 28.9974 28.9517L28.9903 28.9303Z" fill="#E35326"/>
</g>
<defs>
<clipPath id="clip0_222:558">
<rect width="40.5459" height="43.7925" fill="white" transform="translate(24 23)"/>
</clipPath>
</defs>
</svg>
