<svg width="89" height="89" viewBox="0 0 89 89" fill="none" xmlns="http://www.w3.org/2000/svg">
<rect width="89" height="89" rx="5.15942" fill="#F2F4F6"/>
<g clip-path="url(#clip0_222:562)">
<path d="M44.0781 28H44.0805V28.0005C45.664 28.0008 47.1943 28.2299 48.6388 28.6568C48.8698 28.7249 49.103 28.8001 49.3377 28.8811C50.5257 29.2921 51.6488 29.8375 52.689 30.4986C52.7622 30.545 52.784 30.6422 52.7378 30.7154C52.733 30.7227 52.7274 30.7299 52.7217 30.7363L51.5713 32.2114C51.5203 32.2769 51.4275 32.2908 51.3599 32.245L51.3572 32.2433C51.0647 32.0628 50.7626 31.8919 50.4525 31.7312C50.1399 31.5697 49.8223 31.4199 49.5 31.2834L49.4995 31.2831V31.2834C47.8345 30.577 46.0023 30.1861 44.0778 30.1861H44.0762V30.1855C42.159 30.1855 40.3313 30.5748 38.6695 31.2778C38.398 31.3926 38.1316 31.5155 37.8714 31.6456C36.528 32.3174 35.3078 33.202 34.2547 34.255L34.2537 34.2561L34.2464 34.2628C33.8971 34.6127 33.5663 34.981 33.2559 35.3663C32.9436 35.754 32.6509 36.1594 32.3807 36.5801C30.9918 38.7425 30.1858 41.316 30.1858 44.0778V44.0794H30.1853C30.1853 45.9966 30.5746 47.8243 31.2775 49.4861C31.3923 49.7579 31.5152 50.024 31.6453 50.2843C32.3171 51.6273 33.2017 52.8478 34.255 53.9009L34.2561 53.9019L34.262 53.9081C34.6118 54.2577 34.9808 54.5888 35.3663 54.8995C35.754 55.212 36.1594 55.5045 36.5803 55.7746C38.7428 57.1636 41.3165 57.9696 44.0781 57.9696H44.0797V57.9704C45.9975 57.9701 47.8245 57.5811 49.4864 56.8781C49.7581 56.7633 50.0243 56.6404 50.2845 56.5103C51.6279 55.8385 52.8484 54.9539 53.9011 53.9009L53.9025 53.8995L53.9105 53.8917C54.2593 53.5422 54.5898 53.1743 54.9 52.7896C55.2126 52.4019 55.505 51.9962 55.7752 51.5756C57.1644 49.4131 57.9701 46.8396 57.9701 44.0781V44.0754H57.9709C57.9706 42.9166 57.8282 41.7893 57.5596 40.7118C57.5151 40.5323 57.4681 40.3582 57.4193 40.1897C57.1612 39.3024 56.8164 38.4514 56.396 37.6468C56.3595 37.5773 56.3804 37.4931 56.4422 37.448L57.9288 36.2726C57.9964 36.2189 58.0948 36.2305 58.1482 36.2983C58.1531 36.3042 58.1571 36.3107 58.1606 36.3171H58.1611L58.1622 36.3193L58.1638 36.3225H58.1641C58.3414 36.6439 58.5088 36.9731 58.6647 37.3087C58.8209 37.6446 58.9655 37.9862 59.098 38.332C59.7813 40.1167 60.1559 42.0543 60.1559 44.0783V44.08H60.1553C60.1551 46.299 59.7049 48.414 58.8914 50.3368C58.7597 50.6489 58.6175 50.9571 58.4654 51.2606C57.6865 52.818 56.6632 54.2303 55.4468 55.4471L55.4457 55.4481L55.4398 55.4535C55.0341 55.8589 54.6068 56.2423 54.1598 56.6026C53.7109 56.9645 53.2419 57.3026 52.7555 57.6151C50.2523 59.2228 47.2735 60.1562 44.0778 60.1562H44.0762V60.1556C41.8571 60.1553 39.7422 59.7051 37.8193 58.8917C37.5073 58.7599 37.199 58.6175 36.8953 58.4654C35.3381 57.6868 33.9255 56.6632 32.7088 55.4471L32.7078 55.4457L32.7002 55.4379C32.2957 55.0328 31.9128 54.6062 31.5533 54.16C31.1916 53.7112 30.8533 53.2422 30.541 52.7558C28.9334 50.2521 28 47.2735 28 44.0781V44.0762H28.0005C28.0008 41.8571 28.451 39.7424 29.2642 37.8193C29.3962 37.5073 29.5384 37.1993 29.6905 36.8953C30.4691 35.3381 31.4927 33.9258 32.7088 32.7091L32.7099 32.708L32.7169 32.7019C33.122 32.297 33.5494 31.9136 33.9956 31.5538C34.4447 31.1922 34.9134 30.8538 35.4001 30.5416C37.9041 28.9331 40.8827 28 44.0781 28ZM52.9694 32.3729L57.4686 28.0738L57.7683 30.9732L60.968 31.3733L56.15 36.0419L53.8056 36.2431L44.4507 44.9439L43.5887 44.2015L52.4497 34.9453L52.9694 32.3729ZM44.0781 38.9888H44.0821V38.9893C44.3847 38.9896 44.6793 39.0156 44.9629 39.0655C44.9959 39.0714 45.0426 39.0803 45.1016 39.0924H45.1024C45.3385 39.1407 45.5698 39.2059 45.7944 39.2863C45.8759 39.3153 45.9183 39.4049 45.8891 39.4865C45.8834 39.5026 45.8748 39.5171 45.8649 39.53L45.8652 39.5302L44.6093 41.1411C44.5742 41.1864 44.5183 41.2065 44.465 41.1995V41.2001L44.4577 41.199V41.1993L44.4019 41.1926L44.3971 41.1918L44.3488 41.1867L44.3448 41.1861C44.2611 41.1789 44.1722 41.1749 44.0781 41.1749H44.0765V41.1741C43.6764 41.1743 43.2944 41.2559 42.9472 41.4029C42.8898 41.4273 42.834 41.4531 42.7806 41.4796C42.501 41.6194 42.2462 41.8043 42.0254 42.0251L42.0243 42.0262L42.017 42.0326C41.9462 42.104 41.8791 42.1794 41.8158 42.258C41.7506 42.3387 41.6895 42.4238 41.6328 42.5118C41.3431 42.963 41.1751 43.501 41.1751 44.0778V44.0794H41.1743C41.1746 44.48 41.2562 44.8618 41.4032 45.2087C41.4276 45.2664 41.4534 45.3222 41.4799 45.3753C41.6197 45.6551 41.8048 45.9097 42.0254 46.1303L42.0264 46.1316L42.0329 46.1383C42.1042 46.2091 42.1796 46.2767 42.2582 46.3398C42.339 46.405 42.424 46.4664 42.512 46.523C42.9636 46.8125 43.5015 46.9808 44.0781 46.9808H44.0797V46.9813C44.4802 46.9813 44.8623 46.8997 45.2089 46.7527C45.2666 46.7283 45.3222 46.7025 45.3755 46.676C45.6554 46.5359 45.91 46.3511 46.1305 46.1303L46.1319 46.1289L46.1372 46.1238C46.1764 46.0844 46.2145 46.0444 46.2497 46.005C46.2848 45.9655 46.3216 45.9213 46.3591 45.8735C46.541 45.6428 46.6889 45.3841 46.794 45.1059C46.8061 45.0734 46.8278 45.0472 46.8549 45.0297L48.8843 43.4248C48.9522 43.3711 49.0504 43.3827 49.104 43.4505C49.1228 43.4744 49.1333 43.502 49.1365 43.5302H49.1373L49.1386 43.5423L49.1392 43.5506L49.1456 43.6177V43.6196H49.1462L49.1521 43.6925V43.6939C49.1614 43.8227 49.1668 43.9506 49.1668 44.0778V44.0794H49.166C49.1657 44.7815 49.0233 45.4507 48.766 46.0592C48.7247 46.1571 48.6793 46.2547 48.631 46.3516C48.3839 46.845 48.0604 47.2922 47.6759 47.6764L47.6748 47.6775L47.6662 47.6848C47.5396 47.8109 47.4065 47.9308 47.2678 48.0427C47.1256 48.157 46.977 48.2643 46.8235 48.3627C46.031 48.8714 45.0887 49.1668 44.0778 49.1668H44.0762V49.166C43.3741 49.1657 42.7049 49.0233 42.0967 48.766C41.9988 48.7247 41.9009 48.6793 41.8043 48.631C41.3109 48.3839 40.8636 48.0604 40.4794 47.6762L40.4784 47.6751L40.4695 47.6654C40.344 47.5391 40.2248 47.4063 40.1132 47.2678C39.9987 47.1256 39.8916 46.9773 39.7929 46.8235C39.2842 46.0313 38.9888 45.0887 38.9888 44.0781V44.0762H38.9893C38.9896 43.3743 39.1323 42.7052 39.3894 42.097C39.431 41.9991 39.476 41.9014 39.5243 41.8045C39.7709 41.312 40.0944 40.865 40.4792 40.4802L40.4794 40.48L40.4792 40.4797L40.4802 40.4786C40.6077 40.3515 40.7437 40.2294 40.8875 40.1135C41.0297 39.9989 41.1781 39.8919 41.3318 39.7931C42.1249 39.2842 43.0677 38.9888 44.0781 38.9888ZM44.3445 41.1861C44.2621 41.1759 44.202 41.103 44.2071 41.0203L44.3445 41.1861ZM44.0781 33.4491H44.0808V33.4496C45.0316 33.4499 45.9527 33.5749 46.8276 33.8086C46.97 33.8467 47.1117 33.8877 47.252 33.9317C47.9724 34.1566 48.6608 34.457 49.3074 34.8233C49.3825 34.8659 49.4091 34.9617 49.3664 35.0368C49.3624 35.0433 49.3584 35.05 49.3535 35.0559L49.3527 35.0567L48.1873 36.5516C48.1384 36.6139 48.0518 36.6294 47.9852 36.5911L47.9815 36.5892C47.8237 36.5068 47.6593 36.4271 47.4884 36.352C47.3164 36.2761 47.1436 36.2063 46.9703 36.143C46.0691 35.8141 45.0946 35.6346 44.0778 35.6346H44.0762V35.634C42.911 35.634 41.8005 35.871 40.7904 36.2981C40.631 36.3657 40.469 36.4405 40.3053 36.5221L40.293 36.5277C39.4819 36.9353 38.7447 37.4705 38.1075 38.1075L38.1064 38.1085L38.1002 38.1147C37.8891 38.3264 37.6886 38.5501 37.5006 38.7836C37.3109 39.0191 37.133 39.2657 36.9688 39.5214C36.125 40.8355 35.6354 42.3996 35.6354 44.0778V44.0794H35.6349C35.6349 45.2446 35.8718 46.3554 36.2989 47.3652C36.3686 47.5305 36.4435 47.6925 36.5224 47.8503C36.9304 48.6662 37.4681 49.4077 38.1083 50.0479L38.1093 50.049C38.3245 50.2644 38.5501 50.4672 38.7841 50.6556C39.0197 50.8453 39.2662 51.0231 39.5219 51.1873C40.836 52.0314 42.4004 52.5208 44.0783 52.5208H44.08V52.5213C45.2452 52.5213 46.3559 52.2847 47.366 51.8575C47.5313 51.7875 47.6933 51.7129 47.8511 51.6338C48.667 51.2257 49.4085 50.6883 50.0487 50.0479L50.0498 50.0468C50.2652 49.8314 50.468 49.606 50.6564 49.3721C50.8461 49.1362 51.0239 48.8899 51.1881 48.634C52.0325 47.3196 52.5221 45.7555 52.5221 44.0778H52.5216V44.0738H52.5221C52.5221 43.553 52.4743 43.0422 52.3837 42.5469C52.37 42.4729 52.3539 42.3918 52.3354 42.3057C52.2476 41.8939 52.1299 41.4944 51.9858 41.1102C51.96 41.0413 51.9858 40.9656 52.044 40.9259L53.5634 39.7245C53.6312 39.6708 53.7294 39.6823 53.7828 39.7502C53.7909 39.7607 53.7973 39.7711 53.8024 39.7824H53.8027L53.8037 39.7851L53.8048 39.7872L53.8051 39.787C53.8842 39.9665 53.9604 40.1532 54.0331 40.3466C54.1048 40.5377 54.1708 40.7295 54.2301 40.9216C54.5399 41.9194 54.7071 42.9794 54.7071 44.0775V44.0791H54.7063C54.7063 45.5459 54.4088 46.944 53.8711 48.2149C53.7842 48.4207 53.6897 48.6246 53.5891 48.8258C53.0743 49.8555 52.3979 50.7892 51.5938 51.593L51.5925 51.5941L51.5866 51.5997C51.3188 51.8667 51.0371 52.1199 50.7425 52.3574C50.4458 52.5967 50.1356 52.8202 49.8142 53.0265C48.1588 54.0895 46.1898 54.7063 44.0778 54.7063H44.0762V54.706C42.6094 54.7058 41.2114 54.4085 39.9402 53.8708C39.7344 53.7836 39.5305 53.6895 39.3293 53.5888C38.2998 53.0737 37.3659 52.3976 36.5618 51.5935L36.5607 51.5925L36.5532 51.5844C36.2868 51.3175 36.0343 51.0363 35.7977 50.7422C35.5584 50.4455 35.3349 50.1354 35.1283 49.8139C34.0653 48.1588 33.4485 46.1896 33.4485 44.0778V44.0762H33.4491C33.4493 42.6094 33.7471 41.2114 34.2848 39.9402C34.3717 39.7344 34.4659 39.5305 34.5665 39.3293C35.0811 38.3004 35.7575 37.367 36.5615 36.5626L36.5618 36.5623L36.5615 36.5621L36.5626 36.561L36.5696 36.5546C36.8368 36.2876 37.1185 36.0349 37.4126 35.798C37.7096 35.5587 38.0195 35.3352 38.3409 35.1288C39.9968 34.0659 41.9663 33.4491 44.0781 33.4491Z" fill="#E35326"/>
</g>
<defs>
<clipPath id="clip0_222:562">
<rect width="32.968" height="32.1559" fill="white" transform="translate(28 28)"/>
</clipPath>
</defs>
</svg>
