<svg width="116" height="85" viewBox="0 0 116 85" fill="none" xmlns="http://www.w3.org/2000/svg">
<path d="M19.162 27.8315L8.44875 38.5448L0 30.096L10.7133 19.3827L0 8.66945L8.44875 0.220703L19.162 10.934L29.8753 0.220703L38.3241 8.66945L27.6108 19.3827L38.3241 30.096L29.8753 38.5448L19.162 27.8315ZM116 8.66945L107.551 0.220703L96.838 10.934L86.1246 0.220703L77.6759 8.66945L88.3892 19.3827L77.6759 30.096L86.1246 38.5448L96.838 27.8315L107.551 38.5448L116 30.096L105.287 19.3827L116 8.66945ZM15.7503 75.7277L24.199 84.1764C33.2274 75.1481 45.2313 70.1708 58 70.1708C70.7687 70.1708 82.7726 75.1421 91.801 84.1704L100.25 75.7217C88.9688 64.4408 73.9594 58.2207 58 58.2207C42.0406 58.2207 27.0312 64.4407 15.7503 75.7277Z" fill="#E35326"/>
</svg>
