<svg width="91" height="23" viewBox="0 0 91 23" fill="none" xmlns="http://www.w3.org/2000/svg">
<g clip-path="url(#clip0_374:208)">
<path d="M12.378 22.2277H10.6083L10.1286 19.7512C9.43906 21.2373 8.62886 22.5374 6.13964 22.5374C1.64139 22.5374 0.0214844 18.296 0.0214844 12.1659C0.0214844 7.3984 1.1011 1.26879 6.55976 1.26879C11.3885 1.26879 12.1381 5.94328 12.3479 8.26527L8.95885 8.91555C8.62886 6.62457 8.389 4.95286 6.58932 4.95286C5.54023 4.95286 5.06002 5.47908 4.73051 6.40747C4.28035 7.77006 4.25031 10.7418 4.25031 12.383C4.25031 17.3361 4.88025 18.8533 6.61936 18.8533C7.78911 18.8533 8.77908 18.3271 8.80912 14.767H6.3199V11.3306H12.378V22.2277Z" fill="#E2007A"/>
<path d="M13.0361 1.57798H17.1448V18.4202H22.2134V22.2278H13.0361V1.57798Z" fill="#E2007A"/>
<path d="M27.5949 14.4262L28.6745 8.72978C28.9143 7.46024 29.034 6.31476 29.1542 5.44789C29.2443 7.30568 29.3941 8.07951 29.5743 8.91536L30.684 14.4262H27.5949ZM27.2949 1.57773L22.7061 22.2275H26.3951L27.1747 17.7696H31.1337L31.9434 22.2275H36.0821L31.5533 1.57773H27.2949Z" fill="#E2007A"/>
<path d="M36.4111 1.57798H42.0491L43.5789 10.2777C43.9389 12.197 44.0886 14.3334 44.2088 16.1912C44.3585 13.9307 44.8087 10.959 45.0485 9.844L46.7581 1.57798H52.2764V22.2278H48.3475V10.4633C48.3475 9.1322 48.3775 8.26533 48.5573 4.2096C48.3775 5.54067 47.8978 9.19423 47.6875 10.2777L45.2584 22.2278H42.679L40.34 10.0921C40.0701 8.668 39.7702 6.15993 39.5603 4.2096C39.5904 5.81929 39.68 8.35787 39.68 9.96806V22.2278H36.4111V1.57798Z" fill="#E2007A"/>
<path d="M59.0926 4.9526C59.8722 4.9526 60.3224 5.26223 60.6519 6.28366C61.0425 7.52219 61.0425 10.4324 61.0425 11.702C61.0425 11.9806 61.0425 15.6026 60.8021 17.0267C60.6223 18.1102 60.2924 18.8535 59.1827 18.8535C58.1632 18.8535 57.8031 18.1722 57.5933 17.3364C57.2333 15.8813 57.2333 13.8689 57.2333 12.1041C57.2333 9.50354 57.2934 7.27459 57.6534 6.25265C57.9829 5.32425 58.4626 4.9526 59.0926 4.9526ZM59.1827 1.26853C54.4741 1.26853 52.8848 5.35527 52.8848 11.671C52.8848 14.9834 53.2744 18.0177 54.5638 20.1846C54.8041 20.5873 55.9734 22.5376 59.0926 22.5376C64.041 22.5376 65.3905 18.1412 65.3905 12.0421C65.3905 5.78845 64.0114 1.26853 59.1827 1.26853Z" fill="#E2007A"/>
<path d="M70.2107 1.57792V14.7355C70.2107 17.3051 70.4205 18.7602 72.2498 18.7602C74.1997 18.7602 74.2292 16.934 74.2292 14.5189V1.57792H77.7079V14.5189C77.7079 18.172 77.4981 22.5374 71.9803 22.5374C67.4215 22.5374 66.1016 20.1533 66.1016 14.8596V1.57792H70.2107Z" fill="#E2007A"/>
<path d="M82.3803 4.82874H83.52C84.8395 4.82874 85.7389 5.54105 85.7389 7.67696C85.7389 9.62729 85.1089 10.7113 83.52 10.7113H82.3803V4.82874ZM78.3613 22.2277H82.3803V14.1167H83.6698L85.9191 22.2277H90.2381L87.2086 13.2808C88.1384 12.6926 89.818 11.6086 89.818 7.70797C89.818 6.93414 89.818 4.4881 87.9582 2.69233C86.9091 1.70191 85.6788 1.57786 83.52 1.57786H78.3613V22.2277Z" fill="#E2007A"/>
</g>
<defs>
<clipPath id="clip0_374:208">
<rect width="90.2587" height="22.1198" fill="white" transform="translate(0 0.843018)"/>
</clipPath>
</defs>
</svg>
