<svg width="375" height="812" viewBox="0 0 375 812" fill="none" xmlns="http://www.w3.org/2000/svg">
<path d="M-6.39355 814.909C-6.39355 819.163 -3.20271 822.354 1.05169 822.354C5.30609 822.354 8.49686 819.163 8.49686 814.909C8.49686 810.655 5.30609 807.464 1.05169 807.464C-3.20271 806.932 -6.39355 810.655 -6.39355 814.909Z" fill="white" fill-opacity="0.04"/>
<path d="M29.7686 806.935C29.7686 811.19 32.9593 814.381 37.2137 814.381C41.4681 814.381 44.659 811.19 44.659 806.935C44.659 802.681 41.4681 799.49 37.2137 799.49C32.9593 799.49 29.7686 802.681 29.7686 806.935Z" fill="white" fill-opacity="0.04"/>
<path d="M66.4619 801.085C66.4619 805.339 69.6528 808.53 73.9072 808.53C78.1616 808.53 81.3523 805.339 81.3523 801.085C81.3523 796.831 78.1616 793.64 73.9072 793.64C69.6528 793.108 66.4619 796.831 66.4619 801.085Z" fill="white" fill-opacity="0.04"/>
<path d="M103.156 796.833C103.156 801.087 106.347 804.278 110.601 804.278C114.855 804.278 118.046 801.087 118.046 796.833C118.046 792.578 114.855 789.388 110.601 789.388C106.347 788.856 103.156 792.578 103.156 796.833Z" fill="white" fill-opacity="0.04"/>
<path d="M139.853 794.172C139.853 798.426 143.043 801.617 147.298 801.617C151.552 801.617 154.743 798.426 154.743 794.172C154.743 789.917 151.552 786.727 147.298 786.727C143.575 786.727 139.853 789.917 139.853 794.172Z" fill="white" fill-opacity="0.04"/>
<path d="M177.078 793.64C177.078 797.894 180.269 801.085 184.523 801.085C188.778 801.085 191.969 797.894 191.969 793.64C191.969 789.385 188.778 786.194 184.523 786.194C180.269 786.194 177.078 789.917 177.078 793.64Z" fill="white" fill-opacity="0.04"/>
<path d="M213.771 795.234C213.771 799.489 216.962 802.679 221.216 802.679C225.471 802.679 228.661 799.489 228.661 795.234C228.661 790.98 225.471 787.789 221.216 787.789C217.494 787.789 213.771 790.98 213.771 795.234Z" fill="white" fill-opacity="0.04"/>
<path d="M250.998 798.428C250.998 802.682 254.189 805.873 258.443 805.873C262.698 805.873 265.888 802.682 265.888 798.428C265.888 794.173 262.698 790.982 258.443 790.982C254.189 790.982 250.998 794.173 250.998 798.428Z" fill="white" fill-opacity="0.04"/>
<path d="M287.691 803.745C287.691 807.999 290.882 811.19 295.136 811.19C299.39 811.19 302.581 807.999 302.581 803.745C302.581 799.491 299.39 796.3 295.136 796.3C290.882 796.3 287.691 799.491 287.691 803.745Z" fill="white" fill-opacity="0.04"/>
<path d="M323.854 810.658C323.854 814.913 327.044 818.103 331.299 818.103C335.553 818.103 338.744 814.913 338.744 810.658C338.744 806.404 335.553 803.213 331.299 803.213C327.044 803.213 323.854 806.404 323.854 810.658Z" fill="white" fill-opacity="0.04"/>
<path d="M359.485 819.164C359.485 823.418 362.676 826.609 366.931 826.609C371.185 826.609 374.376 823.418 374.376 819.164C374.376 814.91 371.185 811.719 366.931 811.719C363.208 811.719 359.485 814.91 359.485 819.164Z" fill="white" fill-opacity="0.04"/>
<path d="M2.64746 782.474C2.64746 786.728 5.83831 789.919 10.0927 789.919C14.3471 789.919 17.5379 786.728 17.5379 782.474C17.5379 778.219 14.3471 775.028 10.0927 775.028C5.83831 775.028 2.64746 778.219 2.64746 782.474Z" fill="white" fill-opacity="0.04"/>
<path d="M38.8105 775.556C38.8105 779.811 42.0014 783.002 46.2558 783.002C50.5102 783.002 53.701 779.811 53.701 775.556C53.701 771.302 50.5102 768.111 46.2558 768.111C42.5332 768.111 38.8105 771.302 38.8105 775.556Z" fill="white" fill-opacity="0.04"/>
<path d="M75.5049 769.711C75.5049 773.965 78.6956 777.156 82.95 777.156C87.2044 777.156 90.3952 773.965 90.3952 769.711C90.3952 765.456 87.2044 762.266 82.95 762.266C78.6956 762.797 75.5049 765.988 75.5049 769.711Z" fill="white" fill-opacity="0.04"/>
<path d="M112.729 766.52C112.729 770.775 115.92 773.966 120.175 773.966C124.429 773.966 127.62 770.775 127.62 766.52C127.62 762.266 124.429 759.075 120.175 759.075C115.92 759.075 112.729 762.266 112.729 766.52Z" fill="white" fill-opacity="0.04"/>
<path d="M149.423 764.388C149.423 768.642 152.614 771.833 156.868 771.833C161.122 771.833 164.313 768.642 164.313 764.388C164.313 760.133 161.122 756.942 156.868 756.942C152.614 757.474 149.423 760.665 149.423 764.388Z" fill="white" fill-opacity="0.04"/>
<path d="M186.65 764.388C186.65 768.642 189.841 771.833 194.096 771.833C198.35 771.833 201.541 768.642 201.541 764.388C201.541 760.133 198.35 756.942 194.096 756.942C189.841 757.474 186.65 760.665 186.65 764.388Z" fill="white" fill-opacity="0.04"/>
<path d="M223.343 766.52C223.343 770.775 226.534 773.966 230.789 773.966C235.043 773.966 238.234 770.775 238.234 766.52C238.234 762.266 235.043 759.075 230.789 759.075C226.534 759.075 223.343 762.266 223.343 766.52Z" fill="white" fill-opacity="0.04"/>
<path d="M260.036 769.711C260.036 773.965 263.227 777.156 267.481 777.156C271.736 777.156 274.927 773.965 274.927 769.711C274.927 765.456 271.736 762.266 267.481 762.266C263.759 762.797 260.036 765.988 260.036 769.711Z" fill="white" fill-opacity="0.04"/>
<path d="M296.734 775.556C296.734 779.811 299.925 783.002 304.179 783.002C308.434 783.002 311.624 779.811 311.624 775.556C311.624 771.302 308.434 768.111 304.179 768.111C299.925 768.111 296.734 771.302 296.734 775.556Z" fill="white" fill-opacity="0.04"/>
<path d="M341.549 789.838C345.608 789.182 348.367 785.359 347.712 781.3C347.056 777.241 343.233 774.482 339.174 775.138C335.115 775.794 332.356 779.616 333.012 783.675C333.668 787.734 337.49 790.493 341.549 789.838Z" fill="white" fill-opacity="0.04"/>
<path d="M369.056 791.51C369.056 795.764 372.246 798.955 376.501 798.955C380.755 798.955 383.946 795.764 383.946 791.51C383.946 787.255 380.755 784.064 376.501 784.064C372.246 784.064 369.056 787.255 369.056 791.51Z" fill="white" fill-opacity="0.04"/>
<path d="M12.2192 750.564C12.2192 754.286 15.4101 757.477 19.1327 757.477C22.8553 757.477 26.0461 754.286 26.0461 750.564C26.0461 746.841 22.8553 743.65 19.1327 743.65C14.8783 743.65 12.2192 746.309 12.2192 750.564Z" fill="white" fill-opacity="0.04"/>
<path d="M48.3813 744.18C48.3813 747.903 51.5722 751.094 55.2948 751.094C59.0174 751.094 62.2082 747.903 62.2082 744.18C62.2082 740.458 59.0174 737.267 55.2948 737.267C51.5722 736.735 48.3813 739.926 48.3813 744.18Z" fill="white" fill-opacity="0.04"/>
<path d="M85.0747 739.394C85.0747 743.117 88.2655 746.308 91.9881 746.308C95.7107 746.308 98.9015 743.117 98.9015 739.394C98.9015 735.672 95.7107 732.481 91.9881 732.481C88.2655 731.949 85.0747 735.14 85.0747 739.394Z" fill="white" fill-opacity="0.04"/>
<path d="M121.77 736.202C121.77 739.925 124.961 743.116 128.683 743.116C132.406 743.116 135.597 739.925 135.597 736.202C135.597 732.48 132.406 729.289 128.683 729.289C124.961 729.289 121.77 732.48 121.77 736.202Z" fill="white" fill-opacity="0.04"/>
<path d="M158.995 735.138C158.995 738.861 162.185 742.052 165.908 742.052C169.631 742.052 172.821 738.861 172.821 735.138C172.821 731.416 169.631 728.225 165.908 728.225C162.185 727.693 158.995 730.884 158.995 735.138Z" fill="white" fill-opacity="0.04"/>
<path d="M195.691 735.139C195.691 738.862 198.882 742.052 202.605 742.052C206.327 742.052 209.518 738.862 209.518 735.139C209.518 731.416 206.327 728.226 202.605 728.226C198.882 728.226 195.691 731.416 195.691 735.139Z" fill="white" fill-opacity="0.04"/>
<path d="M232.917 737.798C232.917 741.521 236.108 744.712 239.83 744.712C243.553 744.712 246.744 741.521 246.744 737.798C246.744 734.076 243.553 730.885 239.83 730.885C236.108 730.353 232.917 733.544 232.917 737.798Z" fill="white" fill-opacity="0.04"/>
<path d="M269.61 741.522C269.61 745.245 272.801 748.436 276.524 748.436C280.246 748.436 283.437 745.245 283.437 741.522C283.437 737.8 280.246 734.609 276.524 734.609C272.801 734.077 269.61 737.268 269.61 741.522Z" fill="white" fill-opacity="0.04"/>
<path d="M306.304 746.839C306.304 750.562 309.495 753.753 313.218 753.753C316.94 753.753 320.131 750.562 320.131 746.839C320.131 743.117 316.94 739.926 313.218 739.926C309.495 739.926 306.304 743.117 306.304 746.839Z" fill="white" fill-opacity="0.04"/>
<path d="M342.466 754.285C342.466 758.539 345.657 761.73 349.911 761.73C354.165 761.73 357.356 758.539 357.356 754.285C357.356 750.031 354.165 746.84 349.911 746.84C345.657 746.84 342.466 750.031 342.466 754.285Z" fill="white" fill-opacity="0.04"/>
<path d="M28.1742 711.741C24.4516 711.741 21.2607 714.932 21.2607 718.655C21.2607 722.377 24.4516 725.568 28.1742 725.568C31.8968 725.568 35.0876 722.377 35.0876 718.655C35.0876 714.932 31.8968 711.741 28.1742 711.741Z" fill="white" fill-opacity="0.04"/>
<path d="M64.3372 705.896C60.6146 705.896 57.4238 709.087 57.4238 712.81C57.4238 716.532 60.6146 719.723 64.3372 719.723C68.0598 719.723 71.2507 716.532 71.2507 712.81C71.2507 709.087 68.5916 705.896 64.3372 705.896Z" fill="white" fill-opacity="0.04"/>
<path d="M101.562 702.172C97.8397 702.172 94.6489 705.363 94.6489 709.085C94.6489 712.808 97.8397 715.999 101.562 715.999C105.285 715.999 108.476 712.808 108.476 709.085C108.476 704.831 105.285 702.172 101.562 702.172Z" fill="white" fill-opacity="0.04"/>
<path d="M138.258 699.512C134.535 699.512 131.345 702.703 131.345 706.425C131.345 710.148 134.535 713.339 138.258 713.339C141.981 713.339 145.171 710.148 145.171 706.425C145.171 702.703 141.981 699.512 138.258 699.512Z" fill="white" fill-opacity="0.04"/>
<path d="M175.482 698.448C171.76 698.448 168.569 701.639 168.569 705.362C168.569 709.084 171.76 712.275 175.482 712.275C179.205 712.275 182.396 709.084 182.396 705.362C182.396 701.639 179.205 698.448 175.482 698.448Z" fill="white" fill-opacity="0.04"/>
<path d="M212.177 699.512C208.454 699.512 205.263 702.703 205.263 706.425C205.263 710.148 208.454 713.339 212.177 713.339C215.899 713.339 219.09 710.148 219.09 706.425C219.09 702.703 215.899 699.512 212.177 699.512Z" fill="white" fill-opacity="0.04"/>
<path d="M249.403 702.172C245.681 702.172 242.49 705.363 242.49 709.085C242.49 712.808 245.681 715.999 249.403 715.999C253.126 715.999 256.317 712.808 256.317 709.085C256.317 704.831 253.126 702.172 249.403 702.172Z" fill="white" fill-opacity="0.04"/>
<path d="M286.097 705.896C282.374 705.896 279.183 709.087 279.183 712.81C279.183 716.532 282.374 719.723 286.097 719.723C289.819 719.723 293.01 716.532 293.01 712.81C293.01 709.087 289.819 705.896 286.097 705.896Z" fill="white" fill-opacity="0.04"/>
<path d="M322.79 711.741C319.067 711.741 315.876 714.932 315.876 718.655C315.876 722.377 319.067 725.568 322.79 725.568C326.512 725.568 329.703 722.377 329.703 718.655C329.171 714.932 326.512 711.741 322.79 711.741Z" fill="white" fill-opacity="0.04"/>
<path d="M358.953 719.188C355.231 719.188 352.04 722.379 352.04 726.102C352.04 729.824 355.231 733.015 358.953 733.015C362.676 733.015 365.867 729.824 365.867 726.102C365.867 722.379 362.676 719.188 358.953 719.188Z" fill="white" fill-opacity="0.04"/>
<path d="M0.51986 701.107C4.33803 701.107 7.43328 698.012 7.43328 694.194C7.43328 690.376 4.33803 687.28 0.51986 687.28C-3.2983 687.28 -6.39355 690.376 -6.39355 694.194C-6.39355 698.012 -3.2983 701.107 0.51986 701.107Z" fill="white" fill-opacity="0.04"/>
<path d="M30.2998 687.279C30.2998 691.002 33.4906 693.661 36.6814 693.661C40.404 693.661 43.063 690.47 43.063 687.279C43.063 684.088 39.8722 680.897 36.6814 680.897C33.4906 680.897 30.2998 683.556 30.2998 687.279Z" fill="white" fill-opacity="0.04"/>
<path d="M66.9951 681.962C66.9951 685.684 70.1859 688.343 73.3767 688.343C77.0993 688.343 79.7583 685.152 79.7583 681.962C79.7583 678.239 76.5675 675.58 73.3767 675.58C70.1859 675.58 66.9951 678.239 66.9951 681.962Z" fill="white" fill-opacity="0.04"/>
<path d="M103.689 678.239C103.689 681.961 106.88 685.152 110.603 685.152C114.325 685.152 117.516 681.961 117.516 678.239C117.516 674.516 114.325 671.325 110.603 671.325C106.88 671.325 103.689 674.516 103.689 678.239Z" fill="white" fill-opacity="0.04"/>
<path d="M140.914 676.64C140.914 680.362 144.105 683.553 147.827 683.553C151.55 683.553 154.741 680.362 154.741 676.64C154.741 672.917 151.55 669.727 147.827 669.727C144.105 669.727 140.914 672.917 140.914 676.64Z" fill="white" fill-opacity="0.04"/>
<path d="M177.608 676.111C177.608 679.833 180.799 683.024 184.521 683.024C188.244 683.024 191.435 679.833 191.435 676.111C191.435 672.388 188.244 669.197 184.521 669.197C180.799 669.197 177.608 672.388 177.608 676.111Z" fill="white" fill-opacity="0.04"/>
<path d="M214.834 677.177C214.834 680.9 218.025 684.091 221.747 684.091C225.47 684.091 228.661 680.9 228.661 677.177C228.661 673.454 225.47 670.264 221.747 670.264C218.025 670.264 214.834 673.454 214.834 677.177Z" fill="white" fill-opacity="0.04"/>
<path d="M251.529 679.834C251.529 683.557 254.72 686.748 258.443 686.748C262.165 686.748 265.356 683.557 265.356 679.834C265.356 676.112 262.165 672.921 258.443 672.921C254.72 673.453 251.529 676.112 251.529 679.834Z" fill="white" fill-opacity="0.04"/>
<path d="M288.757 684.623C288.757 688.346 291.948 691.005 295.139 691.005C298.862 691.005 301.521 687.814 301.521 684.623C301.521 680.901 298.33 678.242 295.139 678.242C291.416 677.71 288.757 680.901 288.757 684.623Z" fill="white" fill-opacity="0.04"/>
<path d="M324.918 690.468C324.918 694.191 328.109 696.85 331.3 696.85C334.49 696.85 337.681 693.659 337.681 690.468C337.681 687.278 334.49 684.087 331.3 684.087C328.109 684.087 324.918 686.746 324.918 690.468Z" fill="white" fill-opacity="0.04"/>
<path d="M367.992 704.827C371.81 704.827 374.905 701.731 374.905 697.913C374.905 694.095 371.81 691 367.992 691C364.173 691 361.078 694.095 361.078 697.913C361.078 701.731 364.173 704.827 367.992 704.827Z" fill="white" fill-opacity="0.04"/>
<path d="M3.1792 662.283C3.1792 666.006 5.83818 668.665 9.56078 668.665C13.2834 668.665 15.9424 666.006 15.9424 662.283C15.9424 658.56 13.2834 655.901 9.56078 655.901C6.36998 655.901 3.1792 658.56 3.1792 662.283Z" fill="white" fill-opacity="0.04"/>
<path d="M39.8726 655.903C39.8726 659.626 42.5316 662.285 46.2542 662.285C49.9768 662.285 52.6358 659.626 52.6358 655.903C52.6358 652.18 49.9768 649.521 46.2542 649.521C42.5316 649.521 39.8726 652.712 39.8726 655.903Z" fill="white" fill-opacity="0.04"/>
<path d="M82.9475 658.032C86.472 658.032 89.3291 655.175 89.3291 651.65C89.3291 648.126 86.472 645.269 82.9475 645.269C79.423 645.269 76.5659 648.126 76.5659 651.65C76.5659 655.175 79.423 658.032 82.9475 658.032Z" fill="white" fill-opacity="0.04"/>
<path d="M113.263 648.46C113.263 652.182 115.922 654.841 119.645 654.841C123.367 654.841 126.026 652.182 126.026 648.46C126.026 644.737 123.367 642.078 119.645 642.078C116.454 642.078 113.263 644.737 113.263 648.46Z" fill="white" fill-opacity="0.04"/>
<path d="M150.488 646.86C150.488 650.583 153.147 653.242 156.87 653.242C160.592 653.242 163.252 650.583 163.252 646.86C163.252 643.137 160.592 640.479 156.87 640.479C153.147 640.479 150.488 643.137 150.488 646.86Z" fill="white" fill-opacity="0.04"/>
<path d="M187.182 646.86C187.182 650.583 189.841 653.242 193.563 653.242C197.286 653.242 199.945 650.583 199.945 646.86C199.945 643.137 197.286 640.479 193.563 640.479C190.372 640.479 187.182 643.137 187.182 646.86Z" fill="white" fill-opacity="0.04"/>
<path d="M224.408 648.46C224.408 652.182 227.067 654.841 230.79 654.841C234.512 654.841 237.171 652.182 237.171 648.46C237.171 644.737 234.512 642.078 230.79 642.078C227.067 642.078 224.408 644.737 224.408 648.46Z" fill="white" fill-opacity="0.04"/>
<path d="M261.102 651.65C261.102 655.372 263.761 658.031 267.484 658.031C271.206 658.031 273.865 655.372 273.865 651.65C273.865 647.927 271.206 645.268 267.484 645.268C264.293 644.736 261.102 647.927 261.102 651.65Z" fill="white" fill-opacity="0.04"/>
<path d="M297.795 655.903C297.795 659.626 300.454 662.285 304.177 662.285C307.899 662.285 310.558 659.626 310.558 655.903C310.558 652.18 307.899 649.521 304.177 649.521C300.986 649.521 297.795 652.712 297.795 655.903Z" fill="white" fill-opacity="0.04"/>
<path d="M334.489 662.283C334.489 666.006 337.148 668.665 340.871 668.665C344.593 668.665 347.252 666.006 347.252 662.283C347.252 658.56 344.593 655.901 340.871 655.901C337.148 655.901 334.489 658.56 334.489 662.283Z" fill="white" fill-opacity="0.04"/>
<path d="M370.652 669.73C370.652 673.453 373.843 676.112 377.034 676.112C380.757 676.112 383.416 672.921 383.416 669.73C383.416 666.008 380.225 663.349 377.034 663.349C373.311 663.349 370.652 666.008 370.652 669.73Z" fill="white" fill-opacity="0.04"/>
<path d="M12.749 630.374C12.749 633.565 15.408 636.755 19.1306 636.755C22.3214 636.755 25.5122 634.096 25.5122 630.374C25.5122 627.183 22.8532 623.992 19.1306 623.992C15.408 624.524 12.749 627.183 12.749 630.374Z" fill="white" fill-opacity="0.04"/>
<path d="M48.9146 625.058C48.9146 628.249 51.5735 631.44 55.2961 631.44C58.4869 631.44 61.6777 628.781 61.6777 625.058C61.6777 621.868 59.0187 618.677 55.2961 618.677C52.1053 618.677 48.9146 621.336 48.9146 625.058Z" fill="white" fill-opacity="0.04"/>
<path d="M86.1392 620.805C86.1392 623.996 88.7981 627.187 92.5207 627.187C95.7115 627.187 98.9023 624.528 98.9023 620.805C98.9023 617.615 96.2433 614.424 92.5207 614.424C88.7981 614.956 86.1392 617.615 86.1392 620.805Z" fill="white" fill-opacity="0.04"/>
<path d="M122.833 618.145C122.833 621.336 125.492 624.527 129.215 624.527C132.405 624.527 135.596 621.868 135.596 618.145C135.596 614.954 132.937 611.764 129.215 611.764C125.492 612.295 122.833 614.954 122.833 618.145Z" fill="white" fill-opacity="0.04"/>
<path d="M160.06 617.082C160.06 620.273 162.719 623.463 166.442 623.463C170.164 623.463 172.823 620.804 172.823 617.082C172.823 613.891 170.164 610.7 166.442 610.7C162.719 610.7 160.06 613.891 160.06 617.082Z" fill="white" fill-opacity="0.04"/>
<path d="M196.753 617.61C196.753 620.801 199.412 623.992 203.135 623.992C206.858 623.992 209.517 621.333 209.517 617.61C209.517 614.419 206.858 611.229 203.135 611.229C199.412 611.229 196.753 613.887 196.753 617.61Z" fill="white" fill-opacity="0.04"/>
<path d="M233.979 619.213C233.979 622.404 236.638 625.594 240.36 625.594C244.083 625.594 246.742 622.935 246.742 619.213C246.742 616.022 244.083 612.831 240.36 612.831C236.638 612.831 233.979 616.022 233.979 619.213Z" fill="white" fill-opacity="0.04"/>
<path d="M270.673 622.928C270.673 626.119 273.332 629.31 277.055 629.31C280.246 629.31 283.437 626.651 283.437 622.928C283.437 619.738 280.778 616.547 277.055 616.547C273.332 616.547 270.673 619.206 270.673 622.928Z" fill="white" fill-opacity="0.04"/>
<path d="M307.369 627.718C307.369 630.909 310.028 634.1 313.751 634.1C316.942 634.1 320.132 631.441 320.132 627.718C320.132 624.528 317.473 621.337 313.751 621.337C310.028 621.337 307.369 623.996 307.369 627.718Z" fill="white" fill-opacity="0.04"/>
<path d="M344.062 634.098C344.062 637.289 346.721 640.48 350.444 640.48C353.635 640.48 356.826 637.821 356.826 634.098C356.826 630.908 354.167 627.717 350.444 627.717C346.721 627.717 344.062 630.376 344.062 634.098Z" fill="white" fill-opacity="0.04"/>
<path d="M27.6413 593.152C24.4505 593.152 21.7915 595.811 21.7915 599.002C21.7915 602.193 24.4505 604.852 27.6413 604.852C30.8321 604.852 33.4911 602.193 33.4911 599.002C34.0229 595.811 31.3639 593.152 27.6413 593.152Z" fill="white" fill-opacity="0.04"/>
<path d="M64.3347 600.061C67.5654 600.061 70.1845 597.442 70.1845 594.211C70.1845 590.98 67.5654 588.361 64.3347 588.361C61.1039 588.361 58.4849 590.98 58.4849 594.211C58.4849 597.442 61.1039 600.061 64.3347 600.061Z" fill="white" fill-opacity="0.04"/>
<path d="M101.562 596.338C104.792 596.338 107.412 593.719 107.412 590.488C107.412 587.258 104.792 584.639 101.562 584.639C98.331 584.639 95.7119 587.258 95.7119 590.488C95.7119 593.719 98.331 596.338 101.562 596.338Z" fill="white" fill-opacity="0.04"/>
<path d="M138.256 582.516C135.065 582.516 132.406 585.175 132.406 588.365C132.406 591.556 135.065 594.215 138.256 594.215C141.446 594.215 144.105 591.556 144.105 588.365C144.105 585.175 141.446 582.516 138.256 582.516Z" fill="white" fill-opacity="0.04"/>
<path d="M175.48 581.451C172.289 581.451 169.63 584.11 169.63 587.301C169.63 590.492 172.289 593.151 175.48 593.151C178.67 593.151 181.329 590.492 181.329 587.301C181.329 584.11 178.67 581.451 175.48 581.451Z" fill="white" fill-opacity="0.04"/>
<path d="M212.177 582.516C208.986 582.516 206.327 585.175 206.327 588.365C206.327 591.556 208.986 594.215 212.177 594.215C215.368 594.215 218.027 591.556 218.027 588.365C218.559 585.175 215.9 582.516 212.177 582.516Z" fill="white" fill-opacity="0.04"/>
<path d="M249.403 584.639C246.212 584.639 243.553 587.298 243.553 590.488C243.553 593.679 246.212 596.338 249.403 596.338C252.594 596.338 255.253 593.679 255.253 590.488C255.253 587.298 252.594 584.639 249.403 584.639Z" fill="white" fill-opacity="0.04"/>
<path d="M286.096 588.361C282.905 588.361 280.246 591.02 280.246 594.211C280.246 597.402 282.905 600.061 286.096 600.061C289.287 600.061 291.946 597.402 291.946 594.211C291.946 591.02 289.287 588.361 286.096 588.361Z" fill="white" fill-opacity="0.04"/>
<path d="M322.791 593.152C319.6 593.152 316.941 595.811 316.941 599.002C316.941 602.193 319.6 604.852 322.791 604.852C325.982 604.852 328.641 602.193 328.641 599.002C328.641 595.811 325.982 593.152 322.791 593.152Z" fill="white" fill-opacity="0.04"/>
<path d="M358.953 599.533C355.763 599.533 352.572 602.192 352.572 605.915C352.572 609.106 355.231 612.296 358.953 612.296C362.144 612.296 365.335 609.637 365.335 605.915C365.335 602.192 362.676 599.533 358.953 599.533Z" fill="white" fill-opacity="0.04"/>
<path d="M-5.33057 574.003C-5.33057 577.194 -2.67153 579.853 0.519264 579.853C3.71006 579.853 6.36909 577.194 6.36909 574.003C6.36909 570.812 3.71006 568.153 0.519264 568.153C-2.67153 568.153 -5.33057 570.812 -5.33057 574.003Z" fill="white" fill-opacity="0.04"/>
<path d="M31.3638 568.158C31.3638 571.349 34.0227 574.008 37.2135 574.008C40.4043 574.008 43.0634 571.349 43.0634 568.158C43.0634 564.968 40.4043 562.309 37.2135 562.309C34.0227 562.309 31.3638 564.968 31.3638 568.158Z" fill="white" fill-opacity="0.04"/>
<path d="M68.0586 563.37C68.0586 566.561 70.7176 569.22 73.9084 569.22C77.0992 569.22 79.7582 566.561 79.7582 563.37C79.7582 560.18 77.0992 557.521 73.9084 557.521C70.7176 557.521 68.0586 560.18 68.0586 563.37Z" fill="white" fill-opacity="0.04"/>
<path d="M104.752 560.182C104.752 563.373 107.411 566.032 110.602 566.032C113.793 566.032 116.452 563.373 116.452 560.182C116.452 556.991 113.793 554.332 110.602 554.332C107.411 554.332 104.752 556.991 104.752 560.182Z" fill="white" fill-opacity="0.04"/>
<path d="M141.979 558.579C141.979 561.77 144.638 564.429 147.829 564.429C151.02 564.429 153.679 561.77 153.679 558.579C153.679 555.388 151.02 552.729 147.829 552.729C144.106 552.729 141.979 555.388 141.979 558.579Z" fill="white" fill-opacity="0.04"/>
<path d="M178.673 558.05C178.673 561.241 181.332 563.9 184.523 563.9C187.713 563.9 190.372 561.241 190.372 558.05C190.372 554.859 187.713 552.2 184.523 552.2C181.332 552.2 178.673 554.859 178.673 558.05Z" fill="white" fill-opacity="0.04"/>
<path d="M215.898 559.116C215.898 562.307 218.557 564.966 221.748 564.966C224.939 564.966 227.598 562.307 227.598 559.116C227.598 555.926 224.939 553.267 221.748 553.267C218.557 553.267 215.898 555.926 215.898 559.116Z" fill="white" fill-opacity="0.04"/>
<path d="M252.593 561.774C252.593 564.964 255.252 567.623 258.443 567.623C261.633 567.623 264.292 564.964 264.292 561.774C264.292 558.583 261.633 555.924 258.443 555.924C255.252 555.924 252.593 558.583 252.593 561.774Z" fill="white" fill-opacity="0.04"/>
<path d="M289.287 565.497C289.287 568.688 291.946 571.347 295.136 571.347C298.327 571.347 300.986 568.688 300.986 565.497C300.986 562.306 298.327 559.647 295.136 559.647C291.946 559.647 289.287 562.306 289.287 565.497Z" fill="white" fill-opacity="0.04"/>
<path d="M325.982 570.818C325.982 574.008 328.641 576.667 331.832 576.667C335.023 576.667 337.682 574.008 337.682 570.818C337.682 567.627 335.023 564.968 331.832 564.968C328.641 564.968 325.982 567.627 325.982 570.818Z" fill="white" fill-opacity="0.04"/>
<path d="M362.675 577.727C362.675 580.918 365.334 583.577 368.525 583.577C371.715 583.577 374.374 580.918 374.374 577.727C374.374 574.536 371.715 571.877 368.525 571.877C364.802 571.877 362.675 574.536 362.675 577.727Z" fill="white" fill-opacity="0.04"/>
<path d="M4.24414 542.63C4.24414 545.821 6.90314 547.948 9.56214 547.948C12.7529 547.948 14.8801 545.289 14.8801 542.63C14.8801 539.44 12.2211 537.312 9.56214 537.312C6.37134 537.312 4.24414 539.44 4.24414 542.63Z" fill="white" fill-opacity="0.04"/>
<path d="M40.4043 537.312C40.4043 540.503 43.0633 542.63 45.7223 542.63C48.9131 542.63 51.0403 539.971 51.0403 537.312C51.0403 534.121 48.3813 531.994 45.7223 531.994C43.0633 531.462 40.4043 534.121 40.4043 537.312Z" fill="white" fill-opacity="0.04"/>
<path d="M77.0977 533.057C77.0977 536.248 79.7567 538.375 82.4157 538.375C85.6065 538.375 87.7337 535.716 87.7337 533.057C87.7337 529.866 85.0747 527.739 82.4157 527.739C79.7567 527.207 77.0977 529.866 77.0977 533.057Z" fill="white" fill-opacity="0.04"/>
<path d="M119.643 524.549C116.452 524.549 114.325 527.208 114.325 529.867C114.325 533.058 116.984 535.185 119.643 535.185C122.834 535.185 124.961 532.526 124.961 529.867C125.493 527.208 122.834 524.549 119.643 524.549Z" fill="white" fill-opacity="0.04"/>
<path d="M156.868 523.482C153.677 523.482 151.55 526.141 151.55 528.8C151.55 531.991 154.209 534.118 156.868 534.118C160.059 534.118 162.186 531.459 162.186 528.8C162.186 525.61 160.059 523.482 156.868 523.482Z" fill="white" fill-opacity="0.04"/>
<path d="M193.563 523.482C190.372 523.482 188.245 526.141 188.245 528.8C188.245 531.991 190.904 534.118 193.563 534.118C196.754 534.118 198.881 531.459 198.881 528.8C199.413 525.61 196.754 523.482 193.563 523.482Z" fill="white" fill-opacity="0.04"/>
<path d="M230.788 524.549C227.597 524.549 225.47 527.208 225.47 529.867C225.47 533.058 228.129 535.185 230.788 535.185C233.979 535.185 236.106 532.526 236.106 529.867C236.106 527.208 233.979 524.549 230.788 524.549Z" fill="white" fill-opacity="0.04"/>
<path d="M262.167 533.057C262.167 536.248 264.826 538.375 267.485 538.375C270.676 538.375 272.803 535.716 272.803 533.057C272.803 529.866 270.144 527.739 267.485 527.739C264.826 527.207 262.167 529.866 262.167 533.057Z" fill="white" fill-opacity="0.04"/>
<path d="M298.86 537.312C298.86 540.503 301.519 542.63 304.178 542.63C307.369 542.63 309.496 539.971 309.496 537.312C309.496 534.121 306.837 531.994 304.178 531.994C301.519 531.462 298.86 534.121 298.86 537.312Z" fill="white" fill-opacity="0.04"/>
<path d="M335.554 542.63C335.554 545.821 338.213 547.948 340.872 547.948C344.063 547.948 346.19 545.289 346.19 542.63C346.19 539.44 343.531 537.312 340.872 537.312C338.213 537.312 335.554 539.44 335.554 542.63Z" fill="white" fill-opacity="0.04"/>
<path d="M377.566 555.394C380.796 555.394 383.415 552.775 383.415 549.544C383.415 546.313 380.796 543.694 377.566 543.694C374.335 543.694 371.716 546.313 371.716 549.544C371.716 552.775 374.335 555.394 377.566 555.394Z" fill="white" fill-opacity="0.04"/>
<path d="M18.6007 505.936C15.4099 505.936 13.2827 508.063 13.2827 511.254C13.2827 514.444 15.4099 516.572 18.6007 516.572C21.7915 516.572 23.9187 514.444 23.9187 511.254C23.9187 508.063 21.7915 505.936 18.6007 505.936Z" fill="white" fill-opacity="0.04"/>
<path d="M55.2941 501.15C52.1033 501.15 49.9761 503.278 49.9761 506.468C49.9761 509.659 52.1033 511.786 55.2941 511.786C58.4849 511.786 60.6121 509.659 60.6121 506.468C60.6121 503.278 57.9531 501.15 55.2941 501.15Z" fill="white" fill-opacity="0.04"/>
<path d="M91.9899 497.427C88.7991 497.427 86.6719 499.554 86.6719 502.745C86.6719 505.936 88.7991 508.063 91.9899 508.063C95.1807 508.063 97.3079 505.936 97.3079 502.745C97.3079 499.554 95.1807 497.427 91.9899 497.427Z" fill="white" fill-opacity="0.04"/>
<path d="M129.217 494.768C126.026 494.768 123.899 496.895 123.899 500.086C123.899 503.276 126.026 505.404 129.217 505.404C132.408 505.404 134.535 503.276 134.535 500.086C134.535 497.427 131.876 494.768 129.217 494.768Z" fill="white" fill-opacity="0.04"/>
<path d="M165.909 494.234C162.719 494.234 160.591 496.362 160.591 499.552C160.591 502.743 162.719 504.87 165.909 504.87C169.1 504.87 171.227 502.743 171.227 499.552C171.227 496.362 169.1 494.234 165.909 494.234Z" fill="white" fill-opacity="0.04"/>
<path d="M203.137 494.234C199.947 494.234 197.819 496.362 197.819 499.552C197.819 502.743 199.947 504.87 203.137 504.87C206.328 504.87 208.455 502.743 208.455 499.552C208.455 496.893 205.796 494.234 203.137 494.234Z" fill="white" fill-opacity="0.04"/>
<path d="M239.83 495.834C236.639 495.834 234.512 497.961 234.512 501.152C234.512 504.343 236.639 506.47 239.83 506.47C243.021 506.47 245.148 504.343 245.148 501.152C245.148 498.493 243.021 495.834 239.83 495.834Z" fill="white" fill-opacity="0.04"/>
<path d="M277.056 499.021C273.865 499.021 271.738 501.149 271.738 504.339C271.738 507.53 273.865 509.657 277.056 509.657C280.247 509.657 282.374 507.53 282.374 504.339C282.374 501.149 279.715 499.021 277.056 499.021Z" fill="white" fill-opacity="0.04"/>
<path d="M313.749 503.273C310.558 503.273 308.431 505.401 308.431 508.591C308.431 511.782 310.558 513.909 313.749 513.909C316.939 513.909 319.067 511.782 319.067 508.591C319.067 505.932 316.408 503.273 313.749 503.273Z" fill="white" fill-opacity="0.04"/>
<path d="M350.443 509.127C347.252 509.127 345.125 511.254 345.125 514.445C345.125 517.636 347.252 519.763 350.443 519.763C353.633 519.763 355.761 517.636 355.761 514.445C355.761 511.254 353.102 509.127 350.443 509.127Z" fill="white" fill-opacity="0.04"/>
<path d="M27.6412 475.089C24.9822 475.089 22.3232 477.216 22.3232 480.407C22.3232 483.066 24.4504 485.725 27.6412 485.725C30.3002 485.725 32.9592 483.598 32.9592 480.407C32.9592 477.216 30.3002 475.089 27.6412 475.089Z" fill="white" fill-opacity="0.04"/>
<path d="M64.3366 470.836C61.6776 470.836 59.0186 472.963 59.0186 476.154C59.0186 478.813 61.1458 481.472 64.3366 481.472C66.9956 481.472 69.6546 479.345 69.6546 476.154C69.6546 472.963 66.9956 470.836 64.3366 470.836Z" fill="white" fill-opacity="0.04"/>
<path d="M101.561 467.112C98.9022 467.112 96.2432 469.24 96.2432 472.43C96.2432 475.089 98.3704 477.748 101.561 477.748C104.752 477.748 106.879 475.621 106.879 472.43C106.347 469.771 104.22 467.112 101.561 467.112Z" fill="white" fill-opacity="0.04"/>
<path d="M138.255 465.52C135.596 465.52 132.938 467.647 132.938 470.838C132.938 473.497 135.065 476.156 138.255 476.156C140.914 476.156 143.573 474.028 143.573 470.838C143.573 467.647 140.914 465.52 138.255 465.52Z" fill="white" fill-opacity="0.04"/>
<path d="M175.482 464.457C172.823 464.457 170.164 466.584 170.164 469.775C170.164 472.434 172.291 475.093 175.482 475.093C178.141 475.093 180.8 472.966 180.8 469.775C180.268 467.116 178.141 464.457 175.482 464.457Z" fill="white" fill-opacity="0.04"/>
<path d="M212.176 465.52C209.517 465.52 206.858 467.647 206.858 470.838C206.858 473.497 208.985 476.156 212.176 476.156C214.835 476.156 217.494 474.028 217.494 470.838C217.494 467.647 215.367 465.52 212.176 465.52Z" fill="white" fill-opacity="0.04"/>
<path d="M249.401 467.112C246.742 467.112 244.083 469.24 244.083 472.43C244.083 475.089 246.21 477.748 249.401 477.748C252.06 477.748 254.719 475.621 254.719 472.43C254.187 469.771 252.06 467.112 249.401 467.112Z" fill="white" fill-opacity="0.04"/>
<path d="M286.098 470.836C283.439 470.836 280.78 472.963 280.78 476.154C280.78 478.813 282.907 481.472 286.098 481.472C288.757 481.472 291.416 479.345 291.416 476.154C291.416 472.963 288.757 470.836 286.098 470.836Z" fill="white" fill-opacity="0.04"/>
<path d="M322.791 475.089C320.132 475.089 317.473 477.216 317.473 480.407C317.473 483.066 319.6 485.725 322.791 485.725C325.45 485.725 328.109 483.598 328.109 480.407C328.109 477.216 325.45 475.089 322.791 475.089Z" fill="white" fill-opacity="0.04"/>
<path d="M359.485 480.94C356.826 480.94 354.167 483.068 354.167 486.258C354.167 488.917 356.294 491.576 359.485 491.576C362.144 491.576 364.803 489.449 364.803 486.258C364.271 483.068 362.144 480.94 359.485 480.94Z" fill="white" fill-opacity="0.04"/>
<path d="M-0.0126615 459.136C2.64634 459.136 4.77359 457.009 4.77359 454.35C4.77359 451.691 2.64634 449.563 -0.0126615 449.563C-2.67166 449.563 -4.79883 451.691 -4.79883 454.35C-4.79883 457.009 -2.67166 459.136 -0.0126615 459.136Z" fill="white" fill-opacity="0.04"/>
<path d="M36.6813 453.82C39.3403 453.82 41.4674 451.693 41.4674 449.034C41.4674 446.375 39.3403 444.248 36.6813 444.248C34.0223 444.248 31.895 446.375 31.895 449.034C31.895 451.693 34.0223 453.82 36.6813 453.82Z" fill="white" fill-opacity="0.04"/>
<path d="M73.9102 450.097C76.5692 450.097 78.6963 447.97 78.6963 445.311C78.6963 442.652 76.5692 440.524 73.9102 440.524C71.2512 440.524 69.1239 442.652 69.1239 445.311C68.5921 447.97 70.7194 450.097 73.9102 450.097Z" fill="white" fill-opacity="0.04"/>
<path d="M110.602 447.437C113.261 447.437 115.388 445.309 115.388 442.65C115.388 439.991 113.261 437.864 110.602 437.864C107.943 437.864 105.815 439.991 105.815 442.65C105.815 444.778 107.943 447.437 110.602 447.437Z" fill="white" fill-opacity="0.04"/>
<path d="M147.297 445.844C149.956 445.844 152.084 443.717 152.084 441.058C152.084 438.399 149.956 436.271 147.297 436.271C144.638 436.271 142.511 438.399 142.511 441.058C142.511 443.185 144.638 445.844 147.297 445.844Z" fill="white" fill-opacity="0.04"/>
<path d="M184.525 445.306C187.184 445.306 189.311 443.179 189.311 440.52C189.311 437.861 187.184 435.733 184.525 435.733C181.866 435.733 179.739 437.861 179.739 440.52C179.739 443.179 181.866 445.306 184.525 445.306Z" fill="white" fill-opacity="0.04"/>
<path d="M221.749 446.373C224.408 446.373 226.535 444.246 226.535 441.587C226.535 438.928 224.408 436.801 221.749 436.801C219.09 436.801 216.962 438.928 216.962 441.587C216.431 444.246 219.09 446.373 221.749 446.373Z" fill="white" fill-opacity="0.04"/>
<path d="M258.443 448.5C261.102 448.5 263.23 446.373 263.23 443.714C263.23 441.055 261.102 438.928 258.443 438.928C255.784 438.928 253.657 441.055 253.657 443.714C253.657 446.373 255.784 448.5 258.443 448.5Z" fill="white" fill-opacity="0.04"/>
<path d="M295.136 451.69C297.795 451.69 299.922 449.562 299.922 446.903C299.922 444.244 297.795 442.117 295.136 442.117C292.477 442.117 290.35 444.244 290.35 446.903C290.35 449.562 292.477 451.69 295.136 451.69Z" fill="white" fill-opacity="0.04"/>
<path d="M331.83 456.479C334.489 456.479 336.616 454.351 336.616 451.692C336.616 449.033 334.489 446.906 331.83 446.906C329.171 446.906 327.043 449.033 327.043 451.692C327.043 454.351 329.171 456.479 331.83 456.479Z" fill="white" fill-opacity="0.04"/>
<path d="M368.524 462.328C371.183 462.328 373.311 460.201 373.311 457.542C373.311 454.883 371.183 452.756 368.524 452.756C365.865 452.756 363.738 454.883 363.738 457.542C363.738 460.201 365.865 462.328 368.524 462.328Z" fill="white" fill-opacity="0.04"/>
<path d="M9.56009 428.293C12.2034 428.293 14.3463 426.15 14.3463 423.507C14.3463 420.864 12.2034 418.721 9.56009 418.721C6.91675 418.721 4.77393 420.864 4.77393 423.507C4.77393 426.15 6.91675 428.293 9.56009 428.293Z" fill="white" fill-opacity="0.04"/>
<path d="M46.256 422.976C48.915 422.976 51.0421 420.849 51.0421 418.19C51.0421 415.531 48.915 413.403 46.256 413.403C43.597 413.403 41.4697 415.531 41.4697 418.19C41.4697 420.849 43.597 422.976 46.256 422.976Z" fill="white" fill-opacity="0.04"/>
<path d="M82.9488 419.253C85.6078 419.253 87.7349 417.126 87.7349 414.467C87.7349 411.808 85.6078 409.681 82.9488 409.681C80.2898 409.681 78.1626 411.808 78.1626 414.467C78.1626 417.126 80.2898 419.253 82.9488 419.253Z" fill="white" fill-opacity="0.04"/>
<path d="M119.643 417.121C122.302 417.121 124.429 414.994 124.429 412.335C124.429 409.676 122.302 407.549 119.643 407.549C116.984 407.549 114.857 409.676 114.857 412.335C114.857 414.994 116.984 417.121 119.643 417.121Z" fill="white" fill-opacity="0.04"/>
<path d="M156.869 415.528C159.528 415.528 161.655 413.401 161.655 410.742C161.655 408.083 159.528 405.956 156.869 405.956C154.21 405.956 152.083 408.083 152.083 410.742C152.083 413.401 154.21 415.528 156.869 415.528Z" fill="white" fill-opacity="0.04"/>
<path d="M193.563 416.058C196.206 416.058 198.349 413.915 198.349 411.272C198.349 408.628 196.206 406.485 193.563 406.485C190.919 406.485 188.776 408.628 188.776 411.272C188.776 413.915 190.919 416.058 193.563 416.058Z" fill="white" fill-opacity="0.04"/>
<path d="M230.788 417.121C233.447 417.121 235.574 414.994 235.574 412.335C235.574 409.676 233.447 407.549 230.788 407.549C228.129 407.549 226.001 409.676 226.001 412.335C226.001 414.994 228.129 417.121 230.788 417.121Z" fill="white" fill-opacity="0.04"/>
<path d="M267.483 419.253C270.142 419.253 272.269 417.126 272.269 414.467C272.269 411.808 270.142 409.681 267.483 409.681C264.824 409.681 262.697 411.808 262.697 414.467C262.697 417.126 265.356 419.253 267.483 419.253Z" fill="white" fill-opacity="0.04"/>
<path d="M304.709 422.976C307.368 422.976 309.495 420.849 309.495 418.19C309.495 415.531 307.368 413.403 304.709 413.403C302.05 413.403 299.922 415.531 299.922 418.19C299.922 420.849 302.05 422.976 304.709 422.976Z" fill="white" fill-opacity="0.04"/>
<path d="M341.403 427.76C344.062 427.76 346.19 425.633 346.19 422.974C346.19 420.315 344.062 418.188 341.403 418.188C338.744 418.188 336.617 420.315 336.617 422.974C336.617 425.633 338.744 427.76 341.403 427.76Z" fill="white" fill-opacity="0.04"/>
<path d="M377.565 434.144C380.224 434.144 382.352 432.016 382.352 429.357C382.352 426.698 380.224 424.571 377.565 424.571C374.906 424.571 372.779 426.698 372.779 429.357C372.779 432.016 374.906 434.144 377.565 434.144Z" fill="white" fill-opacity="0.04"/>
<path d="M18.601 396.385C21.26 396.385 22.8554 394.258 22.8554 392.13C22.8554 390.003 20.7282 387.876 18.601 387.876C15.942 387.876 14.3467 390.003 14.3467 392.13C14.3467 394.258 15.942 396.385 18.601 396.385Z" fill="white" fill-opacity="0.04"/>
<path d="M55.2964 392.13C57.9554 392.13 59.5508 390.003 59.5508 387.875C59.5508 385.216 57.4236 383.621 55.2964 383.621C52.6374 383.621 51.042 385.748 51.042 387.875C51.042 390.003 52.6374 392.13 55.2964 392.13Z" fill="white" fill-opacity="0.04"/>
<path d="M91.9898 388.941C94.3394 388.941 96.2442 387.037 96.2442 384.687C96.2442 382.337 94.3394 380.433 91.9898 380.433C89.6401 380.433 87.7354 382.337 87.7354 384.687C87.7354 387.037 89.6401 388.941 91.9898 388.941Z" fill="white" fill-opacity="0.04"/>
<path d="M129.215 386.81C131.874 386.81 133.47 384.682 133.47 382.555C133.47 379.896 131.343 378.301 129.215 378.301C126.556 378.301 124.961 380.428 124.961 382.555C124.429 384.682 126.556 386.81 129.215 386.81Z" fill="white" fill-opacity="0.04"/>
<path d="M165.908 385.746C168.257 385.746 170.162 383.841 170.162 381.492C170.162 379.142 168.257 377.237 165.908 377.237C163.558 377.237 161.653 379.142 161.653 381.492C161.653 383.841 163.558 385.746 165.908 385.746Z" fill="white" fill-opacity="0.04"/>
<path d="M203.137 386.28C205.796 386.28 207.392 384.153 207.392 382.026C207.392 379.367 205.264 377.771 203.137 377.771C200.478 377.771 198.883 379.899 198.883 382.026C198.351 384.153 200.478 386.28 203.137 386.28Z" fill="white" fill-opacity="0.04"/>
<path d="M239.831 387.348C242.181 387.348 244.085 385.443 244.085 383.093C244.085 380.744 242.181 378.839 239.831 378.839C237.481 378.839 235.577 380.744 235.577 383.093C235.577 385.443 237.481 387.348 239.831 387.348Z" fill="white" fill-opacity="0.04"/>
<path d="M277.056 390.533C279.715 390.533 281.311 388.406 281.311 386.279C281.311 383.62 279.183 382.024 277.056 382.024C274.397 382.024 272.802 384.152 272.802 386.279C272.27 388.406 274.397 390.533 277.056 390.533Z" fill="white" fill-opacity="0.04"/>
<path d="M313.75 394.257C316.409 394.257 318.005 392.13 318.005 390.002C318.005 387.343 315.878 385.748 313.75 385.748C311.091 385.748 309.496 387.875 309.496 390.002C309.496 392.13 311.091 394.257 313.75 394.257Z" fill="white" fill-opacity="0.04"/>
<path d="M350.444 399.578C353.103 399.578 354.698 397.451 354.698 395.324C354.698 392.665 352.571 391.069 350.444 391.069C347.785 391.069 346.189 393.197 346.189 395.324C346.189 397.451 347.785 399.578 350.444 399.578Z" fill="white" fill-opacity="0.04"/>
<path d="M27.6406 365.54C29.7678 365.54 31.895 363.413 31.895 361.286C31.895 359.158 29.7678 357.031 27.6406 357.031C25.5134 357.031 23.3862 359.158 23.3862 361.286C23.3862 363.413 25.5134 365.54 27.6406 365.54Z" fill="white" fill-opacity="0.04"/>
<path d="M64.3364 361.285C66.4636 361.285 68.5909 359.158 68.5909 357.031C68.5909 354.904 66.4636 352.776 64.3364 352.776C62.2092 352.776 60.082 354.904 60.082 357.031C60.082 359.158 62.2092 361.285 64.3364 361.285Z" fill="white" fill-opacity="0.04"/>
<path d="M101.563 358.625C103.69 358.625 105.817 356.498 105.817 354.371C105.817 352.243 103.69 350.116 101.563 350.116C99.4358 350.116 97.3086 352.243 97.3086 354.371C97.3086 356.498 98.904 358.625 101.563 358.625Z" fill="white" fill-opacity="0.04"/>
<path d="M138.256 357.032C140.383 357.032 142.511 354.905 142.511 352.778C142.511 350.651 140.383 348.523 138.256 348.523C136.129 348.523 134.002 350.651 134.002 352.778C134.002 354.905 136.129 357.032 138.256 357.032Z" fill="white" fill-opacity="0.04"/>
<path d="M175.482 356.5C177.609 356.5 179.736 354.373 179.736 352.246C179.736 350.118 177.609 347.991 175.482 347.991C173.355 347.991 171.228 350.118 171.228 352.246C171.228 354.373 172.823 356.5 175.482 356.5Z" fill="white" fill-opacity="0.04"/>
<path d="M212.175 357.032C214.303 357.032 216.43 354.905 216.43 352.778C216.43 350.651 214.303 348.523 212.175 348.523C210.048 348.523 207.921 350.651 207.921 352.778C207.921 354.905 210.048 357.032 212.175 357.032Z" fill="white" fill-opacity="0.04"/>
<path d="M249.402 358.625C251.529 358.625 253.656 356.498 253.656 354.371C253.656 352.243 251.529 350.116 249.402 350.116C247.275 350.116 245.147 352.243 245.147 354.371C245.147 356.498 246.743 358.625 249.402 358.625Z" fill="white" fill-opacity="0.04"/>
<path d="M286.096 361.285C288.223 361.285 290.351 359.158 290.351 357.031C290.351 354.904 288.223 352.776 286.096 352.776C283.969 352.776 281.842 354.904 281.842 357.031C281.842 359.158 283.969 361.285 286.096 361.285Z" fill="white" fill-opacity="0.04"/>
<path d="M322.789 365.54C324.916 365.54 327.043 363.413 327.043 361.286C327.043 359.158 324.916 357.031 322.789 357.031C320.662 357.031 318.535 359.158 318.535 361.286C318.535 363.413 320.662 365.54 322.789 365.54Z" fill="white" fill-opacity="0.04"/>
<path d="M359.486 370.856C361.836 370.856 363.74 368.952 363.74 366.602C363.74 364.252 361.836 362.348 359.486 362.348C357.136 362.348 355.231 364.252 355.231 366.602C355.231 368.952 357.136 370.856 359.486 370.856Z" fill="white" fill-opacity="0.04"/>
<path d="M-0.0098393 339.48C2.11736 339.48 3.71282 337.885 3.71282 335.758C3.71282 333.631 2.11736 332.035 -0.0098393 332.035C-2.13704 332.035 -3.73242 333.631 -3.73242 335.758C-3.73242 337.353 -2.13704 339.48 -0.0098393 339.48Z" fill="white" fill-opacity="0.04"/>
<path d="M36.6835 334.699C38.8107 334.699 40.4061 333.104 40.4061 330.977C40.4061 328.849 38.8107 327.254 36.6835 327.254C34.5563 327.254 32.9609 328.849 32.9609 330.977C32.9609 332.572 34.5563 334.699 36.6835 334.699Z" fill="white" fill-opacity="0.04"/>
<path d="M73.374 330.97C75.5012 330.97 77.6285 329.374 77.6285 326.715C77.6285 324.588 76.033 322.461 73.374 322.461C70.715 322.461 69.1196 324.056 69.1196 326.715C69.6514 328.843 71.2468 330.97 73.374 330.97Z" fill="white" fill-opacity="0.04"/>
<path d="M110.602 328.315C112.729 328.315 114.856 326.72 114.856 324.061C114.856 321.934 113.261 319.807 110.602 319.807C108.474 319.807 106.347 321.402 106.347 324.061C106.347 326.72 108.474 328.315 110.602 328.315Z" fill="white" fill-opacity="0.04"/>
<path d="M147.295 326.716C149.422 326.716 151.549 325.12 151.549 322.461C151.549 320.334 149.954 318.207 147.295 318.207C145.168 318.207 143.041 319.802 143.041 322.461C143.572 325.12 145.168 326.716 147.295 326.716Z" fill="white" fill-opacity="0.04"/>
<path d="M184.522 326.716C186.65 326.716 188.777 325.12 188.777 322.461C188.777 320.334 187.181 318.207 184.522 318.207C182.395 318.207 180.268 319.802 180.268 322.461C180.8 324.589 182.395 326.716 184.522 326.716Z" fill="white" fill-opacity="0.04"/>
<path d="M221.747 327.245C223.874 327.245 226.001 325.65 226.001 322.991C226.001 320.864 224.406 318.736 221.747 318.736C219.088 318.736 217.493 320.332 217.493 322.991C217.493 325.65 219.088 327.245 221.747 327.245Z" fill="white" fill-opacity="0.04"/>
<path d="M258.444 329.377C260.572 329.377 262.699 327.782 262.699 325.123C262.699 322.995 261.103 320.868 258.444 320.868C256.317 320.868 254.19 322.464 254.19 325.123C254.722 327.782 256.317 329.377 258.444 329.377Z" fill="white" fill-opacity="0.04"/>
<path d="M295.138 332.566C297.265 332.566 299.393 330.971 299.393 328.312C299.393 326.185 297.797 324.058 295.138 324.058C293.011 324.058 290.884 325.653 290.884 328.312C291.416 330.971 293.011 332.566 295.138 332.566Z" fill="white" fill-opacity="0.04"/>
<path d="M332.363 336.825C334.49 336.825 336.617 335.23 336.617 332.571C336.617 330.444 335.022 328.316 332.363 328.316C330.236 328.316 328.108 329.912 328.108 332.571C328.108 335.23 329.704 336.825 332.363 336.825Z" fill="white" fill-opacity="0.04"/>
<path d="M368.525 342.139C370.653 342.139 372.248 340.543 372.248 338.416C372.248 336.289 370.653 334.693 368.525 334.693C366.398 334.693 364.803 336.289 364.803 338.416C364.803 340.543 366.398 342.139 368.525 342.139Z" fill="white" fill-opacity="0.04"/>
<path d="M9.02784 308.106C11.155 308.106 12.7504 306.511 12.7504 304.384C12.7504 302.257 11.155 300.661 9.02784 300.661C6.90064 300.661 5.30518 302.257 5.30518 304.384C5.30518 306.511 6.90064 308.106 9.02784 308.106Z" fill="white" fill-opacity="0.04"/>
<path d="M45.7221 303.853C47.8493 303.853 49.4447 302.258 49.4447 300.131C49.4447 298.004 47.8493 296.408 45.7221 296.408C43.5949 296.408 41.9995 298.004 41.9995 300.131C41.9995 301.726 44.1267 303.853 45.7221 303.853Z" fill="white" fill-opacity="0.04"/>
<path d="M82.9467 300.129C85.0739 300.129 86.6693 298.533 86.6693 296.406C86.6693 294.279 85.0739 292.684 82.9467 292.684C80.8195 292.684 79.2241 294.279 79.2241 296.406C79.2241 298.533 80.8195 300.129 82.9467 300.129Z" fill="white" fill-opacity="0.04"/>
<path d="M119.643 297.999C121.771 297.999 123.366 296.403 123.366 294.276C123.366 292.149 121.771 290.554 119.643 290.554C117.516 290.554 115.921 292.149 115.921 294.276C115.921 296.403 117.516 297.999 119.643 297.999Z" fill="white" fill-opacity="0.04"/>
<path d="M156.869 296.936C158.996 296.936 160.592 295.341 160.592 293.214C160.592 291.087 158.996 289.491 156.869 289.491C154.742 289.491 153.146 291.087 153.146 293.214C153.146 295.341 154.742 296.936 156.869 296.936Z" fill="white" fill-opacity="0.04"/>
<path d="M193.564 296.936C195.691 296.936 197.286 295.341 197.286 293.214C197.286 291.087 195.691 289.491 193.564 289.491C191.437 289.491 189.841 291.087 189.841 293.214C189.841 295.341 191.968 296.936 193.564 296.936Z" fill="white" fill-opacity="0.04"/>
<path d="M230.789 297.999C232.917 297.999 234.512 296.403 234.512 294.276C234.512 292.149 232.917 290.554 230.789 290.554C228.662 290.554 227.067 292.149 227.067 294.276C227.067 296.403 228.662 297.999 230.789 297.999Z" fill="white" fill-opacity="0.04"/>
<path d="M267.482 300.129C269.61 300.129 271.205 298.533 271.205 296.406C271.205 294.279 269.61 292.684 267.482 292.684C265.355 292.684 263.76 294.279 263.76 296.406C263.76 298.533 265.887 300.129 267.482 300.129Z" fill="white" fill-opacity="0.04"/>
<path d="M304.709 303.853C306.837 303.853 308.432 302.258 308.432 300.131C308.432 298.004 306.837 296.408 304.709 296.408C302.582 296.408 300.987 298.004 300.987 300.131C300.987 301.726 302.582 303.853 304.709 303.853Z" fill="white" fill-opacity="0.04"/>
<path d="M341.403 308.106C343.531 308.106 345.126 306.511 345.126 304.384C345.126 302.257 343.531 300.661 341.403 300.661C339.276 300.661 337.681 302.257 337.681 304.384C337.681 306.511 339.276 308.106 341.403 308.106Z" fill="white" fill-opacity="0.04"/>
<path d="M378.097 313.424C380.224 313.424 381.819 311.828 381.819 309.701C381.819 307.574 380.224 305.979 378.097 305.979C375.969 305.979 374.374 307.574 374.374 309.701C374.374 311.828 375.969 313.424 378.097 313.424Z" fill="white" fill-opacity="0.04"/>
<path d="M18.6025 276.727C20.7297 276.727 22.3251 275.132 22.3251 273.005C22.3251 270.878 20.7297 269.282 18.6025 269.282C16.4753 269.282 14.8799 270.878 14.8799 273.005C14.8799 275.132 16.4753 276.727 18.6025 276.727Z" fill="white" fill-opacity="0.04"/>
<path d="M55.2958 273.005C57.423 273.005 59.0184 271.409 59.0184 269.282C59.0184 267.155 57.423 265.56 55.2958 265.56C53.1686 265.56 51.5732 267.155 51.5732 269.282C51.5732 271.409 53.1686 273.005 55.2958 273.005Z" fill="white" fill-opacity="0.04"/>
<path d="M91.9897 269.817C94.1169 269.817 95.7123 268.222 95.7123 266.095C95.7123 263.967 94.1169 262.372 91.9897 262.372C89.8625 262.372 88.2671 263.967 88.2671 266.095C88.7989 268.222 90.3943 269.817 91.9897 269.817Z" fill="white" fill-opacity="0.04"/>
<path d="M129.216 268.221C131.343 268.221 132.939 266.625 132.939 264.498C132.939 262.371 131.343 260.775 129.216 260.775C127.089 260.775 125.494 262.371 125.494 264.498C125.494 266.625 127.089 268.221 129.216 268.221Z" fill="white" fill-opacity="0.04"/>
<path d="M165.91 267.156C167.966 267.156 169.632 265.489 169.632 263.434C169.632 261.378 167.966 259.711 165.91 259.711C163.854 259.711 162.187 261.378 162.187 263.434C162.187 265.489 163.854 267.156 165.91 267.156Z" fill="white" fill-opacity="0.04"/>
<path d="M203.135 267.688C205.262 267.688 206.857 266.093 206.857 263.966C206.857 261.839 205.262 260.243 203.135 260.243C201.008 260.243 199.412 261.839 199.412 263.966C199.412 266.093 201.008 267.688 203.135 267.688Z" fill="white" fill-opacity="0.04"/>
<path d="M239.828 268.751C241.955 268.751 243.55 267.155 243.55 265.028C243.55 262.901 241.955 261.306 239.828 261.306C237.7 261.306 236.105 262.901 236.105 265.028C236.637 267.155 238.232 268.751 239.828 268.751Z" fill="white" fill-opacity="0.04"/>
<path d="M277.055 271.412C279.111 271.412 280.778 269.745 280.778 267.689C280.778 265.633 279.111 263.967 277.055 263.967C274.999 263.967 273.333 265.633 273.333 267.689C273.333 269.745 274.999 271.412 277.055 271.412Z" fill="white" fill-opacity="0.04"/>
<path d="M313.75 274.603C315.878 274.603 317.473 273.008 317.473 270.881C317.473 268.754 315.878 267.158 313.75 267.158C311.623 267.158 310.028 268.754 310.028 270.881C310.56 273.008 311.623 274.603 313.75 274.603Z" fill="white" fill-opacity="0.04"/>
<path d="M350.443 279.389C352.57 279.389 354.166 277.793 354.166 275.666C354.166 273.539 352.57 271.943 350.443 271.943C348.316 271.943 346.721 273.539 346.721 275.666C347.253 277.793 348.848 279.389 350.443 279.389Z" fill="white" fill-opacity="0.04"/>
<path d="M27.641 245.887C29.2364 245.887 30.8318 244.291 30.8318 242.696C30.8318 241.1 29.2364 239.505 27.641 239.505C26.0456 239.505 24.4502 241.1 24.4502 242.696C24.4502 244.291 25.5138 245.887 27.641 245.887Z" fill="white" fill-opacity="0.04"/>
<path d="M64.3359 242.164C65.9313 242.164 67.5267 240.568 67.5267 238.973C67.5267 237.378 65.9313 235.782 64.3359 235.782C62.7405 235.782 61.145 237.378 61.145 238.973C61.145 240.568 62.7405 242.164 64.3359 242.164Z" fill="white" fill-opacity="0.04"/>
<path d="M101.561 239.502C103.323 239.502 104.752 238.073 104.752 236.311C104.752 234.549 103.323 233.12 101.561 233.12C99.7987 233.12 98.3701 234.549 98.3701 236.311C98.3701 238.073 99.7987 239.502 101.561 239.502Z" fill="white" fill-opacity="0.04"/>
<path d="M138.254 237.91C139.85 237.91 141.445 236.315 141.445 234.719C141.445 233.124 139.85 231.528 138.254 231.528C136.659 231.528 135.063 233.124 135.063 234.719C135.063 236.846 136.659 237.91 138.254 237.91Z" fill="white" fill-opacity="0.04"/>
<path d="M175.481 237.377C177.077 237.377 178.672 235.781 178.672 234.186C178.672 232.591 177.077 230.995 175.481 230.995C173.886 230.995 172.291 232.591 172.291 234.186C171.759 236.313 173.354 237.377 175.481 237.377Z" fill="white" fill-opacity="0.04"/>
<path d="M212.176 237.91C213.772 237.91 215.367 236.315 215.367 234.719C215.367 233.124 213.772 231.528 212.176 231.528C210.581 231.528 208.985 233.124 208.985 234.719C208.985 236.846 210.581 237.91 212.176 237.91Z" fill="white" fill-opacity="0.04"/>
<path d="M249.403 239.502C250.998 239.502 252.594 237.906 252.594 236.311C252.594 234.716 250.998 233.12 249.403 233.12C247.807 233.12 246.212 234.716 246.212 236.311C245.68 237.906 247.276 239.502 249.403 239.502Z" fill="white" fill-opacity="0.04"/>
<path d="M286.097 242.164C287.692 242.164 289.288 240.568 289.288 238.973C289.288 237.378 287.692 235.782 286.097 235.782C284.502 235.782 282.906 237.378 282.906 238.973C282.906 240.568 284.502 242.164 286.097 242.164Z" fill="white" fill-opacity="0.04"/>
<path d="M322.791 245.887C324.386 245.887 325.982 244.291 325.982 242.696C325.982 241.1 324.386 239.505 322.791 239.505C321.196 239.505 319.6 241.1 319.6 242.696C319.6 244.291 321.196 245.887 322.791 245.887Z" fill="white" fill-opacity="0.04"/>
<path d="M359.484 250.67C361.079 250.67 362.675 249.074 362.675 247.479C362.675 245.883 361.079 244.288 359.484 244.288C357.888 244.288 356.293 245.883 356.293 247.479C356.293 249.074 357.888 250.67 359.484 250.67Z" fill="white" fill-opacity="0.04"/>
<path d="M-0.0118864 219.295C1.58351 219.295 3.17895 217.699 3.17895 216.104C3.17895 214.509 1.58351 212.913 -0.0118864 212.913C-1.60729 212.913 -3.20264 214.509 -3.20264 216.104C-3.20264 218.231 -1.60729 219.295 -0.0118864 219.295Z" fill="white" fill-opacity="0.04"/>
<path d="M36.6835 215.042C38.2789 215.042 39.8743 213.446 39.8743 211.851C39.8743 210.256 38.2789 208.66 36.6835 208.66C35.0881 208.66 33.4927 210.256 33.4927 211.851C33.4927 213.446 35.0881 215.042 36.6835 215.042Z" fill="white" fill-opacity="0.04"/>
<path d="M73.3768 211.847C74.9722 211.847 76.5676 210.252 76.5676 208.657C76.5676 207.061 74.9722 205.466 73.3768 205.466C71.7814 205.466 70.186 207.061 70.186 208.657C70.7178 210.252 71.7814 211.847 73.3768 211.847Z" fill="white" fill-opacity="0.04"/>
<path d="M110.604 209.191C112.199 209.191 113.795 207.596 113.795 206C113.795 204.405 112.199 202.81 110.604 202.81C109.008 202.81 107.413 204.405 107.413 206C107.413 208.128 109.008 209.191 110.604 209.191Z" fill="white" fill-opacity="0.04"/>
<path d="M147.297 208.125C148.892 208.125 150.488 206.529 150.488 204.934C150.488 203.339 148.892 201.743 147.297 201.743C145.701 201.743 144.106 203.339 144.106 204.934C144.638 206.529 145.701 208.125 147.297 208.125Z" fill="white" fill-opacity="0.04"/>
<path d="M184.522 208.125C186.285 208.125 187.713 206.696 187.713 204.934C187.713 203.172 186.285 201.743 184.522 201.743C182.76 201.743 181.332 203.172 181.332 204.934C181.332 206.696 182.76 208.125 184.522 208.125Z" fill="white" fill-opacity="0.04"/>
<path d="M221.749 208.661C223.345 208.661 224.94 207.066 224.94 205.47C224.94 203.875 223.345 202.279 221.749 202.279C220.154 202.279 218.559 203.875 218.559 205.47C218.559 207.066 219.622 208.661 221.749 208.661Z" fill="white" fill-opacity="0.04"/>
<path d="M258.443 210.254C260.038 210.254 261.634 208.658 261.634 207.063C261.634 205.467 260.038 203.872 258.443 203.872C256.847 203.872 255.252 205.467 255.252 207.063C255.252 209.19 256.847 210.254 258.443 210.254Z" fill="white" fill-opacity="0.04"/>
<path d="M295.668 213.446C297.263 213.446 298.859 211.851 298.859 210.255C298.859 208.66 297.263 207.064 295.668 207.064C294.072 207.064 292.477 208.66 292.477 210.255C292.477 211.851 293.541 213.446 295.668 213.446Z" fill="white" fill-opacity="0.04"/>
<path d="M332.36 217.168C333.956 217.168 335.551 215.572 335.551 213.977C335.551 212.382 333.956 210.786 332.36 210.786C330.765 210.786 329.169 212.382 329.169 213.977C329.169 215.572 330.765 217.168 332.36 217.168Z" fill="white" fill-opacity="0.04"/>
<path d="M369.058 221.955C370.653 221.955 372.249 220.359 372.249 218.764C372.249 217.169 370.653 215.573 369.058 215.573C367.463 215.573 365.867 217.169 365.867 218.764C365.867 220.891 367.463 221.955 369.058 221.955Z" fill="white" fill-opacity="0.04"/>
<path d="M9.03009 187.921C10.4986 187.921 11.6891 186.73 11.6891 185.262C11.6891 183.793 10.4986 182.603 9.03009 182.603C7.56157 182.603 6.37109 183.793 6.37109 185.262C6.37109 186.73 7.56157 187.921 9.03009 187.921Z" fill="white" fill-opacity="0.04"/>
<path d="M45.7235 184.197C47.192 184.197 48.3825 183.006 48.3825 181.538C48.3825 180.069 47.192 178.879 45.7235 178.879C44.2549 178.879 43.0645 180.069 43.0645 181.538C43.0645 183.006 44.2549 184.197 45.7235 184.197Z" fill="white" fill-opacity="0.04"/>
<path d="M82.9493 181.536C84.5447 181.536 85.6083 180.472 85.6083 178.877C85.6083 177.281 84.5447 176.218 82.9493 176.218C81.3539 176.218 80.2903 177.281 80.2903 178.877C79.7585 179.94 81.3539 181.536 82.9493 181.536Z" fill="white" fill-opacity="0.04"/>
<path d="M119.642 179.411C121.237 179.411 122.833 178.347 122.833 176.22C122.833 174.625 121.769 173.029 119.642 173.029C118.047 173.029 116.451 174.093 116.451 176.22C116.983 177.816 118.047 179.411 119.642 179.411Z" fill="white" fill-opacity="0.04"/>
<path d="M156.867 178.347C158.462 178.347 160.058 177.284 160.058 175.157C160.058 173.561 158.994 171.966 156.867 171.966C155.272 171.966 153.676 173.029 153.676 175.157C153.676 177.284 155.272 178.347 156.867 178.347Z" fill="white" fill-opacity="0.04"/>
<path d="M193.565 178.347C195.161 178.347 196.756 177.284 196.756 175.157C196.756 173.561 195.693 171.966 193.565 171.966C191.97 171.966 190.375 173.029 190.375 175.157C190.906 177.284 191.97 178.347 193.565 178.347Z" fill="white" fill-opacity="0.04"/>
<path d="M230.789 179.411C232.385 179.411 233.98 178.347 233.98 176.22C233.98 174.625 232.917 173.029 230.789 173.029C229.194 173.029 227.599 174.093 227.599 176.22C227.599 177.816 229.194 179.411 230.789 179.411Z" fill="white" fill-opacity="0.04"/>
<path d="M267.485 181.537C269.08 181.537 270.676 180.473 270.676 178.346C270.676 176.751 269.612 175.155 267.485 175.155C265.357 175.155 264.294 176.219 264.294 178.346C264.826 179.941 265.889 181.537 267.485 181.537Z" fill="white" fill-opacity="0.04"/>
<path d="M304.71 184.197C306.179 184.197 307.369 183.006 307.369 181.538C307.369 180.069 306.179 178.879 304.71 178.879C303.242 178.879 302.051 180.069 302.051 181.538C302.051 183.006 303.242 184.197 304.71 184.197Z" fill="white" fill-opacity="0.04"/>
<path d="M341.403 187.921C342.872 187.921 344.062 186.73 344.062 185.262C344.062 183.793 342.872 182.603 341.403 182.603C339.935 182.603 338.744 183.793 338.744 185.262C338.744 186.73 339.935 187.921 341.403 187.921Z" fill="white" fill-opacity="0.04"/>
<path d="M18.0687 157.604C19.6641 157.604 20.7277 156.541 20.7277 154.945C20.7277 153.35 19.6641 152.286 18.0687 152.286C16.4733 152.286 15.4097 153.35 15.4097 154.945C15.9415 156.009 17.0051 157.604 18.0687 157.604Z" fill="white" fill-opacity="0.04"/>
<path d="M55.2943 153.881C56.8897 153.881 57.9533 152.818 57.9533 151.222C57.9533 149.627 56.8897 148.563 55.2943 148.563C53.6989 148.563 52.6353 149.627 52.6353 151.222C52.6353 152.286 53.6989 153.881 55.2943 153.881Z" fill="white" fill-opacity="0.04"/>
<path d="M91.991 151.221C93.5864 151.221 94.65 150.158 94.65 148.562C94.65 146.967 93.5864 145.903 91.991 145.903C90.3956 145.903 89.332 146.967 89.332 148.562C89.332 150.158 90.3956 151.221 91.991 151.221Z" fill="white" fill-opacity="0.04"/>
<path d="M129.216 149.099C130.811 149.099 131.875 148.036 131.875 146.44C131.875 144.845 130.811 143.781 129.216 143.781C127.62 143.781 126.557 144.845 126.557 146.44C126.557 148.036 127.62 149.099 129.216 149.099Z" fill="white" fill-opacity="0.04"/>
<path d="M165.91 148.564C167.505 148.564 168.569 147.5 168.569 145.905C168.569 144.31 167.505 143.246 165.91 143.246C164.315 143.246 163.251 144.31 163.251 145.905C163.251 147.5 164.315 148.564 165.91 148.564Z" fill="white" fill-opacity="0.04"/>
<path d="M203.137 148.564C204.732 148.564 205.796 147.5 205.796 145.905C205.796 144.31 204.732 143.246 203.137 143.246C201.541 143.246 200.478 144.31 200.478 145.905C200.478 147.5 201.541 148.564 203.137 148.564Z" fill="white" fill-opacity="0.04"/>
<path d="M239.83 150.162C241.426 150.162 242.489 149.098 242.489 147.503C242.489 145.907 241.426 144.844 239.83 144.844C238.235 144.844 237.171 145.907 237.171 147.503C237.171 148.566 238.767 150.162 239.83 150.162Z" fill="white" fill-opacity="0.04"/>
<path d="M277.055 152.288C278.651 152.288 279.714 151.224 279.714 149.629C279.714 148.033 278.651 146.97 277.055 146.97C275.46 146.97 274.396 148.033 274.396 149.629C274.396 151.224 275.46 152.288 277.055 152.288Z" fill="white" fill-opacity="0.04"/>
<path d="M313.75 155.483C315.345 155.483 316.409 154.419 316.409 152.824C316.409 151.229 315.345 150.165 313.75 150.165C312.154 150.165 311.091 151.229 311.091 152.824C311.091 154.419 312.154 155.483 313.75 155.483Z" fill="white" fill-opacity="0.04"/>
<path d="M350.444 159.735C352.04 159.735 353.103 158.671 353.103 157.076C353.103 155.481 352.04 154.417 350.444 154.417C348.849 154.417 347.785 155.481 347.785 157.076C347.785 158.671 349.381 159.735 350.444 159.735Z" fill="white" fill-opacity="0.04"/>
<path d="M27.6401 126.763C28.7037 126.763 29.7673 125.7 29.7673 124.636C29.7673 123.572 28.7037 122.509 27.6401 122.509C26.5765 122.509 25.5128 123.572 25.5128 124.636C24.981 125.7 26.0447 126.763 27.6401 126.763Z" fill="white" fill-opacity="0.04"/>
<path d="M64.3362 123.04C65.9316 123.04 66.9952 121.976 66.9952 120.381C66.9952 118.785 65.9316 117.722 64.3362 117.722C62.7408 117.722 61.6772 118.785 61.6772 120.381C61.6772 121.976 63.2726 123.04 64.3362 123.04Z" fill="white" fill-opacity="0.04"/>
<path d="M101.56 120.914C103.156 120.914 104.219 119.85 104.219 118.255C104.219 116.659 103.156 115.596 101.56 115.596C99.965 115.596 98.9014 116.659 98.9014 118.255C98.9014 119.85 99.965 120.914 101.56 120.914Z" fill="white" fill-opacity="0.04"/>
<path d="M138.257 119.316C139.852 119.316 140.916 118.252 140.916 116.657C140.916 115.062 139.852 113.998 138.257 113.998C136.661 113.998 135.598 115.062 135.598 116.657C135.598 118.252 137.193 119.316 138.257 119.316Z" fill="white" fill-opacity="0.04"/>
<path d="M175.481 118.787C177.076 118.787 178.14 117.723 178.14 116.128C178.14 114.532 177.076 113.469 175.481 113.469C173.885 113.469 172.822 114.532 172.822 116.128C172.822 117.723 173.885 118.787 175.481 118.787Z" fill="white" fill-opacity="0.04"/>
<path d="M212.175 119.316C213.771 119.316 214.834 118.252 214.834 116.657C214.834 115.062 213.771 113.998 212.175 113.998C210.58 113.998 209.516 115.062 209.516 116.657C210.048 118.252 211.112 119.316 212.175 119.316Z" fill="white" fill-opacity="0.04"/>
<path d="M249.402 120.914C250.997 120.914 252.061 119.85 252.061 118.255C252.061 116.659 250.997 115.596 249.402 115.596C247.806 115.596 246.743 116.659 246.743 118.255C246.743 119.85 247.806 120.914 249.402 120.914Z" fill="white" fill-opacity="0.04"/>
<path d="M286.097 123.04C287.692 123.04 288.756 121.976 288.756 120.381C288.756 118.785 287.692 117.722 286.097 117.722C284.502 117.722 283.438 118.785 283.438 120.381C283.97 121.976 285.033 123.04 286.097 123.04Z" fill="white" fill-opacity="0.04"/>
<path d="M323.325 126.763C324.92 126.763 325.984 125.7 325.984 124.104C325.984 122.509 324.92 121.445 323.325 121.445C321.729 121.445 320.666 122.509 320.666 124.104C320.666 125.7 321.729 126.763 323.325 126.763Z" fill="white" fill-opacity="0.04"/>
<path d="M360.018 131.017C361.081 131.017 362.145 129.954 362.145 128.89C362.145 127.826 361.081 126.763 360.018 126.763C358.954 126.763 357.891 127.826 357.891 128.89C357.891 129.954 358.422 131.017 360.018 131.017Z" fill="white" fill-opacity="0.04"/>
<path d="M-0.0124815 99.6372C1.05112 99.6372 2.11477 98.5736 2.11477 97.51C2.11477 96.4464 1.05112 95.3828 -0.0124815 95.3828C-1.07608 95.3828 -2.13965 96.4464 -2.13965 97.51C-2.13965 98.5736 -1.07608 99.6372 -0.0124815 99.6372Z" fill="white" fill-opacity="0.04"/>
<path d="M36.6819 95.9185C37.7455 95.9185 38.8091 94.8548 38.8091 93.7912C38.8091 92.7277 37.7455 91.6641 36.6819 91.6641C35.6183 91.6641 34.5547 92.7277 34.5547 93.7912C34.5547 94.8548 35.6183 95.9185 36.6819 95.9185Z" fill="white" fill-opacity="0.04"/>
<path d="M73.3742 92.7241C74.4378 92.7241 75.5015 91.6605 75.5015 90.5969C75.5015 89.5333 74.4378 88.4697 73.3742 88.4697C72.3106 88.4697 71.2471 89.5333 71.2471 90.5969C71.2471 91.6605 72.3106 92.7241 73.3742 92.7241Z" fill="white" fill-opacity="0.04"/>
<path d="M110.602 90.6001C111.665 90.6001 112.729 89.5365 112.729 88.4729C112.729 87.4093 111.665 86.3457 110.602 86.3457C109.538 86.3457 108.475 87.4093 108.475 88.4729C108.475 89.5365 109.538 90.6001 110.602 90.6001Z" fill="white" fill-opacity="0.04"/>
<path d="M147.296 89.5366C148.36 89.5366 149.423 88.473 149.423 87.4094C149.423 86.3458 148.36 85.2822 147.296 85.2822C146.233 85.2822 145.169 86.3458 145.169 87.4094C145.169 88.473 146.233 89.5366 147.296 89.5366Z" fill="white" fill-opacity="0.04"/>
<path d="M184.524 89.0005C185.587 89.0005 186.651 87.9369 186.651 86.8733C186.651 85.8097 185.587 84.7461 184.524 84.7461C183.46 84.7461 182.396 85.8097 182.396 86.8733C182.396 87.9369 183.46 89.0005 184.524 89.0005Z" fill="white" fill-opacity="0.04"/>
<path d="M221.749 90.0679C222.812 90.0679 223.876 89.0043 223.876 87.9407C223.876 86.8771 222.812 85.8135 221.749 85.8135C220.685 85.8135 219.622 86.8771 219.622 87.9407C219.622 89.0043 220.153 90.0679 221.749 90.0679Z" fill="white" fill-opacity="0.04"/>
<path d="M258.444 91.6607C259.507 91.6607 260.571 90.5971 260.571 89.5335C260.571 88.4699 259.507 87.4062 258.444 87.4062C257.38 87.4062 256.316 88.4699 256.316 89.5335C256.316 90.5971 257.38 91.6607 258.444 91.6607Z" fill="white" fill-opacity="0.04"/>
<path d="M295.669 94.3218C296.733 94.3218 297.796 93.2582 297.796 92.1946C297.796 91.131 296.733 90.0674 295.669 90.0674C294.606 90.0674 293.542 91.131 293.542 92.1946C293.542 93.2582 294.074 94.3218 295.669 94.3218Z" fill="white" fill-opacity="0.04"/>
<path d="M332.363 97.5151C333.427 97.5151 334.49 96.4515 334.49 95.3879C334.49 94.3243 333.427 93.2607 332.363 93.2607C331.299 93.2607 330.236 94.3243 330.236 95.3879C330.236 96.4515 331.299 97.5151 332.363 97.5151Z" fill="white" fill-opacity="0.04"/>
<path d="M369.056 102.298C370.12 102.298 371.183 101.235 371.183 100.171C371.183 99.1076 370.12 98.0439 369.056 98.0439C367.992 98.0439 366.929 99.1076 366.929 100.171C366.929 101.235 367.992 102.298 369.056 102.298Z" fill="white" fill-opacity="0.04"/>
<path d="M9.03008 68.7935C10.0937 68.7935 11.1572 67.7299 11.1572 66.6663C11.1572 65.6027 10.0937 64.5391 9.03008 64.5391C7.96648 64.5391 6.90283 65.6027 6.90283 66.6663C6.90283 67.7299 7.96648 68.7935 9.03008 68.7935Z" fill="white" fill-opacity="0.04"/>
<path d="M45.7229 65.0689C46.7865 65.0689 47.85 64.0053 47.85 62.9417C47.85 61.8781 46.7865 60.8145 45.7229 60.8145C44.6593 60.8145 43.5957 61.8781 43.5957 62.9417C44.1275 64.0053 44.6593 65.0689 45.7229 65.0689Z" fill="white" fill-opacity="0.04"/>
<path d="M82.948 62.4126C84.0116 62.4126 85.0751 61.349 85.0751 60.2854C85.0751 59.2218 84.0116 58.1582 82.948 58.1582C81.8844 58.1582 80.8208 59.2218 80.8208 60.2854C80.8208 61.349 81.8844 62.4126 82.948 62.4126Z" fill="white" fill-opacity="0.04"/>
<path d="M119.644 60.2866C120.707 60.2866 121.771 59.223 121.771 58.1594C121.771 57.0958 120.707 56.0322 119.644 56.0322C118.58 56.0322 117.517 57.0958 117.517 58.1594C118.048 59.7548 118.58 60.2866 119.644 60.2866Z" fill="white" fill-opacity="0.04"/>
<path d="M156.868 59.7534C157.932 59.7534 158.996 58.6898 158.996 57.6262C158.996 56.5626 157.932 55.499 156.868 55.499C155.805 55.499 154.741 56.5626 154.741 57.6262C154.741 58.6898 155.805 59.7534 156.868 59.7534Z" fill="white" fill-opacity="0.04"/>
<path d="M193.565 59.7534C194.628 59.7534 195.692 58.6898 195.692 57.6262C195.692 56.5626 194.628 55.499 193.565 55.499C192.501 55.499 191.969 56.5626 191.969 57.6262C191.969 58.6898 192.501 59.7534 193.565 59.7534Z" fill="white" fill-opacity="0.04"/>
<path d="M230.79 60.8169C231.853 60.8169 232.917 59.7533 232.917 58.6897C232.917 57.6261 231.853 56.5625 230.79 56.5625C229.726 56.5625 228.663 57.6261 228.663 58.6897C228.663 59.7533 229.726 60.8169 230.79 60.8169Z" fill="white" fill-opacity="0.04"/>
<path d="M267.482 62.4126C268.546 62.4126 269.609 61.349 269.609 60.2854C269.609 59.2218 268.546 58.1582 267.482 58.1582C266.419 58.1582 265.355 59.2218 265.355 60.2854C265.887 61.349 266.419 62.4126 267.482 62.4126Z" fill="white" fill-opacity="0.04"/>
<path d="M304.707 65.0689C305.77 65.0689 306.834 64.0053 306.834 62.9417C306.834 61.8781 305.77 60.8145 304.707 60.8145C303.643 60.8145 302.58 61.8781 302.58 62.9417C302.58 64.0053 303.643 65.0689 304.707 65.0689Z" fill="white" fill-opacity="0.04"/>
<path d="M341.406 68.7935C342.469 68.7935 343.533 67.7299 343.533 66.6663C343.533 65.6027 342.469 64.5391 341.406 64.5391C340.342 64.5391 339.278 65.6027 339.278 66.6663C339.278 67.7299 340.342 68.7935 341.406 68.7935Z" fill="white" fill-opacity="0.04"/>
<path d="M18.0681 37.9525C18.9492 37.9525 19.6635 37.2382 19.6635 36.3571C19.6635 35.476 18.9492 34.7617 18.0681 34.7617C17.187 34.7617 16.4727 35.476 16.4727 36.3571C16.4727 37.2382 17.187 37.9525 18.0681 37.9525Z" fill="white" fill-opacity="0.04"/>
<path d="M55.2951 34.2279C56.1762 34.2279 56.8905 33.5136 56.8905 32.6325C56.8905 31.7514 56.1762 31.0371 55.2951 31.0371C54.414 31.0371 53.6997 31.7514 53.6997 32.6325C53.6997 33.5136 54.414 34.2279 55.2951 34.2279Z" fill="white" fill-opacity="0.04"/>
<path d="M91.989 32.098C93.0526 32.098 93.5844 31.0344 93.5844 30.5026C93.5844 29.439 92.5208 28.9072 91.989 28.9072C90.9254 28.9072 90.3936 29.9708 90.3936 30.5026C90.3936 31.5662 90.9254 32.098 91.989 32.098Z" fill="white" fill-opacity="0.04"/>
<path d="M129.213 30.5053C130.277 30.5053 130.808 29.4416 130.808 28.9098C130.808 27.8462 129.745 27.3145 129.213 27.3145C128.149 27.3145 127.618 28.378 127.618 28.9098C127.086 29.9734 128.149 30.5053 129.213 30.5053Z" fill="white" fill-opacity="0.04"/>
<path d="M165.909 29.4418C166.79 29.4418 167.505 28.7275 167.505 27.8464C167.505 26.9653 166.79 26.251 165.909 26.251C165.028 26.251 164.314 26.9653 164.314 27.8464C164.314 28.7275 165.028 29.4418 165.909 29.4418Z" fill="white" fill-opacity="0.04"/>
<path d="M203.135 29.975C204.199 29.975 204.731 28.9114 204.731 28.3796C204.731 27.316 203.667 26.7842 203.135 26.7842C202.072 26.7842 201.54 27.8478 201.54 28.3796C201.008 29.4432 202.072 29.975 203.135 29.975Z" fill="white" fill-opacity="0.04"/>
<path d="M239.831 31.0394C240.895 31.0394 241.427 29.9758 241.427 29.444C241.427 28.3804 240.363 27.8486 239.831 27.8486C238.768 27.8486 238.236 28.9122 238.236 29.444C238.236 30.5076 239.299 31.0394 239.831 31.0394Z" fill="white" fill-opacity="0.04"/>
<path d="M277.056 33.1654C278.12 33.1654 278.652 32.1018 278.652 31.57C278.652 30.5064 277.588 29.9746 277.056 29.9746C275.993 29.9746 275.461 31.0382 275.461 31.57C275.461 32.6336 275.993 33.1654 277.056 33.1654Z" fill="white" fill-opacity="0.04"/>
<path d="M313.75 35.8207C314.631 35.8207 315.346 35.1064 315.346 34.2253C315.346 33.3442 314.631 32.6299 313.75 32.6299C312.869 32.6299 312.155 33.3442 312.155 34.2253C312.155 35.1064 312.869 35.8207 313.75 35.8207Z" fill="white" fill-opacity="0.04"/>
<path d="M350.444 40.0736C351.507 40.0736 352.039 39.01 352.039 38.4782C352.039 37.4146 350.975 36.8828 350.444 36.8828C349.38 36.8828 348.848 37.9464 348.848 38.4782C348.848 39.5418 349.912 40.0736 350.444 40.0736Z" fill="white" fill-opacity="0.04"/>
<path d="M27.6403 7.11071C28.7039 7.11071 29.2357 6.57892 29.2357 5.51532C29.2357 4.45172 28.7039 3.91992 27.6403 3.91992C26.5767 3.91992 26.0449 4.45172 26.0449 5.51532C26.0449 6.57892 26.5767 7.11071 27.6403 7.11071Z" fill="white" fill-opacity="0.04"/>
<path d="M64.3376 3.91737C65.4012 3.91737 65.933 3.38556 65.933 2.32196C65.933 1.25836 65.4012 0.726562 64.3376 0.726562C63.274 0.726562 62.7422 1.25836 62.7422 2.32196C62.7422 3.38556 63.274 3.91737 64.3376 3.91737Z" fill="white" fill-opacity="0.04"/>
<path d="M101.563 1.7904C102.627 1.7904 103.159 1.2586 103.159 0.195005C103.159 -0.868595 102.627 -1.40039 101.563 -1.40039C100.5 -1.40039 99.9678 -0.868595 99.9678 0.195005C99.9678 1.2586 100.5 1.7904 101.563 1.7904Z" fill="white" fill-opacity="0.04"/>
<path d="M138.256 0.7279C139.32 0.7279 139.852 0.196105 139.852 -0.867495C139.852 -1.93109 139.32 -2.46289 138.256 -2.46289C137.193 -2.46289 136.661 -1.93109 136.661 -0.867495C136.661 -0.335695 137.193 0.7279 138.256 0.7279Z" fill="white" fill-opacity="0.04"/>
<path d="M175.483 0.192764C176.547 0.192764 177.078 -0.339031 177.078 -1.40263C177.078 -2.46623 176.547 -2.99805 175.483 -2.99805C174.419 -2.99805 173.888 -2.46623 173.888 -1.40263C173.888 -0.339031 174.419 0.192764 175.483 0.192764Z" fill="white" fill-opacity="0.04"/>
<path d="M212.177 0.7279C213.241 0.7279 213.772 0.196105 213.772 -0.867495C213.772 -1.93109 213.241 -2.46289 212.177 -2.46289C211.113 -2.46289 210.582 -1.93109 210.582 -0.867495C210.582 -0.335695 211.645 0.7279 212.177 0.7279Z" fill="white" fill-opacity="0.04"/>
<path d="M249.401 1.7904C250.465 1.7904 250.996 1.2586 250.996 0.195005C250.996 -0.868595 250.465 -1.40039 249.401 -1.40039C248.337 -1.40039 247.806 -0.868595 247.806 0.195005C247.806 1.2586 248.337 1.7904 249.401 1.7904Z" fill="white" fill-opacity="0.04"/>
<path d="M286.094 3.91737C287.158 3.91737 287.69 3.38556 287.69 2.32196C287.69 1.25836 287.158 0.726562 286.094 0.726562C285.031 0.726562 284.499 1.25836 284.499 2.32196C284.499 3.38556 285.563 3.91737 286.094 3.91737Z" fill="white" fill-opacity="0.04"/>
<path d="M323.322 7.11071C324.386 7.11071 324.917 6.57892 324.917 5.51532C324.917 4.45172 324.386 3.91992 323.322 3.91992C322.258 3.91992 321.727 4.45172 321.727 5.51532C321.727 6.57892 322.258 7.11071 323.322 7.11071Z" fill="white" fill-opacity="0.04"/>
<path d="M360.015 11.3646C361.078 11.3646 361.61 10.8328 361.61 9.76922C361.61 8.70562 361.078 8.17383 360.015 8.17383C358.951 8.17383 358.419 8.70562 358.419 9.76922C358.419 10.301 358.951 11.3646 360.015 11.3646Z" fill="white" fill-opacity="0.04"/>
</svg>
