<svg width="29" height="29" viewBox="0 0 29 29" fill="none" xmlns="http://www.w3.org/2000/svg">
<circle cx="14.4565" cy="14.4565" r="14.4565" fill="#002047"/>
<path d="M14.4564 9.2002C13.0288 9.2002 12.8496 9.20644 12.2889 9.23196C11.7293 9.25758 11.3473 9.34618 11.013 9.47618C10.6673 9.61045 10.374 9.79007 10.0818 10.0824C9.7894 10.3746 9.60979 10.6679 9.47509 11.0135C9.34477 11.3479 9.25606 11.73 9.23087 12.2894C9.20579 12.8501 9.19922 13.0294 9.19922 14.4571C9.19922 15.8848 9.20557 16.0634 9.23098 16.6242C9.25671 17.1838 9.34531 17.5658 9.4752 17.9001C9.60957 18.2458 9.78918 18.5391 10.0815 18.8313C10.3736 19.1237 10.6668 19.3038 11.0124 19.438C11.3468 19.568 11.7289 19.6566 12.2884 19.6823C12.8492 19.7078 13.0282 19.714 14.4558 19.714C15.8835 19.714 16.0621 19.7078 16.6229 19.6823C17.1825 19.6566 17.5649 19.568 17.8994 19.438C18.245 19.3038 18.5378 19.1237 18.8299 18.8313C19.1223 18.5391 19.3019 18.2458 19.4366 17.9002C19.5659 17.5658 19.6546 17.1837 19.6809 16.6243C19.7061 16.0635 19.7126 15.8848 19.7126 14.4571C19.7126 13.0294 19.7061 12.8502 19.6809 12.2895C19.6546 11.7299 19.5659 11.3479 19.4366 11.0136C19.3019 10.6679 19.1223 10.3746 18.8299 10.0824C18.5375 9.78996 18.2451 9.61034 17.899 9.47618C17.5639 9.34618 17.1817 9.25758 16.6221 9.23196C16.0614 9.20644 15.8829 9.2002 14.4548 9.2002H14.4564ZM13.9848 10.1475C14.1248 10.1473 14.281 10.1475 14.4564 10.1475C15.86 10.1475 16.0263 10.1526 16.5806 10.1778C17.0931 10.2012 17.3713 10.2868 17.5566 10.3588C17.8019 10.4541 17.9768 10.568 18.1607 10.752C18.3447 10.936 18.4586 11.1112 18.5541 11.3565C18.626 11.5416 18.7118 11.8198 18.7351 12.3323C18.7603 12.8865 18.7657 13.053 18.7657 14.4559C18.7657 15.8588 18.7603 16.0253 18.7351 16.5795C18.7116 17.092 18.626 17.3702 18.5541 17.5553C18.4588 17.8006 18.3447 17.9753 18.1607 18.1592C17.9767 18.3432 17.802 18.4571 17.5566 18.5524C17.3715 18.6246 17.0931 18.7101 16.5806 18.7335C16.0264 18.7587 15.86 18.7642 14.4564 18.7642C13.0527 18.7642 12.8864 18.7587 12.3322 18.7335C11.8197 18.7098 11.5415 18.6242 11.3561 18.5522C11.1108 18.457 10.9356 18.3431 10.7516 18.1591C10.5676 17.9751 10.4537 17.8003 10.3582 17.5549C10.2863 17.3698 10.2005 17.0916 10.1772 16.579C10.152 16.0249 10.147 15.8584 10.147 14.4546C10.147 13.0508 10.152 12.8852 10.1772 12.331C10.2006 11.8185 10.2863 11.5403 10.3582 11.355C10.4535 11.1097 10.5676 10.9344 10.7516 10.7504C10.9356 10.5664 11.1108 10.4525 11.3561 10.357C11.5414 10.2848 11.8197 10.1993 12.3322 10.1758C12.8172 10.1539 13.0051 10.1473 13.9848 10.1462V10.1475ZM17.2624 11.0204C16.9142 11.0204 16.6316 11.3026 16.6316 11.651C16.6316 11.9993 16.9142 12.2818 17.2624 12.2818C17.6107 12.2818 17.8932 11.9993 17.8932 11.651C17.8932 11.3027 17.6107 11.0202 17.2624 11.0202V11.0204ZM14.4564 11.7575C12.9656 11.7575 11.7569 12.9662 11.7569 14.4571C11.7569 15.948 12.9656 17.1562 14.4564 17.1562C15.9473 17.1562 17.1555 15.948 17.1555 14.4571C17.1555 12.9662 15.9471 11.7575 14.4563 11.7575H14.4564ZM14.4564 12.7048C15.4241 12.7048 16.2087 13.4893 16.2087 14.4571C16.2087 15.4248 15.4241 16.2094 14.4564 16.2094C13.4886 16.2094 12.7042 15.4248 12.7042 14.4571C12.7042 13.4893 13.4886 12.7048 14.4564 12.7048Z" fill="white"/>
</svg>
