<svg width="39" height="39" viewBox="0 0 39 39" fill="none" xmlns="http://www.w3.org/2000/svg">
<circle cx="19.4565" cy="19.4565" r="19.4565" fill="#001A3A"/>
<path d="M19.4563 12.3818C17.5349 12.3818 17.2938 12.3902 16.5391 12.4246C15.7859 12.4591 15.2718 12.5783 14.822 12.7533C14.3567 12.934 13.9619 13.1757 13.5687 13.5691C13.1752 13.9624 12.9334 14.3571 12.7521 14.8223C12.5767 15.2723 12.4574 15.7866 12.4235 16.5395C12.3897 17.2942 12.3809 17.5355 12.3809 19.4569C12.3809 21.3784 12.3894 21.6188 12.4236 22.3735C12.4582 23.1267 12.5775 23.6408 12.7523 24.0907C12.9331 24.556 13.1749 24.9507 13.5683 25.344C13.9614 25.7376 14.3561 25.9799 14.8211 26.1606C15.2712 26.3355 15.7855 26.4548 16.5385 26.4893C17.2932 26.5236 17.5342 26.532 19.4554 26.532C21.377 26.532 21.6174 26.5236 22.3721 26.4893C23.1253 26.4548 23.6399 26.3355 24.0901 26.1606C24.5553 25.9799 24.9494 25.7376 25.3425 25.344C25.736 24.9507 25.9778 24.556 26.159 24.0908C26.333 23.6408 26.4524 23.1266 26.4877 22.3736C26.5216 21.619 26.5305 21.3784 26.5305 19.4569C26.5305 17.5355 26.5216 17.2943 26.4877 16.5396C26.4524 15.7864 26.333 15.2723 26.159 14.8224C25.9778 14.3571 25.736 13.9624 25.3425 13.5691C24.949 13.1756 24.5554 12.9338 24.0896 12.7533C23.6386 12.5783 23.1242 12.4591 22.371 12.4246C21.6164 12.3902 21.3761 12.3818 19.4541 12.3818H19.4563ZM18.8217 13.6568C19.01 13.6565 19.2202 13.6568 19.4563 13.6568C21.3453 13.6568 21.5692 13.6636 22.3152 13.6975C23.005 13.7291 23.3794 13.8443 23.6287 13.9412C23.9589 14.0694 24.1943 14.2227 24.4418 14.4703C24.6894 14.7179 24.8427 14.9538 24.9712 15.284C25.068 15.5331 25.1835 15.9074 25.2148 16.5973C25.2487 17.3431 25.2561 17.5671 25.2561 19.4553C25.2561 21.3435 25.2487 21.5675 25.2148 22.3134C25.1833 23.0032 25.068 23.3776 24.9712 23.6267C24.843 23.9568 24.6894 24.1919 24.4418 24.4394C24.1941 24.6871 23.9591 24.8403 23.6287 24.9686C23.3797 25.0659 23.005 25.1808 22.3152 25.2124C21.5694 25.2463 21.3453 25.2536 19.4563 25.2536C17.5672 25.2536 17.3433 25.2463 16.5975 25.2124C15.9077 25.1805 15.5333 25.0653 15.2838 24.9684C14.9536 24.8402 14.7178 24.6869 14.4702 24.4393C14.2225 24.1916 14.0693 23.9564 13.9407 23.6261C13.8439 23.377 13.7285 23.0026 13.6971 22.3128C13.6632 21.5669 13.6564 21.3429 13.6564 19.4535C13.6564 17.5642 13.6632 17.3413 13.6971 16.5955C13.7286 15.9057 13.8439 15.5313 13.9407 15.2819C14.069 14.9517 14.2225 14.7159 14.4702 14.4683C14.7178 14.2206 14.9536 14.0673 15.2838 13.9388C15.5332 13.8415 15.9077 13.7265 16.5975 13.6949C17.2501 13.6654 17.5031 13.6565 18.8217 13.6551V13.6568ZM23.2328 14.8316C22.7641 14.8316 22.3839 15.2114 22.3839 15.6803C22.3839 16.149 22.7641 16.5293 23.2328 16.5293C23.7016 16.5293 24.0818 16.149 24.0818 15.6803C24.0818 15.2116 23.7016 14.8313 23.2328 14.8313V14.8316ZM19.4563 15.8236C17.4499 15.8236 15.8231 17.4504 15.8231 19.4569C15.8231 21.4635 17.4499 23.0896 19.4563 23.0896C21.4628 23.0896 23.089 21.4635 23.089 19.4569C23.089 17.4504 21.4627 15.8236 19.4562 15.8236H19.4563ZM19.4563 17.0986C20.7587 17.0986 21.8146 18.1544 21.8146 19.4569C21.8146 20.7593 20.7587 21.8153 19.4563 21.8153C18.1538 21.8153 17.098 20.7593 17.098 19.4569C17.098 18.1544 18.1538 17.0986 19.4563 17.0986Z" fill="white"/>
</svg>
