<svg width="142" height="60" viewBox="0 0 142 60" fill="none" xmlns="http://www.w3.org/2000/svg">
<path d="M109.032 2.93799V30.2472L108.684 30.5349L108.336 30.8227L108.002 31.1249L107.682 31.427L107.377 31.7291L107.073 32.0457L106.782 32.3622L106.492 32.6788V2.93799H75.9616V27.8011H73.4356V2.93799H42.9054V27.8443H40.3793V2.93799H9.84911V31.3263L2.05322 57.0671H8.90547L12.3461 45.6715H13.3333L19.0241 57.0671H27.2991L21.7824 45.6715H34.2965L30.8268 57.0671H38.3033L41.7294 45.7003H43.3844V45.6714H45.7362H45.925H60.0505L56.7405 57.0383H64.2896L67.4979 45.6714H70.895L70.982 57.0383H77.3117L84.5849 45.6714H89.3466L86.8787 57.0383H94.3116L96.736 45.6714H101.033L101.004 46.3189L101.02 46.9808L101.049 47.6139L101.107 48.247L101.15 48.5491L101.194 48.8513L101.252 49.1534L101.31 49.4556L101.382 49.7577L101.455 50.0455L101.542 50.3333L101.629 50.6211L101.73 50.9088L101.832 51.1822L101.948 51.4556L102.064 51.7146L102.195 51.9879L102.326 52.2469L102.471 52.4915L102.616 52.7505L102.776 52.9951L102.95 53.2253L103.125 53.47L103.313 53.6858L103.502 53.916L103.691 54.1318L103.908 54.3476L104.126 54.5491L104.402 54.7793L104.678 55.0095L104.968 55.2253L105.273 55.4268L105.578 55.6282L105.883 55.8152L106.202 55.9734L106.536 56.1461L106.856 56.29L107.189 56.4338L107.523 56.5634L107.872 56.6929L108.22 56.8081L108.569 56.9088L108.917 57.0095L109.265 57.0958L109.962 57.254L110.674 57.3692L111.37 57.4699L112.067 57.5562L112.75 57.6138L113.417 57.6426L114.071 57.6714H114.695L115.537 57.6578L116.379 57.6441L117.236 57.601L118.092 57.5578L118.949 57.4858L119.805 57.4137L120.662 57.3274L121.518 57.2267L122.389 57.1115L123.26 56.982L124.131 56.8381L125.002 56.6943L125.873 56.5361L126.744 56.3634L127.615 56.1908L128.501 55.9893L131.085 45.6728H139.563V2.93932H109.033L109.032 2.93799ZM12.68 44.6068L12.7235 44.4486L12.8252 44.6068H12.68ZM39.276 29.2975L38.8405 30.7507L34.7756 44.132L34.6158 44.6068H21.2598L20.229 42.4197L34.6158 27.8443H25.3682L14.1172 39.8586L17.7611 27.8443H10.9379V4.01713H39.2759V29.2975H39.276ZM47.159 40.6068L46.9412 40.6204L46.738 40.6341L46.5202 40.6477H46.2879H45.9831H45.7217L45.4749 40.6614H45.2427L43.428 40.6477L44.27 37.5686L44.662 36.0434L45.6201 32.4608H45.925H46.2444L46.5492 32.4471H46.8396H48.2478L49.1043 32.4608L49.8882 32.4896L50.2367 32.5033L50.5706 32.5321L50.8899 32.5753L51.1803 32.6184L51.4416 32.6616L51.6884 32.7336L51.9207 32.8057L52.1239 32.892L52.2981 32.9784L52.4579 33.0936L52.6031 33.2088L52.7192 33.3526L52.7917 33.4678L52.8497 33.583L52.9077 33.7125L52.9512 33.8564L52.9803 34.0146L52.9956 34.1728V34.3455V34.5325L52.9803 34.7339L52.9666 34.9354L52.9231 35.1656L52.8796 35.3958L52.7488 35.885L52.5891 36.4318L52.4294 36.8922L52.2552 37.3382L52.0665 37.7555L51.8632 38.144L51.7615 38.3167L51.6598 38.4893L51.5436 38.662L51.4128 38.8202L51.2821 38.9784L51.1514 39.1222L51.0062 39.2661L50.8609 39.3956L50.7012 39.5108L50.5415 39.6403L50.3672 39.741L50.1785 39.8562L49.9898 39.9569L49.7865 40.0433L49.5833 40.1296L49.3655 40.2016L49.1333 40.288L48.8865 40.3455L48.6251 40.403L48.3638 40.4605L48.0735 40.5037L47.7831 40.5469L47.4783 40.5757L47.1589 40.6046L47.159 40.6068ZM67.8028 44.6068L70.7789 34.1032L70.8951 44.6068H67.8029H67.8028ZM72.3322 27.8011H65.2477L60.3699 44.6068H52.8498L53.1982 44.4629L53.5466 44.319L53.8805 44.1752L54.2144 44.017L54.5338 43.8588L54.8387 43.6717L55.1436 43.4991L55.4339 43.312L55.7243 43.1106L56.0001 42.9091L56.2614 42.7077L56.5227 42.4775L56.7695 42.2617L57.0018 42.017L57.2341 41.7868L57.4518 41.5278L57.6696 41.2833L57.8729 41.0099L58.0616 40.7509L58.2503 40.4631L58.4245 40.1753L58.5842 39.8876L58.744 39.5854L58.8892 39.2689L59.0344 38.9523L59.1652 38.6358L59.2812 38.3048L59.3974 37.9595L59.4845 37.6142L59.5862 37.2689L59.6587 36.8948L59.7312 36.5351L59.8329 35.9595L59.92 35.4128L59.978 34.8948L60.0215 34.4056L60.0369 33.9164L60.0215 33.4704L60.0079 33.0243L59.9498 32.607L59.8918 32.2186L59.7901 31.8301L59.6884 31.4704L59.5432 31.125L59.3834 30.7941L59.2092 30.4632L59.006 30.161L58.7737 29.8733L58.585 29.6718L58.3962 29.4704L58.193 29.2977L57.9753 29.1395L57.743 28.9813L57.5107 28.8375L57.2639 28.7079L57.0171 28.5927L56.7558 28.4775L56.4945 28.3912L56.2186 28.3048L55.9428 28.2185L55.6525 28.1465L55.3621 28.0889L55.0718 28.0314L54.7669 27.9883L54.1426 27.9019L53.5184 27.8587L52.8796 27.8155L52.2263 27.8019H50.9198H49.6277H49.2212H48.4953H47.5953H46.5935H45.6209H44.7934H44.2127H43.9949V4.0179H72.333V27.8019L72.3322 27.8011ZM89.5499 44.6068H85.2963L91.7421 34.5349L89.5499 44.6068ZM105.388 28.2759L105.373 34.1032L105.01 34.6068L104.676 35.1248L104.342 35.6428L104.038 36.1608L103.747 36.6788L103.457 37.2111L103.21 37.7291L102.963 38.2471L102.731 38.7507L102.528 39.2687L102.324 39.7723L102.15 40.2615L101.991 40.7507L101.845 41.2255L101.715 41.6859L101.598 42.1463L101.526 42.4485L101.453 42.765L101.381 43.0672L101.323 43.3837L101.265 43.6859L101.221 43.9881L101.178 44.2902L101.149 44.6068H96.9821L100.539 27.8443L88.5475 27.8306L77.8191 44.6075H77.0352V4.01786H105.388V28.2767L105.388 28.2759ZM121.735 51.47L121.14 51.5707L120.53 51.6571L119.92 51.7434L119.325 51.8154L118.73 51.8729L118.135 51.9161L117.554 51.945H116.973H116.596L116.218 51.9313L115.856 51.9025L115.493 51.8593L115.144 51.8018L114.81 51.7443L114.476 51.6723L114.157 51.5859L113.852 51.4852L113.547 51.3845L113.257 51.255L112.981 51.1255L112.705 50.9673L112.444 50.8091L112.197 50.6364L111.965 50.4637L111.733 50.2623L111.529 50.0465L111.326 49.8306L111.137 49.586L110.963 49.3415L110.803 49.0681L110.658 48.7947L110.513 48.5069L110.397 48.2048L110.295 47.8738L110.208 47.5429L110.121 47.1976L110.063 46.8379L110.019 46.4638L109.99 46.0753L109.975 45.6724H123.186L121.734 51.4709L121.735 51.47ZM138.488 44.6068H131.346L132.522 39.9161H118.207L117.031 44.6068H110.107V43.6427L110.194 43.2399L110.266 42.837L110.353 42.4053L110.44 41.9737L110.571 41.4989L110.702 41.0241L110.847 40.5492L111.007 40.0888L111.181 39.6284L111.37 39.1679L111.573 38.7219L111.776 38.2759L112.008 37.8298L112.241 37.4126L112.487 36.9809L112.763 36.578L113.039 36.1752L113.315 35.7867L113.62 35.4126L113.939 35.0529L114.273 34.7075L114.607 34.391L114.97 34.0745L115.333 33.7723L115.71 33.4989L116.117 33.2399L116.523 33.0097L116.944 32.7939L117.38 32.5925L117.83 32.4198L118.294 32.2759L118.774 32.1607L119.267 32.0601L119.775 31.988L120.298 31.9449L120.835 31.9312L121.256 31.9449L121.677 31.9737L122.098 32.0312L122.505 32.1176L122.708 32.1751L122.897 32.2326L123.085 32.2901L123.259 32.3765L123.434 32.4485L123.608 32.5492L123.768 32.6499L123.927 32.7505L124.073 32.8801L124.218 33.0096L124.349 33.1391L124.479 33.2973L124.595 33.4412L124.697 33.6138L124.784 33.8009L124.871 33.9879L124.944 34.1894L125.002 34.4052L125.045 34.621L125.089 34.8656L125.104 35.1102V35.3692V35.6426L125.075 35.9304H133.611L133.742 35.3404L133.858 34.6642L133.916 34.3045L133.945 33.916L133.974 33.5275V33.1246L133.961 32.7074L133.917 32.2757L133.874 32.0743L133.845 31.8585L133.787 31.6426L133.729 31.4268L133.656 31.1966L133.584 30.9808L133.497 30.7649L133.395 30.5491L133.293 30.3333L133.162 30.1175L133.032 29.9016L132.886 29.6858L132.712 29.4556L132.524 29.2398L132.335 29.0239L132.132 28.8225L131.914 28.6211L131.682 28.434L131.449 28.2614L131.202 28.0887L130.941 27.916L130.68 27.7722L130.404 27.6283L130.114 27.4845L129.823 27.3549L129.518 27.2254L129.199 27.1102L128.88 26.995L128.56 26.8943L128.212 26.808L127.878 26.7216L127.515 26.6353L127.152 26.5632L126.789 26.4912L126.412 26.4337L126.02 26.3905L125.221 26.3042L124.408 26.2322L123.552 26.2033L122.681 26.1897L122.027 26.2033L121.345 26.217L120.634 26.2602L119.893 26.3177L119.124 26.404L118.34 26.5047L117.542 26.6342L116.729 26.8069L116.322 26.8932L115.901 26.9939L115.495 27.1091L115.074 27.2243L114.653 27.3539L114.232 27.4977L113.811 27.6416L113.404 27.7998L112.983 27.9724L112.562 28.1595L112.156 28.3465L111.735 28.548L111.328 28.7638L110.922 28.994L110.515 29.2242L110.109 29.4832V4.01578H138.49V44.6054L138.488 44.6068Z" fill="#003087"/>
</svg>
