<svg width="89" height="89" viewBox="0 0 89 89" fill="none" xmlns="http://www.w3.org/2000/svg">
<rect width="89" height="89" rx="5.15942" fill="#F2F4F6"/>
<g clip-path="url(#clip0_880:391)">
<path fill-rule="evenodd" clip-rule="evenodd" d="M17.5009 35.783L18.5678 48.9893C18.7116 50.3531 19.0317 51.2298 19.4213 51.7122C19.5831 51.8946 19.7925 52.0282 20.0261 52.0978C20.2597 52.1675 20.5081 52.1705 20.7434 52.1065H20.8686H26.101C26.3874 52.1361 26.6766 52.0959 26.944 51.9893C27.2115 51.8826 27.449 51.7128 27.6364 51.4942L27.6596 51.4664C28.0449 50.8248 28.2351 50.085 28.207 49.3372V34.7579C28.1842 34.6939 28.1732 34.6263 28.1745 34.5584C28.1722 34.5399 28.1722 34.5213 28.1745 34.5028C28.1537 34.3082 28.0911 34.1205 27.991 33.9524C27.8909 33.7842 27.7557 33.6397 27.5947 33.5286C27.0406 33.2413 26.4169 33.1159 25.7949 33.1668H19.2451C18.9745 33.152 18.7037 33.1925 18.4493 33.2858C18.1949 33.3791 17.9622 33.5233 17.7653 33.7096C17.4545 34.0806 17.3432 34.7208 17.4963 35.7181V35.783H17.5009ZM59.184 35.2218C59.1833 35 59.1973 34.7784 59.2258 34.5584L56.8183 32.9395C56.4704 32.7076 56.09 32.4386 55.705 32.1695C54.3134 31.2047 52.9218 30.212 51.3771 29.8084C50.4763 29.5763 49.5518 29.4487 48.6218 29.4281C47.7688 29.4061 46.9169 29.4997 46.0891 29.7064C45.6065 29.8287 45.1395 30.0062 44.6975 30.2352C44.3083 30.4404 43.948 30.6962 43.6259 30.9959L41.9746 32.9303C41.9247 33.0245 41.8551 33.1068 41.7705 33.1715L37.2849 38.5106C37.3427 38.8242 37.4765 39.1188 37.6745 39.3687C37.8918 39.6347 38.1771 39.8367 38.5002 39.9532C38.8743 40.0873 39.2736 40.1365 39.6691 40.097C40.4217 40.0238 41.1354 39.7283 41.7194 39.2481L42.9672 38.2044C43.2827 37.9447 43.5471 37.7034 43.8068 37.4669C44.3433 36.9455 44.9307 36.4793 45.5602 36.0753C46.9518 35.2403 48.3435 35.2125 49.7351 37.5225L56.7858 50.265H59.184V35.2218ZM59.7546 33.1854C59.8631 33.0334 59.9875 32.8935 60.1257 32.7679C60.8692 32.1751 61.8069 31.8807 62.7558 31.9422H68.8788C70.1638 31.9422 71.1982 32.1695 71.9311 32.7262C72.7336 33.3477 73.114 34.2894 72.9516 35.6439L71.5971 49.6573C71.5749 50.7106 71.2174 51.7294 70.5766 52.5658C70.2483 52.9338 69.8377 53.2189 69.3781 53.3979C68.9186 53.5768 68.4233 53.6446 67.9326 53.5955H62.4265C61.7145 53.6514 61.008 53.4341 60.4504 52.9879C60.0248 52.6333 59.6841 52.1879 59.4531 51.6844H57.5466C57.7874 52.3605 57.8004 53.0969 57.5837 53.7811C57.3694 54.423 56.971 54.9877 56.4379 55.4046C55.9163 55.8166 55.2986 56.0895 54.6428 56.1978C53.9907 56.3076 53.3209 56.2337 52.7084 55.9845C52.096 56.6673 51.3084 57.1694 50.4309 57.4364C49.6305 57.6545 48.7818 57.6155 48.0048 57.325C47.3395 58.1228 46.4353 58.6855 45.4257 58.93C44.3791 59.1246 43.2974 58.9612 42.3549 58.4661C42.0311 58.7224 41.6737 58.933 41.2927 59.0924C40.7712 59.3081 40.21 59.4108 39.6459 59.3939C38.5305 59.4155 37.4471 59.0201 36.6076 58.2852C35.9129 57.5972 35.3361 56.7995 34.9006 55.9242L31.8576 50.6361H29.5012C29.3946 51.2421 29.1554 51.8171 28.8007 52.3199L28.7683 52.3663C28.4458 52.7642 28.0305 53.0767 27.559 53.2765C27.0875 53.4763 26.574 53.5572 26.0639 53.512H20.9196C20.4507 53.6158 19.9622 53.5889 19.5075 53.4343C19.0527 53.2798 18.6491 53.0034 18.3405 52.6353C17.7375 51.9349 17.32 50.7799 17.1437 49.1239V49.0636L16.0769 35.9083C15.8635 34.4888 16.0769 33.4823 16.6706 32.7957C16.9904 32.4508 17.38 32.1781 17.8136 31.9957C18.2471 31.8133 18.7146 31.7255 19.1848 31.7381H25.7856C26.6858 31.6791 27.5837 31.8838 28.3693 32.3272C28.9164 32.6754 29.3173 33.2116 29.4965 33.8348H33.9265C34.9397 33.1087 36.0541 32.5351 37.2338 32.1324C38.4688 31.7612 39.7692 31.66 41.0468 31.8355L42.5637 30.0311L42.6193 29.9708C43.0358 29.5755 43.504 29.2385 44.0109 28.9688C44.5527 28.6903 45.1237 28.4725 45.7133 28.3194C46.6677 28.0856 47.6487 27.978 48.631 27.9993C49.6723 28.0228 50.7073 28.166 51.7158 28.4261C53.4831 28.89 55.0092 29.9615 56.4936 31.0006C56.8508 31.2511 57.2033 31.4969 57.5837 31.752L59.7407 33.1854H59.7546ZM23.3132 45.9788C23.5576 45.9779 23.7968 46.0496 24.0004 46.1849C24.2041 46.3201 24.3629 46.5127 24.4569 46.7384C24.5508 46.964 24.5757 47.2125 24.5282 47.4523C24.4808 47.6921 24.3631 47.9124 24.1903 48.0852C24.0175 48.258 23.7972 48.3757 23.5574 48.4231C23.3176 48.4706 23.0691 48.4458 22.8435 48.3518C22.6178 48.2578 22.4252 48.099 22.2899 47.8953C22.1547 47.6917 22.083 47.4525 22.0839 47.2081C22.0852 46.8824 22.2151 46.5705 22.4453 46.3402C22.6756 46.11 22.9875 45.9801 23.3132 45.9788ZM56.0576 51.6195C55.9597 51.5768 55.8724 51.5131 55.8018 51.433C55.7313 51.3528 55.6792 51.2581 55.6494 51.1556L48.4965 38.2462C47.7033 36.9195 46.989 36.8824 46.2932 37.2952C45.7434 37.6587 45.2293 38.0734 44.7578 38.5338C44.4423 38.8214 44.1269 39.109 43.8671 39.3223L42.6008 40.366C41.7939 41.0225 40.8112 41.4259 39.7758 41.5257C39.1692 41.5799 38.5581 41.5008 37.9853 41.2938C37.4213 41.0851 36.9233 40.7296 36.5427 40.264C36.1099 39.7176 35.8528 39.0529 35.8051 38.3575C35.7978 38.2538 35.8126 38.1496 35.8486 38.0521C35.8846 37.9545 35.9409 37.8657 36.0139 37.7916L39.8779 33.1947C39.1222 33.1764 38.3686 33.2813 37.6467 33.5055C36.5478 33.8896 35.5116 34.4336 34.5712 35.1197C34.4402 35.2251 34.2754 35.2795 34.1074 35.2728H29.6403V49.1888H32.2705C32.4027 49.1886 32.5324 49.2249 32.6453 49.2936C32.7582 49.3624 32.85 49.4609 32.9106 49.5784L36.1577 55.2144C36.5189 55.9509 36.9879 56.6295 37.5493 57.2276C38.1414 57.729 38.8982 57.9934 39.6738 57.9698C40.0391 57.9802 40.4026 57.9139 40.7407 57.775C40.9575 57.686 41.1618 57.569 41.3483 57.4271L39.2563 53.512C39.1812 53.3468 39.1719 53.1593 39.23 52.9874C39.2882 52.8156 39.4097 52.6723 39.5697 52.5867C39.7296 52.5011 39.9162 52.4796 40.0915 52.5265C40.2667 52.5734 40.4176 52.6853 40.5134 52.8394L42.8049 57.1209C43.456 57.5373 44.2394 57.6948 45.0008 57.5626C45.7623 57.4304 46.4467 57.018 46.9194 56.4066L43.6213 51.2205C43.518 51.0618 43.482 50.8686 43.5211 50.6833C43.5603 50.498 43.6714 50.3359 43.83 50.2325C43.9905 50.1325 44.1838 50.0994 44.3685 50.1401C44.5531 50.1809 44.7145 50.2923 44.8181 50.4505L48.2924 55.9102C48.8438 56.1545 49.4612 56.2068 50.0458 56.0587C50.6625 55.8642 51.2142 55.5049 51.6415 55.0196L48.5012 49.0914C48.4107 48.9235 48.3907 48.7265 48.4455 48.5438C48.5003 48.3611 48.6255 48.2077 48.7934 48.1173C48.9613 48.0268 49.1583 48.0068 49.341 48.0616C49.5237 48.1164 49.6771 48.2416 49.7675 48.4095L53.0146 54.5418C53.4367 54.7806 53.9295 54.8627 54.4062 54.7738C54.8218 54.7074 55.2133 54.5348 55.5427 54.2728C55.8534 54.0366 56.0874 53.7138 56.2153 53.3451C56.3564 52.8843 56.3183 52.3873 56.1086 51.9534C56.0632 51.8499 56.0441 51.7368 56.0529 51.6241L56.0576 51.6195ZM65.4833 45.9788C65.7272 45.9807 65.965 46.0547 66.1668 46.1916C66.3686 46.3285 66.5253 46.5221 66.6171 46.748C66.7089 46.9739 66.7318 47.2219 66.6827 47.4608C66.6337 47.6997 66.515 47.9186 66.3416 48.0901C66.1682 48.2615 65.9479 48.3778 65.7085 48.4241C65.4691 48.4704 65.2214 48.4448 64.9965 48.3504C64.7717 48.2561 64.5799 48.0972 64.4452 47.8939C64.3106 47.6906 64.2393 47.4519 64.2402 47.2081C64.2414 46.8824 64.3713 46.5705 64.6016 46.3402C64.8318 46.11 65.1438 45.9801 65.4694 45.9788H65.4833Z" fill="#E35326"/>
</g>
<defs>
<clipPath id="clip0_880:391">
<rect width="57" height="31.4131" fill="white" transform="translate(16 28)"/>
</clipPath>
</defs>
</svg>
