<svg width="102" height="56" viewBox="0 0 102 56" fill="none" xmlns="http://www.w3.org/2000/svg">
<path fill-rule="evenodd" clip-rule="evenodd" d="M2.66533 13.8057L4.55777 37.2308C4.81284 39.6499 5.38057 41.2049 6.07173 42.0607C6.35861 42.3841 6.73018 42.621 7.14452 42.7446C7.55886 42.8682 7.99949 42.8735 8.4167 42.76H8.63886H17.92C18.428 42.8126 18.9411 42.7412 19.4154 42.552C19.8897 42.3629 20.3111 42.0616 20.6435 41.6739L20.6846 41.6246C21.368 40.4866 21.7054 39.1744 21.6556 37.8479V11.9873C21.6151 11.8738 21.5956 11.754 21.598 11.6335C21.5939 11.6007 21.5939 11.5676 21.598 11.5348C21.561 11.1897 21.45 10.8567 21.2725 10.5585C21.095 10.2603 20.8552 10.0039 20.5695 9.80691C19.5867 9.29729 18.4803 9.07486 17.377 9.16512H5.75906C5.27911 9.13888 4.79885 9.2107 4.34758 9.37622C3.89631 9.54173 3.48349 9.79746 3.13433 10.1278C2.58305 10.786 2.38558 11.9215 2.65711 13.6905V13.8057H2.66533ZM76.6021 12.8101C76.6009 12.4167 76.6256 12.0237 76.6762 11.6335L72.4058 8.76195C71.7887 8.35055 71.114 7.87333 70.4311 7.39611C67.9627 5.68468 65.4943 3.92389 62.7544 3.20805C61.1566 2.79628 59.5166 2.56989 57.867 2.53336C56.3541 2.49444 54.8428 2.6605 53.3745 3.02704C52.5185 3.24405 51.6902 3.55878 50.9061 3.96503C50.2158 4.32901 49.5767 4.78275 49.0054 5.31442L46.0763 8.7455C45.9879 8.91259 45.8644 9.05856 45.7142 9.17335L37.7577 18.6438C37.8604 19.2 38.0977 19.7226 38.4489 20.166C38.8343 20.6377 39.3405 20.996 39.9135 21.2027C40.5771 21.4406 41.2854 21.5277 41.9869 21.4578C43.3218 21.328 44.5878 20.8038 45.6237 19.952L47.837 18.1007C48.3965 17.64 48.8655 17.2121 49.3263 16.7925C50.2779 15.8677 51.3198 15.0408 52.4365 14.3241C54.9049 12.843 57.3733 12.7937 59.8417 16.8912L72.3482 39.4935H76.6021V12.8101ZM77.6142 9.19804C77.8067 8.92853 78.0273 8.68029 78.2724 8.45752C79.5912 7.40602 81.2545 6.88383 82.9377 6.99293H93.7986C96.0778 6.99293 97.9126 7.3961 99.2127 8.38346C100.636 9.48602 101.311 11.1563 101.023 13.5589L98.6202 38.4157C98.5808 40.284 97.9467 42.0912 96.8101 43.5746C96.2278 44.2274 95.4994 44.7332 94.6843 45.0506C93.8692 45.3681 92.9905 45.4882 92.1201 45.4012H82.3535C81.0906 45.5002 79.8374 45.1148 78.8484 44.3234C78.0935 43.6944 77.4891 42.9044 77.0793 42.0113H73.6976C74.1248 43.2106 74.1479 44.5167 73.7635 45.7304C73.3834 46.869 72.6766 47.8706 71.7311 48.6101C70.8058 49.341 69.7103 49.8251 68.5469 50.0171C67.3903 50.2118 66.2022 50.0808 65.1158 49.6386C64.0295 50.8498 62.6324 51.7405 61.0759 52.214C59.6562 52.6009 58.1509 52.5318 56.7726 52.0165C55.5925 53.4316 53.9887 54.4297 52.1979 54.8634C50.3414 55.2085 48.4227 54.9187 46.7509 54.0406C46.1765 54.4951 45.5425 54.8688 44.8667 55.1514C43.9418 55.534 42.9463 55.7163 41.9458 55.6862C39.9672 55.7245 38.0454 55.0233 36.5565 53.7197C35.3241 52.4994 34.3011 51.0844 33.5286 49.5317L28.131 40.1518H23.9512C23.7622 41.2267 23.3379 42.2467 22.7087 43.1385L22.6511 43.2208C22.0792 43.9265 21.3426 44.4809 20.5062 44.8353C19.6698 45.1897 18.7591 45.3332 17.8542 45.2531H8.72937C7.89753 45.4372 7.03115 45.3895 6.22453 45.1153C5.41791 44.8411 4.70195 44.3509 4.1546 43.698C3.08496 42.4556 2.34444 40.4068 2.03178 37.4694V37.3625L0.139339 14.0279C-0.239149 11.5101 0.139339 9.72463 1.19252 8.50689C1.75973 7.89507 2.4509 7.41127 3.21992 7.08777C3.98894 6.76427 4.81811 6.60852 5.6521 6.6309H17.3605C18.9573 6.52615 20.55 6.88929 21.9435 7.67586C22.9139 8.29348 23.625 9.24454 23.9429 10.35H31.8007C33.598 9.06195 35.5746 8.04456 37.6672 7.33028C39.8579 6.67192 42.1645 6.49233 44.4307 6.80369L47.1212 3.603L47.2199 3.49603C47.9587 2.7949 48.7891 2.19705 49.6883 1.71879C50.6494 1.22477 51.6621 0.838457 52.708 0.566867C54.4009 0.152206 56.1409 -0.0386653 57.8834 -0.000865035C59.7303 0.0406993 61.5663 0.294696 63.355 0.756111C66.4899 1.57891 69.1969 3.47958 71.8299 5.32265C72.4634 5.76696 73.0888 6.20305 73.7635 6.65559L77.5895 9.19804H77.6142ZM12.975 31.8909C13.4086 31.8892 13.8329 32.0164 14.194 32.2563C14.5552 32.4961 14.837 32.8379 15.0037 33.2381C15.1704 33.6384 15.2144 34.0791 15.1302 34.5045C15.046 34.9298 14.8374 35.3205 14.5308 35.6271C14.2243 35.9337 13.8335 36.1423 13.4082 36.2265C12.9829 36.3107 12.5421 36.2666 12.1419 36.1C11.7416 35.9333 11.3999 35.6515 11.16 35.2903C10.9202 34.9291 10.793 34.5048 10.7946 34.0713C10.7968 33.4937 11.0272 32.9403 11.4356 32.5319C11.8441 32.1234 12.3974 31.893 12.975 31.8909ZM71.0564 41.8961C70.8828 41.8204 70.728 41.7075 70.6028 41.5653C70.4777 41.4231 70.3854 41.2551 70.3324 41.0733L57.6448 18.1748C56.2378 15.8216 54.9707 15.7558 53.7365 16.488C52.7614 17.1328 51.8495 17.8684 51.0131 18.6849C50.4535 19.1951 49.894 19.7052 49.4333 20.0837L47.187 21.935C45.7559 23.0993 44.0126 23.815 42.1762 23.992C41.1002 24.0881 40.0162 23.9477 39.0002 23.5806C37.9998 23.2104 37.1164 22.5798 36.4413 21.754C35.6737 20.7847 35.2176 19.6057 35.133 18.3723C35.12 18.1882 35.1463 18.0036 35.2101 17.8305C35.2739 17.6574 35.3739 17.4999 35.5033 17.3684L42.3572 9.21449C41.0168 9.18206 39.68 9.36825 38.3995 9.76577C36.4504 10.4472 34.6123 11.412 32.9444 12.6291C32.7119 12.8161 32.4196 12.9125 32.1216 12.9006H24.198V37.5846H28.8633C29.0978 37.5843 29.3279 37.6486 29.5282 37.7706C29.7285 37.8925 29.8913 38.0673 29.9987 38.2758L35.7583 48.2728C36.3991 49.5792 37.231 50.7827 38.2267 51.8438C39.2771 52.733 40.6195 53.202 41.9952 53.1602C42.6432 53.1787 43.2879 53.061 43.8876 52.8147C44.2722 52.6568 44.6346 52.4493 44.9655 52.1976L41.2546 45.2531C41.1215 44.9601 41.1049 44.6274 41.2081 44.3225C41.3113 44.0177 41.5267 43.7636 41.8105 43.6117C42.0943 43.4599 42.4252 43.4217 42.7361 43.505C43.047 43.5883 43.3145 43.7867 43.4844 44.0601L47.5491 51.6545C48.704 52.393 50.0935 52.6724 51.4442 52.438C52.7949 52.2034 54.0089 51.472 54.8473 50.3874L48.9972 41.1885C48.814 40.907 48.7501 40.5642 48.8196 40.2356C48.889 39.9069 49.0861 39.6193 49.3675 39.4359C49.6522 39.2586 49.995 39.1998 50.3226 39.2721C50.6501 39.3444 50.9363 39.542 51.12 39.8226L57.2828 49.507C58.2609 49.9403 59.356 50.033 60.393 49.7703C61.4867 49.4253 62.4654 48.788 63.2234 47.9272L57.653 37.4118C57.4926 37.114 57.4572 36.7646 57.5544 36.4405C57.6516 36.1165 57.8735 35.8444 58.1714 35.684C58.4693 35.5236 58.8187 35.4881 59.1427 35.5853C59.4667 35.6825 59.7389 35.9045 59.8993 36.2023L65.6589 47.0797C66.4076 47.5032 67.2817 47.6489 68.1273 47.4911C68.8645 47.3734 69.5589 47.0673 70.1431 46.6025C70.6943 46.1835 71.1093 45.611 71.3362 44.9569C71.5866 44.1397 71.519 43.258 71.147 42.4885C71.0665 42.3049 71.0325 42.1042 71.0482 41.9043L71.0564 41.8961ZM87.7757 31.8909C88.2083 31.8941 88.6301 32.0254 88.988 32.2683C89.3459 32.5111 89.6239 32.8545 89.7868 33.2552C89.9497 33.6559 89.9902 34.0958 89.9032 34.5195C89.8163 34.9432 89.6057 35.3316 89.2981 35.6357C88.9906 35.9398 88.5998 36.146 88.1752 36.2282C87.7505 36.3104 87.3111 36.2649 86.9123 36.0975C86.5134 35.9302 86.1732 35.6484 85.9344 35.2877C85.6956 34.9271 85.569 34.5038 85.5706 34.0713C85.5728 33.4937 85.8032 32.9403 86.2117 32.5319C86.6201 32.1234 87.1734 31.893 87.7511 31.8909H87.7757Z" fill="#E35326"/>
</svg>
