<svg width="14" height="10" viewBox="0 0 14 10" fill="none" xmlns="http://www.w3.org/2000/svg">
<path d="M6.03033 1.47369C6.32322 1.1808 6.32322 0.705922 6.03033 0.413029C5.73744 0.120136 5.26256 0.120136 4.96967 0.413029L0.96967 4.41303C0.823223 4.55948 0.75 4.75142 0.75 4.94336C0.75 5.04505 0.770239 5.14202 0.806909 5.23045C0.843509 5.31891 0.897763 5.40178 0.96967 5.47369L4.96967 9.47369C5.26256 9.76658 5.73744 9.76658 6.03033 9.47369C6.32322 9.1808 6.32322 8.70592 6.03033 8.41303L3.31066 5.69336H13C13.4142 5.69336 13.75 5.35757 13.75 4.94336C13.75 4.52915 13.4142 4.19336 13 4.19336H3.31066L6.03033 1.47369Z" fill="black"/>
</svg>
