<svg width="39" height="39" viewBox="0 0 39 39" fill="none" xmlns="http://www.w3.org/2000/svg">
<circle cx="19.5434" cy="19.4565" r="19.4565" fill="#001A3A"/>
<g clip-path="url(#clip0_142_3602)">
<path d="M24.8241 24.8274H22.5139V21.2452C22.5139 20.391 22.4985 19.2914 21.3124 19.2914C20.1092 19.2914 19.9251 20.2221 19.9251 21.183V24.8271H17.615V17.4608H19.8327V18.4675H19.8638C20.0857 18.0917 20.4064 17.7826 20.7917 17.5731C21.1771 17.3635 21.6126 17.2614 22.0519 17.2776C24.3933 17.2776 24.825 18.8025 24.825 20.7863L24.8241 24.8274ZM15.0084 16.4539C14.7432 16.4539 14.484 16.3761 14.2635 16.2303C14.043 16.0845 13.8712 15.8772 13.7697 15.6347C13.6682 15.3921 13.6416 15.1252 13.6932 14.8677C13.7449 14.6102 13.8726 14.3737 14.06 14.188C14.2475 14.0023 14.4863 13.8759 14.7464 13.8246C15.0064 13.7733 15.276 13.7996 15.5209 13.9C15.7659 14.0004 15.9753 14.1705 16.1227 14.3888C16.27 14.6071 16.3487 14.8637 16.3487 15.1262C16.3488 15.3005 16.3141 15.4732 16.2468 15.6342C16.1794 15.7953 16.0807 15.9416 15.9563 16.0649C15.8318 16.1882 15.684 16.286 15.5214 16.3527C15.3587 16.4195 15.1844 16.4538 15.0084 16.4539ZM16.1634 24.8274H13.8509V17.4608H16.1634V24.8274ZM25.9758 11.6749H12.6901C12.3885 11.6715 12.0979 11.7868 11.8822 11.9955C11.6665 12.2041 11.5432 12.489 11.5396 12.7876V25.997C11.5431 26.2958 11.6663 26.5809 11.882 26.7897C12.0977 26.9986 12.3884 27.1141 12.6901 27.111H25.9758C26.2781 27.1147 26.5695 26.9995 26.7861 26.7906C27.0027 26.5818 27.1267 26.2964 27.1308 25.997V12.7866C27.1265 12.4875 27.0025 12.2022 26.7859 11.9936C26.5693 11.785 26.2779 11.67 25.9758 11.6739" fill="white"/>
</g>
<defs>
<clipPath id="clip0_142_3602">
<rect width="15.5652" height="15.5652" fill="white" transform="translate(11.7607 11.6738)"/>
</clipPath>
</defs>
</svg>
