<svg width="29" height="29" viewBox="0 0 29 29" fill="none" xmlns="http://www.w3.org/2000/svg">
<circle cx="14.5434" cy="14.4565" r="14.4565" fill="#002047"/>
<g clip-path="url(#clip0_168_226)">
<path d="M18.4668 18.4471H16.7503V15.7855C16.7503 15.1509 16.7389 14.3338 15.8576 14.3338C14.9636 14.3338 14.8268 15.0253 14.8268 15.7393V18.447H13.1103V12.9736H14.7582V13.7216H14.7812C14.9461 13.4424 15.1844 13.2128 15.4707 13.0571C15.757 12.9014 16.0806 12.8255 16.407 12.8375C18.1468 12.8375 18.4675 13.9705 18.4675 15.4446L18.4668 18.4471ZM11.1736 12.2255C10.9766 12.2255 10.784 12.1677 10.6201 12.0594C10.4563 11.951 10.3286 11.797 10.2532 11.6168C10.1778 11.4366 10.158 11.2383 10.1964 11.0469C10.2348 10.8556 10.3297 10.6799 10.4689 10.5419C10.6082 10.4039 10.7857 10.31 10.9789 10.2719C11.1721 10.2338 11.3724 10.2533 11.5544 10.3279C11.7365 10.4025 11.892 10.5289 12.0015 10.6911C12.111 10.8533 12.1695 11.0439 12.1695 11.239C12.1695 11.3685 12.1438 11.4968 12.0937 11.6165C12.0437 11.7361 11.9704 11.8449 11.8779 11.9365C11.7854 12.0281 11.6756 12.1007 11.5548 12.1503C11.4339 12.1999 11.3044 12.2254 11.1736 12.2255ZM12.0318 18.4471H10.3136V12.9736H12.0318V18.4471ZM19.3225 8.67461H9.45103C9.22698 8.67211 9.01107 8.75778 8.85078 8.91281C8.69049 9.06784 8.59893 9.27953 8.59619 9.50138V19.3162C8.59883 19.5382 8.69034 19.75 8.85063 19.9052C9.01092 20.0604 9.22687 20.1462 9.45103 20.1439H19.3225C19.5472 20.1467 19.7637 20.0611 19.9246 19.9059C20.0856 19.7507 20.1777 19.5386 20.1808 19.3162V9.50067C20.1776 9.27838 20.0854 9.06645 19.9245 8.91142C19.7635 8.7564 19.547 8.67097 19.3225 8.6739" fill="white"/>
</g>
<defs>
<clipPath id="clip0_168_226">
<rect width="11.5652" height="11.5652" fill="white" transform="translate(8.76074 8.67383)"/>
</clipPath>
</defs>
</svg>
