<svg width="32" height="42" viewBox="0 0 32 42" fill="none" xmlns="http://www.w3.org/2000/svg">
<path d="M16 41.2496C13.1581 38.8255 10.5239 36.168 8.125 33.3048C4.525 29.0051 0.250002 22.6016 0.250002 16.4996C0.246811 10.1265 4.08456 4.37969 9.9724 1.94071C15.8603 -0.498276 22.6376 0.851355 27.142 5.35981C30.104 8.30868 31.7633 12.3199 31.7501 16.4996C31.7501 22.6016 27.475 29.0051 23.875 33.3048C21.4761 36.168 18.8419 38.8255 16 41.2496ZM16 5.24956C9.78988 5.257 4.75744 10.2894 4.75 16.4996C4.75 19.1231 5.93575 23.6658 11.5788 30.4181C12.9696 32.0787 14.4453 33.6663 16 35.1746C17.5548 33.6681 19.0313 32.0828 20.4235 30.4248C26.0643 23.6636 27.25 19.1208 27.25 16.4996C27.2426 10.2894 22.2101 5.257 16 5.24956ZM16 23.2496C12.2721 23.2496 9.25 20.2275 9.25 16.4996C9.25 12.7716 12.2721 9.74956 16 9.74956C19.7279 9.74956 22.75 12.7716 22.75 16.4996C22.75 18.2898 22.0388 20.0067 20.773 21.2725C19.5071 22.5384 17.7902 23.2496 16 23.2496Z" fill="white"/>
</svg>
