<svg width="36" height="36" viewBox="0 0 36 36" fill="none" xmlns="http://www.w3.org/2000/svg">
<path d="M18 31.4997C16.1054 29.8837 14.3493 28.112 12.75 26.2032C10.35 23.3367 7.5 19.0677 7.5 14.9997C7.49787 10.751 10.0564 6.91979 13.9816 5.29381C17.9068 3.66782 22.4251 4.56757 25.428 7.57321C27.4027 9.53912 28.5089 12.2133 28.5001 14.9997C28.5001 19.0677 25.65 23.3367 23.25 26.2032C21.6507 28.112 19.8946 29.8837 18 31.4997ZM18 7.49971C13.8599 7.50467 10.505 10.8596 10.5 14.9997C10.5 16.7487 11.2905 19.7772 15.0525 24.2787C15.9797 25.3858 16.9635 26.4442 18 27.4497C19.0366 26.4454 20.0209 25.3885 20.949 24.2832C24.7095 19.7757 25.5 16.7472 25.5 14.9997C25.495 10.8596 22.1401 7.50467 18 7.49971ZM18 19.4997C15.5147 19.4997 13.5 17.485 13.5 14.9997C13.5 12.5144 15.5147 10.4997 18 10.4997C20.4853 10.4997 22.5 12.5144 22.5 14.9997C22.5 16.1932 22.0259 17.3378 21.182 18.1817C20.3381 19.0256 19.1935 19.4997 18 19.4997Z" fill="white"/>
</svg>
