<?xml version="1.0" encoding="utf-8"?>
<!-- Generator: Adobe Illustrator 23.0.3, SVG Export Plug-In . SVG Version: 6.00 Build 0)  -->
<svg version="1.1" id="Layer_1" xmlns="http://www.w3.org/2000/svg" xmlns:xlink="http://www.w3.org/1999/xlink" x="0px" y="0px"
	 viewBox="0 0 680.65 208.87" style="enable-background:new 0 0 680.65 208.87;" xml:space="preserve">
<g>
	<g>
		<g>
			<path d="M47.03,87.8c1.8-1.85,3.94-3.33,6.4-4.42c2.46-1.09,5.12-1.64,7.96-1.64c4.52,0,8.34,1.14,11.47,3.43
				c3.12,2.29,5.45,5.31,6.97,9.07h8.92c-0.81-3-2.08-5.75-3.81-8.27c-1.73-2.51-3.79-4.67-6.17-6.48c-2.39-1.8-5.04-3.21-7.96-4.23
				c-2.92-1.02-5.96-1.52-9.11-1.52c-4.06,0-7.86,0.75-11.39,2.25c-3.53,1.5-6.59,3.53-9.18,6.1c-2.59,2.57-4.62,5.59-6.1,9.07
				c-1.47,3.48-2.21,7.2-2.21,11.16c0,3.96,0.74,7.67,2.21,11.13c1.47,3.46,3.51,6.48,6.1,9.07c2.59,2.59,5.64,4.64,9.14,6.13
				c3.51,1.5,7.32,2.25,11.43,2.25c3.15,0,6.16-0.5,9.03-1.49c2.87-0.99,5.49-2.37,7.85-4.15c2.36-1.78,4.41-3.9,6.13-6.36
				c1.73-2.46,3.05-5.17,3.96-8.12h-9.07c-1.63,3.66-3.96,6.58-7.01,8.76c-3.05,2.19-6.78,3.28-11.2,3.28c-2.85,0-5.5-0.53-7.96-1.6
				c-2.47-1.07-4.6-2.54-6.4-4.42c-1.8-1.88-3.23-4.06-4.27-6.55c-1.04-2.49-1.56-5.13-1.56-7.93c0-2.84,0.52-5.51,1.56-8
				C43.8,91.83,45.23,89.66,47.03,87.8z"/>
		</g>
		<g>
			<path d="M133.34,82.5l0.85,0l6.82,0.06h5.84l0.45-0.01l0,0.01h1.86c4.11,0,7.18,0.95,9.18,2.86c2.01,1.91,3.01,4.43,3.01,7.58
				c0,1.27-0.25,2.55-0.76,3.85c-0.51,1.3-1.27,2.48-2.29,3.54c-1.02,1.07-2.29,1.93-3.81,2.59c-1.52,0.66-3.33,0.99-5.41,0.99h-4.5
				l16.77,26.52h9.53l-13.26-20.65c1.98-0.61,3.72-1.49,5.22-2.63c1.5-1.14,2.76-2.45,3.77-3.92c1.02-1.47,1.78-3.1,2.29-4.88
				c0.51-1.78,0.76-3.58,0.76-5.41c0-2.54-0.47-4.92-1.41-7.13c-0.94-2.21-2.27-4.13-4-5.75c-1.73-1.63-3.8-2.91-6.21-3.85
				c-2.41-0.94-5.09-1.41-8.04-1.41h-7.9h-9.3h-0.1l-0.02,0.18l-1.59,16.39L133.34,82.5z"/>
		</g>
		<g>
			<path d="M141.01,187.01V84.67l-8.31,21.9v84.29c0.6-0.24,3.55,1.46,4.15,1.21C139.08,191.12,138.9,188.14,141.01,187.01z"/>
		</g>
		<g>
			<path d="M68.57,11.55h8.5l36.46,106.12l14.82-42.81h8.5l-19.18,54.92h-8.28L68.57,11.55z"/>
		</g>
	</g>
	<g>
		<g>
			<path d="M101.85,200.74c-26.29,0-51.01-10.24-69.59-28.83c-18.59-18.59-28.83-43.31-28.83-69.59s10.24-51.01,28.83-69.59
				C50.84,14.14,75.56,3.9,101.85,3.9s51.01,10.24,69.59,28.83c18.59,18.59,28.83,43.31,28.83,69.59s-10.24,51.01-28.83,69.59
				C152.85,190.5,128.14,200.74,101.85,200.74z M101.85,11.55c-24.25,0-47.04,9.44-64.18,26.59
				c-17.14,17.14-26.59,39.94-26.59,64.18s9.44,47.04,26.59,64.18c17.14,17.14,39.94,26.59,64.18,26.59
				c24.25,0,47.04-9.44,64.18-26.59c17.14-17.14,26.59-39.94,26.59-64.18s-9.44-47.04-26.59-64.18
				C148.89,20.99,126.09,11.55,101.85,11.55z"/>
		</g>
	</g>
	<path d="M287.98,94.18c-4.31,0-8.31-0.79-11.99-2.36c-3.68-1.57-6.87-3.72-9.59-6.43c-2.72-2.72-4.85-5.89-6.39-9.51
		c-1.55-3.62-2.32-7.51-2.32-11.67s0.77-8.06,2.32-11.71c1.54-3.65,3.68-6.82,6.39-9.51c2.72-2.69,5.92-4.82,9.63-6.39
		c3.7-1.57,7.68-2.36,11.95-2.36c3.3,0,6.48,0.53,9.55,1.6c3.06,1.07,5.85,2.54,8.35,4.43c2.5,1.89,4.66,4.15,6.47,6.79
		c1.81,2.64,3.14,5.53,4,8.67H307c-1.6-3.94-4.04-7.11-7.31-9.51s-7.28-3.6-12.02-3.6c-2.98,0-5.77,0.57-8.35,1.72
		c-2.58,1.15-4.82,2.69-6.71,4.63c-1.89,1.95-3.38,4.22-4.47,6.83c-1.09,2.61-1.64,5.41-1.64,8.39c0,2.93,0.55,5.7,1.64,8.31
		c1.09,2.61,2.58,4.9,4.47,6.87c1.89,1.97,4.13,3.52,6.71,4.63c2.58,1.12,5.37,1.68,8.35,1.68c4.63,0,8.55-1.14,11.75-3.44
		c3.2-2.29,5.65-5.35,7.35-9.19h9.51c-0.96,3.09-2.35,5.93-4.16,8.51c-1.81,2.58-3.95,4.81-6.43,6.67
		c-2.48,1.87-5.22,3.32-8.23,4.35C294.44,93.66,291.28,94.18,287.98,94.18z"/>
	<path d="M319.54,35.05h8.71v50.02h23.57v8.31h-32.28V35.05z"/>
	<path d="M356.7,35.05h35v8.23H365.4v16.7h26.29v8.23H365.4v16.86h26.29v8.31h-35V35.05z"/>
	<path d="M425.08,35.05h9.59v58.33h-8.71v-12.3h-21.73l-8.15,12.3h-9.83L425.08,35.05z M425.96,73.08V48.39l-16.38,24.69H425.96z"/>
	<path d="M440.34,35.05h18.14c3.09,0,5.9,0.49,8.43,1.48c2.53,0.99,4.7,2.33,6.51,4.03c1.81,1.71,3.21,3.72,4.19,6.03
		c0.99,2.32,1.48,4.81,1.48,7.47c0,1.92-0.27,3.81-0.8,5.67c-0.53,1.87-1.33,3.57-2.4,5.11c-1.07,1.55-2.38,2.92-3.95,4.11
		c-1.57,1.2-3.4,2.12-5.47,2.76l13.9,21.65h-9.99L452.8,65.57h4.71c2.18,0,4.08-0.35,5.67-1.04c1.6-0.69,2.93-1.6,4-2.72
		c1.06-1.12,1.86-2.36,2.4-3.72c0.53-1.36,0.8-2.7,0.8-4.04c0-3.3-1.05-5.95-3.16-7.95c-2.1-2-5.31-3-9.63-3h-8.55v50.26h-8.71
		V35.05z"/>
	<path d="M483.72,35.05h8.71v44.9l29.88-44.9h9.75l-38.75,58.33h-9.59V35.05z"/>
	<path d="M534.38,35.05h8.71v58.33h-8.71V35.05z"/>
	<path d="M549.32,35.05h35v8.23h-26.29v16.7h26.29v8.23h-26.29v16.86h26.29v8.31h-35V35.05z"/>
	<path d="M589.19,35.05h8.71v45.06l29.96-45.06h9.59v44.82l29.88-44.82h9.83l-38.75,58.33h-9.59V48.23l-30.04,45.14h-9.59V35.05z"/>
	<path d="M261.21,111.26h17.66c2.61,0,5.03,0.47,7.27,1.4c2.24,0.93,4.2,2.21,5.87,3.84c1.68,1.63,3,3.52,3.95,5.67
		c0.96,2.16,1.44,4.49,1.44,6.99c0,2.24-0.4,4.37-1.2,6.39c-0.8,2.03-1.91,3.82-3.32,5.39c-1.41,1.57-3.09,2.86-5.03,3.88
		c-1.95,1.01-4.09,1.65-6.43,1.92l16.22,22.85h-3.6l-17.66-25.17h2.24c2.24,0,4.32-0.41,6.23-1.24c1.92-0.83,3.58-1.94,4.99-3.36
		c1.41-1.41,2.52-3.04,3.32-4.87c0.8-1.84,1.2-3.77,1.2-5.79c0-2.08-0.4-4.04-1.2-5.87c-0.8-1.84-1.89-3.44-3.28-4.79
		c-1.39-1.36-3.04-2.44-4.95-3.24c-1.92-0.8-4-1.2-6.23-1.2h-14.54v55.53h-2.96V111.26z"/>
	<path d="M304.84,111.26h35.88v2.8H307.8v24.93h32.92v2.8H307.8v24.93h32.92v2.88h-35.88V111.26z"/>
	<path d="M364.61,170.39c-2.56,0-4.91-0.37-7.07-1.12c-2.16-0.75-4.02-1.82-5.59-3.24c-1.57-1.41-2.8-3.12-3.68-5.11
		c-0.88-2-1.32-4.25-1.32-6.75h3.04v0.32c0,1.97,0.37,3.76,1.12,5.35c0.75,1.6,1.76,2.98,3.04,4.15c1.28,1.17,2.81,2.08,4.59,2.72
		c1.78,0.64,3.72,0.96,5.79,0.96s4-0.32,5.75-0.96c1.76-0.64,3.28-1.53,4.55-2.68c1.28-1.14,2.28-2.52,3-4.11
		c0.72-1.6,1.08-3.36,1.08-5.27c0-2.29-0.4-4.21-1.2-5.75c-0.8-1.54-1.88-2.84-3.24-3.88c-1.36-1.04-2.93-1.9-4.71-2.6
		c-1.79-0.69-3.66-1.33-5.63-1.92c-2.08-0.64-4.07-1.33-5.99-2.08c-1.92-0.75-3.64-1.7-5.15-2.88c-1.52-1.17-2.73-2.64-3.64-4.39
		c-0.91-1.76-1.36-3.94-1.36-6.55c0-2.18,0.41-4.14,1.24-5.87c0.83-1.73,1.97-3.21,3.44-4.43c1.46-1.22,3.2-2.17,5.19-2.84
		c2-0.67,4.14-1,6.43-1c2.4,0,4.62,0.35,6.67,1.04c2.05,0.69,3.81,1.69,5.27,3c1.46,1.31,2.62,2.88,3.48,4.71
		c0.85,1.84,1.28,3.93,1.28,6.27h-3.04v-0.4c0-1.76-0.35-3.38-1.04-4.87c-0.69-1.49-1.64-2.76-2.84-3.8
		c-1.2-1.04-2.62-1.85-4.27-2.44c-1.65-0.59-3.46-0.88-5.43-0.88c-1.92,0-3.69,0.27-5.31,0.8c-1.63,0.53-3.04,1.31-4.24,2.32
		c-1.2,1.01-2.14,2.22-2.84,3.64c-0.69,1.41-1.04,3-1.04,4.75c0,2.13,0.39,3.9,1.16,5.31c0.77,1.41,1.82,2.61,3.16,3.6
		c1.33,0.99,2.89,1.81,4.67,2.48c1.78,0.67,3.72,1.32,5.79,1.96c2.13,0.64,4.17,1.37,6.11,2.2c1.94,0.83,3.68,1.87,5.19,3.12
		c1.52,1.25,2.73,2.78,3.64,4.59c0.91,1.81,1.36,4.02,1.36,6.63c0,2.34-0.44,4.49-1.32,6.43c-0.88,1.95-2.09,3.62-3.64,5.03
		c-1.55,1.41-3.38,2.5-5.51,3.28C369.43,170,367.11,170.39,364.61,170.39z"/>
	<path d="M389.45,111.26h35.88v2.8h-32.92v24.93h32.92v2.8h-32.92v24.93h32.92v2.88h-35.88V111.26z"/>
	<path d="M467.1,111.26h3.28v58.33h-2.96v-17.34h-27.81l-13.02,17.34h-3.52L467.1,111.26z M467.42,149.54V115.5l-25.73,34.04H467.42
		z"/>
	<path d="M479.72,111.26h17.66c2.61,0,5.03,0.47,7.27,1.4c2.24,0.93,4.2,2.21,5.87,3.84c1.68,1.63,3,3.52,3.95,5.67
		c0.96,2.16,1.44,4.49,1.44,6.99c0,2.24-0.4,4.37-1.2,6.39c-0.8,2.03-1.91,3.82-3.32,5.39c-1.41,1.57-3.09,2.86-5.03,3.88
		c-1.94,1.01-4.09,1.65-6.43,1.92l16.22,22.85h-3.6l-17.66-25.17h2.24c2.24,0,4.31-0.41,6.23-1.24c1.92-0.83,3.58-1.94,4.99-3.36
		c1.41-1.41,2.52-3.04,3.32-4.87c0.8-1.84,1.2-3.77,1.2-5.79c0-2.08-0.4-4.04-1.2-5.87c-0.8-1.84-1.89-3.44-3.28-4.79
		c-1.39-1.36-3.04-2.44-4.95-3.24c-1.92-0.8-4-1.2-6.23-1.2h-14.54v55.53h-2.96V111.26z"/>
	<path d="M551.55,170.39c-4.15,0-8.04-0.79-11.67-2.36c-3.62-1.57-6.79-3.72-9.51-6.43c-2.72-2.72-4.86-5.89-6.43-9.51
		c-1.57-3.62-2.36-7.51-2.36-11.67c0-4.15,0.79-8.04,2.36-11.67c1.57-3.62,3.72-6.79,6.43-9.51c2.72-2.72,5.89-4.86,9.51-6.43
		c3.62-1.57,7.51-2.36,11.67-2.36c3.3,0,6.47,0.51,9.51,1.52c3.04,1.01,5.81,2.42,8.31,4.23c2.5,1.81,4.67,3.98,6.51,6.51
		c1.84,2.53,3.24,5.29,4.2,8.27h-3.28c-0.91-2.56-2.18-4.93-3.84-7.11c-1.65-2.18-3.57-4.06-5.75-5.63
		c-2.18-1.57-4.61-2.8-7.27-3.68c-2.66-0.88-5.46-1.32-8.39-1.32c-3.73,0-7.23,0.72-10.51,2.16c-3.28,1.44-6.13,3.38-8.55,5.83
		c-2.42,2.45-4.33,5.33-5.71,8.63c-1.39,3.3-2.08,6.82-2.08,10.55c0,3.73,0.69,7.24,2.08,10.55c1.38,3.3,3.29,6.18,5.71,8.63
		c2.42,2.45,5.27,4.39,8.55,5.83c3.28,1.44,6.78,2.16,10.51,2.16c2.88,0,5.62-0.43,8.23-1.28c2.61-0.85,5.01-2.05,7.19-3.6
		c2.18-1.54,4.1-3.38,5.75-5.51c1.65-2.13,2.96-4.45,3.92-6.95h3.28c-1.01,2.93-2.45,5.63-4.32,8.11c-1.86,2.48-4.03,4.61-6.51,6.39
		c-2.48,1.79-5.19,3.17-8.15,4.15C557.98,169.9,554.85,170.39,551.55,170.39z"/>
	<path d="M626.74,141.79h-36.67v27.81h-2.96v-58.33h2.96v27.73h36.67v-27.73h2.96v58.33h-2.96V141.79z"/>
	<g>
		<rect x="231.35" y="3.9" width="2.32" height="196.84"/>
	</g>
</g>
</svg>
