<?xml version="1.0" encoding="UTF-8"?>
<!DOCTYPE svg PUBLIC "-//W3C//DTD SVG 1.1//EN" "http://www.w3.org/Graphics/SVG/1.1/DTD/svg11.dtd">
<!-- Creator: CorelDRAW X7 -->
<svg xmlns="http://www.w3.org/2000/svg" xml:space="preserve" width="9.4534in" height="2.90098in" version="1.1" style="shape-rendering:geometricPrecision; text-rendering:geometricPrecision; image-rendering:optimizeQuality; fill-rule:evenodd; clip-rule:evenodd"
viewBox="0 0 9453 2901"
 xmlns:xlink="http://www.w3.org/1999/xlink">
 <defs>
  <style type="text/css">
   <![CDATA[
    .fil0 {fill:black;fill-rule:nonzero}
   ]]>
  </style>
 </defs>
 <g id="__x0023_Layer_x0020_1">
  <metadata id="CorelCorpID_0Corel-Layer"/>
  <g id="_2266303144432">
   <g>
    <g>
     <path class="fil0" d="M653 1219c25,-25 55,-46 89,-61 34,-15 71,-23 111,-23 62,0 116,16 159,48 43,32 76,74 97,126l124 0c-12,-42 -29,-80 -53,-115 -24,-35 -53,-65 -86,-90 -33,-25 -70,-44 -111,-59 -40,-14 -82,-21 -126,-21 -57,0 -109,11 -158,31 -49,21 -92,49 -128,85 -36,36 -64,78 -85,126 -20,48 -30,100 -30,155 0,55 10,107 30,155 21,48 49,90 85,126 36,36 78,64 127,85 49,21 102,31 159,31 44,0 85,-7 125,-21 40,-13 77,-33 109,-57 33,-25 62,-54 86,-89 24,-34 42,-71 55,-112l-126 0c-23,50 -55,91 -98,121 -42,31 -94,46 -155,46 -40,0 -77,-8 -111,-22 -34,-15 -64,-36 -89,-62 -25,-26 -45,-56 -59,-91 -15,-34 -22,-71 -22,-110 0,-39 7,-76 22,-111 14,-35 34,-65 59,-91z"/>
    </g>
    <g>
     <path class="fil0" d="M1852 1146l12 0 94 1 82 0 6 0 0 0 26 0c57,0 99,13 127,39 28,27 42,62 42,106 0,17 -3,35 -11,53 -7,18 -17,34 -31,49 -14,15 -32,27 -53,36 -21,9 -46,14 -75,14l-63 0 233 368 132 0 -184 -286c28,-9 52,-21 73,-37 20,-16 38,-34 52,-54 14,-21 25,-44 32,-68 7,-25 10,-50 10,-75 0,-36 -6,-69 -19,-99 -13,-31 -32,-58 -56,-80 -24,-23 -52,-41 -86,-54 -34,-13 -71,-19 -112,-19l-109 0 -130 0 -1 0 0 2 -22 228 31 -124z"/>
    </g>
    <g>
     <path class="fil0" d="M1958 2597l0 -1421 -115 304 0 1171c8,-4 49,20 58,16 31,-13 28,-54 57,-70z"/>
    </g>
    <g>
     <polygon class="fil0" points="952,160 1070,160 1577,1634 1783,1040 1901,1040 1634,1803 1519,1803 "/>
    </g>
   </g>
   <g>
    <g>
     <path class="fil0" d="M1415 2788c-366,0 -709,-142 -967,-400 -258,-258 -400,-602 -400,-967 0,-365 142,-708 400,-966 258,-259 601,-401 967,-401 365,0 708,142 966,401 258,258 401,601 401,966 0,365 -143,709 -401,967 -258,258 -601,400 -966,400zm0 -2628l0 0c-337,0 -654,132 -892,370 -238,238 -369,554 -369,891 0,337 131,653 369,892 238,238 555,369 892,369 336,0 653,-131 891,-369 238,-239 369,-555 369,-892 0,-337 -131,-653 -369,-891 -238,-238 -555,-370 -891,-370z"/>
    </g>
   </g>
   <path class="fil0" d="M4000 1308c-60,0 -116,-11 -167,-33 -51,-22 -95,-51 -133,-89 -38,-38 -67,-82 -89,-132 -21,-50 -32,-104 -32,-162 0,-58 11,-112 32,-163 22,-50 51,-94 89,-132 38,-37 82,-67 134,-89 51,-21 107,-32 166,-32 46,0 90,7 132,22 43,15 82,35 116,61 35,27 65,58 90,95 25,36 44,77 56,120l-130 0c-22,-55 -56,-99 -102,-132 -45,-33 -101,-50 -167,-50 -41,0 -80,8 -116,24 -36,16 -67,37 -93,64 -26,27 -47,59 -62,95 -15,37 -23,75 -23,117 0,41 8,79 23,115 15,37 36,68 62,96 26,27 57,49 93,64 36,16 75,23 116,23 65,0 119,-16 163,-47 45,-32 79,-75 103,-128l132 0c-14,43 -33,82 -58,118 -25,36 -55,67 -89,93 -35,26 -73,46 -115,60 -42,15 -85,22 -131,22z"/>
   <polygon class="fil0" points="4438,487 4559,487 4559,1181 4886,1181 4886,1297 4438,1297 "/>
   <polygon class="fil0" points="4954,487 5440,487 5440,601 5075,601 5075,833 5440,833 5440,947 5075,947 5075,1181 5440,1181 5440,1297 4954,1297 "/>
   <path class="fil0" d="M5904 487l133 0 0 810 -121 0 0 -171 -302 0 -113 171 -136 0 539 -810zm12 528l0 0 0 -343 -227 343 227 0z"/>
   <path class="fil0" d="M6116 487l252 0c43,0 82,7 117,20 35,14 65,33 90,56 25,24 45,52 58,84 14,32 21,67 21,104 0,27 -4,53 -11,79 -7,26 -19,49 -33,71 -15,21 -33,40 -55,57 -22,17 -47,29 -76,38l193 301 -139 0 -244 -386 65 0c31,0 57,-5 79,-15 22,-9 41,-22 56,-37 14,-16 26,-33 33,-52 7,-19 11,-38 11,-56 0,-46 -15,-83 -44,-111 -29,-27 -74,-41 -133,-41l-119 0 0 698 -121 0 0 -810z"/>
   <polygon class="fil0" points="6718,487 6839,487 6839,1110 7254,487 7390,487 6852,1297 6718,1297 "/>
   <polygon class="fil0" points="7422,487 7543,487 7543,1297 7422,1297 "/>
   <polygon class="fil0" points="7629,487 8116,487 8116,601 7750,601 7750,833 8116,833 8116,947 7750,947 7750,1181 8116,1181 8116,1297 7629,1297 "/>
   <polygon class="fil0" points="8183,487 8304,487 8304,1113 8720,487 8854,487 8854,1109 9269,487 9405,487 8867,1297 8734,1297 8734,670 8316,1297 8183,1297 "/>
   <path class="fil0" d="M3628 1545l245 0c36,0 70,7 101,20 31,13 58,30 82,53 23,23 41,49 55,79 13,30 20,62 20,97 0,31 -6,61 -17,89 -11,28 -26,53 -46,75 -20,21 -43,39 -70,53 -27,14 -57,23 -89,27l225 317 -50 0 -245 -349 31 0c31,0 60,-6 86,-17 27,-12 50,-27 70,-47 19,-20 35,-42 46,-68 11,-25 17,-52 17,-80 0,-29 -6,-56 -17,-82 -11,-25 -26,-47 -46,-66 -19,-19 -42,-34 -68,-45 -27,-11 -56,-17 -87,-17l-202 0 0 771 -41 0 0 -810z"/>
   <polygon class="fil0" points="4234,1545 4732,1545 4732,1584 4275,1584 4275,1930 4732,1930 4732,1969 4275,1969 4275,2315 4732,2315 4732,2355 4234,2355 "/>
   <path class="fil0" d="M5064 2367c-36,0 -68,-6 -98,-16 -30,-10 -56,-25 -78,-45 -22,-20 -39,-43 -51,-71 -12,-28 -18,-59 -18,-94l42 0 0 5c0,27 5,52 15,74 11,22 25,41 43,58 17,16 39,29 63,37 25,9 52,14 81,14 29,0 55,-5 80,-14 24,-8 45,-21 63,-37 18,-16 32,-35 42,-57 10,-22 15,-46 15,-73 0,-32 -6,-59 -17,-80 -11,-21 -26,-39 -45,-54 -19,-14 -41,-26 -65,-36 -25,-9 -51,-18 -79,-27 -29,-8 -56,-18 -83,-28 -27,-11 -50,-24 -72,-40 -21,-17 -37,-37 -50,-61 -13,-25 -19,-55 -19,-91 0,-31 6,-58 17,-82 12,-24 28,-44 48,-62 20,-17 44,-30 72,-39 28,-9 58,-14 90,-14 33,0 64,5 92,15 29,9 53,23 73,41 21,18 37,40 49,66 12,25 17,54 17,87l-42 0 0 -6c0,-24 -5,-47 -14,-67 -10,-21 -23,-39 -40,-53 -16,-15 -36,-26 -59,-34 -23,-8 -48,-12 -75,-12 -27,0 -52,4 -74,11 -23,7 -42,18 -59,32 -17,14 -30,31 -39,51 -10,19 -15,41 -15,66 0,29 6,54 16,73 11,20 26,37 44,50 19,14 40,26 65,35 25,9 52,18 81,27 29,9 57,19 84,30 27,12 51,26 73,44 21,17 37,38 50,64 13,25 19,55 19,92 0,32 -6,62 -18,89 -13,27 -29,50 -51,70 -21,20 -47,35 -76,45 -30,11 -62,17 -97,17z"/>
   <polygon class="fil0" points="5409,1545 5907,1545 5907,1584 5450,1584 5450,1930 5907,1930 5907,1969 5450,1969 5450,2315 5907,2315 5907,2355 5409,2355 "/>
   <path class="fil0" d="M6487 1545l46 0 0 810 -41 0 0 -240 -386 0 -181 240 -49 0 611 -810zm5 532l0 0 0 -473 -357 473 357 0z"/>
   <path class="fil0" d="M6663 1545l245 0c36,0 70,7 101,20 31,13 58,30 82,53 23,23 41,49 55,79 13,30 20,62 20,97 0,31 -6,61 -17,89 -11,28 -27,53 -46,75 -20,21 -43,39 -70,53 -27,14 -57,23 -89,27l225 317 -50 0 -245 -349 31 0c31,0 60,-6 86,-17 27,-12 50,-27 70,-47 19,-20 35,-42 46,-68 11,-25 16,-52 16,-80 0,-29 -5,-56 -16,-82 -11,-25 -27,-47 -46,-66 -19,-19 -42,-34 -69,-45 -26,-11 -55,-17 -86,-17l-202 0 0 771 -41 0 0 -810z"/>
   <path class="fil0" d="M7660 2367c-57,0 -111,-11 -162,-33 -50,-22 -94,-52 -132,-90 -37,-37 -67,-81 -89,-132 -22,-50 -33,-104 -33,-162 0,-57 11,-111 33,-162 22,-50 52,-94 89,-132 38,-37 82,-67 132,-89 51,-22 105,-33 162,-33 46,0 90,7 133,21 42,14 80,34 115,59 35,25 65,55 90,91 26,35 45,73 59,114l-46 0c-12,-35 -30,-68 -53,-98 -23,-31 -50,-57 -80,-79 -30,-21 -64,-38 -101,-51 -37,-12 -76,-18 -117,-18 -51,0 -100,10 -145,30 -46,20 -86,47 -119,81 -34,34 -60,74 -80,120 -19,46 -28,95 -28,146 0,52 9,101 28,147 20,46 46,86 80,120 33,34 73,61 119,81 45,20 94,30 145,30 40,0 78,-6 115,-18 36,-12 69,-29 100,-50 30,-21 57,-47 80,-77 22,-29 41,-61 54,-96l45 0c-14,41 -34,78 -60,113 -25,34 -56,64 -90,88 -34,25 -72,44 -113,58 -41,14 -85,21 -131,21z"/>
   <polygon class="fil0" points="8705,1969 8195,1969 8195,2355 8154,2355 8154,1545 8195,1545 8195,1930 8705,1930 8705,1545 8746,1545 8746,2355 8705,2355 "/>
   <g>
    <polygon class="fil0" points="3245,2788 3213,2788 3213,54 3245,54 "/>
   </g>
  </g>
 </g>
</svg>
