<svg width="67" height="42" viewBox="0 0 67 42" fill="none" xmlns="http://www.w3.org/2000/svg">
<path d="M66.7807 20.5836L55.4688 0.642338C55.2953 0.356414 55.0211 0.146072 54.7004 0.052882C54.3797 -0.0403076 54.0357 -0.00956443 53.7365 0.139035L48.5396 3.10679C48.2305 3.28496 48.0042 3.57832 47.9101 3.92293C47.816 4.26754 47.8617 4.63545 48.0372 4.94645L49.0766 7.04644C48.3424 7.55156 47.4481 7.76782 46.5648 7.65388C45.7433 7.53159 44.9325 7.34591 44.1395 7.09851C40.3285 6.07455 33.9709 4.33902 27.7347 7.09851C26.5423 7.59633 25.4371 8.28183 24.4606 9.12908C23.889 9.12908 22.7283 8.92081 21.533 8.74726C20.3027 8.25272 19.1879 7.50815 18.259 6.56049L18.9866 5.2762C19.1621 4.9652 19.2078 4.59729 19.1137 4.25268C19.0196 3.90808 18.7933 3.61471 18.4842 3.43654L13.2873 0.468785C13.1338 0.380806 12.9642 0.324707 12.7886 0.303834C12.613 0.282962 12.435 0.297744 12.2653 0.347298C12.0939 0.389685 11.9332 0.467056 11.7931 0.574566C11.653 0.682076 11.5365 0.817408 11.4511 0.972088L0.173813 20.9307C0.0859982 21.0844 0.0300034 21.2544 0.00916963 21.4303C-0.0116642 21.6062 0.0030896 21.7845 0.0525516 21.9546C0.0948592 22.1263 0.172086 22.2873 0.279396 22.4277C0.386706 22.5681 0.521787 22.6847 0.676179 22.7703L5.87307 25.7381C6.0732 25.8535 6.30043 25.9134 6.53135 25.9116C6.65202 25.9285 6.77445 25.9285 6.89513 25.9116C7.06646 25.8693 7.2272 25.7919 7.3673 25.6844C7.5074 25.5769 7.62383 25.4415 7.70931 25.2869L8.93924 23.1348C9.95936 24.4827 11.0645 25.7638 12.2479 26.9703L11.9708 27.3695C11.5664 27.9499 11.3488 28.6402 11.3471 29.348C11.3477 29.8972 11.4783 30.4384 11.7283 30.9271C11.9782 31.4159 12.3404 31.8383 12.7849 32.1595C13.3562 32.5826 14.0494 32.808 14.7598 32.8017H14.8983C14.8461 33.1468 14.8461 33.4979 14.8983 33.843C15.0573 34.7392 15.5612 35.537 16.3015 36.0645C16.8745 36.4842 17.5665 36.7092 18.2763 36.7066C18.6287 36.7078 18.9792 36.6552 19.3157 36.5504C19.4123 37.0444 19.615 37.5115 19.9097 37.9192C20.2044 38.3269 20.5842 38.6654 21.0225 38.9114C21.4609 39.1575 21.9474 39.305 22.4484 39.3438C22.9493 39.3827 23.4527 39.3119 23.9236 39.1364C24.1214 39.9421 24.6008 40.6501 25.2748 41.1322C25.8499 41.5457 26.5418 41.7646 27.2496 41.757H27.8386C28.2821 41.6858 28.7067 41.5262 29.0876 41.2877C29.4684 41.0493 29.7977 40.7367 30.056 40.3686V40.2645C32.0237 41.2999 34.1935 41.8922 36.4135 42C37.1881 41.9919 37.9556 41.851 38.6828 41.5835C39.9173 41.2044 40.9552 40.3575 41.5757 39.2232H42.1474C43.1175 39.2294 44.0663 38.9387 44.8671 38.3901C45.7945 37.7253 46.4475 36.7439 46.7033 35.6306C47.7848 35.5159 48.785 35.0025 49.5097 34.1901C50.0514 33.5758 50.4586 32.8545 50.7049 32.0728C51.3774 32.0123 52.0307 31.8168 52.626 31.4977C53.2213 31.1786 53.7462 30.7426 54.1695 30.2158C54.4384 29.8021 54.6215 29.3385 54.7078 28.8525C54.7941 28.3665 54.7819 27.868 54.6719 27.3868C54.584 26.9888 54.4319 26.6077 54.2215 26.2587C55.8025 25.5092 57.1986 24.4187 58.3097 23.0654L59.3145 24.8009C59.4914 25.1136 59.7837 25.3442 60.1287 25.4431C60.2493 25.4599 60.3718 25.4599 60.4924 25.4431C60.7223 25.4369 60.9476 25.3775 61.1507 25.2695L66.3476 22.3017C66.6597 22.1245 66.8899 21.8316 66.9886 21.486C67.0304 21.1699 66.9566 20.8493 66.7807 20.5836ZM8.12506 20.9307L6.39276 23.8637L1.87147 21.4166L12.8196 2.1696L17.3409 4.75554L8.12506 20.9307ZM16.1629 30.2678C15.8944 30.6172 15.5033 30.851 15.069 30.922C14.6346 30.9929 14.1896 30.8955 13.8243 30.6496C13.4681 30.3827 13.2281 29.9887 13.1539 29.5493C13.0797 29.1099 13.1771 28.6588 13.4259 28.2893L14.0495 27.3868L14.8464 26.2761C15.1132 25.9145 15.5098 25.6707 15.9525 25.5963C16.3952 25.5218 16.8495 25.6224 17.2196 25.8769C17.5458 26.1164 17.778 26.4627 17.8761 26.8558C17.9742 27.2488 17.9319 27.6639 17.7566 28.029L16.1629 30.2678ZM19.9047 33.8604L19.6795 34.1728C19.5759 34.4095 19.4209 34.6201 19.2257 34.7892C19.0306 34.9582 18.8002 35.0814 18.5514 35.1499C18.3026 35.2183 18.0417 35.2302 17.7877 35.1846C17.5337 35.1391 17.2931 35.0373 17.0834 34.8867C16.8738 34.7361 16.7003 34.5404 16.5758 34.3141C16.4512 34.0877 16.3787 33.8363 16.3635 33.5783C16.3483 33.3203 16.3909 33.0621 16.4881 32.8226C16.5852 32.5832 16.7346 32.3685 16.9251 32.1943L17.5488 31.3439L18.9692 29.348L20.8401 26.71C20.959 26.5145 21.1153 26.3446 21.3001 26.2099C21.4848 26.0752 21.6943 25.9785 21.9165 25.9253C22.1387 25.872 22.3692 25.8634 22.5947 25.8997C22.8203 25.9361 23.0364 26.0168 23.2307 26.1373C23.4165 26.2644 23.5741 26.4287 23.6933 26.6199C23.8126 26.8111 23.891 27.0249 23.9236 27.248C23.9931 27.6926 23.8875 28.1468 23.6291 28.5149L23.0055 29.4001L19.9047 33.8604ZM24.4953 36.2554L24.0795 36.8281C23.9744 37.0658 23.8174 37.2769 23.62 37.4456C23.4225 37.6144 23.1898 37.7365 22.9389 37.8031C22.688 37.8696 22.4254 37.8788 22.1705 37.83C21.9156 37.7812 21.6749 37.6757 21.4662 37.5212C21.2575 37.3667 21.0861 37.1672 20.9646 36.9374C20.8432 36.7076 20.7749 36.4534 20.7647 36.1936C20.7544 35.9338 20.8026 35.6751 20.9056 35.4364C21.0087 35.1978 21.1639 34.9854 21.3598 34.8149L24.4606 30.4414C24.6724 30.1993 24.9471 30.021 25.2542 29.9263C25.5613 29.8317 25.8886 29.8245 26.1996 29.9055C26.5105 29.9866 26.7928 30.1526 27.015 30.3852C27.2371 30.6177 27.3903 30.9076 27.4575 31.2224C27.501 31.4424 27.4973 31.6692 27.4465 31.8876C27.3957 32.1061 27.2991 32.3112 27.163 32.4893L26.1236 33.9645L24.4953 36.2554ZM30.3158 36.9323L29.2245 38.4422L29.0859 38.6504L28.6528 39.2405C28.3808 39.5208 28.0222 39.7009 27.6353 39.7516C27.2483 39.8022 26.8556 39.7205 26.5208 39.5197C26.186 39.3188 25.9287 39.0106 25.7906 38.6449C25.6525 38.2793 25.6417 37.8776 25.7599 37.505L25.8984 37.2794L27.5441 34.9711C27.8151 34.6245 28.2074 34.3941 28.6416 34.3264C29.0758 34.2587 29.5195 34.3589 29.8827 34.6066C30.2437 34.874 30.487 35.2713 30.5613 35.7149C30.6356 36.1584 30.5352 36.6135 30.2812 36.9843L30.3158 36.9323ZM52.6624 29.2959C52.0007 29.981 51.1014 30.3849 50.1506 30.424L39.9127 24.0026C39.7197 23.8786 39.4854 23.8364 39.2614 23.8852C39.0373 23.934 38.8417 24.0698 38.7174 24.2629C38.6546 24.359 38.6119 24.4669 38.5918 24.58C38.5717 24.6931 38.5747 24.8091 38.6006 24.921C38.6265 25.0329 38.6748 25.1384 38.7425 25.2311C38.8102 25.3238 38.896 25.4018 38.9946 25.4604L48.9726 31.743C48.7949 32.2445 48.518 32.7049 48.1585 33.0967C47.8974 33.3733 47.5834 33.5942 47.2351 33.7463C46.8869 33.8984 46.5116 33.9785 46.1317 33.9819L37.0891 28.9141C36.8869 28.8013 36.6483 28.7736 36.4258 28.8371C36.2033 28.9006 36.015 29.05 35.9025 29.2525C35.7899 29.4551 35.7623 29.6941 35.8256 29.917C35.889 30.14 36.0381 30.3286 36.2403 30.4414L44.9017 35.2835C44.7512 35.9851 44.3431 36.6045 43.7584 37.019C43.3868 37.2634 42.9681 37.4268 42.5294 37.4986C42.0907 37.5704 41.6418 37.5489 41.212 37.4356H41.108C41.0545 37.3842 40.9965 37.3377 40.9348 37.2967L34.0056 33.8257C33.8037 33.7414 33.5775 33.7368 33.3723 33.8128C33.1672 33.8888 32.9983 34.0397 32.8997 34.2352C32.801 34.4307 32.7798 34.6564 32.8403 34.867C32.9009 35.0775 33.0387 35.2573 33.2261 35.3703L39.8608 38.7198C39.4444 39.3352 38.8347 39.7934 38.1285 40.0215C35.746 40.4532 33.2879 40.0161 31.1993 38.7893L31.7536 37.9389C32.2794 37.1935 32.491 36.2708 32.3426 35.3703C32.2034 34.6019 31.8097 33.903 31.225 33.3865C30.6403 32.87 29.8989 32.5661 29.1205 32.524C29.2766 32.0008 29.3121 31.4489 29.2245 30.91C29.0699 30.0166 28.5724 29.2192 27.8386 28.6885C27.2134 28.2419 26.4578 28.016 25.6906 28.0463C25.7423 27.7128 25.7423 27.3733 25.6906 27.0397C25.565 26.3773 25.2496 25.7659 24.7829 25.2801C24.3161 24.7944 23.7183 24.4553 23.0624 24.3044C22.4065 24.1534 21.7209 24.1972 21.0894 24.4302C20.4579 24.6632 19.9077 25.0755 19.5063 25.6166L19.3504 25.8249C19.1128 25.2843 18.7287 24.8214 18.2417 24.4885C17.4988 23.9688 16.5823 23.7613 15.6886 23.9106C14.7948 24.0598 13.995 24.5539 13.4605 25.2869L13.322 25.4604C12.0806 24.1832 10.9234 22.8266 9.85736 21.3993L17.4102 8.10511C18.5191 9.20913 19.8723 10.0356 21.3598 10.5175L23.0921 10.7605C22.1891 11.9277 21.5507 13.278 21.2212 14.7175C21.0672 15.3592 21.0804 16.0297 21.2593 16.6649C21.4383 17.3 21.7771 17.8785 22.2433 18.3447C22.6877 18.7949 23.2378 19.1261 23.8431 19.308C24.4484 19.4899 25.0896 19.5168 25.7079 19.3861C27.0284 19.118 28.2158 18.4006 29.0685 17.3555L30.8008 15.0472L33.2434 14.4051C40.0717 17.4661 46.388 21.5638 51.9695 26.5538H52.0735C52.1238 26.6136 52.1821 26.6661 52.2467 26.71C52.5996 26.9702 52.841 27.3546 52.9223 27.786C52.9823 28.0423 52.9903 28.308 52.9456 28.5674C52.901 28.8269 52.8047 29.0746 52.6624 29.2959ZM52.8876 24.9745C47.1798 19.8898 40.7083 15.7373 33.7111 12.6696C33.5513 12.6348 33.3859 12.6348 33.2261 12.6696C33.1112 12.6532 32.9945 12.6532 32.8796 12.6696L30.1945 13.3811C29.9075 13.4635 29.6533 13.6333 29.467 13.8671L27.7347 16.2621C27.1235 16.9876 26.2884 17.4884 25.3614 17.6852C25.0213 17.757 24.6687 17.7421 24.3358 17.6421C24.003 17.542 23.7004 17.36 23.4559 17.1125C23.1974 16.8498 23.0094 16.5259 22.9095 16.1709C22.8095 15.8158 22.8008 15.4412 22.8842 15.0819C23.2666 13.3984 24.1626 11.8759 25.448 10.7258C26.3798 9.89662 27.4384 9.22275 28.5835 8.7299C34.2308 6.2481 40.2419 7.8795 43.8277 8.85139C44.7159 9.12919 45.6256 9.33237 46.5474 9.45883C47.7636 9.58851 48.9871 9.29431 50.012 8.62577L57.3223 21.5034C56.1996 23.0626 54.6547 24.2671 52.8703 24.9745H52.8876ZM60.579 23.6902L58.9507 20.8265L51.3113 7.37619L49.6656 4.47786L54.1695 1.83985L65.083 21.1042L60.579 23.6902Z" fill="#E35326"/>
</svg>
