<svg width="50" height="64" viewBox="0 0 50 64" fill="none" xmlns="http://www.w3.org/2000/svg">
<path d="M46.3467 0H2.66667C1.95942 0 1.28115 0.280952 0.781049 0.781049C0.280952 1.28115 0 1.95942 0 2.66667V61.3333C0.0139655 62.0454 0.30669 62.7237 0.815283 63.2223C1.32388 63.7209 2.00776 64.0001 2.72 64H35.2C35.3394 63.9983 35.4771 63.9693 35.6053 63.9147C35.7372 63.8658 35.8572 63.7894 35.9573 63.6907L48.7573 50.8907C48.8382 50.7969 48.9063 50.6929 48.96 50.5813V50.4853C48.9914 50.3919 49.0129 50.2953 49.024 50.1973C49.024 50.1973 49.024 50.1973 49.024 50.1333V2.72C49.0241 2.00594 48.7434 1.32049 48.2425 0.811599C47.7416 0.302709 47.0606 0.0112009 46.3467 0ZM2.13333 61.28V2.66667C2.13333 2.52522 2.18952 2.38956 2.28954 2.28954C2.38956 2.18952 2.52522 2.13333 2.66667 2.13333H46.4C46.5556 2.13333 46.7048 2.19514 46.8148 2.30516C46.9249 2.41519 46.9867 2.56441 46.9867 2.72V49.0667H36.8C36.0928 49.0667 35.4145 49.3476 34.9144 49.8477C34.4143 50.3478 34.1333 51.0261 34.1333 51.7333V61.8667H2.72C2.56441 61.8667 2.41518 61.8049 2.30516 61.6948C2.19514 61.5848 2.13333 61.4356 2.13333 61.28ZM36.2667 60.3627V51.7333C36.2667 51.5919 36.3229 51.4562 36.4229 51.3562C36.5229 51.2562 36.6586 51.2 36.8 51.2H45.4293L36.2667 60.3627Z" fill="#E35326"/>
<path d="M30.7629 34.4109C32.7617 34.4097 34.6983 33.7154 36.2427 32.4465C37.7871 31.1775 38.8437 29.4124 39.2326 27.4517C39.6215 25.4911 39.3185 23.4562 38.3753 21.6939C37.4321 19.9316 35.9071 18.5508 34.06 17.7868C32.2129 17.0229 30.1581 16.923 28.2456 17.5041C26.3331 18.0853 24.6813 19.3116 23.5715 20.9741C22.4618 22.6366 21.9629 24.6324 22.1597 26.6216C22.3565 28.6107 23.2369 30.4701 24.6509 31.8829C25.4534 32.6855 26.4063 33.3219 27.4551 33.7557C28.5039 34.1895 29.6279 34.4121 30.7629 34.4109ZM26.1549 21.1735C27.2202 20.1098 28.6214 19.4485 30.1197 19.3022C31.6181 19.1558 33.1208 19.5336 34.3718 20.371C35.6228 21.2085 36.5447 22.4538 36.9804 23.8948C37.4161 25.3358 37.3387 26.8833 36.7613 28.2736C36.1838 29.6639 35.1422 30.811 33.8138 31.5194C32.4854 32.2277 30.9525 32.4536 29.4763 32.1584C28.0001 31.8632 26.6719 31.0652 25.7181 29.9005C24.7643 28.7357 24.2439 27.2763 24.2455 25.7709C24.2406 24.9159 24.407 24.0686 24.7349 23.2789C25.0628 22.4893 25.5457 21.7734 26.1549 21.1735Z" fill="#E35326"/>
<path d="M16.1921 41.8453L22.3787 35.6587C24.9177 37.8399 28.2015 38.9552 31.5437 38.7714C34.8859 38.5875 38.0276 37.1187 40.3119 34.6721C42.5962 32.2255 43.8463 28.9905 43.8007 25.6436C43.7551 22.2966 42.4173 19.0969 40.0672 16.7134C37.7171 14.33 34.5365 12.9473 31.1906 12.8546C27.8446 12.7619 24.5924 13.9662 22.1138 16.2158C19.6353 18.4655 18.1224 21.5862 17.8914 24.9254C17.6605 28.2647 18.7295 31.564 20.8747 34.1333L14.6881 40.32L13.8667 39.5627C13.6669 39.364 13.3965 39.2525 13.1147 39.2525C12.8329 39.2525 12.5626 39.364 12.3627 39.5627L6.24008 45.6853C5.93691 45.9832 5.69612 46.3384 5.53175 46.7304C5.36737 47.1223 5.28271 47.543 5.28271 47.968C5.28271 48.393 5.36737 48.8137 5.53175 49.2057C5.69612 49.5976 5.93691 49.9528 6.24008 50.2507C6.53792 50.5538 6.89317 50.7946 7.28509 50.959C7.67701 51.1234 8.09775 51.208 8.52274 51.208C8.94774 51.208 9.36847 51.1234 9.76039 50.959C10.1523 50.7946 10.5076 50.5538 10.8054 50.2507L16.9281 44.128C17.1267 43.9282 17.2383 43.6578 17.2383 43.376C17.2383 43.0942 17.1267 42.8239 16.9281 42.624L16.1921 41.8453ZM23.0934 18.1333C24.6091 16.618 26.5402 15.586 28.6423 15.1681C30.7445 14.7501 32.9234 14.9649 34.9035 15.7852C36.8837 16.6055 38.5761 17.9946 39.7668 19.7767C40.9575 21.5588 41.593 23.654 41.593 25.7973C41.593 27.9407 40.9575 30.0359 39.7668 31.818C38.5761 33.6001 36.8837 34.9892 34.9035 35.8095C32.9234 36.6298 30.7445 36.8446 28.6423 36.4266C26.5402 36.0087 24.6091 34.9767 23.0934 33.4613C22.0791 32.4593 21.2738 31.2659 20.7242 29.9503C20.1746 28.6347 19.8916 27.2231 19.8916 25.7973C19.8916 24.3716 20.1746 22.96 20.7242 21.6444C21.2738 20.3288 22.0791 19.1354 23.0934 18.1333ZM9.34408 48.7467C9.13756 48.9532 8.85747 49.0692 8.56541 49.0692C8.27335 49.0692 7.99326 48.9532 7.78674 48.7467C7.58023 48.5402 7.46421 48.2601 7.46421 47.968C7.46421 47.676 7.58023 47.3959 7.78674 47.1894L13.1201 41.856L14.6774 43.4133L9.34408 48.7467Z" fill="#E35326"/>
</svg>
