<svg width="20" height="20" viewBox="0 0 20 20" fill="none" xmlns="http://www.w3.org/2000/svg">
<path d="M9.06249 10C9.06249 10.2486 9.16126 10.4871 9.33708 10.6629C9.51289 10.8387 9.75135 10.9375 9.99999 10.9375C10.2486 10.9375 10.4871 10.8387 10.6629 10.6629C10.8387 10.4871 10.9375 10.2486 10.9375 10C10.9375 9.75136 10.8387 9.5129 10.6629 9.33709C10.4871 9.16127 10.2486 9.0625 9.99999 9.0625C9.75135 9.0625 9.51289 9.16127 9.33708 9.33709C9.16126 9.5129 9.06249 9.75136 9.06249 10V10ZM12.9687 10C12.9687 10.2486 13.0675 10.4871 13.2433 10.6629C13.4191 10.8387 13.6576 10.9375 13.9062 10.9375C14.1549 10.9375 14.3933 10.8387 14.5692 10.6629C14.745 10.4871 14.8437 10.2486 14.8437 10C14.8437 9.75136 14.745 9.5129 14.5692 9.33709C14.3933 9.16127 14.1549 9.0625 13.9062 9.0625C13.6576 9.0625 13.4191 9.16127 13.2433 9.33709C13.0675 9.5129 12.9687 9.75136 12.9687 10ZM5.15624 10C5.15624 10.2486 5.25501 10.4871 5.43083 10.6629C5.60664 10.8387 5.8451 10.9375 6.09374 10.9375C6.34238 10.9375 6.58084 10.8387 6.75665 10.6629C6.93247 10.4871 7.03124 10.2486 7.03124 10C7.03124 9.75136 6.93247 9.5129 6.75665 9.33709C6.58084 9.16127 6.34238 9.0625 6.09374 9.0625C5.8451 9.0625 5.60664 9.16127 5.43083 9.33709C5.25501 9.5129 5.15624 9.75136 5.15624 10V10ZM18.0703 6.60937C17.6289 5.56055 16.9961 4.61914 16.1894 3.81055C15.3884 3.00663 14.4376 2.36762 13.3906 1.92969C12.3164 1.47852 11.1758 1.25 9.99999 1.25H9.96093C8.77733 1.25586 7.63085 1.49023 6.55272 1.95117C5.51475 2.3936 4.57277 3.03374 3.77929 3.83594C2.98046 4.64258 2.3535 5.58008 1.91991 6.625C1.47069 7.70703 1.24413 8.85742 1.24999 10.041C1.25662 11.3974 1.57751 12.7338 2.18749 13.9453V16.9141C2.18749 17.1523 2.28215 17.3809 2.45064 17.5494C2.61912 17.7178 2.84765 17.8125 3.08593 17.8125H6.05663C7.26814 18.4225 8.60454 18.7434 9.96093 18.75H10.0019C11.1719 18.75 12.3066 18.5234 13.375 18.0801C14.4166 17.6474 15.364 17.0158 16.1641 16.2207C16.9707 15.4219 17.6055 14.4883 18.0488 13.4473C18.5098 12.3691 18.7441 11.2227 18.75 10.0391C18.7558 8.84961 18.5254 7.69531 18.0703 6.60937V6.60937ZM15.1191 15.1641C13.75 16.5195 11.9336 17.2656 9.99999 17.2656H9.96679C8.78905 17.2598 7.61913 16.9668 6.58593 16.416L6.42186 16.3281H3.67186V13.5781L3.58397 13.4141C3.03319 12.3809 2.74022 11.2109 2.73436 10.0332C2.72655 8.08594 3.47069 6.25781 4.83593 4.88086C6.19921 3.50391 8.02147 2.74219 9.96874 2.73438H10.0019C10.9785 2.73438 11.9258 2.92383 12.8183 3.29883C13.6894 3.66406 14.4707 4.18945 15.1426 4.86133C15.8125 5.53125 16.3398 6.31445 16.7051 7.18555C17.084 8.08789 17.2734 9.04492 17.2695 10.0332C17.2578 11.9785 16.4941 13.8008 15.1191 15.1641V15.1641Z" fill="white"/>
</svg>
