<svg width="59" height="65" viewBox="0 0 59 65" fill="none" xmlns="http://www.w3.org/2000/svg">
<path fill-rule="evenodd" clip-rule="evenodd" d="M41.8342 34.4008C44.1881 34.4078 46.4966 35.0491 48.5168 36.2572C50.5371 37.4654 52.1944 39.1957 53.3143 41.2661C54.4342 43.3366 54.9754 45.6706 54.8809 48.0226C54.7864 50.3747 54.0597 52.6577 52.7773 54.6317L58.44 60.8025L54.5321 64.3699L49.0737 58.3667C47.3729 59.5096 45.4276 60.2374 43.3942 60.4917C41.3609 60.7459 39.2963 60.5194 37.3664 59.8305C35.4366 59.1416 33.6953 58.0094 32.2826 56.525C30.87 55.0406 29.8254 53.2454 29.2328 51.2838C28.6402 49.3221 28.5163 47.2489 28.8709 45.2306C29.2254 43.2124 30.0487 41.3055 31.2744 39.6633C32.5001 38.0212 34.0941 36.6895 35.9281 35.7755C37.7621 34.8615 39.785 34.3907 41.8342 34.4008ZM9.95303 34.537C9.57646 34.5167 9.22288 34.3495 8.96822 34.0713C8.71357 33.7931 8.57815 33.4262 8.59104 33.0493C8.58189 32.862 8.60996 32.6747 8.67361 32.4983C8.73726 32.3219 8.83524 32.1598 8.96188 32.0215C9.08852 31.8832 9.24131 31.7713 9.41143 31.6924C9.58155 31.6134 9.76563 31.569 9.95303 31.5616H27.5594C27.9355 31.5832 28.2883 31.7508 28.5427 32.0287C28.7971 32.3066 28.933 32.6728 28.9214 33.0493C28.9306 33.2366 28.9025 33.4239 28.8388 33.6003C28.7752 33.7767 28.6772 33.9388 28.5506 34.0771C28.4239 34.2154 28.2711 34.3273 28.101 34.4062C27.9309 34.4852 27.7468 34.5296 27.5594 34.537H9.95303ZM43.6676 9.04678H48.5498C49.4729 9.0509 50.3572 9.41908 51.0104 10.0713C51.6636 10.7236 52.0331 11.6072 52.0386 12.5303V28.7171C51.9339 29.8119 49.257 29.8224 49.0265 28.7171V12.5303C49.0276 12.4654 49.0156 12.4008 48.9913 12.3406C48.967 12.2803 48.9309 12.2255 48.8851 12.1794C48.8393 12.1331 48.7846 12.0967 48.7242 12.0723C48.6639 12.048 48.5992 12.0363 48.5341 12.0379H43.6467V28.7171C43.39 29.7072 41.1584 29.8591 40.6555 28.7171V3.4888C40.6525 3.36009 40.6021 3.23701 40.5141 3.14306C40.468 3.09727 40.4132 3.06117 40.3529 3.03687C40.2926 3.01258 40.2281 3.0006 40.1631 3.00162H3.49404C3.42906 3.0006 3.36453 3.01258 3.30426 3.03687C3.24398 3.06117 3.18917 3.09727 3.14306 3.14306C3.05261 3.23967 3.00208 3.36693 3.00162 3.49928V44.9406C3.00208 45.0729 3.05261 45.2002 3.14306 45.2968C3.18917 45.3426 3.24398 45.3787 3.30426 45.403C3.36453 45.4272 3.42906 45.4392 3.49404 45.4382H23.4368C24.9454 45.5901 25.0083 48.1989 23.4368 48.4293H11.3465V53.9873C11.345 54.0524 11.3568 54.1171 11.381 54.1774C11.4053 54.2378 11.4415 54.2927 11.4875 54.3387C11.5335 54.3847 11.5884 54.4209 11.6488 54.4452C11.7091 54.4694 11.7738 54.4812 11.8389 54.4797H23.4368C24.5316 54.6055 24.8826 57.099 23.4368 57.4709H11.8598C11.4001 57.4704 10.9453 57.3773 10.5223 57.1973C10.0993 57.0174 9.71686 56.7541 9.39776 56.4232C9.06901 56.1025 8.80713 55.7197 8.6273 55.2971C8.44746 54.8745 8.35323 54.4204 8.35007 53.9611V48.4293H3.4888C2.56479 48.4252 1.6798 48.0563 1.02641 47.4029C0.373031 46.7496 0.00413435 45.8646 0 44.9406L0 3.4888C0.00332065 3.03265 0.0977039 2.58175 0.277613 2.16256C0.457521 1.74338 0.719333 1.36434 1.04769 1.04769C1.36806 0.718468 1.75074 0.456288 2.17343 0.276418C2.59613 0.0965484 3.05039 0.00258455 3.50975 0L40.1788 0C40.6385 0.000523296 41.0934 0.0935511 41.5164 0.273543C41.9393 0.453535 42.3218 0.71681 42.6409 1.04769C42.9692 1.36877 43.2307 1.75158 43.4105 2.17412C43.5903 2.59665 43.6848 3.05057 43.6886 3.50975V9.04678H43.6676ZM9.91636 13.8504C9.54026 13.8288 9.18747 13.6612 8.93309 13.3833C8.67871 13.1054 8.54282 12.7393 8.55437 12.3627C8.54523 12.1754 8.57329 11.9881 8.63694 11.8117C8.70059 11.6353 8.79857 11.4732 8.92521 11.3349C9.05185 11.1966 9.20464 11.0847 9.37476 11.0058C9.54489 10.9268 9.72896 10.8824 9.91636 10.875H33.4527C33.8297 10.894 34.1841 11.0608 34.439 11.3393C34.694 11.6178 34.8289 11.9854 34.8147 12.3627C34.8238 12.55 34.7957 12.7373 34.7321 12.9137C34.6684 13.0901 34.5704 13.2522 34.4438 13.3905C34.3172 13.5288 34.1644 13.6407 33.9943 13.7197C33.8241 13.7986 33.6401 13.843 33.4527 13.8504H9.91636ZM9.91636 24.1911C9.54072 24.1708 9.18794 24.0043 8.93343 23.7273C8.67892 23.4502 8.54287 23.0846 8.55437 22.7086C8.54523 22.5213 8.57329 22.334 8.63694 22.1576C8.70059 21.9812 8.79857 21.8192 8.92521 21.6808C9.05185 21.5425 9.20464 21.4306 9.37476 21.3517C9.54489 21.2727 9.72896 21.2283 9.91636 21.2209H33.4527C33.8297 21.2399 34.1841 21.4067 34.439 21.6852C34.694 21.9637 34.8289 22.3314 34.8147 22.7086C34.8238 22.8957 34.7957 23.0827 34.732 23.2588C34.6683 23.4349 34.5702 23.5966 34.4435 23.7345C34.3168 23.8724 34.164 23.9838 33.9939 24.0622C33.8238 24.1406 33.6398 24.1844 33.4527 24.1911H9.91636ZM39.6078 46.7688C39.393 46.4283 38.9844 45.9568 38.9844 45.5534C38.9905 45.4222 39.0357 45.2957 39.1141 45.1903C39.1925 45.0848 39.3005 45.0052 39.4245 44.9615C39.4245 44.621 39.3878 44.2753 39.3878 43.9138C39.3878 43.7095 39.3878 43.5052 39.3878 43.3062C39.3979 43.2008 39.4208 43.097 39.4559 42.9971C39.6136 42.4813 39.9595 42.0437 40.425 41.7713C40.5889 41.6667 40.7647 41.5822 40.9489 41.5199C41.2789 41.3994 41.1217 40.8703 41.4727 40.865C42.5265 40.9817 43.512 41.444 44.2753 42.1799C44.621 42.5379 44.8192 43.0129 44.8305 43.5105L44.7991 45.0034C44.8798 45.0206 44.9548 45.0579 45.0171 45.112C45.0794 45.166 45.127 45.235 45.1553 45.3125C45.2706 45.7787 44.7834 46.3602 44.5581 46.7426C44.3329 47.125 43.5471 48.0312 43.5471 48.0417C43.5512 48.105 43.575 48.1655 43.6152 48.2146C44.862 49.9223 48.5132 48.6022 48.5132 52.002H35.6214C35.6214 48.6022 39.2883 49.9066 40.5193 48.2146C40.5644 48.1643 40.5952 48.1027 40.6084 48.0365C40.6084 48.0365 39.6864 46.884 39.6026 46.7531L39.6078 46.7688ZM41.8446 37.13C43.9018 37.1321 45.9122 37.744 47.6217 38.8884C49.3311 40.0329 50.663 41.6584 51.4488 43.5596C52.2346 45.4608 52.4391 47.5522 52.0365 49.5696C51.6339 51.587 50.6422 53.4398 49.1869 54.8937C47.7315 56.3476 45.8777 57.3374 43.8599 57.738C41.8421 58.1385 39.7509 57.9319 37.8505 57.1442C35.9501 56.3565 34.3259 55.023 33.1832 53.3124C32.0405 51.6018 31.4306 49.5908 31.4306 47.5336C31.4306 46.1665 31.7001 44.8128 32.2235 43.5499C32.747 42.287 33.5143 41.1397 34.4814 40.1735C35.4486 39.2073 36.5967 38.4412 37.8602 37.919C39.1236 37.3967 40.4775 37.1287 41.8446 37.13Z" fill="#E35326"/>
</svg>
