<svg width="89" height="89" viewBox="0 0 89 89" fill="none" xmlns="http://www.w3.org/2000/svg">
<rect width="89" height="89" rx="5.15942" fill="#F2F4F6"/>
<g clip-path="url(#clip0_880:401)">
<path fill-rule="evenodd" clip-rule="evenodd" d="M54.1953 46.6523C55.9506 46.6575 57.6721 47.1358 59.1785 48.0366C60.685 48.9375 61.9208 50.2278 62.7559 51.7717C63.591 53.3156 63.9946 55.0561 63.9241 56.81C63.8537 58.5639 63.3118 60.2663 62.3555 61.7383L66.5781 66.3398L63.6641 69L59.5938 64.5234C58.3255 65.3757 56.8749 65.9184 55.3586 66.108C53.8424 66.2976 52.3029 66.1287 50.8638 65.615C49.4247 65.1013 48.1262 64.257 47.0728 63.1501C46.0194 62.0432 45.2405 60.7045 44.7986 59.2418C44.3567 57.779 44.2643 56.233 44.5287 54.728C44.7931 53.223 45.407 51.8011 46.321 50.5765C47.235 49.352 48.4236 48.359 49.7912 47.6775C51.1588 46.9959 52.6673 46.6448 54.1953 46.6523ZM30.4219 46.7539C30.1411 46.7387 29.8774 46.614 29.6875 46.4066C29.4976 46.1992 29.3966 45.9256 29.4062 45.6445C29.3994 45.5048 29.4204 45.3652 29.4678 45.2336C29.5153 45.1021 29.5883 44.9813 29.6828 44.8781C29.7772 44.775 29.8912 44.6915 30.018 44.6327C30.1449 44.5738 30.2821 44.5407 30.4219 44.5352H43.5508C43.8312 44.5513 44.0943 44.6763 44.284 44.8835C44.4737 45.0907 44.575 45.3637 44.5664 45.6445C44.5732 45.7842 44.5523 45.9239 44.5048 46.0554C44.4574 46.187 44.3843 46.3078 44.2899 46.411C44.1954 46.5141 44.0815 46.5975 43.9546 46.6564C43.8278 46.7153 43.6905 46.7484 43.5508 46.7539H30.4219ZM55.5625 27.7461H59.2031C59.8915 27.7492 60.5508 28.0237 61.0379 28.5101C61.525 28.9965 61.8006 29.6554 61.8047 30.3438V42.4141C61.7266 43.2305 59.7305 43.2383 59.5586 42.4141V30.3438C59.5594 30.2953 59.5504 30.2472 59.5323 30.2022C59.5142 30.1573 59.4873 30.1164 59.4531 30.082C59.419 30.0475 59.3782 30.0204 59.3332 30.0022C59.2882 29.9841 59.2399 29.9753 59.1914 29.9766H55.5469V42.4141C55.3555 43.1523 53.6914 43.2656 53.3164 42.4141V23.6016C53.3141 23.5056 53.2766 23.4138 53.2109 23.3438C53.1766 23.3096 53.1357 23.2827 53.0907 23.2646C53.0458 23.2465 52.9977 23.2375 52.9492 23.2383H25.6055C25.557 23.2375 25.5089 23.2465 25.464 23.2646C25.419 23.2827 25.3781 23.3096 25.3438 23.3438C25.2763 23.4158 25.2386 23.5107 25.2383 23.6094V54.5117C25.2386 54.6104 25.2763 54.7053 25.3438 54.7773C25.3781 54.8115 25.419 54.8384 25.464 54.8565C25.5089 54.8746 25.557 54.8836 25.6055 54.8828H40.4766C41.6016 54.9961 41.6484 56.9414 40.4766 57.1133H31.4609V61.2578C31.4599 61.3063 31.4686 61.3545 31.4867 61.3996C31.5048 61.4446 31.5318 61.4855 31.5661 61.5198C31.6004 61.5541 31.6413 61.5812 31.6864 61.5992C31.7314 61.6173 31.7796 61.6261 31.8281 61.625H40.4766C41.293 61.7188 41.5547 63.5781 40.4766 63.8555H31.8438C31.501 63.8551 31.1618 63.7857 30.8464 63.6515C30.5309 63.5173 30.2458 63.3209 30.0078 63.0742C29.7627 62.8351 29.5674 62.5496 29.4333 62.2345C29.2992 61.9194 29.2289 61.5808 29.2266 61.2383V57.1133H25.6016C24.9125 57.1102 24.2526 56.8351 23.7654 56.3479C23.2782 55.8607 23.0031 55.2007 23 54.5117V23.6016C23.0025 23.2614 23.0729 22.9252 23.207 22.6126C23.3412 22.3 23.5364 22.0174 23.7812 21.7812C24.0201 21.5358 24.3055 21.3402 24.6207 21.2061C24.9359 21.072 25.2746 21.0019 25.6172 21H52.9609C53.3037 21.0004 53.6429 21.0698 53.9583 21.204C54.2737 21.3382 54.5589 21.5345 54.7969 21.7812C55.0417 22.0207 55.2367 22.3061 55.3708 22.6212C55.5049 22.9363 55.5753 23.2748 55.5781 23.6172V27.7461H55.5625ZM30.3945 31.3281C30.1141 31.312 29.851 31.187 29.6613 30.9798C29.4716 30.7726 29.3703 30.4995 29.3789 30.2188C29.3721 30.0791 29.393 29.9394 29.4405 29.8079C29.4879 29.6763 29.561 29.5555 29.6554 29.4523C29.7499 29.3492 29.8638 29.2658 29.9907 29.2069C30.1175 29.148 30.2548 29.1149 30.3945 29.1094H47.9453C48.2265 29.1236 48.4907 29.2479 48.6808 29.4556C48.8709 29.6632 48.9716 29.9374 48.9609 30.2188C48.9678 30.3584 48.9468 30.4981 48.8994 30.6296C48.8519 30.7612 48.7788 30.882 48.6844 30.9852C48.59 31.0883 48.476 31.1717 48.3492 31.2306C48.2223 31.2895 48.0851 31.3226 47.9453 31.3281H30.3945ZM30.3945 39.0391C30.1144 39.0239 29.8514 38.8998 29.6616 38.6932C29.4718 38.4866 29.3703 38.214 29.3789 37.9336C29.3721 37.7939 29.393 37.6543 29.4405 37.5227C29.4879 37.3912 29.561 37.2703 29.6554 37.1672C29.7499 37.064 29.8638 36.9806 29.9907 36.9217C30.1175 36.8629 30.2548 36.8297 30.3945 36.8242H47.9453C48.2265 36.8384 48.4907 36.9628 48.6808 37.1704C48.8709 37.3781 48.9716 37.6523 48.9609 37.9336C48.9678 38.0731 48.9468 38.2125 48.8993 38.3439C48.8518 38.4752 48.7787 38.5958 48.6842 38.6986C48.5897 38.8014 48.4757 38.8845 48.3489 38.9429C48.2221 39.0014 48.0849 39.0341 47.9453 39.0391H30.3945ZM52.5352 55.875C52.375 55.6211 52.0703 55.2695 52.0703 54.9688C52.0749 54.8709 52.1085 54.7766 52.167 54.6979C52.2254 54.6193 52.306 54.5599 52.3984 54.5273C52.3984 54.2734 52.3711 54.0156 52.3711 53.7461C52.3711 53.5938 52.3711 53.4414 52.3711 53.293C52.3786 53.2144 52.3957 53.137 52.4219 53.0625C52.5394 52.6779 52.7974 52.3516 53.1445 52.1484C53.2667 52.0704 53.3979 52.0075 53.5352 51.9609C53.7812 51.8711 53.6641 51.4766 53.9258 51.4727C54.7116 51.5596 55.4465 51.9044 56.0156 52.4531C56.2734 52.7201 56.4213 53.0743 56.4297 53.4453L56.4062 54.5586C56.4664 54.5714 56.5224 54.5992 56.5688 54.6395C56.6153 54.6799 56.6507 54.7313 56.6719 54.7891C56.7578 55.1367 56.3945 55.5703 56.2266 55.8555C56.0586 56.1406 55.4727 56.8164 55.4727 56.8242C55.4757 56.8714 55.4935 56.9165 55.5234 56.9531C56.4531 58.2266 59.1758 57.2422 59.1758 59.7773H49.5625C49.5625 57.2422 52.2969 58.2148 53.2148 56.9531C53.2485 56.9156 53.2714 56.8697 53.2812 56.8203C53.2812 56.8203 52.5938 55.9609 52.5312 55.8633L52.5352 55.875ZM54.2031 48.6875C55.7371 48.689 57.2363 49.1453 58.511 49.9987C59.7857 50.8521 60.7789 52.0642 61.3648 53.4819C61.9508 54.8996 62.1033 56.4592 61.8031 57.9636C61.5029 59.4679 60.7634 60.8495 59.6782 61.9337C58.5929 63.0178 57.2106 63.7559 55.7059 64.0546C54.2013 64.3533 52.6418 64.1992 51.2247 63.6118C49.8076 63.0244 48.5965 62.0301 47.7444 60.7545C46.8923 59.4789 46.4375 57.9793 46.4375 56.4453C46.4375 55.4259 46.6384 54.4165 47.0288 53.4747C47.4191 52.533 47.9913 51.6774 48.7125 50.9569C49.4337 50.2365 50.2898 49.6652 51.2319 49.2758C52.1741 48.8864 53.1837 48.6865 54.2031 48.6875Z" fill="#E35326"/>
</g>
<defs>
<clipPath id="clip0_880:401">
<rect width="43.5781" height="48" fill="white" transform="translate(23 21)"/>
</clipPath>
</defs>
</svg>
