<svg width="20" height="20" viewBox="0 0 20 20" fill="none" xmlns="http://www.w3.org/2000/svg">
<path d="M3.75 3.75C3.75 3.08696 4.01339 2.45107 4.48223 1.98223C4.95107 1.51339 5.58696 1.25 6.25 1.25C6.91304 1.25 7.54893 1.51339 8.01777 1.98223C8.48661 2.45107 8.75 3.08696 8.75 3.75C8.75 4.41304 8.48661 5.04893 8.01777 5.51777C7.54893 5.98661 6.91304 6.25 6.25 6.25C5.58696 6.25 4.95107 5.98661 4.48223 5.51777C4.01339 5.04893 3.75 4.41304 3.75 3.75V3.75ZM6.25 2.5C5.91848 2.5 5.60054 2.6317 5.36612 2.86612C5.1317 3.10054 5 3.41848 5 3.75C5 4.08152 5.1317 4.39946 5.36612 4.63388C5.60054 4.8683 5.91848 5 6.25 5C6.58152 5 6.89946 4.8683 7.13388 4.63388C7.3683 4.39946 7.5 4.08152 7.5 3.75C7.5 3.41848 7.3683 3.10054 7.13388 2.86612C6.89946 2.6317 6.58152 2.5 6.25 2.5V2.5Z" fill="white"/>
<path d="M12.2238 5.72999C11.9619 5.53024 11.742 5.2807 11.5769 4.99572C11.4118 4.71074 11.3046 4.39593 11.2615 4.06939C11.2184 3.74285 11.2402 3.41101 11.3258 3.09294C11.4113 2.77488 11.5589 2.47685 11.7599 2.21598C11.961 1.95511 12.2117 1.73655 12.4975 1.57286C12.7833 1.40916 13.0986 1.30356 13.4254 1.26212C13.7522 1.22067 14.0839 1.24421 14.4015 1.33137C14.7191 1.41852 15.0164 1.56759 15.2763 1.76999C15.7879 2.17925 16.1184 2.77299 16.1967 3.42346C16.275 4.07392 16.0948 4.72914 15.6949 5.24811C15.2951 5.76709 14.7074 6.10835 14.0585 6.19847C13.4096 6.28859 12.7512 6.12037 12.225 5.72999H12.2238ZM13.75 2.49999C13.4185 2.49999 13.1005 2.63169 12.8661 2.86611C12.6317 3.10053 12.5 3.41847 12.5 3.74999C12.5 4.08151 12.6317 4.39946 12.8661 4.63388C13.1005 4.8683 13.4185 4.99999 13.75 4.99999C14.0815 4.99999 14.3995 4.8683 14.6339 4.63388C14.8683 4.39946 15 4.08151 15 3.74999C15 3.41847 14.8683 3.10053 14.6339 2.86611C14.3995 2.63169 14.0815 2.49999 13.75 2.49999V2.49999Z" fill="white"/>
<path d="M3.125 7.5H6.4625C6.325 7.89125 6.25 8.3125 6.25 8.75H3.125C2.95924 8.75 2.80027 8.81585 2.68306 8.93306C2.56585 9.05027 2.5 9.20924 2.5 9.375C2.5 10.3962 2.90625 11.1538 3.5475 11.6688C3.8425 11.9063 4.19625 12.0975 4.59625 12.2375C4.30251 12.5497 4.07615 12.919 3.93125 13.3225C3.51167 13.154 3.11881 12.9253 2.765 12.6437C1.825 11.8875 1.25 10.77 1.25 9.375C1.25 8.87772 1.44754 8.40081 1.79917 8.04917C2.15081 7.69754 2.62772 7.5 3.125 7.5V7.5Z" fill="white"/>
<path d="M7.835 7.5C7.50348 8.07452 7.41376 8.75721 7.58559 9.39788C7.75742 10.0386 8.17672 10.5847 8.75125 10.9162C9.32577 11.2478 10.0085 11.3375 10.6491 11.1656C11.2898 10.9938 11.836 10.5745 12.1675 10C12.499 9.42547 12.5887 8.74278 12.4169 8.10211C12.2451 7.46144 11.8258 6.91527 11.2512 6.58375C10.6767 6.25223 9.99403 6.16251 9.35336 6.33434C8.71269 6.50617 8.16652 6.92547 7.835 7.5V7.5ZM9.72 7.53125C9.90315 7.48987 10.0932 7.49017 10.2763 7.5321C10.4593 7.57404 10.6305 7.65654 10.7774 7.77353C10.9243 7.89051 11.043 8.03899 11.1248 8.208C11.2066 8.37701 11.2494 8.56224 11.25 8.75C11.2499 8.98519 11.1835 9.21558 11.0583 9.4147C10.9331 9.61382 10.7543 9.77359 10.5424 9.87565C10.3305 9.97772 10.0942 10.0179 9.86043 9.99167C9.62671 9.96541 9.40514 9.87374 9.22118 9.7272C9.03721 9.58067 8.89833 9.3852 8.82047 9.16327C8.74262 8.94134 8.72895 8.70194 8.78105 8.47259C8.83315 8.24324 8.94889 8.03325 9.11499 7.86673C9.28108 7.70021 9.49078 7.58393 9.72 7.53125Z" fill="white"/>
<path d="M16.4525 11.6688C16.1575 11.9063 15.8038 12.0975 15.4038 12.2375C15.697 12.5498 15.923 12.9192 16.0675 13.3225C16.4925 13.1487 16.8863 12.9225 17.235 12.6437C18.175 11.8875 18.75 10.77 18.75 9.375C18.75 8.87772 18.5525 8.40081 18.2008 8.04917C17.8492 7.69754 17.3723 7.5 16.875 7.5H13.5375C13.675 7.89125 13.75 8.3125 13.75 8.75H16.875C17.0408 8.75 17.1997 8.81585 17.3169 8.93306C17.4342 9.05027 17.5 9.20924 17.5 9.375C17.5 10.3962 17.0938 11.1538 16.4525 11.6688Z" fill="white"/>
<path d="M13.125 12.5C13.6223 12.5 14.0992 12.6976 14.4508 13.0492C14.8025 13.4008 15 13.8777 15 14.375C15 15.77 14.4263 16.8875 13.485 17.6438C12.5588 18.3875 11.3163 18.75 10 18.75C8.68376 18.75 7.44126 18.3875 6.51501 17.6438C5.57501 16.8875 5.00001 15.77 5.00001 14.375C4.99935 14.1286 5.0474 13.8845 5.14139 13.6567C5.23538 13.4289 5.37347 13.222 5.54771 13.0477C5.72195 12.8735 5.92891 12.7354 6.1567 12.6414C6.38448 12.5474 6.62859 12.4993 6.87501 12.5H13.125ZM13.125 13.75H6.87501C6.70925 13.75 6.55028 13.8159 6.43307 13.9331C6.31585 14.0503 6.25001 14.2092 6.25001 14.375C6.25001 15.3963 6.65626 16.1538 7.29751 16.6688C7.95501 17.1963 8.90001 17.5 10 17.5C11.1 17.5 12.045 17.1963 12.7025 16.6688C13.3438 16.1538 13.75 15.3963 13.75 14.375C13.75 14.2092 13.6842 14.0503 13.5669 13.9331C13.4497 13.8159 13.2908 13.75 13.125 13.75V13.75Z" fill="white"/>
</svg>
