<svg width="68" height="68" viewBox="0 0 68 68" fill="none" xmlns="http://www.w3.org/2000/svg">
<path d="M53.4847 32.4032C51.7567 32.2308 47.9549 32.2308 47.9549 29.8112C47.9549 26.5287 52.7931 22.2088 60.569 17.543C62.9875 15.9874 68.0002 13.5688 68.0002 10.2852C68.0002 7.69327 66.0988 5.79293 62.1246 6.31111C58.3228 6.82928 52.4473 9.42126 44.6724 15.9874C36.5507 22.7269 28.9482 33.9588 28.9482 45.0172C28.9482 56.2491 36.5507 67.481 48.82 67.481C58.6687 67.481 67.1362 60.0509 67.1362 49.8554C67.1351 42.0795 61.7788 33.0948 53.4847 32.4032Z" fill="#002047"/>
<path d="M29.1935 27.5445C27.7742 26.8027 26.2175 26.3172 24.5376 26.1776C22.8096 26.0052 19.0078 26.0052 19.0078 23.5856C19.0078 20.3031 23.8459 15.9832 31.6218 11.3174C34.0415 9.76178 39.0519 7.34326 39.0519 4.05966C39.0519 1.46769 37.1505 -0.432655 33.1764 0.0855209C29.3746 0.603697 23.499 3.19567 15.7242 9.76178C7.60355 16.5013 0 27.7332 0 38.7927C0 50.0246 7.60246 61.2565 19.8718 61.2565C22.7561 61.2565 25.5205 60.6151 27.9892 59.4576C25.5685 55.0809 24.2779 50.017 24.2779 45.0185C24.279 38.8462 26.2666 32.8604 29.1935 27.5445Z" fill="#002047"/>
</svg>
