<svg width="43" height="57" viewBox="0 0 43 57" fill="none" xmlns="http://www.w3.org/2000/svg">
<path d="M38.5075 0H4.49254C2.01522 0 0 2.01522 0 4.49254V51.9851C0 54.4637 2.01522 56.4776 4.49254 56.4776H38.5075C40.9848 56.4776 43 54.4637 43 51.9851V4.49254C43 2.01651 40.9848 0 38.5075 0ZM41.7164 51.9864C41.7164 53.7564 40.2775 55.1953 38.5075 55.1953H4.49254C2.72248 55.1953 1.28358 53.7564 1.28358 51.9864V4.49382C1.28358 2.72504 2.72248 1.28487 4.49254 1.28487H38.5075C40.2775 1.28487 41.7164 2.72504 41.7164 4.49382V51.9864Z" fill="#E35326"/>
<path d="M36.2035 27.5967H14.8947C14.5405 27.5967 14.2529 27.8842 14.2529 28.2385C14.2529 28.5927 14.5405 28.8803 14.8947 28.8803H36.2035C36.559 28.8803 36.8453 28.5927 36.8453 28.2385C36.8453 27.8842 36.559 27.5967 36.2035 27.5967Z" fill="#E35326"/>
<path d="M36.2035 18.9756H14.8947C14.5405 18.9756 14.2529 19.2631 14.2529 19.6174C14.2529 19.9716 14.5405 20.2592 14.8947 20.2592H36.2035C36.559 20.2592 36.8453 19.9716 36.8453 19.6174C36.8453 19.2631 36.559 18.9756 36.2035 18.9756Z" fill="#E35326"/>
<path d="M36.2035 36.2197H14.8947C14.5405 36.2197 14.2529 36.5085 14.2529 36.8615C14.2529 37.2158 14.5405 37.5033 14.8947 37.5033H36.2035C36.559 37.5033 36.8453 37.2158 36.8453 36.8615C36.8453 36.5072 36.559 36.2197 36.2035 36.2197Z" fill="#E35326"/>
<path d="M36.2035 10.3535H14.8947C14.5405 10.3535 14.2529 10.641 14.2529 10.9953C14.2529 11.3496 14.5405 11.6371 14.8947 11.6371H36.2035C36.559 11.6371 36.8453 11.3496 36.8453 10.9953C36.8453 10.641 36.559 10.3535 36.2035 10.3535Z" fill="#E35326"/>
<path d="M36.2035 44.8418H14.8947C14.5405 44.8418 14.2529 45.1306 14.2529 45.4836C14.2529 45.8379 14.5405 46.1254 14.8947 46.1254H36.2035C36.559 46.1254 36.8453 45.8379 36.8453 45.4836C36.8453 45.1293 36.559 44.8418 36.2035 44.8418Z" fill="#E35326"/>
<path d="M8.31105 14.4071C10.1928 14.4071 11.7241 12.8771 11.7241 10.9954C11.7241 10.4255 11.5701 9.89533 11.3223 9.42169C12.3364 8.41793 13.4415 7.50787 14.6455 6.71462C14.9408 6.51951 15.0229 6.1216 14.8278 5.8251C14.6327 5.52859 14.2348 5.44901 13.9396 5.64283C12.7048 6.4579 11.5714 7.39363 10.5239 8.41793C9.92708 7.90578 9.1595 7.5836 8.31234 7.5836C7.50753 7.5836 6.77717 7.87626 6.19186 8.34348C5.96338 8.12913 5.61168 8.10089 5.35881 8.30241C5.08284 8.52447 5.0392 8.92751 5.26126 9.20477L5.35753 9.32414C5.07514 9.82089 4.90186 10.3857 4.90186 10.9966C4.89929 12.8771 6.43061 14.4071 8.31105 14.4071ZM10.4418 10.9954C10.4418 12.1698 9.48681 13.1235 8.31234 13.1235C7.13914 13.1235 6.18416 12.1686 6.18416 10.9954C6.18416 10.8067 6.21625 10.6257 6.26374 10.4524L7.81302 12.3803C7.93496 12.5331 8.11852 12.6204 8.31362 12.6204C8.32004 12.6204 8.32774 12.6204 8.33416 12.6204C8.53568 12.614 8.72308 12.5138 8.8386 12.3495C9.30968 11.6808 9.82696 11.0544 10.3635 10.4486C10.4071 10.6231 10.4418 10.8041 10.4418 10.9954ZM9.62416 9.33184C9.15822 9.84271 8.70896 10.3715 8.28795 10.9248L7.00437 9.32671C7.36634 9.04175 7.81687 8.8659 8.31234 8.8659C8.80908 8.86718 9.26219 9.0456 9.62416 9.33184Z" fill="#E35326"/>
<path d="M8.31118 24.8271C6.42944 24.8271 4.89941 26.3585 4.89941 28.2402C4.89941 30.1232 6.42944 31.6532 8.31118 31.6532C10.1929 31.6532 11.7242 30.1232 11.7242 28.2402C11.7242 26.3585 10.1929 24.8271 8.31118 24.8271ZM8.31118 30.3684C7.13798 30.3684 6.183 29.4134 6.183 28.2389C6.183 27.0644 7.13798 26.1094 8.31118 26.1094C9.48565 26.1094 10.4406 27.0644 10.4406 28.2389C10.4406 29.4134 9.48565 30.3684 8.31118 30.3684Z" fill="#E35326"/>
<path d="M8.31118 33.4502C6.42944 33.4502 4.89941 34.9802 4.89941 36.862C4.89941 38.745 6.42944 40.275 8.31118 40.275C10.1929 40.275 11.7242 38.745 11.7242 36.862C11.7242 34.9802 10.1929 33.4502 8.31118 33.4502ZM8.31118 38.9901C7.13798 38.9901 6.183 38.0352 6.183 36.862C6.183 35.6862 7.13798 34.7312 8.31118 34.7312C9.48565 34.7312 10.4406 35.6862 10.4406 36.862C10.4406 38.0352 9.48565 38.9901 8.31118 38.9901Z" fill="#E35326"/>
<path d="M8.31118 42.0703C6.42944 42.0703 4.89941 43.6016 4.89941 45.4821C4.89941 47.3651 6.43073 48.8964 8.31118 48.8964C10.1916 48.8964 11.7242 47.3651 11.7242 45.4821C11.7242 43.6029 10.1929 42.0703 8.31118 42.0703ZM8.31118 47.6141C7.13798 47.6141 6.183 46.6591 6.183 45.4834C6.183 44.3102 7.13798 43.3552 8.31118 43.3552C9.48565 43.3552 10.4406 44.3102 10.4406 45.4834C10.4406 46.6591 9.48565 47.6141 8.31118 47.6141Z" fill="#E35326"/>
<path d="M14.6455 15.3359C14.9408 15.1408 15.0229 14.7429 14.8278 14.4477C14.6327 14.1499 14.2348 14.069 13.9396 14.2654C12.7048 15.0817 11.5713 16.0162 10.5239 17.0405C9.92708 16.5271 9.1595 16.2049 8.31233 16.2049C7.50753 16.2049 6.77589 16.4975 6.19186 16.966C5.96209 16.7517 5.61168 16.7234 5.35881 16.925C5.08284 17.147 5.0392 17.5501 5.26126 17.8273L5.35753 17.9467C5.07514 18.4434 4.90186 19.0082 4.90186 19.6179C4.90186 21.4997 6.43189 23.031 8.31362 23.031C10.1953 23.031 11.7267 21.4997 11.7267 19.6179C11.7267 19.048 11.5726 18.5179 11.3249 18.0455C12.3364 17.0405 13.4415 16.1304 14.6455 15.3359ZM9.62672 17.9531C9.1595 18.464 8.71024 18.9928 8.28923 19.5473L7.00565 17.9493C7.36762 17.6643 7.81815 17.4872 8.31362 17.4872C8.80908 17.4872 9.26218 17.6656 9.62672 17.9531ZM10.4418 19.6166C10.4418 20.7911 9.48681 21.7461 8.31233 21.7461C7.13914 21.7461 6.18415 20.7911 6.18415 19.6166C6.18415 19.428 6.21624 19.2482 6.26374 19.0737L7.81302 21.0016C7.93496 21.1544 8.11851 21.2417 8.31362 21.2417C8.32003 21.2417 8.32774 21.2417 8.33415 21.2417C8.53568 21.2352 8.72308 21.1351 8.8386 20.9708C9.30968 20.3021 9.82696 19.6757 10.3635 19.0685C10.4071 19.2444 10.4418 19.4267 10.4418 19.6166Z" fill="#E35326"/>
</svg>
