<svg width="91" height="92" viewBox="0 0 91 92" fill="none" xmlns="http://www.w3.org/2000/svg">
<path d="M90.6416 45.5535C90.6416 70.7121 70.3507 91.1069 45.321 91.1069C20.2909 91.1069 0 70.7124 0 45.5535C0 20.3952 20.2909 0 45.321 0C70.351 0 90.6416 20.3952 90.6416 45.5535Z" fill="white"/>
<path d="M44.943 16.1949C46.5384 17.1145 48.2307 18.298 49.519 19.5521L49.0129 20.0607C46.4708 19.7904 43.7933 20.1277 41.3834 20.1649C41.1146 19.8937 40.5732 19.486 41.0775 19.1454L44.943 16.1949ZM89.8934 47.7737C89.9272 48.9212 90.0351 49.9066 89.5875 51.0809C84.9432 52.4018 81.8924 47.4845 77.3862 48.2261L77.8956 50.775C82.0646 50.9121 84.6686 54.9099 88.9756 54.738C88.3638 55.9602 89.2486 59.18 86.5377 57.8929C83.7237 57.2168 81.6892 54.738 78.6056 54.738C78.2335 55.4212 78.4691 56.367 78.4039 57.175C81.6569 57.6854 83.9964 60.4348 87.2486 60.9424C86.9426 62.0601 86.6395 63.3115 85.7235 63.9931C83.0778 63.3493 81.0112 60.9732 78.1945 61.0411L77.693 63.3816C80.3698 63.4504 82.0993 65.8186 84.505 66.5295C84.5711 67.5167 83.6887 68.3988 83.1804 69.2801C81.0448 68.6387 79.4161 66.804 76.976 66.9393C76.9422 66.02 77.4879 64.9761 77.282 63.9931C74.5414 64.8082 72.7038 62.2618 70.6726 60.7343C70.6141 55.7356 65.3518 52.4564 65.0739 47.7737C65.0206 46.84 65.1629 45.8433 65.5883 44.7723C67.3178 40.7733 66.7745 35.5815 64.878 31.8531C64.3018 30.8719 63.2807 30.0974 62.3291 29.5206C63.7213 32.471 65.4179 35.9572 64.5712 39.5838C64.4731 42.3843 62.8206 45.074 62.8017 47.7737C62.7953 48.7362 63.0007 49.6988 63.5544 50.6708C65.7592 54.6417 69.7259 58.4006 68.2343 63.3807C67.8242 64.9103 66.6029 66.0931 66.2982 67.6499C68.8776 69.7862 71.3164 72.1934 74.7389 72.3289C75.9583 71.5501 75.281 68.0963 77.7896 69.6893L81.4525 71.5215C81.1855 72.502 80.3646 73.3808 79.6212 74.056C78.2314 73.3796 76.8758 72.5687 75.1429 72.6349C74.6319 73.1769 74.1922 73.7854 74.2312 74.5633C75.4507 74.7642 76.5692 75.2788 77.5879 75.9918C77.115 77.0104 76.1932 77.6488 75.3458 78.4288L72.5045 77.413C72.03 78.0918 71.0446 78.8052 71.3905 79.5502C72.0316 79.8247 72.7428 80.1958 73.2147 80.6715C71.9606 82.0271 70.3709 82.8992 68.8413 83.8194C67.5238 79.513 63.1826 76.4937 63.5553 71.5135L63.3536 71.3121C62.3331 72.4594 62.6741 74.294 62.7399 75.7828C63.9611 78.902 66.8741 81.3114 67.3159 84.732C66.8059 85.6123 65.6559 85.7878 64.7738 86.1604C64.8762 79.9932 55.5214 75.3157 61.5205 69.0774C63.5211 66.0228 66.8732 63.1076 65.6855 58.9021C64.466 54.8416 60.1529 52.3256 60.191 47.7737L60.1977 47.4187C61.1801 42.6717 64.1644 37.6206 61.7231 32.5707C61.0427 30.5395 59.5225 28.2314 57.4548 27.3825C60.5375 30.9109 61.7596 36.6681 59.996 41.416C59.1072 43.3045 57.8835 45.5545 57.7607 47.7746H57.7534C57.6879 48.934 57.9246 50.087 58.6727 51.1803C61.0134 54.9781 65.0788 59.1498 62.7402 64.0992C60.0966 68.0634 55.4867 72.0958 58.0611 77.3173C59.9253 80.4356 62.8091 83.5473 62.0311 87.3808L58.9804 88.3967C61.0143 81.2464 51.0474 77.0452 55.2198 69.8925C57.7957 66.0624 62.4029 62.4687 59.7949 57.3853C58.2357 54.2355 55.0141 52.3713 55.1158 48.4352L55.2268 47.7743C56.2765 42.1918 60.5201 36.9076 57.5529 30.942C56.7731 29.1805 55.2149 27.3846 53.4854 26.3669L53.3809 26.4714C56.8402 29.8271 57.8926 35.3484 56.0275 39.7867C55.1573 42.3907 53.2474 44.9847 52.8592 47.7752C52.6746 49.0909 52.8303 50.4544 53.5905 51.8908C55.7935 55.3794 59.6569 59.0801 57.246 63.5903C54.7072 67.3156 50.4688 70.9404 52.1617 75.7849C54.0265 80.0234 57.9204 84.061 55.8179 89.3166L52.67 90.0275C55.1774 84.9057 51.4176 79.8235 49.2152 75.3815C46.536 69.0086 54.9717 65.9569 55.107 60.1304C55.075 56.3697 51.077 54.2343 50.232 50.7771C48.5016 49.3173 46.7081 51.3576 44.6395 50.9788C43.1123 51.2857 40.7667 48.8767 39.855 51.488C38.7693 55.3163 33.8233 58.1309 35.9971 62.6716C38.0655 66.7068 43.0431 69.6576 41.3803 74.8796C39.8915 79.7574 34.9736 84.4017 38.0237 90.0275C36.7708 89.6216 34.4309 90.3986 34.4647 88.397C32.5335 81.5841 40.7691 77.615 38.2254 70.8057C37.0416 66.6349 31.6481 64.3307 32.8355 59.3144C33.7133 55.185 38.347 52.2982 37.6971 47.7749C37.6443 47.3961 37.5511 47.0085 37.418 46.6045C35.6884 41.7234 32.16 36.8411 34.263 31.1444C34.8405 29.5172 35.9938 28.1278 37.0072 26.6734C33.6512 28.4693 31.9582 32.2669 32.0277 36.1302C31.8815 40.3315 34.9849 43.9304 35.4264 47.7749C35.6001 49.3264 35.346 50.9152 34.263 52.6005C32.0615 55.5878 29.1824 58.7376 30.5024 62.671C31.7574 66.6386 36.7059 69.0421 36.4008 73.6538C36.3673 79.1089 30.0285 82.5055 31.8251 88.6063L28.6702 87.5828C27.4175 82.1615 33.1789 79.3877 33.245 74.3717C34.0604 68.6033 26.7033 66.4631 27.1448 60.84C27.1131 56.5678 30.8738 53.862 32.5347 50.2683C32.8196 49.3938 32.9144 48.5674 32.8763 47.7752C32.6728 43.8018 29.0925 40.6953 29.6867 36.2281C29.8866 32.9403 31.0051 30.0584 33.1414 27.5857C30.194 28.7698 28.9764 32.1627 28.1622 35.0105C26.7493 39.5768 30.1221 43.6842 30.4603 47.7755C30.6102 49.5821 30.1687 51.3783 28.4688 53.2148C26.0268 56.0924 23.5505 59.7233 25.3135 63.5909C27.1805 67.8583 33.0457 71.1799 30.5018 76.5025C29.1138 79.8588 25.7904 82.3995 25.9269 86.364C25.0463 85.991 24.1328 85.6193 23.3844 84.9431C23.3844 79.8936 30.5676 76.7396 27.1451 71.4179C26.8419 72.4679 26.7767 73.8948 26.5394 75.081C25.3516 78.1671 22.8104 80.6373 21.8594 83.8276C20.2691 83.2139 18.6064 81.9244 17.2836 80.5688L19.1158 79.4475C18.9123 78.7683 18.3708 78.1927 17.8973 77.6165C16.7074 77.4492 15.9262 78.2299 14.9453 78.5358C14.0979 77.7887 13.2801 77.1104 12.6046 76.1954C13.2128 74.4631 17.965 75.8955 15.5575 73.0474C13.9322 72.0312 12.3008 73.4829 10.8775 74.1605L8.94811 71.7235C10.6091 70.7076 12.2657 69.2807 14.3316 69.6899C14.8408 70.6068 14.8762 71.9551 15.857 72.4338C19.3489 72.3658 21.8231 69.7246 24.5 67.6563C22.6343 64.8801 21.1156 61.0475 22.7729 57.6903C24.1008 54.326 27.5607 51.4926 27.7177 47.7733C27.753 46.9269 27.6211 46.0362 27.2508 45.0776C25.4214 40.3653 24.7757 33.9967 28.2677 29.8259C26.369 30.336 25.2495 32.7023 24.6045 34.4992C22.5054 39.1005 25.1603 43.3633 25.252 47.773C25.2645 48.5662 25.2002 49.3612 25.0079 50.1619C23.2108 53.7885 20.299 56.9706 19.8261 61.1438C17.7578 62.4632 16.0596 64.7704 13.1125 63.9919C13.0089 64.7707 13.2463 65.9579 13.5166 66.84C11.1795 66.7419 9.58586 68.4644 7.61807 69.2779C6.56989 68.9415 6.29717 67.5865 5.89131 66.6383C8.19457 65.8604 9.85613 63.5513 12.5007 63.5879C12.8072 62.7362 12.3288 61.9559 12.1938 61.1432C8.90423 59.6831 3.68981 68.3611 3.25134 60.8373C6.5385 60.6337 8.63914 57.5824 11.8946 57.2783L11.9918 54.8413C8.29726 54.468 5.92056 58.2662 2.22753 57.8917L1.41305 54.6396C5.68502 54.9065 8.23023 51.0782 12.2987 50.8722C12.8392 50.1613 12.9044 49.1104 13.0086 48.1283C8.56784 47.5497 5.52048 52.471 0.807297 50.9764C0.807297 50.9764 0.644889 48.9282 0.556829 47.7733H0.563228C0.531234 47.3218 0.500764 47.007 0.500764 47.007C4.70357 48.6378 8.39629 45.6191 11.9918 44.0608C12.9062 43.7872 14.3323 44.2616 14.7424 43.2457C14.7067 42.466 16.1288 41.5543 14.945 41.0101C9.68854 40.2968 6.19662 46.6368 0.806688 43.754L0.402344 42.9389C1.52366 27.6198 10.1633 12.8093 24.5 5.52107C30.3064 2.20283 37.52 0.511408 44.7949 0.451381C53.5743 0.378557 62.4455 2.68152 69.0448 7.35296C75.4534 11.284 81.5835 17.7623 84.9102 24.3388C88.092 30.1007 89.5564 36.5663 89.9936 43.4496C84.4334 47.6509 80.7032 39.4915 75.0411 41.3176C75.3462 42.2006 75.515 43.1141 76.1622 43.8597C81.1804 43.8244 84.636 49.0787 89.8888 47.0079L89.8934 47.7737ZM26.0235 28.9069C22.4977 26.6012 18.0277 28.7722 14.7418 30.0279C14.4368 26.9419 13.1835 24.1303 10.5704 22.0967C10.3168 21.9706 9.96644 21.7052 9.65076 21.6857C9.46184 21.6738 9.28207 21.75 9.14251 21.9916C10.3269 29.278 5.59026 34.3623 2.23362 39.8897C3.35128 40.8032 5.14691 40.6667 6.50254 40.3983C10.0609 38.9753 13.4504 36.4986 17.6874 37.3475C18.9403 35.2122 21.0455 33.1438 22.7717 31.4491C23.8263 30.5365 25.2751 29.9569 26.0235 28.9069ZM36.8046 33.483C36.7369 33.9217 36.8384 34.7039 37.5149 34.4017C38.5673 32.9442 40.4306 34.0973 41.5824 34.1999V33.7898C40.9504 32.7974 39.6502 32.2989 38.3299 32.3485C38.0252 32.3592 37.7156 32.4037 37.4176 32.4729C36.9758 32.571 36.6684 32.9753 36.8046 33.483ZM53.3793 29.1162C52.4329 27.0141 50.2634 26.1633 48.2947 25.6551C47.3297 25.5363 46.3282 25.4558 45.3348 25.4464C45.1486 25.4445 44.9628 25.4421 44.7775 25.4464C41.9989 25.5024 39.344 26.2157 37.722 28.5029C37.4893 29.1485 36.4657 30.0553 37.4161 30.634C39.5518 30.4975 41.9888 30.2296 43.4124 32.0624C43.4124 33.6911 44.464 35.8578 42.7022 36.6376C41.2423 35.2859 39.5134 37.2129 37.925 36.1281C37.1782 35.6869 36.7056 36.2019 36.3996 36.8457C35.9581 41.0479 38.1584 45.6855 42.0897 48.0235C43.683 48.5982 45.8248 49.1448 47.4875 48.3294C51.4871 46.4671 53.1438 42.1988 53.8885 38.2662C53.7886 37.5179 53.8242 36.0596 52.7742 36.0242C51.5886 36.7741 49.8594 36.331 48.6028 36.0242C47.8599 36.264 47.8258 37.3509 46.9802 37.5569L46.465 37.1458C46.0238 35.2844 45.7516 32.6395 47.4821 31.3516C49.4157 30.5718 51.6867 30.2312 53.6865 30.843C54.0597 30.1995 53.4835 29.6927 53.3793 29.1162ZM51.3387 32.4585C51.2043 32.4619 51.0736 32.4686 50.9414 32.4729C50.2311 32.9467 48.1613 32.606 48.9084 34.1999C50.1973 33.1804 51.9938 33.8949 53.2818 34.4017C53.7581 34.1652 53.6548 33.6905 53.6862 33.2812C53.2727 32.5119 52.2845 32.4397 51.3387 32.4585ZM66.0968 18.127C63.5879 17.9939 61.4869 19.4181 59.1815 20.0625C58.9807 18.1008 60.4711 16.0291 60.8111 14.0598C57.0836 14.2996 54.1313 16.5432 51.0477 18.3355C50.3341 16.6111 49.6184 14.878 48.9096 13.1472L52.9771 9.28205L53.0813 8.77289L47.5872 8.46696C46.6408 6.80875 46.2678 4.81141 45.1492 3.28606C44.2339 5.01465 43.619 6.8441 42.7046 8.57117L37.2168 8.87801V9.28205L41.3819 13.0427C40.8727 14.9758 40.3995 17.0761 39.1465 18.5372C36.7062 17.0755 34.3005 15.4846 31.6249 14.4697C30.9811 14.2618 30.0633 13.9239 29.4871 14.3654C30.3332 16.2302 31.5182 18.2361 31.319 20.2716C30.1998 20.0656 29.3201 19.348 28.2686 19.0463C27.011 18.7032 25.5189 18.0329 24.2989 18.4406C26.3331 21.2862 27.9934 24.2644 28.5678 27.689C35.3161 24.432 43.186 22.6406 51.3552 24.0325C55.1844 24.6419 58.7056 26.2017 62.1296 27.4867C62.2633 23.8957 64.5343 21.0102 66.0968 18.127ZM77.6854 37.6538C81.1401 38.5682 84.6059 42.3322 88.2641 39.89C85.0781 34.6031 80.336 29.7208 81.6548 22.807C81.7928 22.335 81.4878 21.8572 81.049 21.7902C78.9822 22.6348 77.3816 24.6712 76.5638 26.6728C76.2274 27.8566 76.0281 29.115 75.5543 30.2308C73.0782 28.9422 70.4361 27.6939 67.4195 27.9955C66.3317 28.1311 64.7723 28.2024 64.5715 29.3192C67.9948 31.1486 70.81 34.2018 72.9079 37.453C74.3687 37.2147 76.16 37.4182 77.6854 37.6538ZM41.4846 42.4319L41.5821 43.0446C42.9066 43.9271 43.314 45.4225 45.1477 45.2866C46.7739 45.3832 47.994 43.8597 48.8042 42.6403C46.6036 42.3365 43.9259 42.8066 41.4846 42.4319ZM43.3158 39.688C43.382 39.9595 43.1479 40.3663 43.5175 40.5034C44.6023 40.2678 46.5673 41.0805 47.1731 39.7925C46.7502 39.3187 46.0597 39.1036 45.3351 39.1036C44.6108 39.1036 43.8591 39.3147 43.3158 39.688Z" fill="#007042"/>
<path opacity="0.99" d="M41.4868 38.5117H48.9192V41.5652H41.4868V38.5117Z" fill="white"/>
<path d="M42.8601 40.1443C43.8206 40.3716 44.0583 40.7123 44.8173 40.8073C45.6241 40.793 45.5077 40.6291 46.9152 40.1434C47.0075 40.1108 47.1346 39.9069 46.977 39.7506C46.1031 38.8831 45.4992 39.5029 44.9513 39.5194C44.2246 39.5273 43.543 38.8971 42.833 39.7162C42.7121 39.8826 42.649 40.0459 42.8601 40.1443Z" fill="#007042"/>
<path d="M77.9728 90.2458V85.8967H76.4194V85.0112H80.5793V85.8967H79.0295V90.2458H77.9728Z" fill="#007042"/>
<path d="M81.251 90.2451V85.0103H82.8327L83.7825 88.5811L84.7216 85.0103H86.307V90.2451H85.3249V86.1246L84.2858 90.2451H83.2681L82.2327 86.1246V90.2451H81.251Z" fill="#007042"/>
</svg>
