<svg width="47" height="59" viewBox="0 0 47 59" fill="none" xmlns="http://www.w3.org/2000/svg">
<path d="M18.5889 2.75933V5.17148C18.588 5.47334 18.475 5.76411 18.2719 5.98739C18.0687 6.21068 17.7899 6.35056 17.4895 6.37993C17.3499 6.42295 17.2043 6.44374 17.0582 6.44153H12.5799V11.4412H35.1186V6.44153H30.6355C30.4894 6.44327 30.3439 6.42249 30.2042 6.37993C29.9038 6.35056 29.625 6.21068 29.4218 5.98739C29.2187 5.76411 29.1057 5.47334 29.1048 5.17148V2.75933H18.5889ZM34.0144 24.227C34.6531 24.2264 35.2857 24.3516 35.8761 24.5955C36.4664 24.8395 37.0029 25.1973 37.4549 25.6487C38.1351 26.3295 38.5983 27.1967 38.7857 28.1407C38.9732 29.0847 38.8766 30.0631 38.5081 30.9522C38.1396 31.8412 37.5158 32.6011 36.7155 33.1357C35.9152 33.6703 34.9744 33.9557 34.012 33.9557C33.0496 33.9557 32.1088 33.6703 31.3085 33.1357C30.5082 32.6011 29.8844 31.8412 29.5159 30.9522C29.1474 30.0631 29.0508 29.0847 29.2383 28.1407C29.4257 27.1967 29.8889 26.3295 30.5691 25.6487L30.6307 25.5918C31.5359 24.713 32.748 24.2217 34.0096 24.2223L34.0144 24.227ZM36.0142 27.0941C35.4896 26.5758 34.7841 26.2817 34.0467 26.2737C33.3093 26.2658 32.5976 26.5446 32.0619 27.0514L32.0193 27.0988C31.6179 27.495 31.3434 28.0016 31.2307 28.5541C31.118 29.1067 31.1721 29.6803 31.3863 30.202C31.6004 30.7237 31.9648 31.17 32.4332 31.4841C32.9016 31.7981 33.4528 31.9658 34.0167 31.9658C34.5807 31.9658 35.1319 31.7981 35.6003 31.4841C36.0687 31.17 36.4331 30.7237 36.6472 30.202C36.8613 29.6803 36.9155 29.1067 36.8028 28.5541C36.6901 28.0016 36.4156 27.495 36.0142 27.0988V27.0941ZM23.0531 43.3157L25.2425 42.0693L23.9961 39.8799L26.0481 38.7094L27.2897 40.8988L29.4792 39.6572L30.6449 41.7092L28.4555 42.9745L29.7019 45.1639L27.6499 46.2918L26.4083 44.1071L24.2189 45.344L23.0531 43.2967V43.3157ZM8.19631 27.0467L10.3857 25.8051L9.13937 23.6157L11.1914 22.4499L12.433 24.6393L14.6224 23.3977L15.7882 25.4402L13.5988 26.6818L14.8451 28.8712L12.7931 30.037L11.5515 27.8523L9.36211 29.0987L8.19631 27.0467ZM15.864 40.2543C16.6118 40.4323 17.2759 40.8617 17.745 41.4706C18.2142 42.0796 18.46 42.8312 18.4413 43.5997C18.4227 44.3682 18.1407 45.107 17.6426 45.6925C17.1444 46.278 16.4603 46.6747 15.7047 46.8162C14.9492 46.9577 14.1679 46.8354 13.4916 46.4699C12.8154 46.1043 12.2852 45.5177 11.9897 44.808C11.6942 44.0983 11.6514 43.3087 11.8684 42.5712C12.0853 41.8338 12.549 41.1932 13.1817 40.7566L13.2813 40.6903C13.197 39.9906 13.1764 39.2848 13.2197 38.5814C13.3333 36.3036 14.1944 34.1267 15.6697 32.3875C17.3473 30.4986 19.662 29.294 22.1716 29.0039C22.4749 28.9565 22.7924 28.9233 23.1194 28.8996L21.5129 27.5585L23.1905 25.5539L28.4034 29.8901L23.7023 34.7191L21.8067 32.9088L23.1526 31.5203C22.9346 31.5203 22.7213 31.544 22.5128 31.5914C20.7171 31.7597 19.0451 32.5795 17.8123 33.8961C16.5796 35.2126 15.8714 36.9349 15.8214 38.7378C15.7899 39.2433 15.801 39.7506 15.8545 40.2543H15.864ZM16.0773 42.8181C15.8925 42.5546 15.6117 42.3742 15.2953 42.3157C15.1391 42.2868 14.9787 42.289 14.8233 42.3224C14.668 42.3557 14.5208 42.4195 14.3902 42.51C14.1277 42.6936 13.9475 42.9726 13.8878 43.2872C13.8584 43.4435 13.8604 43.604 13.8937 43.7594C13.9271 43.9148 13.9911 44.062 14.0821 44.1924C14.2189 44.3891 14.4109 44.5409 14.6338 44.6287C14.8568 44.7165 15.1007 44.7363 15.3349 44.6856C15.5691 44.6349 15.783 44.516 15.9497 44.3439C16.1164 44.1718 16.2284 43.9542 16.2716 43.7185C16.3282 43.4015 16.2585 43.0748 16.0773 42.8086V42.8181ZM11.9828 13.9102C11.499 13.9033 11.0361 13.7118 10.689 13.3747C10.6464 13.3273 10.6274 13.2846 10.5848 13.242C10.3128 12.9155 10.1606 12.5058 10.1535 12.0809V9.63088H3.39097C3.35384 9.62995 3.317 9.63759 3.2833 9.6532C3.24961 9.66882 3.21996 9.69199 3.19667 9.72092C3.14777 9.77274 3.11773 9.83951 3.11137 9.91048V55.8408C3.10786 55.8778 3.11385 55.9151 3.12878 55.9491C3.14371 55.9831 3.16708 56.0127 3.19667 56.0351C3.248 56.0876 3.31762 56.1181 3.39097 56.1204H44.298C44.3345 56.1204 44.3706 56.1127 44.404 56.0981C44.4375 56.0834 44.4675 56.062 44.4923 56.0351C44.5235 56.0139 44.5483 55.9846 44.5642 55.9504C44.58 55.9162 44.5863 55.8783 44.5823 55.8408V9.91048C44.5743 9.83902 44.5426 9.77229 44.4923 9.72092C44.4695 9.69142 44.44 9.66784 44.4061 9.65216C44.3723 9.63649 44.3352 9.62919 44.298 9.63088H37.5544V12.0904C37.5473 12.5153 37.3951 12.925 37.1232 13.2515C37.0805 13.2941 37.0568 13.3368 37.0142 13.3842C36.6704 13.7234 36.2081 13.9155 35.7252 13.9197L11.9828 13.9102ZM3.41466 58.5563C2.69487 58.555 2.00491 58.2685 1.49594 57.7596C0.986965 57.2506 0.700472 56.5606 0.699219 55.8408V9.91048C0.701717 9.19107 0.98861 8.50183 1.49731 7.99313C2.00602 7.48442 2.69525 7.19753 3.41466 7.19503H10.1772V5.86337C10.1797 5.37774 10.3737 4.9127 10.7171 4.5693C11.0605 4.2259 11.5256 4.03187 12.0112 4.02938H16.191V2.34704C16.1929 2.08213 16.247 1.82019 16.3503 1.57623C16.4536 1.33227 16.604 1.11109 16.7929 0.925339C16.9786 0.736449 17.1998 0.586059 17.4437 0.482784C17.6877 0.379508 17.9496 0.325375 18.2146 0.323486L29.4934 0.323486C29.7584 0.324594 30.0206 0.378371 30.2646 0.481693C30.5087 0.585014 30.7298 0.735818 30.9151 0.925339C31.1054 1.11021 31.2571 1.33113 31.3613 1.57522C31.4654 1.8193 31.5199 2.08167 31.5217 2.34704V4.02938H35.7015C36.1867 4.03188 36.6512 4.22606 36.9938 4.56959C37.3365 4.91313 37.5295 5.37817 37.5307 5.86337V7.19503H44.298C45.0166 7.2 45.7044 7.48768 46.2126 7.99585C46.7208 8.50403 47.0085 9.19183 47.0134 9.91048V55.8408C47.0122 56.5606 46.7257 57.2506 46.2167 57.7596C45.7077 58.2685 45.0178 58.555 44.298 58.5563H3.41466Z" fill="#E35326"/>
</svg>
