<svg width="89" height="89" viewBox="0 0 89 89" fill="none" xmlns="http://www.w3.org/2000/svg">
<rect width="89" height="89" rx="5.15942" fill="#F2F4F6"/>
<g clip-path="url(#clip0_880:396)">
<path d="M39.7461 23.0078V24.9961C39.7453 25.2449 39.6522 25.4846 39.4848 25.6686C39.3173 25.8527 39.0875 25.968 38.8398 25.9922C38.7247 26.0276 38.6048 26.0448 38.4844 26.043H34.793V30.1641H53.3711V26.043H49.6758C49.5554 26.0444 49.4355 26.0273 49.3203 25.9922C49.0727 25.968 48.8428 25.8527 48.6754 25.6686C48.5079 25.4846 48.4148 25.2449 48.4141 24.9961V23.0078H39.7461ZM52.4609 40.7031C52.9874 40.7026 53.5089 40.8058 53.9955 41.0069C54.4821 41.208 54.9243 41.503 55.2969 41.875C55.8576 42.4362 56.2393 43.151 56.3939 43.9291C56.5484 44.7072 56.4687 45.5137 56.165 46.2465C55.8613 46.9794 55.3471 47.6057 54.6874 48.0464C54.0278 48.4871 53.2523 48.7223 52.459 48.7223C51.6657 48.7223 50.8902 48.4871 50.2305 48.0464C49.5709 47.6057 49.0567 46.9794 48.753 46.2465C48.4492 45.5137 48.3696 44.7072 48.5241 43.9291C48.6786 43.151 49.0604 42.4362 49.6211 41.875L49.6719 41.8281C50.418 41.1038 51.4171 40.6988 52.457 40.6992L52.4609 40.7031ZM54.1094 43.0664C53.6769 42.6392 53.0954 42.3968 52.4876 42.3902C51.8797 42.3836 51.2931 42.6135 50.8516 43.0312L50.8164 43.0703C50.4856 43.3969 50.2593 43.8144 50.1664 44.2699C50.0735 44.7254 50.1182 45.1982 50.2946 45.6282C50.4711 46.0582 50.7715 46.4261 51.1576 46.685C51.5437 46.9438 51.998 47.0821 52.4629 47.0821C52.9277 47.0821 53.3821 46.9438 53.7682 46.685C54.1543 46.4261 54.4546 46.0582 54.6311 45.6282C54.8076 45.1982 54.8523 44.7254 54.7593 44.2699C54.6664 43.8144 54.4402 43.3969 54.1094 43.0703V43.0664ZM43.4258 56.4375L45.2305 55.4102L44.2031 53.6055L45.8945 52.6406L46.918 54.4453L48.7227 53.4219L49.6836 55.1133L47.8789 56.1562L48.9062 57.9609L47.2148 58.8906L46.1914 57.0898L44.3867 58.1094L43.4258 56.4219V56.4375ZM31.1797 43.0273L32.9844 42.0039L31.957 40.1992L33.6484 39.2383L34.6719 41.043L36.4766 40.0195L37.4375 41.7031L35.6328 42.7266L36.6602 44.5312L34.9688 45.4922L33.9453 43.6914L32.1406 44.7188L31.1797 43.0273ZM37.5 53.9141C38.1164 54.0608 38.6638 54.4147 39.0505 54.9167C39.4372 55.4186 39.6398 56.0382 39.6244 56.6716C39.6091 57.3051 39.3766 57.9141 38.966 58.3967C38.5554 58.8793 37.9915 59.2063 37.3687 59.3229C36.7459 59.4395 36.1019 59.3388 35.5445 59.0375C34.9871 58.7361 34.55 58.2525 34.3065 57.6676C34.0629 57.0826 34.0276 56.4318 34.2065 55.8239C34.3853 55.216 34.7675 54.688 35.2891 54.3281L35.3711 54.2734C35.3016 53.6967 35.2846 53.1149 35.3203 52.5352C35.414 50.6576 36.1238 48.8632 37.3398 47.4297C38.7226 45.8727 40.6306 44.8798 42.6992 44.6406C42.9492 44.6016 43.2109 44.5742 43.4805 44.5547L42.1562 43.4492L43.5391 41.7969L47.8359 45.3711L43.9609 49.3516L42.3984 47.8594L43.5078 46.7148C43.3281 46.7148 43.1523 46.7344 42.9805 46.7734C41.5003 46.9122 40.1221 47.5879 39.106 48.6731C38.0898 49.7583 37.5061 51.178 37.4648 52.6641C37.4389 53.0808 37.448 53.4989 37.4922 53.9141H37.5ZM37.6758 56.0273C37.5235 55.8102 37.2921 55.6615 37.0312 55.6133C36.9025 55.5894 36.7702 55.5913 36.6422 55.6188C36.5141 55.6463 36.3928 55.6988 36.2852 55.7734C36.0688 55.9248 35.9202 56.1547 35.8711 56.4141C35.8468 56.5428 35.8484 56.6751 35.8759 56.8033C35.9034 56.9314 35.9562 57.0527 36.0312 57.1602C36.144 57.3223 36.3022 57.4475 36.486 57.5198C36.6698 57.5922 36.8708 57.6085 37.0639 57.5667C37.2569 57.5249 37.4332 57.4269 37.5706 57.285C37.708 57.1432 37.8003 56.9638 37.8359 56.7695C37.8826 56.5082 37.8251 56.239 37.6758 56.0195V56.0273ZM34.3008 32.1992C33.902 32.1936 33.5205 32.0357 33.2344 31.7578C33.1992 31.7188 33.1836 31.6836 33.1484 31.6484C32.9242 31.3793 32.7988 31.0416 32.793 30.6914V28.6719H27.2188C27.1881 28.6711 27.1578 28.6774 27.13 28.6903C27.1022 28.7031 27.0778 28.7222 27.0586 28.7461C27.0183 28.7888 26.9935 28.8438 26.9883 28.9023V66.7617C26.9854 66.7922 26.9903 66.8229 27.0026 66.8509C27.0149 66.879 27.0342 66.9034 27.0586 66.9219C27.1009 66.9651 27.1583 66.9903 27.2188 66.9922H60.9375C60.9676 66.9921 60.9974 66.9858 61.0249 66.9737C61.0525 66.9616 61.0772 66.944 61.0977 66.9219C61.1234 66.9044 61.1438 66.8803 61.1569 66.8521C61.17 66.8238 61.1751 66.7926 61.1719 66.7617V28.9023C61.1653 28.8434 61.1391 28.7884 61.0977 28.7461C61.0789 28.7218 61.0545 28.7023 61.0266 28.6894C60.9988 28.6765 60.9682 28.6705 60.9375 28.6719H55.3789V30.6992C55.3731 31.0494 55.2476 31.3871 55.0234 31.6562C54.9883 31.6914 54.9687 31.7266 54.9336 31.7656C54.6503 32.0453 54.2692 32.2036 53.8711 32.207L34.3008 32.1992ZM27.2383 69C26.645 68.999 26.0763 68.7628 25.6567 68.3433C25.2372 67.9237 25.001 67.355 25 66.7617V28.9023C25.0021 28.3093 25.2385 27.7412 25.6579 27.3219C26.0772 26.9026 26.6453 26.6661 27.2383 26.6641H32.8125V25.5664C32.8146 25.1661 32.9745 24.7828 33.2575 24.4997C33.5406 24.2167 33.9239 24.0567 34.3242 24.0547H37.7695V22.668C37.7711 22.4496 37.8157 22.2337 37.9008 22.0326C37.986 21.8315 38.1099 21.6492 38.2656 21.4961C38.4187 21.3404 38.6011 21.2164 38.8021 21.1313C39.0032 21.0462 39.2191 21.0016 39.4375 21H48.7344C48.9528 21.0009 49.1689 21.0452 49.3701 21.1304C49.5713 21.2156 49.7535 21.3399 49.9062 21.4961C50.0632 21.6485 50.1882 21.8306 50.274 22.0318C50.3599 22.233 50.4048 22.4492 50.4062 22.668V24.0547H53.8516C54.2515 24.0567 54.6344 24.2168 54.9168 24.5C55.1993 24.7831 55.3584 25.1665 55.3594 25.5664V26.6641H60.9375C61.5299 26.6682 62.0968 26.9053 62.5157 27.3242C62.9346 27.743 63.1717 28.31 63.1758 28.9023V66.7617C63.1748 67.355 62.9386 67.9237 62.5191 68.3433C62.0995 68.7628 61.5308 68.999 60.9375 69H27.2383Z" fill="#E35326"/>
</g>
<defs>
<clipPath id="clip0_880:396">
<rect width="38.1641" height="48" fill="white" transform="translate(25 21)"/>
</clipPath>
</defs>
</svg>
