<svg width="117" height="41" viewBox="0 0 117 41" fill="none" xmlns="http://www.w3.org/2000/svg">
<g clip-path="url(#clip0_374:138)">
<path d="M26.3145 21.6086C26.7078 21.4056 27.1405 21.162 27.5339 20.9589C27.6913 20.8777 28.242 20.6747 28.3206 20.5123C28.36 20.431 28.3206 20.1874 28.3206 20.0656V19.091V12.1473V5.36597V4.47263C28.3206 4.43202 28.36 4.14777 28.3206 4.10717C28.2813 4.06656 27.9666 4.10717 27.9273 4.10717H27.0619C26.7472 4.10717 26.7865 4.14777 26.5898 4.39141C25.8424 5.40658 25.095 6.42175 24.3477 7.47752C23.9936 7.9648 23.6396 8.41147 23.3249 8.89875C23.0889 9.22361 23.0889 9.26421 22.6562 9.26421L22.7742 6.58417C22.8135 5.93447 22.8135 5.28476 22.8529 4.63505C22.8529 4.39141 22.8922 4.14777 22.8922 3.90413C22.8922 3.82292 22.8529 3.57928 22.8922 3.53867C22.9709 3.41685 23.6789 3.49807 23.8756 3.49807H38.5875C38.6662 3.49807 39.0202 3.45746 39.0989 3.49807C39.1775 3.53867 39.1382 3.78231 39.1382 3.90413C39.1775 4.43202 39.1775 5.00051 39.2169 5.5284C39.2562 6.70599 39.2955 7.84298 39.3742 9.02057V9.26421C39.1775 9.26421 39.0202 9.30482 38.8628 9.183C38.7055 9.06118 38.5875 8.81754 38.4695 8.65511C37.9974 8.00541 37.5254 7.31509 37.014 6.66539L35.5979 4.71627C35.5192 4.59445 35.4012 4.3102 35.2439 4.22899C35.1259 4.14777 34.8899 4.18838 34.7325 4.18838H34.1031C34.0244 4.18838 33.7098 4.14777 33.6311 4.18838C33.5917 4.22899 33.6311 4.22899 33.5917 4.3102C33.5131 4.63505 33.5917 5.04112 33.5917 5.36597V19.4971C33.5917 19.7813 33.5131 20.1874 33.5917 20.4716C33.6704 20.7559 34.2998 20.9589 34.5752 21.0807C34.8505 21.2432 35.3226 21.365 35.5586 21.6086C35.6372 21.6898 35.7159 22.0959 35.6372 22.2177C35.5979 22.2583 35.4012 22.2177 35.3619 22.2177H26.7078C26.6292 22.2177 26.3538 22.2583 26.3145 22.2177C26.2751 22.0553 26.3145 21.7305 26.3145 21.6086ZM40.9083 20.8777V14.9491V5.24415V3.66049C40.9083 3.41685 40.987 3.05139 40.9083 2.80775C40.8297 2.52351 40.3576 2.4829 40.0823 2.36108C39.9249 2.32047 39.4136 2.19865 39.3349 2.03623V1.71137H39.4529C39.6102 1.63016 39.9249 1.63016 40.1216 1.58955C40.4756 1.50834 40.8297 1.46773 41.1444 1.38652C41.9311 1.22409 42.7572 1.06167 43.5439 0.939848C44.0159 0.858635 44.488 0.736815 44.96 0.655602C45.078 0.655602 45.5501 0.574388 45.5894 0.655602C45.6287 0.696208 45.5894 0.858635 45.5894 0.899242V9.30482C47.0842 7.76177 49.6804 6.90903 51.7652 7.43691C53.5747 7.88359 54.1648 9.62967 54.1648 11.4164C54.2041 13.6903 54.1648 15.9237 54.1648 18.1977V20.025C54.1648 20.228 54.0861 20.7153 54.1648 20.9183C54.2041 20.9995 54.3614 21.0401 54.4401 21.1214C54.7155 21.2838 55.0302 21.4462 55.3055 21.6086C55.3449 21.6492 55.4629 21.6898 55.4629 21.7305C55.5022 21.7711 55.5022 22.1365 55.4629 22.1771C55.4235 22.2583 55.4235 22.2177 55.3055 22.2177C54.8728 22.2989 54.4008 22.2177 54.0074 22.2177H48.343C48.3036 22.2177 48.1069 22.2583 48.0676 22.2177C48.0283 22.1771 48.0283 21.7305 48.0676 21.6898C48.1856 21.5274 48.6576 21.365 48.815 21.2432C48.933 21.162 49.287 21.0401 49.3657 20.9183C49.4444 20.7965 49.3657 20.3498 49.3657 20.228V18.5631C49.3657 16.2079 49.405 13.8122 49.3657 11.457C49.3657 10.7667 49.2477 9.95452 48.579 9.58907C48.2249 9.38603 47.7529 9.34543 47.3595 9.34543C47.0448 9.34543 46.7302 9.42664 46.4548 9.50785C46.2188 9.58906 45.7861 9.75149 45.6287 9.95452C45.5107 10.117 45.5894 10.3606 45.5894 10.5636V20.1468C45.5894 20.3498 45.5107 20.7559 45.5894 20.9183C45.6287 20.9995 45.7861 21.0807 45.9041 21.1214C46.1794 21.2838 46.5335 21.4462 46.8088 21.6086C46.8482 21.6492 46.9268 21.6492 46.9268 21.6898C46.9662 21.7305 46.9662 22.0959 46.9268 22.1365C46.8875 22.1771 46.8482 22.1771 46.7695 22.1771C46.3368 22.2177 45.8647 22.1771 45.432 22.1771H39.7676C39.7282 22.1771 39.5316 22.2177 39.4922 22.1771C39.4529 22.1365 39.4922 21.7305 39.5316 21.6492C39.6496 21.4868 40.0823 21.3244 40.2396 21.2432C40.515 21.1214 40.7117 20.9995 40.9083 20.8777ZM59.5932 15.274C59.6719 17.0607 60.2226 19.0504 61.7961 20.025C62.6221 20.5123 63.6449 20.6747 64.589 20.5935C65.7297 20.4716 66.6738 19.9032 67.6572 19.3753C67.6572 19.5377 67.6965 19.8219 67.6572 19.9844C67.5785 20.1468 67.3819 20.3498 67.2638 20.4716C67.1065 20.6341 66.9098 20.8371 66.7131 20.9995C66.0444 21.568 65.297 21.9741 64.5103 22.2583C63.0155 22.7862 61.2847 22.7456 59.7506 22.3396C58.5311 22.0147 57.4297 21.4056 56.6036 20.431C55.7776 19.4565 55.3055 18.1977 55.1088 16.8983C54.6761 14.0964 55.1875 10.8885 57.4297 9.02057C59.3965 7.39631 62.5434 7.07145 64.8643 8.04601C67.6965 9.22361 68.1686 12.5534 68.1686 15.3146H60.6553C60.3013 15.274 59.9472 15.274 59.5932 15.274ZM59.5145 14.5837C60.3013 14.5431 61.088 14.5025 61.9141 14.4213C62.3861 14.3806 62.8975 14.3806 63.3695 14.34C63.4482 14.34 63.6449 14.34 63.7235 14.2994C63.8416 14.2182 63.7629 13.4061 63.7629 13.2437C63.7236 11.7818 63.6842 9.99513 62.8581 8.73633C62.2681 7.84298 61.3634 8.00541 60.8126 8.81754C59.6719 10.4012 59.5145 12.7564 59.5145 14.5837ZM-0.0410156 29.4051C-0.0410156 27.1311 0.391686 24.776 1.61112 22.8674C2.79122 20.9995 4.67937 19.7813 6.72487 19.1722C9.20308 18.4413 11.9566 18.5225 14.5135 19.0098C15.0642 19.1316 15.6149 19.2534 16.1263 19.4159C16.205 19.4565 16.559 19.5377 16.5983 19.6189V19.7407C16.7164 20.228 16.6377 20.8371 16.6377 21.3244C16.677 22.5832 16.677 23.8826 16.7164 25.1414C16.559 25.1414 16.2837 25.182 16.1656 25.1414C16.087 25.1008 16.0083 24.8978 15.969 24.8166C15.6543 24.3293 15.3396 23.842 15.0642 23.3141C14.3955 22.2177 13.6874 21.1214 13.0187 20.025C12.6647 19.4159 11.6813 19.4159 11.0519 19.4159C10.3438 19.4159 9.63578 19.5377 9.04573 19.9032C7.70829 20.7559 7.0789 22.4208 6.72487 23.9232C6.17416 26.319 6.2135 28.8366 6.33151 31.273C6.44952 33.1409 6.60686 35.1306 7.31492 36.8361C7.74762 37.8919 8.49502 38.8259 9.63578 39.0695C9.98981 39.1507 10.3438 39.1507 10.7372 39.1101C10.9732 39.0695 11.7993 39.0289 11.9173 38.7852C11.9566 38.704 11.9173 38.501 11.9173 38.4198V37.7295V33.4252V31.7603C11.9173 31.476 11.996 31.3542 11.76 31.1918C11.4846 31.0294 11.1699 30.867 10.8945 30.6639C10.6979 30.5421 10.3045 30.4203 10.1865 30.2579C10.1078 30.1766 10.0685 29.73 10.1472 29.6488C10.1865 29.5675 10.1865 29.6081 10.3045 29.6081C10.6585 29.5269 11.1306 29.6081 11.4846 29.6081H17.5818C17.9751 29.6081 18.4078 29.5675 18.8012 29.6081H18.9585C18.9979 29.6488 18.9979 30.2172 18.9585 30.2985C18.8799 30.4203 18.4865 30.5827 18.3292 30.6639C18.0538 30.8263 17.7391 30.9888 17.4638 31.1918C17.1491 31.3542 17.1884 31.3542 17.1884 31.7197V38.3386C17.1884 38.4198 17.2277 38.6228 17.1884 38.704C17.1097 38.9071 16.2837 39.0289 16.0476 39.1101C15.3789 39.3131 14.6709 39.4756 13.9628 39.5974C12.586 39.841 11.2092 39.9222 9.83246 39.8816C7.62961 39.8004 5.30876 39.3131 3.49927 37.9325C1.92581 36.7549 0.903062 34.9682 0.431023 33.0191C0.0769941 31.8821 -0.0410156 30.6233 -0.0410156 29.4051ZM18.0931 25.7099C18.0931 25.6287 18.0538 25.3038 18.0931 25.2632C18.1325 25.2226 18.1718 25.2632 18.2111 25.2226C18.4472 25.1008 18.7619 25.1008 19.0372 25.0602C19.942 24.8978 20.8467 24.7353 21.7908 24.5729C22.4988 24.4511 23.2069 24.2887 23.8756 24.2075C24.0723 24.1669 24.3083 24.1669 24.505 24.2481C24.7017 24.2887 24.623 24.2481 24.6623 24.4105C24.741 24.8978 24.6623 25.4663 24.6623 25.9535V34.4403C24.6623 35.4555 24.387 37.3234 25.3311 37.9325C25.8031 38.2574 26.4718 38.2574 27.0225 38.1355C27.4552 38.0543 28.2813 37.7295 28.4387 37.2422C28.478 37.1204 28.4387 36.9579 28.4387 36.8361V35.9834V30.3391V27.7402V26.8875C28.4387 26.8063 28.478 26.5626 28.4387 26.4814C28.3206 26.3596 27.9273 26.2378 27.8093 26.1972C27.5732 26.116 27.3766 25.9942 27.1405 25.9129C27.0619 25.8723 26.7865 25.8317 26.7472 25.7505C26.7078 25.7099 26.7078 25.3444 26.7472 25.3038C26.7865 25.2632 26.7865 25.3038 26.8259 25.2632C27.0225 25.1414 27.3766 25.182 27.5732 25.1414C29.186 24.8572 30.8382 24.4917 32.4903 24.2481C32.687 24.2075 32.8837 24.2075 33.0804 24.2481C33.2771 24.2887 33.1984 24.2075 33.2377 24.4105C33.3164 24.8166 33.2377 25.3851 33.2377 25.8317V37.5264C33.2377 37.6483 33.1984 37.8513 33.2377 38.0137C33.2771 38.1355 33.2377 38.0949 33.4344 38.1761C33.8278 38.3386 34.2605 38.5416 34.6538 38.704C34.7718 38.7446 34.8112 38.7446 34.8505 38.8259C34.8898 38.9071 34.8898 39.1913 34.8505 39.1913C34.7718 39.2725 34.3785 39.2319 34.2998 39.2725C33.4344 39.3943 32.569 39.4756 31.6643 39.5974C30.8775 39.6786 30.0908 39.8004 29.3434 39.8816C29.186 39.9222 29.0287 39.9222 28.8714 39.8816C28.7927 39.8816 28.5567 39.8816 28.5173 39.841C28.478 39.7598 28.5173 39.435 28.5173 39.3537V38.6634C28.5173 38.5416 28.596 38.2168 28.5173 38.0949C28.4387 37.9731 28.2813 38.1355 28.1633 38.2168C27.8486 38.501 27.4946 38.7852 27.1405 38.9883C25.8424 39.8004 24.2296 40.1659 22.7349 39.841C21.6334 39.5974 20.6894 38.9477 20.2173 37.8513C19.8633 37.0798 19.7846 36.227 19.7846 35.4149V30.5827V27.8215V26.8875C19.7846 26.8063 19.8239 26.5626 19.7846 26.4814C19.7059 26.3596 19.2339 26.2378 19.1159 26.1566C18.7225 25.9942 18.4078 25.8723 18.0931 25.7099ZM55.1875 24.1669C55.2662 24.1669 55.6202 24.1669 55.6596 24.2481C55.6989 24.2887 55.6596 24.5729 55.6596 24.6135V28.1869C55.6596 28.3087 55.6202 28.5118 55.6596 28.6336V28.7148C55.8169 28.8772 55.8562 28.3493 55.8956 28.3087C56.2496 26.8063 56.9183 25.0602 58.4131 24.4511C58.6885 24.3293 58.9638 24.2887 59.2392 24.2481C59.4752 24.2481 60.1439 24.1669 60.2619 24.3699C60.3013 24.4511 60.2619 24.6541 60.2619 24.7353V28.8772C59.3179 28.6742 58.2558 28.7148 57.351 28.9178C56.9183 28.999 56.525 29.1209 56.1316 29.3239C55.9349 29.4051 55.8956 29.3645 55.8562 29.5269C55.8169 29.6894 55.8562 29.9736 55.8562 30.136V37.9731C55.8562 38.0543 55.8169 38.1761 55.8562 38.2574C55.9349 38.3792 56.2103 38.4604 56.3283 38.501C56.525 38.6228 56.761 38.7446 56.9577 38.8665C57.0363 38.9071 57.1543 38.9477 57.1937 39.0289C57.233 39.0695 57.233 39.5568 57.1937 39.5974C57.1543 39.638 56.9183 39.5974 56.8397 39.5974H50.3098C50.1131 39.5974 49.7591 39.6786 49.6017 39.5974H49.4837C49.4444 39.5568 49.4837 39.1101 49.4837 39.0695C49.5624 38.8259 50.0738 38.6634 50.3098 38.5416C50.4671 38.4604 50.7818 38.3386 50.8605 38.1761C50.8998 38.0949 50.8605 37.8513 50.8605 37.7701V36.9173V26.4814C50.8605 26.4408 50.8998 26.2378 50.8605 26.1972C50.8212 26.1566 50.6245 26.116 50.5458 26.116C50.3098 26.0348 50.0738 25.9535 49.8377 25.9129C49.6017 25.8317 49.0117 25.7911 49.2084 25.3851C49.2477 25.2632 49.405 25.3038 49.5624 25.2632C51.2932 24.9384 52.9847 24.6135 54.7155 24.2887C54.8728 24.2075 55.0302 24.2075 55.1875 24.1669ZM70.0174 24.5323V21.2838V20.3498C70.0174 20.228 70.0567 19.9844 70.0174 19.8625C69.9781 19.7813 69.8207 19.7407 69.7027 19.7001C69.388 19.5783 69.0733 19.4565 68.7193 19.3347C68.4833 19.2534 68.3653 19.2941 68.3653 19.0098C68.3653 18.7662 68.3259 18.8474 68.5226 18.8068C68.9553 18.6443 69.4667 18.6443 69.8994 18.5631C71.1975 18.3195 72.4563 18.0759 73.7544 17.8322C74.0297 17.7916 74.3051 17.7104 74.5804 17.751C74.8951 17.7916 74.9345 17.7104 74.9345 17.9946C74.9738 18.6443 74.9345 19.3347 74.9345 19.9844V37.7701C74.9345 37.9325 74.8951 37.9325 75.0131 38.0137C75.2492 38.1761 75.6425 38.2574 75.8785 38.3386C76.0359 38.3792 76.4686 38.4604 76.5473 38.5822C76.5866 38.6228 76.5866 39.0695 76.5473 39.1101C76.5079 39.1507 76.2719 39.1507 76.2326 39.1507C75.6819 39.2319 75.1705 39.3131 74.6198 39.3537C73.4003 39.5162 72.1809 39.6786 70.9221 39.841C70.7255 39.8816 70.2534 39.9628 70.1747 39.8004C70.0961 39.638 70.1747 39.1101 70.1747 38.9477C70.1747 38.8259 70.2534 38.298 70.1747 38.2168C70.0961 38.1355 69.2307 38.9477 69.1127 39.0289C68.6406 39.3537 68.1292 39.5974 67.5785 39.7598C66.7131 40.0034 65.7297 40.0034 64.8643 39.8004C61.088 38.9071 60.3013 34.2779 60.616 30.9076C60.7733 29.1209 61.324 27.3342 62.5041 26.0348C63.6055 24.8572 65.1003 24.2481 66.6345 24.1262C67.8146 24.0044 68.9553 24.0856 70.0174 24.5323ZM70.0174 37.4858V27.4966V25.6287C70.0174 25.3851 69.9781 25.3444 69.7027 25.182C69.152 24.8572 68.4439 24.7353 67.8539 24.979C66.9492 25.3444 66.5164 26.4408 66.2804 27.3342C65.8084 28.9584 65.7691 30.7045 65.8084 32.41C65.8477 33.8718 65.8871 35.6585 66.6738 36.9579C67.3819 38.0949 68.9947 38.3792 70.0174 37.4858ZM83.0378 24.1669C83.2345 24.2075 83.4705 24.1262 83.5492 24.3293C83.5885 24.4511 83.5492 24.7353 83.5492 24.8572V37.567C83.5492 37.7295 83.5098 37.9731 83.5492 38.1355C83.5885 38.298 83.7459 38.3386 83.9032 38.4198C84.1392 38.5416 84.3359 38.6634 84.5719 38.7852C84.6506 38.8259 84.8866 38.9071 84.9259 39.0289C84.9259 39.0695 84.9653 39.5568 84.9259 39.5974H84.8079C84.5719 39.638 84.2572 39.5974 83.9819 39.5974H78.0027C77.8454 39.5974 77.4127 39.6786 77.2947 39.5974C77.216 39.5568 77.1767 39.0695 77.2553 38.9883C77.334 38.8665 77.6094 38.7852 77.7274 38.7446C77.9634 38.6228 78.1994 38.4604 78.4354 38.3386C78.6321 38.2168 78.5928 38.2574 78.5928 38.0949C78.6714 37.4858 78.5928 36.7955 78.5928 36.1864V32.9785V27.1311C78.5928 26.9687 78.6321 26.6845 78.5928 26.522C78.5534 26.3596 78.3568 26.3596 78.1994 26.2784C77.924 26.1566 77.688 26.0754 77.4127 25.9535C77.334 25.9129 77.0193 25.8723 76.9406 25.7505C76.9013 25.7099 76.9013 25.3038 76.9406 25.2632C76.98 25.2226 77.0586 25.2632 77.098 25.2226C77.4127 25.1008 77.7667 25.1008 78.1207 25.0196C78.6321 24.9384 79.1041 24.8166 79.6155 24.7353C80.5989 24.5729 81.543 24.3699 82.5264 24.2075C82.7231 24.2481 82.8805 24.2075 83.0378 24.1669ZM83.5885 20.3904C83.5098 22.8268 80.3236 23.8826 78.8681 21.9741C78.1994 21.0807 78.1601 19.8625 78.7501 18.9286C79.3402 17.9946 80.4809 17.5886 81.543 17.8322C82.7231 18.0759 83.5885 19.1316 83.5885 20.3904ZM100.818 38.2168V28.4306V26.5626C100.818 26.522 100.857 26.319 100.818 26.2784C100.779 26.1972 100.543 26.1566 100.464 26.1566L99.7558 25.9129C99.6378 25.8723 99.3231 25.8317 99.2445 25.7099C99.1658 25.6287 99.2051 25.4257 99.2051 25.3038C99.2051 25.0602 99.2838 25.1008 99.5198 25.0602L102.116 24.5729L104.712 24.0856C104.87 24.045 104.988 24.0044 105.145 24.0044C105.224 24.0044 105.617 24.0044 105.696 24.045C105.735 24.0856 105.696 24.3293 105.696 24.4105V25.182C105.696 25.3038 105.617 25.6693 105.696 25.7911C105.774 25.9535 105.932 25.7911 106.05 25.6693C106.404 25.3851 106.758 25.1414 107.151 24.9384C108.567 24.1262 110.259 23.7608 111.871 24.0044C112.973 24.1669 113.878 24.776 114.271 25.8723C114.546 26.6439 114.586 27.456 114.586 28.2681V37.5264C114.586 37.6889 114.546 37.9731 114.586 38.1355C114.625 38.298 114.743 38.3386 114.94 38.4198C115.136 38.5416 115.372 38.6634 115.569 38.7852C115.648 38.8259 115.923 38.9071 115.962 39.0289C116.002 39.1101 116.002 39.5162 115.962 39.5568C115.923 39.638 116.002 39.5568 115.884 39.5974C115.726 39.6786 115.372 39.5974 115.176 39.5974H109.551C109.315 39.5974 108.41 39.7192 108.292 39.5568C108.253 39.5162 108.253 39.0695 108.292 38.9883C108.331 38.9071 108.567 38.8259 108.646 38.7852C108.882 38.6634 109.079 38.5416 109.315 38.4198C109.393 38.3792 109.629 38.298 109.669 38.2168C109.708 38.1355 109.669 37.9731 109.669 37.8919V36.9986V34.1561V28.6742C109.669 28.0245 109.708 27.2936 109.315 26.7251C109 26.2378 108.449 26.116 107.898 26.0754C107.466 26.0754 107.072 26.116 106.679 26.2378C106.482 26.319 105.892 26.4814 105.774 26.7251C105.735 26.8063 105.774 26.9687 105.774 27.0499V37.567C105.774 37.6889 105.735 37.9731 105.774 38.0949C105.814 38.2574 106.05 38.298 106.168 38.3792C106.364 38.501 106.6 38.6228 106.797 38.7446C106.876 38.7852 107.033 38.8665 107.072 38.9071C107.112 38.9477 107.112 39.435 107.072 39.4756C107.072 39.5162 107.033 39.4756 106.994 39.4756C106.836 39.5568 106.443 39.4756 106.286 39.4756H99.6772C99.4805 39.4756 99.4411 39.5162 99.4018 39.3943C99.3625 39.3131 99.3625 38.9477 99.4018 38.8665C99.4411 38.7852 99.6772 38.704 99.7558 38.6634C100.149 38.6228 100.464 38.4198 100.818 38.2168ZM92.4786 30.7451C92.4786 29.6894 92.5179 28.593 92.4392 27.4966C92.3212 26.319 92.0065 25.0196 90.7084 24.776C90.3151 24.6947 89.607 24.5729 89.3316 24.8978C89.0563 25.182 88.8596 25.5881 88.6236 25.9129L86.6174 28.7148C86.4994 28.8772 86.3814 29.2021 86.2241 29.2833C86.1847 29.3239 85.7914 29.3239 85.7914 29.2833C85.752 29.2427 85.7914 28.9584 85.7914 28.8772V25.5881C85.7914 25.4663 85.752 25.2632 85.7914 25.1414C85.87 24.9384 86.7354 24.8166 86.9321 24.7353C88.0335 24.4511 89.1743 24.2481 90.3151 24.1669C91.9279 24.045 93.7373 24.0856 95.2321 24.8166C96.4122 25.3851 97.1596 26.4002 97.3563 27.6996C97.4743 28.3493 97.435 29.0803 97.435 29.73V37.8513C97.435 37.9731 97.3563 38.298 97.435 38.3792C97.4743 38.4198 97.671 38.4604 97.7103 38.4604C98.025 38.5416 98.3004 38.6228 98.6151 38.704C98.8118 38.7446 98.8511 38.7446 98.8511 38.9477C98.8511 39.1507 98.8904 39.1507 98.6544 39.2319C98.3791 39.3537 98.1037 39.4756 97.8283 39.5568C96.3729 40.0034 94.0914 40.1253 93.0293 38.7446C92.9506 38.6228 92.7146 38.0949 92.5966 38.0543C92.4392 38.0137 91.9672 38.6634 91.8099 38.7852C91.1805 39.3537 90.3544 39.6786 89.5283 39.8004C87.9942 40.0034 86.3421 39.6786 85.398 38.298C84.6113 37.1204 84.4539 35.2931 85.044 33.9937C86.106 31.5167 89.253 31.273 91.5345 30.867C91.8099 30.867 92.1245 30.7857 92.4786 30.7451ZM92.4786 37.4858V31.4761C91.2985 31.5573 90.079 31.6385 89.6463 32.9785C89.3316 33.8718 89.3316 34.9276 89.4497 35.8616C89.5283 36.5113 89.6857 37.3234 90.2757 37.7295C90.9051 38.1761 91.9672 38.0949 92.4786 37.4858ZM42.6785 30.7451C42.6785 29.6894 42.7178 28.593 42.6392 27.4966C42.5211 26.319 42.2064 25.0196 40.9083 24.776C40.515 24.6947 39.8069 24.5729 39.5316 24.8978C39.2562 25.182 39.0595 25.5881 38.8235 25.9129L36.8173 28.7148C36.6993 28.8772 36.5813 29.2021 36.424 29.2833C36.3846 29.3239 35.9913 29.3239 35.9913 29.2833C35.9519 29.2427 35.9913 28.9584 35.9913 28.8772V25.6287C35.9913 25.5069 35.9519 25.3038 35.9913 25.182C36.0699 24.979 36.896 24.8572 37.132 24.776C38.2335 24.4917 39.3742 24.2887 40.4756 24.2075C42.0884 24.0856 43.8979 24.1262 45.3927 24.8572C46.5728 25.4257 47.3202 26.4408 47.5169 27.7402C47.6349 28.3899 47.5956 29.1209 47.5956 29.7706V37.8919C47.5956 38.0137 47.5169 38.3386 47.5956 38.4198C47.6349 38.4604 47.8316 38.501 47.8709 38.501C48.1856 38.5822 48.461 38.6634 48.7757 38.7446C48.9723 38.7852 49.0117 38.7852 49.0117 38.9883C49.0117 39.1913 49.051 39.1913 48.815 39.2725C48.5396 39.3943 48.2643 39.5162 47.9889 39.5974C46.5335 40.0441 44.2519 40.1659 43.1899 38.7852C43.1112 38.6634 42.8752 38.1355 42.7572 38.0949C42.5998 38.0543 42.1278 38.704 42.0098 38.8259C41.3804 39.3943 40.5543 39.7192 39.7282 39.841C38.1941 40.0441 36.542 39.7192 35.5979 38.3386C34.8112 37.161 34.6538 35.3337 35.2439 34.0343C36.306 31.5573 39.4529 31.3136 41.6951 30.9076C42.0098 30.867 42.3245 30.7857 42.6785 30.7451ZM42.6785 37.4858V31.4761C41.4984 31.5573 40.279 31.6385 39.8463 32.9785C39.5316 33.8718 39.5316 34.9276 39.6496 35.8616C39.7282 36.5113 39.8856 37.3234 40.4756 37.7295C41.105 38.1761 42.1671 38.0949 42.6785 37.4858Z" fill="#121212"/>
</g>
<defs>
<clipPath id="clip0_374:138">
<rect width="116.043" height="39.3885" fill="white" transform="translate(0 0.615234)"/>
</clipPath>
</defs>
</svg>
