<svg width="252" height="19" viewBox="0 0 252 19" fill="none" xmlns="http://www.w3.org/2000/svg">
<g clip-path="url(#clip0_374:140)">
<path d="M53.305 9.79773L53.4365 9.8253L53.3978 9.95736L53.4142 9.96723L53.6086 9.73109L53.5995 9.71421L53.3042 9.77716L53.305 9.79773ZM53.3269 9.42416L53.344 9.43445L53.5138 9.24479L53.5042 9.22752L53.2575 9.26988L53.2567 9.29004L53.3635 9.31719L53.3269 9.42416ZM52.7649 10.9098L52.5649 10.9094L52.5601 10.9291L52.639 10.9645L52.5975 11.0418L52.6123 11.0554L52.7713 10.9283L52.7649 10.9098ZM53.1898 10.5642L52.9399 10.5728L52.9371 10.593L53.0387 10.6345L52.9889 10.7353L53.0044 10.7481L53.1969 10.5831L53.1898 10.5642ZM53.3922 10.3367L53.5309 10.3577L53.4982 10.4975L53.5162 10.5062L53.7035 10.2486L53.6935 10.2322L53.3906 10.3165L53.3922 10.3367ZM52.7274 11.3656L52.7235 11.3854L52.8032 11.4208L52.7617 11.4981L52.7765 11.5113L52.9347 11.3846L52.9283 11.366L52.7274 11.3656ZM53.9777 11.3829L54.1124 11.2303L54.1028 11.2126L53.9052 11.248L53.9044 11.2681L53.9876 11.2887L53.9605 11.3726L53.9777 11.3829ZM54.0765 10.0771L54.3061 9.74959L54.2953 9.73355L53.9191 9.84587L53.9207 9.86643L54.0969 9.88948L54.0586 10.0684L54.0765 10.0771ZM53.352 11.0036L53.1013 11.0032L53.0965 11.0233L53.1985 11.0682L53.1439 11.1673L53.1595 11.1805L53.358 11.0221L53.352 11.0036ZM53.8111 9.23367L53.9833 9.2814L53.9207 9.45296L53.937 9.46366L54.2089 9.17237L54.1997 9.1547L53.8127 9.2131L53.8111 9.23367ZM53.6959 11.0204L53.8984 10.774L53.888 10.7571L53.5823 10.8234V10.8439L53.7186 10.8727L53.678 11.0106L53.6959 11.0204ZM54.3224 8.53057L54.3372 8.54333L54.4962 8.41662L54.4898 8.39851H54.2897L54.2858 8.41785L54.3647 8.45323L54.3224 8.53057ZM53.7776 8.87657L53.7932 8.88973L54.0399 8.69186L54.0339 8.67292L53.7206 8.67252L53.7162 8.69266L53.8454 8.74986L53.7776 8.87657ZM54.8059 10.4774V10.4975L54.9119 10.5251L54.8752 10.6313L54.8915 10.642L55.0621 10.4523L55.0534 10.435L54.8059 10.4774ZM55.5515 8.65728L55.5679 8.67046L55.7261 8.54373L55.7197 8.52522H55.5196L55.5157 8.54456L55.5946 8.58036L55.5515 8.65728ZM53.5548 11.4055L53.354 11.4047L53.3512 11.4245L53.4289 11.4598L53.3874 11.5368L53.4026 11.5508L53.5612 11.424L53.5548 11.4055ZM54.9912 8.56183L55.0059 8.57502L55.2036 8.41662L55.198 8.39851H54.947L54.943 8.41785L55.0434 8.4631L54.9912 8.56183ZM54.6074 9.9376L54.7445 9.96477L54.7054 10.103L54.7234 10.1125L54.9218 9.86355L54.9119 9.84587L54.6066 9.91746L54.6074 9.9376ZM54.7995 8.09693L55.8178 8.09859C55.8178 8.09859 56.1394 8.22365 56.5611 8.39891C56.756 8.47955 56.8584 8.66059 56.842 8.8663C56.842 8.8663 57.0094 9.03909 57.1023 9.14812C57.2127 9.28018 57.2258 9.46283 57.1382 9.58296C57.0525 9.70021 56.9293 9.72943 56.8771 9.73684L56.8679 9.7171C56.9341 9.64757 56.9074 9.53689 56.8484 9.44844C56.7862 9.35628 56.7308 9.33941 56.6671 9.37891C56.6392 9.39701 56.6033 9.42459 56.6033 9.42459L56.7611 9.68501L56.756 9.70392C56.6296 9.73971 56.4554 9.71133 56.3745 9.60518C56.3706 9.60518 56.3706 9.60518 55.5906 9.60518L55.5898 9.62575L56.0258 9.70763L56.039 9.73849L54.5412 11.5569L54.5552 11.5705L55.0649 11.0998L55.0657 11.5105L55.0191 11.6343L55.0665 11.9219L55.0502 12.0453C55.0502 12.0453 55.5133 12.4555 55.5165 12.4555H55.5173C55.5173 12.4555 55.5236 12.4596 55.5296 12.4616C55.5344 12.4641 55.5408 12.4678 55.5475 12.4719C55.5539 12.4756 55.5619 12.4797 55.5695 12.4847C55.5774 12.4896 55.5858 12.4954 55.5946 12.5015C55.6038 12.5065 55.6101 12.5147 55.6193 12.5213C55.6281 12.5291 55.6364 12.5357 55.6436 12.5443C55.6512 12.5526 55.6591 12.5616 55.6667 12.5703C55.6731 12.5797 55.6815 12.5888 55.6871 12.5982C55.6942 12.6077 55.6986 12.618 55.705 12.627C55.709 12.6373 55.7149 12.6464 55.7189 12.6562C55.7237 12.6657 55.7277 12.6752 55.7305 12.6838C55.7345 12.6929 55.7369 12.7007 55.7393 12.7085C55.7424 12.7147 55.744 12.7221 55.7452 12.7287C55.7484 12.7406 55.7508 12.7476 55.7508 12.7476L55.7711 12.7484C55.7711 12.7484 55.7751 12.7418 55.7779 12.7299C55.7811 12.7241 55.7827 12.7167 55.7843 12.7073C55.7859 12.6974 55.7883 12.6863 55.7875 12.6747V12.6566C55.7867 12.65 55.7851 12.6435 55.7851 12.6369C55.7835 12.6233 55.7787 12.6098 55.7751 12.5958C55.7704 12.5814 55.764 12.5669 55.7572 12.5538C55.75 12.5398 55.7409 12.5275 55.7305 12.5147C55.7205 12.5032 55.7106 12.4912 55.6978 12.4818C55.6862 12.4711 55.6739 12.4629 55.6615 12.4559C55.648 12.4489 55.6364 12.4427 55.6233 12.4394C55.6185 12.4374 55.6137 12.4357 55.6093 12.4345C55.6675 12.4209 55.7261 12.4077 55.7827 12.3942H55.7835C55.7835 12.3946 55.7835 12.3946 55.7843 12.395C55.7891 12.397 55.7951 12.4011 55.8022 12.4048C55.8094 12.4086 55.817 12.4127 55.8242 12.4184C55.8325 12.4225 55.8405 12.4283 55.8481 12.4345C55.8584 12.4402 55.8652 12.4481 55.874 12.4538C55.8815 12.462 55.8911 12.469 55.8979 12.4773C55.9067 12.4855 55.9142 12.4945 55.9214 12.5032C55.9282 12.5126 55.9353 12.5213 55.9417 12.5312C55.9477 12.541 55.9533 12.5509 55.9589 12.5604C55.9632 12.5706 55.9704 12.5797 55.9736 12.5892C55.978 12.5986 55.982 12.6085 55.986 12.6171C55.9899 12.6258 55.9923 12.6336 55.9935 12.6414C55.9967 12.6484 55.9991 12.6554 56.0007 12.6616C56.0039 12.6739 56.0063 12.6805 56.0063 12.6805L56.0266 12.6817C56.0266 12.6817 56.0294 12.6748 56.0326 12.6624C56.0358 12.6571 56.0382 12.6497 56.0398 12.6398C56.0414 12.6303 56.0422 12.6188 56.0422 12.6077V12.5892C56.0414 12.583 56.0406 12.5764 56.0406 12.5698C56.039 12.5562 56.0334 12.5431 56.0302 12.5287C56.025 12.5147 56.0194 12.5003 56.0115 12.4871C56.0047 12.4727 55.9951 12.4608 55.986 12.4476C55.9752 12.4361 55.9648 12.4242 55.9533 12.4147C55.9409 12.4045 55.9282 12.3966 55.9158 12.3892C55.9043 12.3831 55.8927 12.3765 55.88 12.3732C56.7006 12.1901 57.3358 12.0663 57.3358 12.0663C58.1648 12.5723 58.1126 12.5415 58.2848 12.6398C58.6008 12.8212 58.5873 13.354 57.9902 13.354C57.5411 13.354 56.7089 13.4334 56.2024 13.535L56.6499 13.115L56.636 13.1006C56.636 13.1006 56.1928 13.4322 55.6667 13.7037V13.7041C55.3818 13.8226 54.9521 14.0155 54.5093 14.2188L55.1634 13.5803L55.1482 13.5646C55.1482 13.5646 54.3125 14.2591 53.7206 14.5837C53.3651 14.7499 53.0575 14.8947 52.8857 14.9762C52.6458 15.0893 52.4572 15.121 52.1898 15.0231C51.7638 14.8672 51.598 14.8063 51.2369 14.6639C51.0269 14.5816 51.0113 14.2764 51.2353 14.2027C51.3333 14.1702 51.5888 14.0863 51.7578 14.0308C51.8315 14.0641 51.908 14.0982 51.9842 14.1332C52.1041 14.1879 52.2245 14.2422 52.3385 14.2932C52.3951 14.3183 52.4497 14.343 52.5011 14.3669C52.5134 14.3727 52.5266 14.378 52.5393 14.3842C52.5461 14.3871 52.5525 14.3899 52.5585 14.392L52.5672 14.3965V14.3969L52.5688 14.3973L52.5696 14.3977L52.574 14.4002C52.5983 14.4142 52.6147 14.4257 52.6334 14.4418C52.6677 14.4722 52.6908 14.5084 52.7035 14.5442C52.7167 14.58 52.7191 14.6137 52.7175 14.6417C52.7167 14.6693 52.7103 14.6915 52.7063 14.7067C52.7019 14.7211 52.7003 14.7285 52.7003 14.7285L52.7227 14.7384C52.7227 14.7384 52.7259 14.7297 52.733 14.7149C52.7386 14.6993 52.7462 14.6759 52.7502 14.645C52.7534 14.6137 52.7541 14.5746 52.7422 14.5314C52.7306 14.4887 52.7051 14.4426 52.6677 14.4035C52.6497 14.385 52.6254 14.364 52.6047 14.3504L52.5991 14.348L52.5975 14.3463L52.5935 14.3434L52.5844 14.3385C52.5788 14.3352 52.5728 14.3311 52.5672 14.3282C52.5549 14.3208 52.5429 14.3138 52.5306 14.3064C52.4815 14.2776 52.4293 14.2468 52.3755 14.2159C52.2691 14.1517 52.1555 14.0847 52.0404 14.0176C51.7881 13.8679 51.535 13.7189 51.3601 13.6148C51.3585 13.6144 51.3576 13.614 51.3576 13.6136C51.3576 13.6136 52.2416 13.3264 53.3703 13.0063L53.552 13.0886L53.558 13.0763L53.5612 13.0713L53.4544 12.9833L53.175 12.7504L53.0367 12.7011L52.9446 12.4407L52.8195 12.3678L52.6964 11.7869L52.6768 11.791L52.7274 12.4254L52.3763 12.6287V11.7902L52.3564 11.7869L52.2544 12.6719L51.7817 12.7669L51.9427 11.805L51.922 11.8005L51.6323 12.7834L51.1691 12.8159L51.5047 11.7898L51.4852 11.7807L50.991 12.8266H50.9902L50.5331 12.8574L51.0663 11.7746L51.0492 11.7639L50.319 12.8792L49.8328 12.9574L50.6227 11.7556L50.6072 11.7429L49.2776 13.3379L49.2059 13.2886L50.3972 11.3607L52.2209 10.6568C52.2209 10.6568 52.3437 10.6016 52.4146 10.5704C52.4497 10.5543 52.4863 10.5391 52.5258 10.5185C52.5453 10.5095 52.5633 10.4971 52.5828 10.486C52.6007 10.4745 52.6187 10.4622 52.6366 10.4494C52.6709 10.4222 52.7051 10.3947 52.7346 10.3626L52.757 10.34C52.7633 10.3317 52.7705 10.3235 52.7773 10.3153C52.7912 10.2997 52.8032 10.2828 52.8155 10.2663C52.8271 10.2499 52.8374 10.2322 52.849 10.2157C52.8582 10.1993 52.8677 10.1816 52.8769 10.1655C52.8849 10.1487 52.8924 10.1322 52.8996 10.1166C52.9064 10.1001 52.9128 10.0845 52.9192 10.0693C52.9299 10.0384 52.9391 10.01 52.9455 9.9841C52.9526 9.95859 52.9562 9.93513 52.9602 9.91703C52.9634 9.89811 52.965 9.88413 52.9666 9.87384C52.9674 9.86397 52.9682 9.8582 52.9682 9.8582L52.9471 9.85451C52.9471 9.85451 52.9455 9.85985 52.9431 9.86972C52.9415 9.87918 52.9383 9.8944 52.9339 9.91168C52.9291 9.92937 52.9235 9.95037 52.9144 9.97423C52.9072 9.99851 52.8956 10.0256 52.8841 10.0532C52.8769 10.0672 52.8701 10.082 52.8622 10.0964C52.8546 10.1108 52.845 10.126 52.8366 10.1413C52.8263 10.1557 52.8171 10.1713 52.806 10.1861C52.7944 10.2005 52.7844 10.2157 52.7721 10.2305C52.7593 10.2445 52.747 10.2597 52.733 10.2729L52.7111 10.2935L52.69 10.3132C52.6605 10.3396 52.6278 10.3626 52.5943 10.3844C52.5772 10.3947 52.5601 10.4046 52.5429 10.4136C52.5242 10.4218 52.5079 10.4317 52.4895 10.4383C52.4545 10.4531 52.4162 10.4667 52.3803 10.4803C52.307 10.507 52.2396 10.5321 52.1811 10.5535C52.1237 10.5753 52.075 10.5926 52.0412 10.6049L51.9244 10.361L52.1607 10.1458L52.1492 10.1293L51.5171 10.5296L51.3684 10.2223L52.2233 9.56897L52.209 9.55047L50.9093 10.3527L50.7901 10.0289L52.0153 9.1843L52.0053 9.16702L50.4267 10.0614L50.3517 9.7574L51.6876 8.88152L51.6773 8.86341L50.0428 9.72408L49.9954 9.36409V9.36369L51.3441 8.61326L51.3357 8.59515L49.6662 9.31309L49.6591 8.96215L51.0213 8.4129L51.0149 8.39151L49.3609 8.85889L49.3805 8.47462L50.6375 8.17676L50.6335 8.15702L49.0246 8.3841L49.076 8.05291L50.2601 7.92169V7.90029L48.6057 7.92826L48.6308 7.6481L49.9492 7.63864L49.9508 7.61847L47.5822 7.43951L47.5782 7.41689L47.962 7.27905L47.9613 7.25972L46.9804 6.87339L46.982 6.85159L47.3746 6.8191L47.3782 6.79771L46.5313 6.25793L46.5368 6.2283L47.1299 6.26328L47.1371 6.24394L46.4536 5.58197L46.4619 5.56141L46.7835 5.62476L46.7931 5.60872L46.4723 5.19195L46.2738 4.60157L46.2933 4.59128L46.6006 4.99036L47.2949 5.40261L47.3096 5.38819L46.8613 4.70938L46.6943 3.95113L46.7142 3.94167L47.0761 4.50241L47.7775 5.09156L47.7907 5.07677L47.3626 4.27328L47.2148 3.29205L47.2383 3.28711L47.6572 4.12229L48.5359 4.87598L48.5523 4.862L47.9473 3.85898L47.8102 2.656L47.8297 2.64982L48.2072 3.71662L49.4534 4.87475L51.0261 5.70499L52.7502 8.17922L53.4217 8.76302L53.4373 8.74697L53.1431 8.35161H53.1463L53.1471 8.3512L53.1431 8.35161L53.835 8.16729L53.8338 8.1455L53.2336 8.10929L53.2312 8.08829L54.1124 7.92661L54.11 7.90604L53.0108 7.81966L53.01 7.79827L54.4113 7.55552L54.9685 7.69129L54.9749 7.67153L54.4432 7.41975L53.5744 7.43908L53.572 7.41769L54.4998 7.23749L55.0745 7.43991L55.0821 7.42058L54.5608 7.0791L53.9434 7.05278V7.03016L54.6337 6.91947L55.2387 7.21158L55.2494 7.19307L54.7513 6.71007L54.2089 6.70761L54.2064 6.68498L54.8664 6.53234L55.4527 7.02973L55.4666 7.01534L55.0159 6.33569L54.5249 6.24065L54.5273 6.21966L55.1482 6.18099L55.7082 6.88369L55.7245 6.87216L55.3228 5.9975L54.7855 5.81648L54.7895 5.79468L55.4738 5.85269L55.9935 6.77508L56.0115 6.76644L55.6667 5.684L54.9928 5.4351L54.9972 5.4137L55.8122 5.5651L56.2661 6.67798L56.2865 6.67263L55.9892 5.43098L55.2658 5.00804L55.2762 4.98748L56.1354 5.32484L56.5447 6.56855L56.5651 6.56403L56.3092 5.20594L55.5236 4.61516L55.5352 4.59623L56.4499 5.11378L56.8078 6.4225L56.8289 6.41755L56.6041 5.01628L55.7811 4.26258L55.7939 4.24654L56.756 4.92372L57.0345 6.2571L57.0541 6.25341L56.913 4.83566L56.0928 3.91904L56.1067 3.90217L57.0576 4.74187L57.2673 6.03371L57.2884 6.03206L57.1963 4.6744L56.4196 3.62653L56.4343 3.61254L57.349 4.59952L57.4929 5.71732L57.5132 5.71569L57.4665 4.5337L56.756 3.41012L56.7731 3.39697L57.5949 4.47238L57.7045 5.27507L57.7256 5.27301L57.6873 4.41438L57.1816 3.24967L57.1995 3.2394L57.8268 4.34238L57.8846 4.79493L57.9045 4.79289L57.9352 4.27737L57.6734 3.18137L57.6929 3.17356L58.0528 4.09348H58.0735L58.2947 3.17479L58.3166 3.18013L58.2441 4.08402L58.2636 4.0902L58.873 3.18591L58.8902 3.19661L58.4956 4.01326L58.5087 4.02847L59.439 3.34305L59.4505 3.35993L58.0325 5.33677C58.0325 5.33677 57.5722 6.60392 57.4243 7.02727C57.394 7.11078 57.3426 7.16509 57.2649 7.19882C57.2207 7.21734 56.1143 7.67319 56.1143 7.67319L55.811 7.94966L54.7967 8.07268L54.7995 8.09693ZM53.2428 0.128683C48.4284 0.128683 44.5254 4.15767 44.5254 9.12795C44.5254 14.0982 48.4284 18.1272 53.2428 18.1272C58.0572 18.1272 61.961 14.0982 61.961 9.12795C61.961 4.15767 58.0572 0.128683 53.2428 0.128683ZM54.5257 9.33612L54.6923 9.37273L54.6401 9.53977L54.658 9.54964L54.9039 9.25712L54.8947 9.24027L54.5265 9.31555L54.5257 9.33612ZM55.2116 10.0721L55.2949 10.0931L55.2658 10.1762L55.2829 10.1869L55.4184 10.0347L55.4101 10.0174L55.2124 10.052L55.2116 10.0721ZM53.8864 12.9109C53.8952 12.915 53.9028 12.9208 53.9115 12.9265C53.9199 12.9315 53.9271 12.9397 53.937 12.9459C53.945 12.9537 53.9542 12.9603 53.9613 12.9685C53.9645 12.971 53.9661 12.9726 53.9677 12.9751C53.9737 12.9804 53.9793 12.9874 53.9853 12.9936C53.9924 13.0031 53.9996 13.0121 54.0056 13.0216C54.0128 13.031 54.0179 13.0409 54.0243 13.0499C54.0291 13.0598 54.0359 13.0693 54.0391 13.0792C54.0438 13.0878 54.0478 13.0973 54.0506 13.1059C54.0554 13.115 54.0578 13.1228 54.0602 13.1302C54.0634 13.1372 54.0658 13.1438 54.0674 13.1503C54.0709 13.1627 54.0733 13.1693 54.0733 13.1693L54.0937 13.1697C54.0937 13.1697 54.0969 13.1631 54.1004 13.1508C54.1028 13.1454 54.1044 13.1376 54.1052 13.1281C54.1068 13.1182 54.1084 13.1071 54.1076 13.0956C54.1068 13.0899 54.1068 13.0837 54.1068 13.0775C54.1068 13.0709 54.106 13.0648 54.1044 13.0582C54.1028 13.0442 54.0984 13.0314 54.0945 13.0166C54.0889 13.003 54.0829 12.9887 54.0749 12.9755C54.0709 12.9668 54.0642 12.9582 54.0586 12.9504L54.0486 12.9372C54.0375 12.9253 54.0267 12.9142 54.0152 12.9047C54.0024 12.8944 53.99 12.8866 53.9777 12.8796C53.9645 12.873 53.9518 12.8673 53.9394 12.864C53.9335 12.8619 53.9263 12.8599 53.9207 12.8578C53.9179 12.8574 53.9139 12.857 53.9107 12.8566C53.9083 12.8558 53.9059 12.8558 53.9036 12.8558C53.8928 12.8533 53.8828 12.8533 53.8733 12.8537C53.8641 12.8533 53.8561 12.8545 53.8494 12.8554C53.8374 12.8574 53.8306 12.8595 53.8306 12.8595L53.829 12.8788V12.88C53.829 12.88 53.835 12.8837 53.8462 12.8887C53.8509 12.8907 53.8569 12.8944 53.8641 12.8981C53.8709 12.9018 53.8789 12.906 53.8864 12.9109ZM54.6775 13.2384C54.6564 13.245 54.6321 13.2519 54.6058 13.2598C54.5592 13.2742 54.503 13.2902 54.4416 13.3096C54.3926 13.3244 54.3404 13.3408 54.285 13.3589C54.2571 13.3672 54.2284 13.3758 54.1989 13.3852L54.1108 13.4161C53.9908 13.4593 53.8625 13.505 53.735 13.5506C53.6537 13.5803 53.5728 13.6124 53.4943 13.6432C53.45 13.6609 53.4054 13.6778 53.3619 13.6951C53.3221 13.7103 53.2842 13.7259 53.246 13.7415C53.228 13.7485 53.2093 13.7559 53.1914 13.7638C53.1503 13.7806 53.1089 13.7979 53.0714 13.814L53.0395 13.8275C52.9781 13.8538 52.9235 13.8777 52.8777 13.8979C52.8546 13.9082 52.8327 13.918 52.8147 13.9263C52.7593 13.9501 52.7283 13.9641 52.7283 13.9641L52.7223 13.967L52.7354 13.9987L52.7414 13.9966C52.7414 13.9966 52.7725 13.9851 52.8287 13.9649C52.8482 13.9579 52.8709 13.9493 52.8941 13.9407C52.9415 13.9234 52.9969 13.9032 53.0598 13.8794L53.1057 13.8613C53.14 13.8481 53.1758 13.8341 53.2133 13.8209L53.2671 13.8012C53.3049 13.7872 53.3448 13.7728 53.3854 13.7576C53.4281 13.7415 53.4707 13.7247 53.5162 13.7082C53.5947 13.6778 53.6756 13.6469 53.7581 13.6177C53.8848 13.5708 54.012 13.5239 54.1319 13.4799C54.1885 13.4593 54.2471 13.4371 54.3037 13.4173C54.3444 13.4029 54.383 13.3894 54.4205 13.3762L54.4587 13.3626C54.5201 13.3408 54.5755 13.3211 54.6205 13.3038C54.6472 13.2947 54.6696 13.2865 54.6899 13.2791L54.7832 13.2437L54.774 13.2108L54.6775 13.2384ZM52.9861 13.542L53.0574 13.5177C53.1511 13.4869 53.242 13.4556 53.3301 13.4239C53.3651 13.412 53.3978 13.4001 53.4297 13.389L53.456 13.3799L53.5684 13.3408C53.6158 13.3248 53.6576 13.31 53.6919 13.2972C53.7083 13.2914 53.723 13.2857 53.7362 13.2812C53.7776 13.2659 53.8003 13.2569 53.8003 13.2569L53.8071 13.2544L53.7972 13.2223L53.7908 13.2236C53.7908 13.2236 53.7669 13.2289 53.7254 13.2392L53.6919 13.2478C53.6537 13.2573 53.6063 13.2684 53.552 13.2832L53.4365 13.3149C53.4086 13.3227 53.3791 13.3326 53.3488 13.3421L53.3097 13.3544C53.2288 13.3803 53.1372 13.4108 53.0343 13.4453C52.9586 13.4708 52.8857 13.4984 52.8147 13.5247L52.7617 13.5441L52.7354 13.5539C52.6589 13.5823 52.5876 13.6095 52.5266 13.6346C52.4987 13.6453 52.4736 13.6556 52.4521 13.6654L52.4325 13.6737L52.36 13.7037C52.3205 13.721 52.2978 13.73 52.2978 13.73L52.2914 13.7333L52.3034 13.765C52.3034 13.765 52.3337 13.7559 52.3747 13.7428C52.3891 13.7382 52.4054 13.7337 52.4234 13.7272L52.476 13.7107C52.4971 13.7041 52.5206 13.6967 52.5445 13.6885C52.5876 13.6736 52.6358 13.6584 52.6864 13.6416C52.7183 13.6313 52.751 13.621 52.7836 13.6103C52.849 13.5881 52.9168 13.5655 52.9861 13.542ZM54.4073 10.9509L54.4065 10.9711L54.5133 10.9982L54.4775 11.1052L54.4938 11.1155L54.6636 10.9258L54.6548 10.9081L54.4073 10.9509ZM54.2268 10.6884L54.4448 10.3536L54.4336 10.3383L54.0626 10.4642L54.0642 10.4844L54.2407 10.5008L54.2089 10.681L54.2268 10.6884ZM55.3857 9.47435L55.1366 9.49741L55.1343 9.51714L55.2387 9.55335L55.1952 9.65661L55.21 9.66813L55.3945 9.49286L55.3857 9.47435ZM54.2228 12.3493L53.7083 11.6989L53.6812 11.7108L53.8135 12.4847L54.0841 12.8093C54.0841 12.8093 54.0929 12.8134 54.0984 12.8163C54.1036 12.8187 54.1108 12.822 54.1176 12.8262C54.124 12.8294 54.1319 12.8335 54.1395 12.8385C54.1475 12.843 54.1566 12.8484 54.1654 12.8545C54.1738 12.8595 54.1817 12.8677 54.1909 12.8739C54.1981 12.8813 54.2073 12.8879 54.2152 12.8965C54.2228 12.9039 54.2308 12.9134 54.2383 12.922C54.2455 12.9311 54.2531 12.9397 54.2587 12.9496C54.2666 12.9582 54.271 12.9685 54.2774 12.9779C54.2822 12.9878 54.289 12.9969 54.2921 13.0063C54.2969 13.0162 54.3013 13.0249 54.3045 13.0343C54.3085 13.043 54.3109 13.0508 54.3141 13.0578C54.3165 13.0648 54.3193 13.0722 54.32 13.0783C54.324 13.0903 54.3272 13.0973 54.3272 13.0973L54.3467 13.0977C54.3467 13.0977 54.3495 13.0907 54.3535 13.0792C54.3551 13.0734 54.3583 13.0656 54.3591 13.0553C54.3607 13.0458 54.3623 13.0347 54.3615 13.0232V13.0051C54.3599 12.9989 54.3591 12.9924 54.3583 12.9858C54.3567 12.9722 54.3511 12.9586 54.3475 12.9446C54.342 12.9311 54.3364 12.9167 54.328 12.9035C54.3216 12.8895 54.3109 12.8772 54.3013 12.8648C54.2914 12.8533 54.2798 12.8418 54.2678 12.8327C54.2563 12.822 54.2431 12.815 54.2316 12.8072C54.2172 12.8015 54.2057 12.7953 54.1933 12.7912C54.1861 12.7891 54.1809 12.7875 54.1746 12.7862C54.1738 12.7862 54.1738 12.7858 54.1738 12.7858C54.1802 12.7838 54.1869 12.7825 54.1941 12.7801C54.2447 12.7673 54.2945 12.7542 54.3452 12.7406C54.3475 12.7414 54.3491 12.743 54.3519 12.7443C54.3583 12.7463 54.3647 12.7496 54.3706 12.7537C54.3778 12.7574 54.3846 12.7611 54.3926 12.7661C54.4018 12.7702 54.4089 12.7764 54.4173 12.7821C54.4268 12.787 54.4344 12.7953 54.4432 12.8015C54.4508 12.8089 54.4611 12.8159 54.4679 12.8241C54.4775 12.8315 54.4835 12.841 54.4922 12.8492C54.4986 12.8582 54.5062 12.8673 54.5125 12.8768C54.5193 12.8862 54.5249 12.8965 54.5305 12.9056C54.5356 12.9154 54.542 12.9245 54.5452 12.9348C54.5496 12.9434 54.5552 12.9525 54.5576 12.9615C54.5624 12.9706 54.5647 12.978 54.5667 12.9854C54.5699 12.9924 54.5731 12.9998 54.5747 13.0055C54.5771 13.0183 54.5803 13.0249 54.5803 13.0249H54.6002C54.6002 13.0249 54.6034 13.0183 54.6074 13.0063C54.609 13.0006 54.6122 12.9928 54.6122 12.9833C54.6146 12.9738 54.6154 12.9627 54.6146 12.9512V12.9327C54.6138 12.9265 54.613 12.9199 54.6122 12.9138C54.6106 12.8994 54.6058 12.8866 54.601 12.8722C54.5958 12.8582 54.5911 12.8442 54.5819 12.8311C54.5755 12.8175 54.5647 12.8048 54.5552 12.792C54.5444 12.7809 54.5341 12.7694 54.5209 12.7603C54.5101 12.75 54.497 12.7422 54.4842 12.7348C54.4711 12.7286 54.4587 12.7229 54.4456 12.7192C54.4432 12.7184 54.4408 12.7175 54.4384 12.7171C54.5795 12.6801 54.721 12.6451 54.8636 12.6098L54.4033 12.3452L54.2228 12.3493ZM55.0836 8.90703L55.2124 8.96421L55.1446 9.09051L55.1602 9.10367L55.4077 8.90577L55.3997 8.88727L55.0876 8.88686L55.0836 8.90703ZM50.5502 5.96129L49.9655 6.26902L49.9337 6.09049L49.9058 6.09335L49.9026 6.38998L49.9261 6.40111L50.5649 5.98475L50.5502 5.96129ZM51.1102 6.68908L50.2927 7.147L50.2609 6.96803L50.2342 6.97132L50.2298 7.26795L50.2521 7.28071L51.1249 6.71336L51.1102 6.68908ZM50.8431 6.31593L50.0692 6.73804L50.0381 6.55948L50.0118 6.5636L50.0078 6.85983L50.0289 6.87053L50.8571 6.33979L50.8431 6.31593ZM52.0511 7.77358L51.4673 8.08131L51.4354 7.90604L51.4091 7.90976L51.4051 8.20185L51.4254 8.21337L52.0651 7.79784L52.0511 7.77358ZM51.7335 7.41483L51.0284 7.79292L50.997 7.61436L50.9699 7.61847L50.9659 7.91345L50.9862 7.92703L51.7482 7.43828L51.7335 7.41483ZM51.4182 7.06305L50.6172 7.49463L50.5853 7.31566L50.5582 7.31855L50.555 7.61559L50.5777 7.62711L51.4322 7.08693L51.4182 7.06305ZM49.5212 6.60681L49.5299 6.57266L47.7317 6.06375L46.9222 5.38327L46.8995 5.4059L47.6492 6.19005L49.5212 6.60681ZM49.5718 6.22872L49.5837 6.19497L48.0609 5.68729L47.3084 4.95704L47.2865 4.98213L47.9613 5.80538L49.5718 6.22872ZM54.4384 8.77414L54.5667 8.83172L54.4986 8.95763L54.5133 8.97119L54.7608 8.77414L54.7553 8.75521L54.4424 8.75398L54.4384 8.77414ZM47.7309 6.98408L48.3933 7.18361L49.7049 7.30745L49.7089 7.27082L47.7381 6.95033L47.7309 6.98408ZM47.9015 4.65054L47.8772 4.67028L48.4275 5.45278L49.7587 5.90864L49.7718 5.87614L48.5379 5.35118L47.9015 4.65054ZM52.3165 8.15002L51.8985 8.35572L51.8658 8.1924L51.8395 8.19363L51.8355 8.47628L51.8594 8.48695L52.3313 8.17347L52.3165 8.15002ZM49.5455 6.9096L47.0546 6.37929L47.045 6.41221L47.691 6.65658L49.5383 6.94621L49.5455 6.9096ZM50.2772 5.73007L50.2927 5.69758L49.1405 5.12614L48.4391 4.16259L48.4136 4.18112L49.0401 5.2364L50.2772 5.73007ZM55.1446 13.1215C55.1446 13.1215 55.157 13.1203 55.1781 13.117C55.1857 13.1158 55.1929 13.1145 55.2012 13.1129C55.2192 13.1104 55.2411 13.1067 55.265 13.1022C55.3064 13.0948 55.3467 13.0862 55.3873 13.0771C55.4248 13.0693 55.4651 13.0598 55.5057 13.0499L55.5296 13.0442C55.5751 13.0343 55.6225 13.0236 55.6643 13.0125C55.7118 13.0006 55.7524 12.9895 55.7851 12.98C55.8086 12.9742 55.8285 12.9673 55.8457 12.9623C55.8552 12.959 55.862 12.9566 55.87 12.9545C55.8903 12.9479 55.9019 12.9434 55.9019 12.9434L55.9074 12.9413L55.9011 12.9096L55.8947 12.9101C55.8947 12.9101 55.8823 12.9109 55.8612 12.9134C55.8544 12.9146 55.8457 12.9154 55.8365 12.9167C55.8186 12.9187 55.7974 12.9216 55.7735 12.9253C55.7377 12.9306 55.6962 12.9376 55.6504 12.9459C55.6061 12.9545 55.5571 12.9648 55.5105 12.9751C55.4248 12.9965 55.3303 13.0232 55.2518 13.0483C55.2279 13.0557 55.206 13.0639 55.1881 13.0701L55.1685 13.0763C55.149 13.0837 55.1366 13.0886 55.1366 13.0886L55.1311 13.0903L55.1383 13.1224L55.1446 13.1215ZM56.2 12.6381C56.2 12.6381 56.2155 12.6369 56.2422 12.6328C56.2506 12.632 56.2598 12.6307 56.2717 12.6295C56.294 12.6266 56.3215 12.6233 56.3526 12.6184C56.4538 12.6032 56.5758 12.5822 56.6882 12.5608L56.7169 12.555C56.7675 12.5443 56.8181 12.5345 56.8655 12.5229C56.8899 12.5184 56.913 12.5135 56.9357 12.5085C56.966 12.5019 56.9939 12.4962 57.0214 12.49C57.0509 12.483 57.078 12.476 57.1007 12.4707L57.1302 12.4633C57.1565 12.4567 57.1708 12.4526 57.1708 12.4526L57.1768 12.4509L57.1716 12.4184H57.1653C57.1653 12.4184 57.1497 12.4193 57.123 12.4226L57.0967 12.4254C57.0732 12.4275 57.0437 12.4312 57.011 12.4353L57.0026 12.4365C56.958 12.4427 56.9074 12.4489 56.8548 12.4583C56.7986 12.4678 56.7388 12.4797 56.6802 12.4909L56.6754 12.4917C56.5666 12.513 56.4451 12.5394 56.3431 12.5641C56.3136 12.5711 56.2881 12.5785 56.2661 12.5838C56.2554 12.5875 56.2434 12.59 56.2343 12.5924C56.2087 12.5994 56.1936 12.604 56.1936 12.604L56.1868 12.6056L56.1936 12.6385L56.2 12.6381ZM55.2933 12.5386C55.3001 12.5423 55.3072 12.5468 55.3148 12.5513C55.3228 12.5558 55.3312 12.562 55.3391 12.5682C55.3475 12.5735 55.3555 12.5813 55.3646 12.5879C55.3678 12.592 55.3726 12.5962 55.3782 12.5999C55.3818 12.6031 55.3857 12.6073 55.3897 12.611C55.3973 12.6192 55.4045 12.6287 55.4124 12.6369C55.4184 12.6464 55.4264 12.6554 55.4324 12.6653C55.4387 12.6747 55.4443 12.6842 55.4495 12.6937C55.4543 12.7044 55.4607 12.713 55.4643 12.7229C55.4682 12.7323 55.473 12.7414 55.4754 12.7504C55.479 12.7595 55.4814 12.7673 55.4846 12.7743C55.487 12.7821 55.4902 12.7887 55.491 12.7953C55.495 12.8076 55.4962 12.8146 55.4962 12.8146L55.5173 12.8155C55.5173 12.8155 55.5197 12.8085 55.5236 12.7965C55.526 12.7908 55.5284 12.7833 55.5296 12.7735C55.5312 12.7636 55.5328 12.7529 55.5328 12.7414V12.7229C55.532 12.7171 55.5312 12.7101 55.5296 12.7035C55.5296 12.6904 55.5244 12.6764 55.5205 12.662C55.5157 12.6488 55.5105 12.634 55.5025 12.6208C55.4953 12.6065 55.4854 12.5941 55.4762 12.5814C55.4738 12.5793 55.4722 12.5764 55.4698 12.5744C55.4615 12.5649 55.4527 12.5558 55.4435 12.5484C55.4324 12.5377 55.4184 12.5303 55.4077 12.5221C55.3945 12.5164 55.3818 12.5098 55.3678 12.5056C55.3618 12.504 55.3571 12.5015 55.3507 12.5003C55.3459 12.4995 55.3407 12.4982 55.3359 12.4978C55.3351 12.497 55.3343 12.497 55.3327 12.497C55.3228 12.4941 55.312 12.4941 55.3033 12.4941C55.2949 12.4937 55.2861 12.4941 55.2797 12.4954C55.2666 12.4978 55.2598 12.4995 55.2598 12.4995L55.2582 12.5155V12.5201C55.2582 12.5201 55.2642 12.5229 55.2745 12.5287C55.2797 12.5308 55.2853 12.5344 55.2933 12.5386ZM56.257 9.41635C56.2578 9.42252 56.2598 9.42868 56.2605 9.43403C56.2629 9.4402 56.2638 9.44597 56.2661 9.4505C56.2693 9.45502 56.2717 9.45996 56.2741 9.46366C56.2761 9.46818 56.2785 9.47147 56.2801 9.47476C56.2833 9.47764 56.2857 9.48012 56.2881 9.48259C56.2972 9.49247 56.3028 9.49698 56.3028 9.49698L56.3152 9.48711C56.3152 9.48711 56.3144 9.4801 56.312 9.46941C56.312 9.46694 56.312 9.46408 56.3112 9.4612V9.4505C56.3104 9.44392 56.3104 9.4361 56.312 9.42787C56.312 9.41965 56.3143 9.41142 56.3167 9.40319C56.3175 9.39949 56.3199 9.39456 56.3215 9.39126C56.3247 9.38756 56.3255 9.38261 56.3275 9.37891C56.3323 9.3715 56.3363 9.36327 56.3419 9.35874C56.3439 9.35628 56.3447 9.3538 56.351 9.34928L56.3582 9.3423L56.3618 9.33941H56.3626C56.3706 9.33488 56.3773 9.32913 56.3853 9.32625C56.3937 9.32214 56.4032 9.3213 56.4116 9.31925C56.4148 9.3176 56.4196 9.31885 56.4244 9.31761C56.4279 9.3172 56.4327 9.31679 56.4367 9.31761C56.4407 9.31761 56.4443 9.31844 56.4491 9.31844C56.4531 9.31927 56.4562 9.32008 56.4598 9.3209C56.4686 9.32255 56.4742 9.32419 56.4802 9.32625C56.4833 9.3279 56.4857 9.32912 56.4889 9.32994C56.4917 9.33159 56.4941 9.33323 56.4965 9.33529C56.5069 9.34146 56.512 9.34436 56.512 9.34436L56.5284 9.33077C56.5284 9.33077 56.526 9.32378 56.5216 9.31267C56.5208 9.30979 56.5192 9.30732 56.5168 9.30403C56.5144 9.30033 56.5113 9.29703 56.5089 9.29333C56.5053 9.28963 56.5021 9.28511 56.4981 9.2814C56.4941 9.27647 56.4897 9.2736 56.4841 9.27031C56.4794 9.26743 56.475 9.2633 56.4694 9.26001C56.4638 9.25713 56.4571 9.25508 56.4507 9.2522C56.4443 9.24932 56.4375 9.24766 56.4311 9.24642C56.4244 9.2456 56.4156 9.24397 56.4088 9.24356C56.3929 9.24397 56.3765 9.24479 56.361 9.25014C56.3454 9.25426 56.3315 9.26414 56.3167 9.27236L56.3128 9.27523L56.312 9.27646L56.3104 9.27771L56.3068 9.2814L56.2996 9.28841C56.2956 9.29129 56.2896 9.29951 56.2833 9.30692C56.2717 9.32214 56.2669 9.33737 56.2605 9.35176C56.2578 9.36699 56.2546 9.38179 56.2554 9.39578C56.2562 9.40319 56.2562 9.40977 56.257 9.41635ZM56.292 8.81362L56.2932 8.82062L56.2948 8.8268L56.3012 8.84162C56.3036 8.84902 56.312 8.86136 56.3191 8.87082C56.3231 8.87658 56.3267 8.88109 56.3307 8.88438C56.3355 8.88767 56.3387 8.89137 56.3423 8.89508C56.3502 8.90084 56.3574 8.90495 56.3642 8.90906L56.3713 8.91278C56.3917 8.92101 56.41 8.92511 56.4272 8.92511C56.4303 8.92511 56.4327 8.92472 56.4383 8.9243C56.4483 8.92348 56.4578 8.92265 56.467 8.91936L56.481 8.91441L56.4849 8.91278L56.4917 8.90949L56.4957 8.90703C56.5053 8.90127 56.53 8.88232 56.538 8.86833C56.5479 8.85517 56.5551 8.83995 56.5587 8.82102L56.5603 8.81527C56.5611 8.80993 56.5619 8.80459 56.5619 8.79883C56.5619 8.79224 56.5611 8.78607 56.5611 8.77949C56.5611 8.77044 56.5583 8.76219 56.5559 8.75561L56.5543 8.74903C56.5463 8.7334 56.5415 8.72682 56.5411 8.72641L56.538 8.72146L56.5136 8.73093V8.73587C56.5136 8.73587 56.512 8.74409 56.512 8.75478C56.512 8.75766 56.5112 8.75931 56.5104 8.76219C56.5096 8.7663 56.5096 8.77085 56.5084 8.77537C56.5069 8.77866 56.5045 8.78194 56.5037 8.78564C56.5021 8.78811 56.5013 8.79018 56.4997 8.79265L56.4965 8.79757C56.4965 8.79881 56.4949 8.80047 56.4925 8.80212C56.4917 8.80376 56.4905 8.80498 56.4897 8.80704C56.4881 8.8091 56.4841 8.81198 56.4802 8.81527C56.4778 8.81733 56.4762 8.81856 56.4726 8.81979L56.4686 8.82185L56.4678 8.82308L56.4578 8.8272C56.453 8.82844 56.4451 8.83009 56.4343 8.83009C56.4272 8.83009 56.4188 8.82803 56.4116 8.82474C56.4092 8.82351 56.4072 8.82185 56.4048 8.82102C56.4032 8.8202 56.4009 8.81897 56.4009 8.81897C56.3985 8.8165 56.3961 8.81486 56.3937 8.81322C56.3929 8.81239 56.3921 8.81197 56.3917 8.81156C56.3901 8.80909 56.3893 8.80746 56.3877 8.80664C56.3853 8.8054 56.3845 8.80457 56.3829 8.80046L56.3765 8.79059V8.78813V8.7877C56.3745 8.784 56.3729 8.7799 56.3713 8.77414C56.3706 8.77044 56.3705 8.76715 56.3705 8.76345V8.75933V8.75109C56.3705 8.74986 56.3713 8.74738 56.3713 8.74491C56.3713 8.74286 56.3714 8.74122 56.373 8.73916C56.3738 8.73752 56.3745 8.73505 56.3745 8.73258C56.3753 8.73053 56.3757 8.72887 56.3765 8.72764L56.3805 8.71694C56.3829 8.71406 56.3845 8.71158 56.3861 8.7087C56.3885 8.70624 56.3893 8.70336 56.3893 8.70336C56.4008 8.69348 56.4064 8.68774 56.4064 8.68774L56.4092 8.68362L56.3953 8.65442L56.3901 8.65565C56.3901 8.65565 56.3821 8.65648 56.3666 8.66059L56.3602 8.66305C56.3542 8.66634 56.3455 8.67004 56.3387 8.67621C56.3339 8.68033 56.3283 8.68443 56.3247 8.68937C56.3207 8.69184 56.3175 8.69595 56.3152 8.70007C56.3136 8.70212 56.312 8.7042 56.3104 8.70667C56.2996 8.72395 56.2932 8.73917 56.2912 8.75398C56.2889 8.76385 56.2881 8.77413 56.2889 8.78235C56.2873 8.79182 56.2897 8.80088 56.2912 8.80952L56.292 8.81362ZM57.0011 9.27359C57.005 9.27771 57.0078 9.28263 57.011 9.28715C57.015 9.29168 57.0174 9.29663 57.0214 9.30157C57.0266 9.31144 57.0329 9.32173 57.0369 9.33243C57.0413 9.34313 57.0453 9.35423 57.0477 9.36575C57.0509 9.37727 57.0533 9.38879 57.0533 9.40113C57.0541 9.40689 57.0541 9.41224 57.0541 9.41841C57.0549 9.42499 57.0541 9.43074 57.0533 9.43609C57.0525 9.44843 57.0493 9.45996 57.0469 9.47107C57.0445 9.47724 57.0429 9.48175 57.0405 9.48751L57.0329 9.50481L57.0493 9.51468L57.0592 9.49864C57.0632 9.49247 57.0656 9.48587 57.068 9.4797C57.0732 9.46695 57.0772 9.4538 57.0804 9.44063C57.0812 9.43405 57.082 9.42746 57.0828 9.42047C57.0836 9.41388 57.0851 9.40689 57.0851 9.4003C57.0851 9.38632 57.0844 9.37232 57.082 9.35874C57.0812 9.34517 57.078 9.33201 57.0732 9.31884C57.0704 9.30527 57.0648 9.2925 57.0592 9.27975C57.0565 9.27358 57.0533 9.26743 57.0493 9.26167C57.0461 9.2555 57.0429 9.24931 57.0393 9.24396C57.0314 9.23244 57.023 9.22133 57.0134 9.21104L57.0118 9.20941C56.9309 9.13083 56.85 9.05306 56.7691 8.97325L56.7105 9.04443C56.801 9.11232 56.8899 9.18226 56.9783 9.25014C56.9863 9.25796 56.9931 9.26496 57.0011 9.27359ZM52.6701 9.25795L52.6613 9.19171L52.6358 9.19008L52.6083 9.36163L52.6302 9.37562L52.9399 9.15221L52.9251 9.12878L52.6701 9.25795ZM52.5533 8.50383L52.2568 8.63794L52.2301 8.51412H52.2046L52.1926 8.75026L52.2137 8.76219L52.5664 8.52565L52.5533 8.50383ZM52.7386 9.61382L52.733 9.54923L52.7063 9.54677L52.6784 9.71833L52.698 9.73355L52.9235 9.56405L52.9096 9.54143L52.7386 9.61382ZM52.8841 8.77372L52.523 8.93787L52.5102 8.83295L52.4863 8.83092L52.4612 9.04607L52.4823 9.06171L52.898 8.79717L52.8841 8.77372ZM56.9441 12.7097C56.9014 12.7167 56.8592 12.7229 56.8181 12.7295C56.7751 12.736 56.7332 12.7443 56.6966 12.7517C56.6726 12.7554 56.6499 12.7603 56.628 12.7653C56.6125 12.7681 56.5977 12.771 56.583 12.7739L56.5363 12.7834C56.5176 12.7871 56.4989 12.7908 56.481 12.7949C56.4415 12.8031 56.4048 12.8105 56.3745 12.8175C56.3574 12.8212 56.3422 12.8249 56.3291 12.8274L56.2653 12.8426L56.2717 12.8759L56.3363 12.8681C56.3502 12.8665 56.365 12.8644 56.3829 12.8623C56.414 12.8582 56.4499 12.8541 56.4905 12.8484C56.5224 12.8434 56.5559 12.8385 56.5921 12.8331L56.6204 12.8294C56.6483 12.8257 56.677 12.8212 56.7069 12.8163C56.7551 12.808 56.805 12.8015 56.8572 12.7941C56.8899 12.7887 56.9217 12.7846 56.9544 12.7796C56.9871 12.7743 57.0214 12.7698 57.0533 12.7648L57.0804 12.7603L57.2011 12.7406C57.2557 12.7332 57.3059 12.7245 57.3522 12.7167C57.3753 12.7126 57.3964 12.7089 57.4183 12.7056C57.4542 12.6998 57.4869 12.6933 57.5156 12.6883C57.5367 12.6842 57.5546 12.6805 57.571 12.6785L57.6355 12.6665L57.6308 12.6328L57.6244 12.6332C57.6244 12.6332 57.6028 12.6344 57.5662 12.6369L57.5467 12.6381C57.51 12.641 57.465 12.6443 57.4104 12.6505C57.388 12.6529 57.3629 12.6558 57.3374 12.6583C57.2912 12.6628 57.2438 12.6673 57.1924 12.6743L57.0712 12.6912C57.0469 12.6945 56.9441 12.7097 56.9441 12.7097ZM51.598 11.2471L51.594 11.2669L51.6729 11.3019L51.6306 11.3788L51.6462 11.3924L51.8052 11.2661L51.7988 11.2471H51.598ZM51.9762 14.5648L51.6928 14.4352L51.9678 14.2867L51.9606 14.2669L51.5458 14.3862C51.5286 14.3908 51.5147 14.4039 51.5095 14.4224C51.4991 14.4516 51.5155 14.4829 51.5434 14.4928L51.549 14.4936L51.9523 14.6277C52.02 14.6491 52.087 14.6738 52.154 14.6977L52.3568 14.7692L52.3632 14.7499L52.1711 14.6561C52.1057 14.6253 52.0415 14.594 51.9762 14.5648ZM52.1607 11.2471L52.1575 11.2669L52.2356 11.3019L52.1942 11.3788L52.209 11.3924L52.368 11.2661L52.3616 11.2471H52.1607Z" fill="#E41C29"/>
<path d="M6.60549 0.399441H5.56042C3.3246 0.399441 2.51835 1.45205 1.66298 3.66039L0.855037 5.74634H0.616211V0.154661H15.3489V5.74634H15.1118L14.3055 3.66039C13.4501 1.45205 12.6642 0.399441 10.4081 0.399441H9.36131V14.5535C9.36131 15.6585 9.69499 16.7129 11.3346 16.9821L11.9274 17.08V17.3266H4.03769V17.08L4.63391 16.9821C6.27012 16.7129 6.60549 15.6585 6.60549 14.5535V0.399441ZM20.4134 0.154661V7.53854C20.8639 6.75346 22.2173 5.23054 24.0957 5.23054C25.9487 5.23054 27.8966 6.28661 27.8966 9.62272V15.5851C27.8966 16.2215 28.1354 16.7374 28.9213 16.9577L29.3719 17.08V17.3266H23.8094V17.08L24.2634 16.9577C25.0442 16.7374 25.2847 16.2215 25.2847 15.5851V9.86753C25.2847 7.61198 24.0229 6.80066 22.7881 6.80066C21.9344 6.80066 21.0773 7.26752 20.4134 7.8078V15.5851C20.4134 16.2215 20.6505 16.7374 21.4347 16.9577L21.8853 17.08V17.3266H16.3245V17.08L16.7768 16.9577C17.561 16.7374 17.7981 16.2215 17.7981 15.5851V1.89441C17.7981 1.25795 17.561 0.743891 16.7768 0.523588L16.3245 0.399441V0.154661H20.4134ZM35.5983 5.23054C38.5913 5.23054 40.28 7.29373 40.28 9.72239V9.84304H32.7934C32.7697 10.1141 32.7697 10.4078 32.7697 10.5075C32.7697 13.6705 34.4093 15.9523 36.9991 15.9523C38.6624 15.9523 39.8277 14.8227 40.2563 13.8418L40.468 13.9415C40.28 14.9958 38.7335 17.692 35.5983 17.692C32.2209 17.692 30.1798 15.0693 30.1798 11.4149C30.1798 8.175 32.2209 5.23054 35.5983 5.23054H35.5983ZM32.7934 9.57378H37.6173V8.79045C37.6173 7.14687 37.1668 5.50329 35.5729 5.50329C33.8622 5.50329 33.0779 7.12065 32.7934 9.57378Z" fill="#110F0D"/>
<path d="M68.5339 15.2433C68.5339 16.3911 68.8799 17.3851 70.5825 17.741L71.1994 17.8693V17.9973H63.0029V17.8693L63.6199 17.741C65.3241 17.3851 65.67 16.3911 65.67 15.2433V2.93418C65.67 1.78634 65.3241 0.768906 63.6199 0.411388L63.0029 0.283449V0.157543H71.1994V0.283449L70.5825 0.411388C68.8799 0.768906 68.5339 1.78634 68.5339 2.93418V15.2433ZM88.3811 3.87671V18.3778H88.2101L75.6432 3.08804L75.7181 12.5164C75.7428 16.7992 77.0501 17.36 78.5558 17.7677L78.9507 17.8693V17.9973H72.2607V17.8693L72.6557 17.7677C74.1379 17.3851 75.4965 16.7733 75.4965 12.5164V2.95967L75.1992 2.62972C73.8896 1.14986 73.0511 0.540161 71.6928 0.28385V0.157543H77.6937C78.3107 1.30539 79.199 2.42566 81.1742 4.84601L88.2344 13.4606L88.1595 4.28443C88.1368 1.22763 87.0492 0.59034 85.518 0.361593L84.9496 0.28385V0.157543H100.48C106.899 0.157543 110.182 4.33668 110.182 8.99964C110.182 13.6643 106.899 17.9973 100.48 17.9973H91.8393V17.8693L92.4299 17.7677C94.1835 17.4612 94.5055 16.4162 94.5055 15.2433V3.87671C94.5055 1.14986 93.1473 0.28385 91.4443 0.28385C89.7393 0.28385 88.3811 1.14986 88.3811 3.87671ZM99.9612 17.8693C104.553 17.8693 106.972 14.5052 106.972 9.07741C106.972 3.64717 104.331 0.28385 99.7388 0.28385H97.3683V15.2202C97.3683 16.696 97.6903 17.8693 99.4196 17.8693H99.9612ZM119.342 17.8693C122.107 17.8693 123.564 17.0535 124.749 14.9639L125.908 12.9517H126.032V17.9973H110.775V17.8693L111.392 17.7677C113.094 17.4863 113.441 16.3911 113.441 15.2433V2.85888C113.441 1.66084 113.094 0.769308 111.392 0.411789L110.775 0.28385V0.157543H125.366V5.20311H125.242L124.081 3.03744C122.921 0.845015 121.318 0.28385 118.328 0.28385H116.304V8.71989L117.538 8.69478C120.181 8.64458 121.069 8.51623 121.908 5.76428L122.181 4.87069H122.303V12.6954H122.181L121.908 11.8289C121.045 9.0519 120.205 8.94904 117.538 8.89885L116.304 8.87334V15.2959C116.304 16.8239 116.847 17.8693 118.601 17.8693H119.342ZM135.511 0.157543C139.387 0.157543 142.104 2.34997 142.104 5.48452C142.104 8.64459 139.387 10.835 135.511 10.835H134.451V10.6836H134.5C137.314 10.6836 138.968 8.66928 138.968 5.48452C138.968 2.29772 137.314 0.28385 134.5 0.28385H133.612V14.989C133.612 16.9017 134.081 17.3328 136.105 17.7677L136.573 17.8693V17.9973H128.056V17.8693L128.673 17.741C130.376 17.3851 130.723 16.3911 130.723 15.2433V2.90907C130.723 1.76411 130.376 0.769308 128.673 0.411789L128.056 0.28385V0.157543H135.511ZM151.362 17.8693C154.128 17.8693 155.584 17.0535 156.769 14.9639L157.93 12.9517H158.052V17.9973H142.794V17.8693L143.411 17.7677C145.116 17.4863 145.462 16.3911 145.462 15.2433V2.85888C145.462 1.66084 145.116 0.769308 143.411 0.411789L142.794 0.28385V0.157543H157.386V5.20311H157.262L156.101 3.03744C154.942 0.845015 153.338 0.28385 150.35 0.28385H148.326V8.71989L149.56 8.69478C152.201 8.64458 153.089 8.51623 153.93 5.76428L154.2 4.87069H154.325V12.6954H154.2L153.93 11.8289C153.064 9.0519 152.225 8.94904 149.56 8.89885L148.326 8.87334V15.2959C148.326 16.8239 148.867 17.8693 150.621 17.8693H151.362ZM176 3.87671V18.3778H175.829L163.261 3.08804L163.336 12.5164C163.359 16.7992 164.669 17.36 166.175 17.7677L166.571 17.8693V17.9973H159.879V17.8693L160.273 17.7677C161.756 17.3851 163.112 16.7733 163.112 12.5164V2.95967L162.817 2.62972C161.508 1.14986 160.669 0.540161 159.31 0.28385V0.157543H165.31C165.927 1.30539 166.817 2.42566 168.79 4.84601L175.853 13.4606L175.778 4.28443C175.753 1.22763 174.668 0.59034 173.136 0.361593L172.568 0.28385V0.157543H188.098C194.515 0.157543 197.8 4.33668 197.8 8.99964C197.8 13.6643 194.515 17.9973 188.098 17.9973H179.458V17.8693L180.05 17.7677C181.803 17.4612 182.123 16.4162 182.123 15.2433V3.87671C182.123 1.14986 180.765 0.28385 179.062 0.28385C177.358 0.28385 176 1.14986 176 3.87671ZM187.579 17.8693C192.171 17.8693 194.591 14.5052 194.591 9.07741C194.591 3.64717 191.949 0.28385 187.357 0.28385H184.987V15.2202C184.987 16.696 185.308 17.8693 187.035 17.8693H187.579ZM206.96 17.8693C209.724 17.8693 211.182 17.0535 212.365 14.9639L213.528 12.9517H213.65V17.9973H198.392V17.8693L199.01 17.7677C200.714 17.4863 201.059 16.3911 201.059 15.2433V2.85888C201.059 1.66084 200.714 0.769308 199.01 0.411789L198.392 0.28385V0.157543H212.982V5.20311H212.86L211.699 3.03744C210.539 0.845015 208.934 0.28385 205.948 0.28385H203.924V8.71989L205.158 8.69478C207.8 8.64458 208.688 8.51623 209.526 5.76428L209.799 4.87069H209.921V12.6954H209.799L209.526 11.8289C208.664 9.0519 207.824 8.94904 205.158 8.89885L203.924 8.87334V15.2959C203.924 16.8239 204.466 17.8693 206.219 17.8693H206.96ZM231.4 4.79498C231.376 1.50697 230.288 0.59034 228.759 0.361593L228.191 0.28385V0.157543H234.831V0.28385L234.264 0.361593C232.734 0.59034 231.622 1.50697 231.622 4.79498V18.3778H231.45L218.884 3.08804L218.958 12.5164C218.982 16.7992 220.292 17.36 221.796 17.7677L222.191 17.8693V17.9973H215.501V17.8693L215.896 17.7677C217.377 17.3851 218.735 16.7733 218.735 12.5164V2.95967L218.438 2.62972C217.13 1.14986 216.291 0.540161 214.933 0.28385V0.157543H220.933C221.549 1.30539 222.44 2.42566 224.415 4.84601L231.474 13.4606L231.4 4.79498ZM241.992 0.28385H240.904C238.585 0.28385 237.622 1.50697 236.734 3.8006L235.893 5.96793H235.771V0.157543H251.077V5.96793H250.952L250.114 3.8006C249.226 1.50697 248.287 0.28385 245.942 0.28385H244.855V15.2433C244.855 16.3911 245.202 17.4863 246.904 17.7677L247.521 17.8693V17.9973H239.324V17.8693L239.942 17.7677C241.646 17.4863 241.992 16.3911 241.992 15.2433V0.28385Z" fill="#110F0D"/>
</g>
<defs>
<clipPath id="clip0_374:140">
<rect width="250.46" height="18.2491" fill="white" transform="translate(0.615234 0.128662)"/>
</clipPath>
</defs>
</svg>
