<svg width="166" height="28" viewBox="0 0 166 28" fill="none" xmlns="http://www.w3.org/2000/svg">
<g clip-path="url(#clip0_374:200)">
<path d="M21.6579 25.4939C24.6134 25.2033 27.5689 24.1863 27.5689 20.9901V10.675L26.1615 9.22213L24.6134 10.675V18.375L25.8801 19.5373L23.0653 22.1524H22.9245L20.1097 19.6825L20.8134 18.9561V3.26551C20.8134 2.10324 19.8283 1.52211 19.2653 1.37683V1.08626C19.5468 0.940977 19.969 0.795694 20.532 0.795694C21.5171 0.795694 22.3616 1.37683 22.643 2.10324H22.7838C23.3467 1.23154 24.3319 0.795694 25.1764 0.795694C25.4578 0.795694 25.7393 0.795694 26.0208 0.940977V1.23154C25.5986 1.37683 24.7541 1.95796 24.7541 3.55608V10.0938L28.5541 6.46175H28.8356C29.1171 6.75231 30.6652 8.20515 31.0874 8.49571C31.2281 8.641 31.3689 8.641 31.6504 8.641C31.9318 8.641 32.2133 8.49571 32.4948 8.35043V8.78628C32.2133 9.07685 31.7911 9.5127 31.7911 10.2391V19.1014C31.7911 23.0241 27.5689 25.4939 21.9394 25.9297V25.4939H21.6579ZM20.2505 1.23154C20.8134 1.66739 21.3764 2.10324 21.3764 3.12023V19.2467L20.8134 19.8278L23.206 21.8618L23.9097 21.2807L22.0801 19.6825L22.3616 19.392V3.26551C22.2208 1.95796 21.0949 1.37683 20.2505 1.23154ZM26.8652 24.4769C27.9911 23.7505 29.1171 22.8788 29.1171 21.1354V10.0938L27.4282 8.20515L26.5837 8.93156L27.9911 10.5297V20.9901C28.1319 22.4429 27.5689 23.6052 26.8652 24.4769ZM33.9022 10.0938C35.5911 9.22213 37.9836 7.7693 39.6725 6.46175H39.954C41.0799 7.62401 42.628 9.5127 44.0354 10.8202V11.1108L37.8429 15.1788V17.7939C38.4058 18.2297 40.2355 19.1014 41.3614 19.5373L43.8947 17.0674L44.1762 17.358L39.2503 22.2976H38.9688C37.2799 21.5712 35.1688 20.5542 33.7614 19.8278C33.9022 19.2467 34.0429 17.9391 34.0429 16.341V10.0938H33.9022ZM39.6725 21.2807C37.9836 20.5542 36.5762 19.8278 35.1688 19.1014C35.3096 18.6656 35.3096 17.9391 35.3096 16.341V9.80326L34.3244 10.3844V16.341C34.3244 17.9391 34.3244 19.1014 34.1837 19.5373C35.4503 20.2637 37.2799 21.1354 38.9688 21.8618L39.6725 21.2807ZM37.8429 14.7429L40.6577 12.8542C39.6725 11.6919 38.6873 10.5297 37.8429 9.65798V14.7429ZM38.6873 8.35043L37.9836 8.93156C38.8281 9.94855 39.954 11.2561 41.0799 12.5636L41.9243 11.9825C40.6577 10.675 39.5318 9.36741 38.6873 8.35043ZM154.516 25.4939C157.471 25.2033 160.427 24.1863 160.427 20.9901V10.675L159.019 9.22213L157.471 10.675V18.375L158.738 19.5373L155.923 22.1524H155.642L152.827 19.6825L153.531 18.9561V3.26551C153.531 2.10324 152.545 1.52211 151.982 1.37683V1.08626C152.264 0.940977 152.686 0.795694 153.249 0.795694C154.234 0.795694 155.079 1.37683 155.36 2.10324H155.501C156.064 1.23154 157.049 0.795694 157.893 0.795694C158.175 0.795694 158.456 0.795694 158.738 0.940977V1.23154C158.316 1.37683 157.471 1.95796 157.471 3.55608V10.0938L161.13 6.46175H161.412C161.693 6.75231 163.242 8.20515 163.664 8.49571C163.804 8.641 163.945 8.641 164.227 8.641C164.508 8.641 164.79 8.49571 165.071 8.35043V8.93156C164.79 9.22213 164.367 9.65798 164.367 10.3844V19.1014C164.367 23.0241 160.145 25.4939 154.516 25.9297V25.4939ZM153.108 1.23154C153.531 1.52211 154.234 2.10324 154.234 3.12023V19.1014L153.671 19.6825L156.064 21.7165L156.768 21.1354L154.938 19.5373L155.219 19.2467V3.26551C155.079 1.95796 153.953 1.37683 153.108 1.23154ZM159.582 24.3316C160.708 23.6052 161.834 22.7335 161.834 20.9901V10.0938L160.145 8.20515L159.442 8.93156L160.849 10.5297V20.9901C160.99 22.4429 160.427 23.6052 159.582 24.3316ZM70.3536 10.0938C72.0425 9.22213 74.4351 7.7693 76.124 6.46175H76.4054C77.5313 7.62401 79.0795 9.5127 80.3461 10.675V10.9655L74.2943 15.0335V17.6486C74.998 18.0844 76.6869 18.9561 77.8128 19.392L80.3461 16.9222L80.6276 17.2127L75.7017 22.1524H75.4203C73.7314 21.4259 71.6203 20.409 70.2129 19.6825C70.3536 19.1014 70.4944 17.7939 70.4944 16.1957V10.0938H70.3536ZM75.9832 21.2807C74.2943 20.5542 72.887 19.8278 71.4796 19.1014C71.6203 18.6656 71.6203 17.9391 71.6203 16.341V9.80326L70.7759 10.2391V16.1957C70.7759 17.7939 70.7759 18.9561 70.6351 19.392C71.9018 20.1184 73.7314 20.9901 75.4203 21.7165L75.9832 21.2807ZM74.2943 14.5976L77.1091 12.7089C76.124 11.5467 75.1388 10.3844 74.2943 9.5127V14.5976ZM75.1388 8.35043L74.2943 8.93156C75.1388 9.94855 76.2647 11.2561 77.3906 12.5636L78.235 11.9825C77.1091 10.675 75.9832 9.36741 75.1388 8.35043ZM85.9757 2.82966V18.0844C85.9757 18.6656 86.5387 19.392 87.1016 19.5373L87.9461 18.6656L88.2275 18.9561L85.1313 22.2976H84.8498C83.7239 22.0071 82.035 20.8448 82.035 18.9561V4.71835L81.1906 3.84665L80.2054 4.86363L79.9239 4.57306L83.4424 0.795694H83.7239L85.9757 2.82966ZM85.5535 21.1354C84.4276 20.8448 83.3017 20.1184 83.3017 18.5203V4.13721L82.035 2.82966L81.3313 3.55608L82.4572 4.57306V18.9561C82.4572 20.5542 83.7239 21.5712 84.8498 21.8618L85.5535 21.1354ZM89.6349 10.0938C91.3238 9.22213 93.7164 7.7693 95.4052 6.46175H95.6867C96.8126 7.62401 98.3607 9.5127 99.6274 10.675V10.9655L93.5756 15.0335V17.6486C94.1386 18.0844 95.9682 18.9561 97.0941 19.392L99.6274 16.9222L99.9089 17.2127L94.983 22.1524H94.7015C93.0127 21.4259 90.9016 20.409 89.4942 19.6825C89.6349 19.1014 89.7757 17.7939 89.7757 16.1957V10.0938H89.6349ZM95.2645 21.2807C93.5756 20.5542 92.1682 19.8278 90.7608 19.1014C90.9016 18.6656 90.9016 17.9391 90.9016 16.341V9.80326L90.0571 10.2391V16.1957C90.0571 17.7939 90.0571 18.9561 89.9164 19.392C91.1831 20.1184 93.0127 20.9901 94.7015 21.7165L95.2645 21.2807ZM93.5756 14.5976L96.3904 12.7089C95.4052 11.5467 94.4201 10.3844 93.5756 9.5127V14.5976ZM94.4201 8.35043L93.7164 8.93156C94.5608 9.94855 95.6867 11.2561 96.8126 12.5636L97.5163 11.9825C96.3904 10.675 95.2645 9.36741 94.4201 8.35043ZM119.472 10.675V18.0844C119.472 18.6656 120.035 19.392 120.598 19.392L121.442 18.5203L121.723 18.8108L118.627 22.1524H118.486C117.361 21.8618 115.672 20.8448 115.672 18.8108V10.3844L114.827 9.5127L113.842 10.3844L113.561 10.0938L117.079 6.46175H117.361L119.612 8.78628V10.0938L122.427 6.60703H122.709C123.272 7.18816 124.116 8.05986 124.96 8.641L122.568 11.5467C121.864 10.9655 121.02 10.0938 120.457 9.65798L119.472 10.675ZM119.19 21.1354C118.064 20.8448 116.938 20.1184 116.938 18.5203V9.80326L115.812 8.49571L115.109 9.22213L116.094 10.2391V18.8108C116.094 20.409 117.361 21.4259 118.486 21.7165L119.19 21.1354ZM120.738 9.36742C121.161 9.80327 121.864 10.5297 122.427 10.9655L122.99 10.2391C122.427 9.80326 121.583 8.93156 121.161 8.641L120.738 9.36742ZM128.62 22.2976L125.242 19.9731V15.324C126.086 14.7429 127.916 13.4353 128.76 12.8542C127.353 12.1278 126.227 11.2561 125.523 10.2391V9.94855C127.494 8.78628 129.042 7.62401 130.168 6.46175H130.449C130.449 6.46175 134.671 8.49571 134.812 8.641C135.094 8.78628 135.234 8.78628 135.375 8.78628C135.657 8.78628 135.938 8.641 136.22 8.49571V8.93156C135.938 9.22213 135.516 9.65798 135.516 10.2391V17.9391C135.516 18.8108 136.22 19.2467 136.783 19.392L137.627 18.5203L137.908 18.8108L134.812 22.1524H134.671C133.405 21.8618 131.997 20.5542 131.857 19.1014L128.901 22.1524H128.62V22.2976ZM129.323 21.1354L126.509 19.2467V14.8882L125.664 15.4693V19.6825L128.76 21.7165L129.323 21.1354ZM131.716 13.5806V11.2561L127.635 9.07685C127.353 9.36741 126.227 9.94855 125.946 10.2391C126.931 11.4014 129.464 12.9995 131.716 13.5806ZM135.375 21.1354C134.249 20.6995 133.123 19.9731 133.123 18.375V10.3844L128.901 8.20515C128.76 8.35043 128.338 8.641 128.197 8.78628L132.279 10.9655V18.8108C132.279 20.2637 133.686 21.4259 134.671 21.8618L135.375 21.1354ZM131.716 18.6656V14.0165C130.872 13.7259 129.886 13.4354 129.042 12.9995V18.8108L130.59 19.8278L131.716 18.6656ZM101.176 19.8278V10.0938L106.242 6.46175H106.524C107.509 6.8976 110.746 8.35043 111.027 8.49571C111.168 8.49571 111.309 8.641 111.59 8.641C111.872 8.641 112.153 8.49571 112.575 8.35043V8.93156C112.294 9.22213 111.872 9.80326 111.872 10.2391V18.5203C111.872 20.409 112.294 21.5712 112.998 22.2976V22.5882C111.872 23.7505 109.338 26.5109 108.212 27.8184H108.072C106.946 27.2373 105.116 26.6561 103.709 26.6561C102.583 26.6561 101.316 26.9467 100.472 27.6731L100.19 27.5278C101.035 25.4939 102.864 23.3146 105.257 23.3146C106.664 23.3146 108.635 23.8958 110.324 24.9127C109.198 23.6052 108.212 21.1354 108.212 19.2467L105.257 22.1524H104.976L101.176 19.8278ZM103.568 25.4939C102.442 25.4939 101.457 26.075 100.894 26.8014V26.9467C101.598 26.5109 102.301 26.3656 103.568 26.3656C104.976 26.3656 106.946 26.8014 107.931 27.3826L108.494 26.6561C107.227 26.075 105.398 25.4939 103.568 25.4939ZM104.694 21.8618L105.398 21.2807L102.442 19.1014V9.80326L101.598 10.3844V19.6825L104.694 21.8618ZM109.198 9.80326L104.976 8.05986V8.93156L108.212 10.3844V19.1014C108.212 20.9901 109.057 23.0241 110.324 24.6222L111.027 23.8958C109.901 22.4429 109.198 20.8448 109.198 18.9561V9.80326ZM107.931 18.6656V10.675L105.116 9.36742V18.5203L106.946 19.6825L107.931 18.6656ZM143.96 10.0938L147.619 6.46175H147.901C148.182 6.75231 149.871 8.35043 150.153 8.49571C150.294 8.641 150.434 8.641 150.575 8.641C150.856 8.641 151.138 8.49571 151.419 8.35043V8.93156C151.138 9.22213 150.716 9.80326 150.716 10.3844V19.6825C149.168 20.1184 147.901 20.9901 146.494 22.5882H146.353L143.96 22.0071V24.041L145.227 25.2033L142.271 27.8184H142.131L139.316 25.3486L140.02 24.4769V20.9901C139.738 20.9901 139.175 20.8448 138.894 20.6995V20.2637C139.175 20.1184 140.16 19.2467 140.16 18.5203V10.5297L139.316 9.65798L138.331 10.675L138.049 10.3844L141.568 6.75231H141.849L144.101 9.07685V10.0938H143.96ZM140.442 24.7675L139.879 25.3486L142.131 27.3826L142.834 26.8014L141.005 25.2033L141.286 24.9127V9.80326L140.02 8.49571L139.457 9.07685L140.442 10.0938V24.7675ZM146.775 19.1014V10.675L145.368 9.22213L143.82 10.675V18.375C144.523 18.6656 146.494 18.9561 146.775 19.1014ZM146.353 22.1524C146.494 21.8618 146.775 21.5712 146.916 21.4259L143.82 20.8448V21.7165L146.353 22.1524ZM145.649 9.07685L147.197 10.675V19.1014L148.042 18.6656V10.0938L146.353 8.35043L145.649 9.07685ZM1.53216 13.7259C1.53216 9.94855 4.20621 7.47873 6.73952 6.31646L6.88025 6.60703C6.03582 7.62401 5.47286 8.641 5.47286 10.9655C5.47286 13.5806 6.17656 15.324 7.16173 16.4863C7.44321 16.0505 7.72469 15.4693 7.72469 14.8882V11.1108L12.2283 7.7693L12.3691 8.05986C12.0876 8.49571 11.8061 9.07685 11.8061 9.94855V12.4184C11.8061 14.1618 9.13208 16.0505 7.44321 16.6316C8.56913 17.7939 10.1173 18.2297 11.8061 18.2297C12.3691 18.2297 12.932 18.2297 13.495 18.0844V7.47873C11.9469 7.33345 10.5395 7.04288 9.27282 6.60703C7.86543 6.17118 6.45804 5.73533 5.33212 5.73533C3.50251 5.73533 1.25069 6.31646 1.25069 9.07685V9.94855L0.828468 10.0938C0.546989 9.22213 0.40625 8.35043 0.40625 7.62401C0.40625 4.2825 2.79882 1.37683 6.59878 1.37683C8.14691 1.37683 9.69504 1.81268 11.1024 2.24853C12.5098 2.68438 13.9172 3.12023 15.3246 3.12023C16.0283 3.12023 16.4505 2.68438 16.4505 1.95796C16.4505 1.23154 16.169 0.940977 15.6061 0.795694V0.505127C17.295 0.795694 18.9838 1.81268 18.9838 3.99193C19.1246 6.17118 17.295 7.47873 14.1987 7.47873H13.9172V18.2297C15.8876 17.7939 17.295 16.9222 18.2801 15.1788L18.5616 15.324C17.4357 18.9561 14.7617 22.4429 10.1173 22.4429C5.47286 22.4429 1.53216 19.5373 1.53216 13.7259ZM14.1987 6.17118C10.821 6.17118 7.72469 4.42778 5.33212 4.42778C3.64325 4.42778 1.81364 5.1542 1.25069 7.04288H1.39142C2.09512 5.73533 3.78399 5.29948 5.33212 5.29948C7.86543 5.29948 10.821 7.04288 14.1987 7.04288C16.8727 7.04288 18.5616 6.0259 18.7023 3.84665H18.5616C18.2801 5.59005 16.8727 6.17118 14.1987 6.17118ZM4.48769 8.35043C3.22103 9.65798 2.09512 11.4014 2.09512 13.7259C2.09512 19.2467 5.6136 22.0071 10.258 22.0071C13.0728 22.0071 15.0431 20.409 16.169 19.2467L16.0283 19.1014C14.7617 20.2637 12.932 21.1354 10.1173 21.1354C6.45804 21.1354 2.93956 18.8108 2.93956 13.7259C2.93956 11.6919 3.64325 9.65798 4.48769 8.35043ZM8.99134 14.5976V10.5297L8.14691 11.2561V15.0335C8.14691 15.4693 8.00617 15.7599 8.00617 16.0505H8.14691C8.56913 15.6146 8.99134 15.1788 8.99134 14.5976ZM51.6353 13.7259C51.6353 9.94855 54.3094 7.47873 56.8427 6.31646L56.9834 6.60703C55.9982 7.7693 55.4353 8.78628 55.4353 10.9655C55.4353 13.5806 56.139 15.324 57.1242 16.4863C57.4056 16.0505 57.6871 15.4693 57.6871 14.8882V11.1108L62.3315 7.62401L62.4722 7.91458C62.05 8.49571 61.9093 9.07685 61.9093 9.94855V12.4184C61.9093 14.1618 59.2352 16.0505 57.5464 16.6316C58.6723 17.7939 60.2204 18.2297 61.9093 18.2297C62.4722 18.2297 63.0352 18.2297 63.5982 18.0844V7.47873C62.05 7.33345 60.6426 7.04288 59.376 6.60703C57.9686 6.17118 56.5612 5.73533 55.4353 5.73533C53.6057 5.73533 51.3539 6.31646 51.3539 9.07685V9.94855L51.0724 10.0938C50.7909 9.22213 50.6502 8.35043 50.6502 7.62401C50.6502 4.2825 53.0427 1.37683 56.8427 1.37683C58.3908 1.37683 59.9389 1.81268 61.3463 2.24853C62.7537 2.68438 64.1611 3.12023 65.5685 3.12023C66.2722 3.12023 66.6944 2.68438 66.6944 1.95796C66.6944 1.23154 66.4129 0.940977 65.85 0.795694V0.505127C67.5389 0.795694 69.2277 1.81268 69.2277 3.99193C69.2277 6.60703 67.3981 7.7693 64.3019 7.7693H64.0204V18.5203C65.9907 18.0844 67.3981 17.2127 68.3833 15.4693L68.6648 15.6146C67.5389 19.2467 64.8648 22.7335 60.2204 22.7335C55.576 22.4429 51.6353 19.5373 51.6353 13.7259ZM64.3019 6.17118C60.9241 6.17118 57.8279 4.42778 55.4353 4.42778C53.8872 4.42778 52.0575 5.1542 51.3539 7.04288H51.4946C52.1983 5.73533 53.8872 5.29948 55.4353 5.29948C57.9686 5.29948 60.9241 7.04288 64.3019 7.04288C66.9759 7.04288 68.6648 6.0259 68.8055 3.84665H68.6648C68.2426 5.59005 66.9759 6.17118 64.3019 6.17118ZM54.5909 8.35043C53.3242 9.65798 52.1983 11.4014 52.1983 13.7259C52.1983 19.2467 55.7168 22.0071 60.3612 22.0071C63.1759 22.0071 65.1463 20.409 66.2722 19.2467L66.1315 19.1014C64.8648 20.2637 63.0352 21.1354 60.2204 21.1354C56.5612 21.1354 53.0427 18.8108 53.0427 13.7259C53.0427 11.6919 53.7464 9.65798 54.5909 8.35043ZM59.0945 14.5976V10.5297L58.2501 11.1108V14.8882C58.2501 15.324 58.1093 15.6146 58.1093 15.9052H58.2501C58.6723 15.6146 59.0945 15.1788 59.0945 14.5976Z" fill="#1D1D1B"/>
</g>
<defs>
<clipPath id="clip0_374:200">
<rect width="164.665" height="27.7491" fill="white" transform="translate(0.40625 0.214355)"/>
</clipPath>
</defs>
</svg>
