<svg width="238" height="21" viewBox="0 0 238 21" fill="none" xmlns="http://www.w3.org/2000/svg">
<g clip-path="url(#clip0_75:488)">
<path d="M236.699 18.0346C236.009 18.0346 235.433 18.6103 235.433 19.3872C235.433 20.1638 236.009 20.7394 236.699 20.7394C237.389 20.7394 237.965 20.1638 237.965 19.3872C237.965 18.6103 237.389 18.0346 236.699 18.0346ZM190.897 20.6527H196.708V20.1352L196.076 19.9911C195.501 19.8471 195.241 19.5309 195.241 18.7249V10.9H196.594C197.428 10.9 197.86 11.1013 197.917 12.8565L198.061 16.5388C198.176 19.8471 199.126 20.7681 200.737 20.7681C202.377 20.7681 202.808 19.6458 202.808 18.0637V17.4017H202.204V17.8906C202.204 18.9556 202.06 19.7035 201.657 19.7035C201.283 19.7035 201.254 19.4159 201.168 18.0923L200.996 15.5609C200.765 12.1658 200.334 10.9863 197.831 10.5256C200.219 9.89306 201.686 8.13786 201.686 5.63473C201.686 2.38368 199.126 0.83015 196.68 0.83015H186.87V1.34811L187.416 1.46309C188.452 1.69342 188.481 2.24004 188.481 4.57051V16.0208C188.481 18.5816 187.761 19.8185 186.121 19.8185C184.654 19.8185 183.849 19.0992 183.849 16.3084V2.70032C183.849 1.89472 184.107 1.66478 184.74 1.52077L185.517 1.34811V0.83015H179.505V1.34811L180.137 1.52077C180.712 1.69343 180.914 1.92375 180.914 2.72898V16.1072C180.914 19.1279 182.669 20.7967 185.345 20.7967C188.02 20.7967 189.343 19.1279 189.343 16.0208V3.53459C189.343 1.98107 189.66 1.43443 190.926 1.43443C191.933 1.43443 192.365 1.77974 192.365 2.72898V18.7249C192.365 19.5309 192.106 19.8185 191.53 19.9625L190.897 20.1352V20.6527ZM229.507 2.72898C229.507 1.92375 229.766 1.66478 230.341 1.54942L231.118 1.37676V0.83015H225.134V1.34811L225.767 1.52077C226.342 1.69343 226.601 1.92375 226.601 2.72898V18.8406C226.601 19.6172 226.285 20.0488 225.392 20.0488C224.357 20.0488 224.213 19.7035 223.839 18.0064L220.157 0.772844H219.005L215.496 17.4594C215.093 19.3292 214.891 19.7612 214.115 19.9911L213.625 20.1352V20.6527H217.74V20.1352L217.136 20.0198C216.272 19.8471 216.042 19.3872 216.474 17.2004L218.546 6.52665L220.818 17.8333C221.163 19.4732 221.135 19.7898 219.897 20.0198L219.293 20.1352V20.6527H234.541V14.0933H233.995C233.707 17.1141 233.103 19.9625 230.658 19.9625H229.507V2.72898ZM220.53 15.3016V14.525H216.646L216.532 15.3016H220.53ZM204.477 3.0743V16.8264C204.477 18.8979 204.477 19.8762 203.441 20.0488L202.923 20.1352V20.6527H207.152V20.1352C205.311 19.8762 205.311 19.2432 205.311 16.9991V3.93756L204.621 3.30462L211.669 20.6527H212.877V4.65684C212.877 2.29771 212.877 1.77974 214.029 1.46309L214.431 1.34811V0.83015H210.087V1.34811L210.576 1.46309C212.043 1.72207 212.043 2.29773 212.043 4.48419V14.4959L212.331 14.4096L206.98 0.83015H202.866V1.34811L203.268 1.46309C203.729 1.60709 203.988 2.12506 204.477 3.0743ZM195.241 1.52077H196.392C197.543 1.52077 198.608 2.2687 198.608 6.00907C198.608 9.83539 197.802 10.2093 196.191 10.2093H195.241V1.52077ZM176.081 10.5546C176.081 18.8689 175.39 20.0488 173.894 20.0488C172.398 20.0488 171.736 18.8689 171.736 10.6119C171.736 2.614 172.456 1.46309 173.894 1.46309C175.39 1.46309 176.081 2.614 176.081 10.5546ZM179.217 10.7273C179.217 5.23211 177.462 0.686523 173.894 0.686523C170.298 0.686523 168.6 5.23211 168.6 10.7273C168.6 16.2512 170.355 20.7967 173.894 20.7967C177.548 20.7967 179.217 16.2512 179.217 10.7273ZM166.903 2.72898C166.903 1.92375 167.105 1.66478 167.68 1.52077L168.313 1.34811V0.83015H162.357V1.34811L163.076 1.52077C163.652 1.66478 163.969 1.86607 163.969 2.70032V16.5388C163.969 18.4663 163.796 20.0198 162.357 20.0198C161.436 20.0198 160.746 19.3005 160.775 18.7829C160.861 17.8906 162.357 17.9487 162.472 16.5098C162.559 15.4742 161.897 15.0426 161.293 14.9566C160.401 14.8413 159.308 15.5892 159.279 17.0854C159.25 19.0129 160.516 20.7681 162.674 20.7681C165.062 20.7681 166.903 19.1569 166.903 16.0781V2.72898ZM70.8108 2.72898C70.8108 1.92375 71.0698 1.66478 71.645 1.54942L72.422 1.37676V0.83015H66.4379V1.34811L67.0708 1.52077C67.6461 1.69343 67.905 1.92375 67.905 2.72898V18.8406C67.905 19.6172 67.5884 20.0488 66.6965 20.0488C65.6609 20.0488 65.4882 19.7035 65.1143 18.0064L61.4316 0.772844H60.2811L56.771 17.4594C56.3684 19.3292 56.1667 19.7612 55.3902 19.9911L54.9008 20.1352V20.6527H59.0152V20.1352L58.4109 20.0198C57.548 19.8471 57.3176 19.3872 57.7493 17.2004L59.8208 6.46898L62.0936 17.8333C62.4098 19.4732 62.4099 19.7898 61.173 20.0198L60.5687 20.1352V20.6527H75.8457V14.0933H75.2991C75.0114 17.1141 74.4071 19.9625 71.9617 19.9625H70.8108V2.72898ZM150.906 1.52077H151.54C153.324 1.52077 153.928 4.36884 154.129 7.38993H154.675V0.83015H144.232V7.38993H144.779C144.98 4.36884 145.585 1.52077 147.368 1.52077H148.001V18.7249C148.001 19.5309 147.742 19.8185 147.167 19.9625L146.419 20.1352V20.6527H152.633V20.1352L151.741 19.9338C151.194 19.7898 150.906 19.6172 150.906 18.7249V1.52077ZM137.759 10.6983L138.65 10.7273C139.945 10.756 140.319 11.2453 140.579 14.3813H141.125V6.38302H140.579C140.262 8.88615 139.916 9.95035 138.679 9.97938L137.759 10.008V1.52079H139.744C141.96 1.52079 142.449 4.31155 142.765 7.38995H143.311V0.830168H133.386V1.34813L134.019 1.52079C134.68 1.69345 134.853 2.09643 134.853 2.75803V18.7249C134.853 19.5309 134.595 19.8185 134.019 19.9625L133.386 20.1352V20.6528H143.599V14.0934H143.052C142.707 17.0854 142.333 19.9625 139.744 19.9625H137.759V10.6983ZM126.913 10.6983L127.804 10.7273C129.099 10.756 129.473 11.2453 129.732 14.3813H130.279V6.38302H129.732C129.416 8.88615 129.07 9.95035 127.833 9.97938L126.913 10.008V1.52079H128.898C131.113 1.52079 131.602 4.36885 131.918 7.38995H132.465V0.830168H122.252V1.34813L123.173 1.52079C123.834 1.69345 124.007 2.09643 124.007 2.75803V18.7249C124.007 19.5309 123.748 19.8185 123.173 19.9625L122.54 20.1352V20.6528H132.753V14.0934H132.206C131.861 17.0854 131.487 19.9625 128.898 19.9625H126.913V10.6983ZM115.088 1.52077H115.951C117.102 1.52077 118.166 2.2687 118.166 6.00907C118.166 9.77771 117.361 10.2093 115.75 10.2093H115.088V1.52077ZM110.744 20.6527H116.555V20.1352L115.922 19.9911C115.347 19.8471 115.088 19.5309 115.088 18.7249V10.9H116.152C116.987 10.9 117.418 11.2453 117.476 12.8565L117.62 16.5388C117.735 19.8471 118.684 20.7681 120.295 20.7681C121.935 20.7681 122.367 19.6458 122.367 18.0637V17.4017H121.763V17.8906C121.763 18.9556 121.619 19.7035 121.216 19.7035C120.842 19.7035 120.813 19.4159 120.727 18.0923L120.554 15.5609C120.324 12.0795 119.864 10.9863 117.39 10.5256C119.777 9.89306 121.245 8.13786 121.245 5.63473C121.245 2.38368 118.684 0.83015 116.239 0.83015H110.744V1.34811L111.377 1.52077C111.952 1.69343 112.211 1.92375 112.211 2.72898V18.7249C112.211 19.5309 111.952 19.8185 111.377 19.9625L110.744 20.1352V20.6527ZM106.342 1.52077H106.975C108.758 1.52077 109.363 4.36884 109.564 7.38993H110.111V0.83015H99.6673V7.38993H100.214C100.415 4.36884 101.019 1.52077 102.803 1.52077H103.436V18.7249C103.436 19.5309 103.177 19.8185 102.602 19.9625L101.854 20.1352V20.6527H107.924V20.1352L107.176 19.9625C106.428 19.7898 106.342 19.2146 106.342 18.7249V1.52077ZM99.6959 15.5028C99.6959 9.60504 93.2228 8.05153 93.2228 3.76492C93.2228 2.84434 93.5681 1.46309 95.0063 1.46309C97.0778 1.46309 97.8548 4.13888 98.2001 7.38993H98.7467V0.83015H98.4014C98.2574 1.46309 97.9984 1.7511 97.6248 1.7511C96.9628 1.7511 96.6175 0.715176 95.0353 0.715176C92.5899 0.715176 90.921 2.75801 90.921 5.43342C90.921 10.2957 97.3945 12.3381 97.3945 16.8264C97.3945 18.8689 96.4449 20.0198 95.1503 20.0198C93.2228 20.0198 91.9569 17.7474 91.6116 14.0933H91.065V20.6527H91.4103C91.698 19.7035 92.0719 19.6172 92.3882 19.6172C92.9352 19.6172 93.5105 20.7681 95.179 20.7681C97.7398 20.7681 99.6959 18.553 99.6959 15.5028ZM80.8516 2.72898C80.8516 1.92375 81.1106 1.66478 81.6858 1.54942L82.4628 1.37676V0.83015H76.4786V1.34811L77.1116 1.52077C77.6869 1.69343 77.9458 1.92375 77.9458 2.72898V18.7249C77.9458 19.5309 77.6869 19.8185 77.1116 19.9625L76.4786 20.1352V20.6527H85.8865V14.0933H85.3395C85.0522 17.1141 84.4479 19.9625 82.0025 19.9625H80.8516V2.72898ZM61.8056 15.3016V14.525H57.9219L57.8066 15.3016H61.8056ZM45.1767 20.7104H46.3563L49.0317 6.55568H48.6291L51.5635 20.7104H52.5994L56.1094 4.0239C56.4834 2.2687 56.6847 1.66477 57.3753 1.49174L57.9219 1.34811V0.83015H53.8653V1.34811L54.4696 1.46309C55.3325 1.63574 55.5338 2.15371 55.1312 4.2825L52.8584 15.4742H53.2037L50.9019 3.67858C50.6715 2.55632 50.5279 1.63574 51.4775 1.46309L52.1101 1.34811V0.83015H46.5576V1.34811L46.9315 1.43443C47.5072 1.57806 47.5935 1.92376 47.8235 3.01699L48.7154 7.30359L48.5427 4.71414L46.5576 15.1866H46.8166L44.4861 3.67858C44.2271 2.49902 44.1408 1.60709 45.0614 1.43443L45.4934 1.34811V0.83015H39.8255V1.34811L40.3721 1.49174C40.8897 1.63574 41.1777 1.89473 41.523 3.4769L45.1767 20.7104ZM29.8134 10.6983L30.7053 10.7273C31.9999 10.756 32.3738 11.2453 32.6328 14.3813H33.1794V6.38302H32.6328C32.3165 8.88615 31.9712 9.95035 30.734 9.97938L29.8134 10.008V1.52079H31.7985C34.0137 1.52079 34.503 4.36885 34.8193 7.38995H35.3659V0.830168H25.4404V1.34813L26.0734 1.52079C26.735 1.69345 26.9076 2.09643 26.9076 2.75803V18.7249C26.9076 19.5309 26.6487 19.8185 26.0734 19.9625L25.4404 20.1352V20.6528H35.6539V14.0934H35.1069C34.762 17.0854 34.388 19.9625 31.7985 19.9625H29.8134V10.6983ZM11.717 20.6527H17.6148V20.1352L16.9532 19.9911C16.4352 19.8762 16.0899 19.5309 16.0899 18.7249V10.8713H20.4342V18.7249C20.4342 19.5309 20.0893 19.8762 19.5713 19.9911L18.9097 20.1352V20.6527H24.8075V20.1352L24.1746 19.9625C23.5993 19.8185 23.3399 19.5018 23.3399 18.6966V2.72898C23.3399 1.92375 23.5993 1.66478 24.1746 1.52077L24.8075 1.34811V0.83015H18.9097V1.34811L19.5713 1.52077C20.0602 1.66478 20.4342 1.86607 20.4342 2.70032V10.0944H16.0899V2.70032C16.0899 1.89472 16.4066 1.66478 16.9532 1.52077L17.6148 1.34811V0.83015H11.717V1.34811L12.3499 1.52077C12.9256 1.69343 13.1842 1.92375 13.1842 2.72898V18.7249C13.1842 19.5309 12.9256 19.8185 12.3499 19.9625L11.717 20.1352V20.6527ZM7.31501 1.52077H7.94833C9.73181 1.52077 10.3361 4.36884 10.5374 7.38993H11.084V0.83015H0.640625V7.38993H1.18724C1.38855 4.36884 1.99284 1.52077 3.77633 1.52077H4.40927V18.7249C4.40927 19.5309 4.15066 19.8185 3.57502 19.9625L2.82709 20.1352V20.6527H9.04156V20.1352L8.14964 19.9338C7.60302 19.7898 7.31501 19.6172 7.31501 18.7249V1.52077Z" fill="#1C1C21"/>
</g>
<defs>
<clipPath id="clip0_75:488">
<rect width="237.324" height="20.1102" fill="white" transform="translate(0.640625 0.686523)"/>
</clipPath>
</defs>
</svg>
