<svg width="38" height="44" viewBox="0 0 38 44" fill="none" xmlns="http://www.w3.org/2000/svg">
<g clip-path="url(#clip0_69:133)">
<path fill-rule="evenodd" clip-rule="evenodd" d="M11.5928 17.3839C20.0434 14.4711 21.4818 6.88357 20.403 -0.0926809C20.403 -0.344401 20.6188 -0.524201 20.8345 -0.452281C28.9256 3.50332 38.0234 12.1337 38.0234 25.0793C38.0234 35.0043 30.328 43.7786 19.1444 43.7786C15.1538 43.96 11.2164 42.8074 7.95363 40.5025C4.69088 38.1976 2.28861 34.8718 1.12599 31.05C-0.0366357 27.2282 0.106597 23.128 1.53308 19.3966C2.95956 15.6653 5.58806 12.5152 9.00369 10.4436C9.21945 10.2998 9.50713 10.4436 9.50713 10.6953C9.61501 12.0259 9.97461 15.3701 11.449 17.3839H11.5928Z" fill="url(#paint0_linear_69:133)"/>
</g>
<defs>
<linearGradient id="paint0_linear_69:133" x1="38.0234" y1="-0.468262" x2="-5.67309" y2="36.7233" gradientUnits="userSpaceOnUse">
<stop stop-color="#FF7854"/>
<stop offset="1" stop-color="#FD267D"/>
</linearGradient>
<clipPath id="clip0_69:133">
<rect width="38" height="44" fill="white"/>
</clipPath>
</defs>
</svg>
