<svg width="40" height="39" viewBox="0 0 40 39" fill="none" xmlns="http://www.w3.org/2000/svg">
<circle cx="20.1523" cy="19.4565" r="19.4565" fill="#001A3A"/>
<g clip-path="url(#clip0_142_3590)">
<path d="M16.9181 26.808C23.4718 26.808 27.0558 21.3828 27.0558 16.6782C27.0558 16.5241 27.0526 16.3707 27.0457 16.218C27.7414 15.7154 28.3461 15.0883 28.823 14.3744C28.1846 14.658 27.4976 14.8488 26.7769 14.9349C27.5125 14.4941 28.0773 13.7969 28.3437 12.9657C27.6553 13.3735 26.8929 13.6699 26.0812 13.8299C25.431 13.1379 24.5054 12.7051 23.4804 12.7051C21.5128 12.7051 19.9172 14.2995 19.9172 16.2648C19.9172 16.5442 19.9484 16.816 20.0096 17.0766C17.0483 16.9277 14.4224 15.511 12.665 13.3569C12.359 13.883 12.1826 14.4942 12.1826 15.1463C12.1826 16.3815 12.8116 17.4719 13.7682 18.1098C13.1836 18.0918 12.6345 17.9314 12.1545 17.6645C12.154 17.6795 12.154 17.694 12.154 17.71C12.154 19.4342 13.3822 20.8738 15.0125 21.2C14.7131 21.2816 14.3981 21.3253 14.073 21.3253C13.8437 21.3253 13.6204 21.3027 13.4033 21.2611C13.8569 22.6757 15.1723 23.7051 16.7317 23.7338C15.5123 24.6889 13.976 25.2578 12.3064 25.2578C12.0192 25.2578 11.7354 25.2415 11.4565 25.2085C13.0334 26.2185 14.9058 26.8078 16.9183 26.8078" fill="white"/>
</g>
<defs>
<clipPath id="clip0_142_3590">
<rect width="17.4828" height="14.2193" fill="white" transform="translate(11.397 12.6465)"/>
</clipPath>
</defs>
</svg>
