<svg width="30" height="29" viewBox="0 0 30 29" fill="none" xmlns="http://www.w3.org/2000/svg">
<circle cx="15.1523" cy="14.4565" r="14.4565" fill="#002047"/>
<g clip-path="url(#clip0_168_214)">
<path d="M12.7494 19.9191C17.619 19.9191 20.2819 15.8881 20.2819 12.3925C20.2819 12.278 20.2796 12.164 20.2744 12.0506C20.7913 11.6772 21.2406 11.2112 21.595 10.6808C21.1206 10.8915 20.6102 11.0333 20.0747 11.0972C20.6213 10.7697 21.0409 10.2517 21.2389 9.63409C20.7273 9.93709 20.1609 10.1573 19.5578 10.2762C19.0747 9.76203 18.3869 9.44043 17.6253 9.44043C16.1634 9.44043 14.9778 10.6251 14.9778 12.0854C14.9778 12.293 15.001 12.4949 15.0464 12.6886C12.8462 12.5779 10.8951 11.5253 9.58934 9.92471C9.36198 10.3156 9.23088 10.7697 9.23088 11.2543C9.23088 12.1721 9.69826 12.9823 10.409 13.4562C9.97465 13.4428 9.56663 13.3237 9.21001 13.1254C9.20962 13.1365 9.20962 13.1473 9.20962 13.1592C9.20962 14.4403 10.1222 15.5099 11.3335 15.7523C11.1111 15.8129 10.877 15.8454 10.6354 15.8454C10.4651 15.8454 10.2992 15.8286 10.1379 15.7977C10.4749 16.8488 11.4523 17.6136 12.611 17.635C11.7049 18.3446 10.5634 18.7673 9.3229 18.7673C9.10947 18.7673 8.89863 18.7552 8.69141 18.7307C9.86306 19.4811 11.2543 19.919 12.7496 19.919" fill="white"/>
</g>
<defs>
<clipPath id="clip0_168_214">
<rect width="12.99" height="10.5652" fill="white" transform="translate(8.64697 9.39648)"/>
</clipPath>
</defs>
</svg>
