<svg width="155" height="55" viewBox="0 0 155 55" fill="none" xmlns="http://www.w3.org/2000/svg">
<path d="M8.91855 39.0458C9.57001 40.7747 10.4719 42.2529 11.6245 43.4804C12.7771 44.7082 14.1425 45.6477 15.7208 46.2991C17.2993 46.9506 19.0155 47.2762 20.8696 47.2762C22.6736 47.2762 24.3647 46.938 25.9432 46.2614C27.5217 45.5848 28.8996 44.6328 30.0771 43.4053C31.2546 42.1775 32.1692 40.712 32.8206 39.0082C33.4721 37.3045 33.7977 35.4005 33.7977 33.2958V0.825195H41.6899V53.4395H33.8729V48.5539C32.1191 50.4078 30.052 51.8359 27.6719 52.8383C25.2916 53.8404 22.7237 54.3415 19.9677 54.3415C17.1614 54.3415 14.5433 53.8528 12.113 52.8757C9.68277 51.8986 7.57805 50.5082 5.79932 48.7042C4.02058 46.9002 2.61738 44.7333 1.59022 42.2026C0.562896 39.6722 0.0493164 36.8536 0.0493164 33.7467V0.825195H7.94145V33.2958C7.94145 35.4005 8.2671 37.317 8.91855 39.0458Z" fill="#010202"/>
<path d="M55.2936 0.825195V19.9918C57.0474 18.238 59.0769 16.8476 61.3819 15.8203C63.6868 14.793 66.1924 14.2794 68.8981 14.2794C71.7044 14.2794 74.3348 14.8054 76.7903 15.8577C79.2456 16.91 81.3751 18.3381 83.1791 20.1422C84.9831 21.9462 86.4112 24.0757 87.4635 26.531C88.5158 28.9864 89.0418 31.5921 89.0418 34.3481C89.0418 37.1039 88.5158 39.6971 87.4635 42.1273C86.4112 44.5577 84.9831 46.6748 83.1791 48.4785C81.3751 50.2825 79.2456 51.7107 76.7903 52.763C74.3348 53.8152 71.7042 54.3413 68.8981 54.3413C66.1922 54.3413 63.6744 53.8277 61.3443 52.8004C59.0142 51.7732 56.9722 50.3827 55.2184 48.6289V53.4394H47.7021V0.825195H55.2936ZM56.1579 39.5343C56.8343 41.1379 57.774 42.5409 58.9766 43.7435C60.1792 44.9462 61.5823 45.8983 63.1857 46.5998C64.7893 47.3014 66.518 47.6521 68.3721 47.6521C70.1761 47.6521 71.8797 47.3014 73.4831 46.5998C75.0865 45.8983 76.4769 44.9463 77.6548 43.7435C78.8323 42.5411 79.7718 41.1379 80.4733 39.5343C81.1748 37.9308 81.5256 36.2022 81.5256 34.3481C81.5256 32.494 81.1748 30.7527 80.4733 29.1241C79.7718 27.4956 78.8323 26.0801 77.6548 24.8775C76.4771 23.675 75.0867 22.7353 73.4831 22.0589C71.8795 21.3825 70.1759 21.0441 68.3721 21.0441C66.5682 21.0441 64.8645 21.3824 63.2611 22.0589C61.6576 22.7355 60.2546 23.675 59.0518 24.8775C57.8493 26.0801 56.8972 27.4956 56.1957 29.1241C55.4942 30.7527 55.1434 32.494 55.1434 34.3481C55.1432 36.2022 55.4815 37.9308 56.1579 39.5343Z" fill="#010202"/>
<path d="M93.3257 26.6064C94.3278 24.2011 95.706 22.0841 97.4597 20.2552C99.2133 18.4262 101.293 16.9856 103.698 15.9333C106.104 14.881 108.709 14.355 111.515 14.355C114.271 14.355 116.827 14.8561 119.182 15.8581C121.537 16.8603 123.566 18.2509 125.27 20.0298C126.974 21.8085 128.302 23.9133 129.254 26.3434C130.206 28.7738 130.682 31.417 130.682 34.2733V36.7538H99.4892C99.7398 38.3071 100.241 39.7477 100.993 41.0754C101.744 42.4033 102.684 43.5559 103.811 44.533C104.939 45.5102 106.216 46.2744 107.644 46.8254C109.073 47.3766 110.588 47.6524 112.192 47.6524C116.752 47.6524 120.435 45.7732 123.241 42.015L128.728 46.0737C126.824 48.6293 124.469 50.6337 121.663 52.0868C118.856 53.5399 115.7 54.2665 112.192 54.2665C109.336 54.2665 106.668 53.7653 104.187 52.7632C101.707 51.7612 99.5521 50.358 97.7231 48.5539C95.8941 46.7499 94.4535 44.6329 93.4013 42.2027C92.349 39.7725 91.8228 37.1291 91.8228 34.273C91.8224 31.5672 92.3237 29.0116 93.3257 26.6064ZM103.886 23.6373C101.757 25.4162 100.341 27.7839 99.6395 30.7403H123.015C122.364 27.7839 120.973 25.4162 118.844 23.6373C116.714 21.8586 114.221 20.9692 111.365 20.9692C108.509 20.9692 106.016 21.8586 103.886 23.6373Z" fill="#010202"/>
<path d="M144.887 24.5016C143.284 26.2554 142.482 28.6355 142.482 31.6421V53.4397H134.89V15.1063H142.406V19.8416C143.359 18.2882 144.599 17.0605 146.127 16.1586C147.655 15.2565 149.472 14.8054 151.576 14.8054H154.207V21.8708H151.05C148.545 21.871 146.49 22.7478 144.887 24.5016Z" fill="#010202"/>
</svg>
