<svg width="58" height="35" viewBox="0 0 58 35" fill="none" xmlns="http://www.w3.org/2000/svg">
<g clip-path="url(#clip0_374:177)">
<path fill-rule="evenodd" clip-rule="evenodd" d="M39.7734 0.24353H56.8751V16.8651H39.7734V0.24353ZM50.5478 2.55838C50.475 2.54273 50.3978 2.53648 50.3175 2.51459L50.2266 2.50364C50.0963 2.48487 49.969 2.47079 49.8296 2.45671C49.7387 2.44576 49.6493 2.44263 49.5569 2.43794C49.3917 2.42386 49.2402 2.42074 49.0841 2.42074C49.0144 2.42074 48.9705 2.42389 48.9008 2.42389C48.7659 2.42389 48.6432 2.43797 48.525 2.44266C48.4523 2.44582 48.3811 2.45361 48.3099 2.45674C48.2099 2.46769 48.1129 2.47551 48.0144 2.4974L47.9265 2.50362L47.8326 2.51457L47.7235 2.53646C47.6735 2.54268 47.6235 2.55054 47.5765 2.56618C47.5099 2.57556 47.4417 2.58651 47.375 2.60528C46.9735 2.69287 46.5917 2.80861 46.2553 2.94938C46.072 3.02133 45.8962 3.10266 45.7371 3.18556C45.5977 3.25125 45.472 3.3232 45.3432 3.39984C45.2189 3.46866 45.1098 3.5453 44.9901 3.61725C44.9265 3.66729 44.8644 3.71109 44.7962 3.75801C44.7477 3.79868 44.6962 3.83465 44.6432 3.87532C44.5371 3.95822 44.428 4.05206 44.3295 4.13965C44.2401 4.22568 44.1538 4.31014 44.0659 4.39303C43.9962 4.46498 43.9204 4.53849 43.8583 4.62452C43.7841 4.70115 43.7174 4.78093 43.6523 4.86851C43.5795 4.95454 43.5159 5.04526 43.4507 5.14379C43.3947 5.21261 43.3523 5.28456 43.3053 5.3612C43.2689 5.41282 43.2401 5.45974 43.2144 5.50666C43.031 5.81166 42.878 6.13386 42.7462 6.47483C42.5856 6.90652 42.4704 7.36949 42.4068 7.85279C42.3901 8.01233 42.3765 8.16874 42.3659 8.3314C42.3568 8.45496 42.3538 8.57853 42.3538 8.70209C42.3538 8.79906 42.3538 8.89291 42.3568 8.98363C42.3659 9.07903 42.3765 9.16975 42.3871 9.27142L42.3902 9.34024C42.4069 9.45285 42.422 9.56077 42.4432 9.67026C42.4538 9.71718 42.4599 9.75315 42.4675 9.80008C42.4856 9.88767 42.5084 9.97369 42.525 10.0644C42.5568 10.177 42.5887 10.2896 42.6296 10.4038C42.6675 10.5368 42.719 10.6713 42.769 10.8011C42.8523 10.9966 42.9432 11.1937 43.0372 11.3814C43.0947 11.4877 43.1569 11.591 43.2144 11.6973C43.2644 11.7724 43.3175 11.8537 43.3629 11.9304C43.4296 12.0273 43.5008 12.1212 43.5705 12.2119C43.6402 12.3136 43.7175 12.3965 43.7917 12.4903C43.8811 12.5967 43.9705 12.6952 44.0629 12.7844L44.1084 12.8328C44.1841 12.9048 44.2629 12.9846 44.3508 13.0721C44.4175 13.1222 44.4811 13.1801 44.5538 13.2379C44.616 13.2896 44.6841 13.3443 44.7569 13.399C44.8463 13.4632 44.9341 13.521 45.0296 13.5945C45.1372 13.6524 45.2432 13.7244 45.3508 13.7932C45.5811 13.9199 45.8296 14.0513 46.1069 14.1639C46.2054 14.2077 46.3129 14.2436 46.4266 14.2796C46.5326 14.3234 46.6448 14.3594 46.7554 14.3922C46.9554 14.447 47.1645 14.5048 47.3811 14.5471C47.5539 14.5799 47.7417 14.6128 47.9266 14.6315C48.1145 14.6566 48.3039 14.6738 48.5039 14.6863C48.6054 14.6925 48.7039 14.6925 48.8024 14.6972H48.9463C49.3008 14.6972 49.6342 14.6863 49.9433 14.6566L50.0069 14.6487C50.1296 14.6425 50.2463 14.6284 50.3584 14.6128C50.5418 14.5877 50.7009 14.5627 50.8615 14.5299C50.963 14.5189 51.0615 14.4939 51.1554 14.472C51.3069 14.4392 51.4403 14.4032 51.5812 14.3672C51.6751 14.3406 51.7706 14.3125 51.866 14.2827C51.9766 14.2546 52.0766 14.217 52.1812 14.1779L52.2797 14.1451C52.3297 14.1279 52.3963 14.1013 52.4721 14.0685C52.5751 14.0294 52.6979 13.9824 52.8357 13.9136C52.9266 13.8808 53.0176 13.8339 53.113 13.7932C53.1903 13.7494 53.2812 13.7072 53.3706 13.6634C53.4054 13.6477 53.4463 13.6196 53.4812 13.6086V11.3376C53.4554 11.3563 53.4297 11.3751 53.4054 11.3923L53.2554 11.4799C53.1054 11.5816 52.9615 11.6645 52.8145 11.7489C52.6554 11.835 52.4963 11.921 52.3433 12.0023C52.0721 12.1243 51.8084 12.2369 51.5615 12.3355C51.0781 12.5091 50.6433 12.6186 50.2569 12.6905C50.2069 12.6983 50.1645 12.7093 50.119 12.7171C50.0115 12.7296 49.9084 12.7453 49.8084 12.7562C49.6569 12.775 49.519 12.7812 49.3918 12.7844C49.3008 12.789 49.2327 12.7969 49.1569 12.7969C49.0024 12.7969 48.8372 12.789 48.6751 12.7812C48.4842 12.764 48.2933 12.7421 48.0918 12.7093C47.7751 12.6514 47.4569 12.5669 47.1508 12.4543C47.0978 12.4371 47.0554 12.4184 47.0099 12.3965C46.9781 12.3871 46.9508 12.3761 46.916 12.3573C46.8675 12.3355 46.816 12.3182 46.766 12.2917C46.6554 12.2369 46.5523 12.179 46.4448 12.118C46.3993 12.0852 46.3493 12.057 46.2932 12.0273C46.2402 11.9914 46.1902 11.9585 46.1357 11.9178C46.0751 11.8787 46.0114 11.824 45.9493 11.7771C45.8887 11.7301 45.8296 11.6723 45.7735 11.6285L45.7054 11.5597L45.666 11.5268L45.6463 11.5096L45.622 11.4799C45.5205 11.3814 45.4311 11.2766 45.3447 11.1749C45.3008 11.1217 45.2614 11.0592 45.2129 11.0013C45.1766 10.9434 45.1402 10.8918 45.1099 10.8339C45.069 10.7792 45.0311 10.7291 45.0099 10.6713C44.9629 10.5946 44.922 10.518 44.8781 10.4351C44.8523 10.3663 44.8235 10.3006 44.7932 10.2318C44.7478 10.1191 44.7084 10.0003 44.6766 9.89548C44.6478 9.81571 44.625 9.7203 44.6023 9.6374C44.5508 9.40436 44.519 9.19164 44.4993 9.00551C44.4872 8.93044 44.4872 8.86475 44.4826 8.80688C44.4812 8.71616 44.4812 8.63952 44.4812 8.57852V8.43619C44.4826 8.30637 44.4993 8.13901 44.519 7.95445C44.5403 7.83871 44.56 7.71827 44.5933 7.58845C44.613 7.50086 44.6357 7.42109 44.6554 7.33038C44.6842 7.25061 44.7084 7.17084 44.7478 7.08012C44.7645 7.03007 44.7857 6.9722 44.813 6.91746C44.8463 6.84082 44.8781 6.76418 44.919 6.6891C44.9478 6.6281 44.9827 6.57023 45.013 6.5108C45.0887 6.38411 45.166 6.25429 45.2615 6.13072C45.2918 6.07598 45.3266 6.03688 45.363 5.98839C45.4084 5.93365 45.4569 5.86952 45.51 5.81791C45.5342 5.78975 45.563 5.7616 45.5903 5.72719C45.9948 5.31114 46.4448 5.00615 46.91 4.78405C46.9827 4.75277 47.06 4.71523 47.1297 4.68707C47.21 4.65423 47.2797 4.62921 47.3585 4.59948C47.4312 4.57445 47.516 4.55568 47.6009 4.52754C47.6736 4.50251 47.76 4.48374 47.8327 4.46498C47.9115 4.44778 47.9933 4.42901 48.0676 4.41493C48.1479 4.40085 48.2297 4.3899 48.3176 4.37427C48.4024 4.36488 48.4857 4.35706 48.5721 4.34924C48.7312 4.33516 48.8857 4.32421 49.0373 4.32421C49.0979 4.32421 49.1448 4.32421 49.1918 4.33204C49.3115 4.33204 49.4176 4.3352 49.5251 4.34143C49.5994 4.34926 49.6751 4.34926 49.7494 4.35707C49.8842 4.37115 50.0236 4.38992 50.1479 4.41494C50.2585 4.42589 50.3706 4.44779 50.4736 4.46499C50.6297 4.49783 50.7736 4.53381 50.907 4.57447C50.9858 4.59637 51.0615 4.61358 51.1358 4.64017C51.2373 4.67145 51.3312 4.70117 51.4024 4.72306C51.5206 4.76999 51.5918 4.79501 51.5918 4.79501C51.6964 4.83567 51.804 4.8826 51.907 4.92639C52.0509 4.98113 52.1812 5.03901 52.3085 5.10313C52.4131 5.15475 52.5131 5.20167 52.61 5.24546C52.6873 5.29239 52.7615 5.32836 52.8297 5.36434C52.9494 5.43003 53.0525 5.49259 53.1373 5.53169L53.3555 5.65838V3.43582C53.3555 3.43582 53.2221 3.37482 52.9934 3.2841C52.8888 3.24656 52.7676 3.20277 52.6282 3.15272C52.5509 3.11987 52.4721 3.09016 52.3827 3.062C52.3145 3.0401 52.2479 3.01195 52.1751 2.99318C52.0903 2.96033 52.013 2.93218 51.9206 2.89934C51.8569 2.88838 51.7933 2.86336 51.7221 2.84147L51.6615 2.82739C51.6024 2.80862 51.5388 2.79298 51.4751 2.76796C51.3948 2.75388 51.31 2.72885 51.2372 2.70226C51.1842 2.69605 51.1281 2.68193 51.0751 2.67411C50.9903 2.65221 50.9069 2.62719 50.8191 2.60842C50.7312 2.59434 50.6433 2.57557 50.5478 2.55837" fill="black"/>
<path fill-rule="evenodd" clip-rule="evenodd" d="M26.6299 9.43436V12.6986H28.6814C28.6814 12.6986 28.7223 12.6939 28.7814 12.6939C28.8602 12.6908 28.9557 12.6845 29.0784 12.6767C29.2951 12.6548 29.592 12.6188 29.8799 12.514C30.136 12.4265 30.3845 12.2919 30.5754 12.0933C30.6496 12.0167 30.7117 11.9369 30.7648 11.8571C30.9193 11.5912 30.9617 11.3269 30.9723 11.1752C30.9739 11.1126 30.9739 11.0735 30.9739 11.0735C30.9739 11.0735 30.9769 11.0454 30.9739 10.9969C30.9739 10.9312 30.9693 10.8092 30.933 10.6794C30.8981 10.5214 30.8254 10.3447 30.6951 10.1773C30.6693 10.1523 30.639 10.1194 30.6117 10.0866C30.5572 10.0287 30.4981 9.97397 30.4314 9.9161C30.3163 9.84102 30.1875 9.76125 30.0481 9.70182C29.8663 9.61892 29.6572 9.55792 29.4254 9.511C29.3148 9.4891 29.1875 9.46721 29.0632 9.46251C28.9875 9.44844 28.9117 9.44844 28.8299 9.44218C28.7587 9.43436 28.6814 9.43436 28.6087 9.43436H26.6299Z" fill="black"/>
<path fill-rule="evenodd" clip-rule="evenodd" d="M26.6299 4.46882V7.55945H27.6193H27.7753C27.8496 7.55945 27.9208 7.55945 27.9966 7.5485C28.2041 7.53286 28.4875 7.50158 28.7663 7.42494C28.8254 7.40617 28.8829 7.38896 28.9329 7.37019C29.1557 7.28417 29.3648 7.17156 29.539 7.00107C29.6678 6.86656 29.7542 6.71797 29.8102 6.57564C29.8829 6.3942 29.9087 6.22841 29.9148 6.10485C29.9254 5.99223 29.9254 5.93436 29.9254 5.93436C29.9254 5.93436 29.9254 5.87962 29.9223 5.79985C29.9148 5.66534 29.8905 5.4448 29.7875 5.23835C29.736 5.13355 29.6678 5.03501 29.5738 4.9396C29.4602 4.83168 29.3284 4.73784 29.1845 4.67215C28.9026 4.54076 28.5784 4.4954 28.3132 4.47976C28.1935 4.46882 28.0844 4.46882 27.9966 4.46882H26.6299Z" fill="black"/>
<path fill-rule="evenodd" clip-rule="evenodd" d="M20.0625 0.24353H37.1687V16.8651H20.0625V0.24353ZM24.5489 2.57558V14.5471H28.9171C28.9171 14.5471 31.0459 14.6018 32.2187 13.3944C33.1747 12.4043 33.1066 11.261 33.1066 11.261C33.1066 11.261 33.1747 10.0738 32.2899 9.151C31.5323 8.37834 30.5717 8.16875 30.5717 8.16875C30.5717 8.16875 31.0065 7.96229 31.3399 7.61038C31.4959 7.44771 32.0535 6.93156 32.0535 5.67404C32.0535 4.40087 31.2323 3.66731 31.2323 3.66731C31.2323 3.66731 30.3338 2.57558 28.3126 2.57558H24.5489Z" fill="black"/>
<path fill-rule="evenodd" clip-rule="evenodd" d="M6.91699 9.43436V12.6986H8.97156C8.97156 12.6986 9.01095 12.6939 9.07762 12.6939C9.14428 12.6908 9.2458 12.6845 9.36701 12.6767C9.58671 12.6548 9.87762 12.6188 10.1655 12.514C10.4216 12.4265 10.6731 12.2919 10.8701 12.0933C10.9413 12.0167 10.9988 11.9369 11.0519 11.8571C11.2064 11.5912 11.2488 11.3269 11.2595 11.1752C11.2655 11.1126 11.2655 11.0735 11.2655 11.0735V10.9969C11.2595 10.9312 11.2534 10.8092 11.2246 10.6794C11.1837 10.5214 11.1125 10.3447 10.9837 10.1773C10.961 10.1523 10.9322 10.1194 10.9049 10.0866C10.8443 10.0287 10.7852 9.97397 10.7216 9.9161C10.6049 9.84102 10.4761 9.76125 10.3382 9.70182C10.1534 9.61892 9.94732 9.55792 9.71702 9.511C9.60792 9.4891 9.4852 9.46721 9.35489 9.46251C9.28216 9.44844 9.20035 9.44844 9.12307 9.44218C9.05337 9.43436 8.97459 9.43436 8.90489 9.43436H6.91699Z" fill="black"/>
<path fill-rule="evenodd" clip-rule="evenodd" d="M6.91699 4.46882V7.55945H7.91094H8.06549C8.13215 7.55945 8.22003 7.55945 8.28973 7.5485C8.49125 7.53286 8.77913 7.50158 9.05944 7.42494C9.1155 7.40617 9.1655 7.38896 9.22459 7.37019C9.44429 7.28417 9.65793 7.17156 9.82156 7.00107C9.95338 6.86656 10.0397 6.71797 10.1004 6.57564C10.167 6.3942 10.1973 6.22841 10.2049 6.10485C10.2155 5.99223 10.2155 5.93436 10.2155 5.93436V5.79985C10.2049 5.66534 10.1807 5.4448 10.0776 5.23835C10.0261 5.13355 9.95338 5.03501 9.86853 4.9396C9.75187 4.83168 9.6155 4.73784 9.46398 4.67215C9.18822 4.54076 8.87004 4.4954 8.59579 4.47976C8.48216 4.46882 8.3761 4.46882 8.28973 4.46882H6.91699Z" fill="black"/>
<path fill-rule="evenodd" clip-rule="evenodd" d="M0.355469 0.243042H17.4617V16.8646H0.355469V0.243042ZM4.84339 2.57509V14.5466H9.20857C9.20857 14.5466 11.3374 14.6013 12.5131 13.3939C13.4677 12.4038 13.398 11.2605 13.398 11.2605C13.398 11.2605 13.4677 10.0733 12.5828 9.15051C11.8237 8.37785 10.8631 8.16827 10.8631 8.16827C10.8631 8.16827 11.2995 7.96181 11.6328 7.60989C11.7904 7.44722 12.3495 6.93107 12.3495 5.67355C12.3495 4.40038 11.5283 3.66683 11.5283 3.66683C11.5283 3.66683 10.6359 2.57509 8.6116 2.57509H4.84339Z" fill="black"/>
<path fill-rule="evenodd" clip-rule="evenodd" d="M2.25969 22.6717H3.49152C5.34002 22.6717 6.08851 23.4584 6.10518 24.7457C6.12185 25.8968 5.53851 26.9839 3.49152 26.9839H2.25969V22.6717ZM0.350586 20.9825V34.7198H2.25969V28.7607H3.06122C4.04001 28.7607 4.83547 29.0766 6.59609 31.9014L8.35217 34.7198H10.631C9.71733 33.4138 9.384 32.9462 8.8143 32.003C7.80217 30.2872 7.05822 29.0188 5.85366 28.1945C7.2764 27.6079 8.07793 26.4224 8.07793 24.8301C8.07793 22.4512 6.39761 20.9825 3.70668 20.9825H0.350586Z" fill="black"/>
<path fill-rule="evenodd" clip-rule="evenodd" d="M16.8862 23.9262L19.0347 28.8953H14.8967L16.8862 23.9262ZM17.5907 20.9013H16.2377L10.5225 34.7184H12.4725L14.1558 30.6721H19.8119L21.5892 34.7184H23.5347L17.5907 20.9013Z" fill="black"/>
<path fill-rule="evenodd" clip-rule="evenodd" d="M27.0401 22.7551H29.9795C33.7129 22.7551 35.4083 25.0949 35.4083 27.854C35.4083 29.5448 34.4144 32.9466 30.084 32.9466H27.0401V22.7551ZM25.1279 34.7188H30.3174C34.7083 34.7188 37.378 31.3747 37.378 27.854C37.378 24.6085 35.2129 20.9814 30.2977 20.9814H25.1279V34.7188Z" fill="black"/>
<path d="M39.4424 34.719H41.6303V20.9817H39.4424V34.719Z" fill="black"/>
<path fill-rule="evenodd" clip-rule="evenodd" d="M45.667 27.8539C45.667 24.829 47.8746 22.6174 50.8413 22.6174C53.8261 22.6174 56.0307 24.829 56.0307 27.8539C56.0307 30.8492 53.8261 33.0874 50.8413 33.0874C47.8746 33.0874 45.667 30.8492 45.667 27.8539ZM43.6973 27.8539C43.6973 31.5749 46.4503 34.9001 50.8019 34.9001C55.3065 34.9001 58.0004 31.553 58.0004 27.8539C58.0004 24.0251 55.2322 20.7999 50.8413 20.7999C46.5291 20.7999 43.6973 24.0423 43.6973 27.8539Z" fill="black"/>
</g>
<defs>
<clipPath id="clip0_374:177">
<rect width="57.6497" height="34.6567" fill="white" transform="translate(0.349609 0.243408)"/>
</clipPath>
</defs>
</svg>
