<svg width="113" height="75" viewBox="0 0 113 75" fill="none" xmlns="http://www.w3.org/2000/svg">
<g clip-path="url(#clip0_69:115)">
<path d="M26.2909 3.65829C26.2909 3.04796 26.0529 2.46834 25.2584 2.17661C24.5943 1.93862 23.984 1.85801 23.3237 1.75437C22.3679 1.59315 22.556 0.664217 23.4005 0.664217C23.9571 0.664217 26.6095 0.879176 29.761 0.879176C31.5882 0.879176 34.2137 0.798568 35.4843 0.717957C36.2789 0.664214 36.3595 1.51254 35.8029 1.67376C35.2463 1.83114 32.6207 2.46834 27.9338 6.75985C23.0857 11.2126 16.8327 17.8072 16.8327 17.8072C16.8327 17.8072 30.8742 34.5549 33.3385 36.5394C35.8835 38.6084 37.63 38.7658 39.5378 38.9231C40.0138 38.95 40.1712 39.8789 39.5378 39.8789H28.571C28.571 39.8789 14.9787 23.4537 12.7523 21.9414C12.3531 21.7034 11.4012 21.3848 11.3206 22.4979C11.2399 23.5305 11.1632 32.2479 11.4012 34.1557C11.6392 36.0634 12.4337 38.8464 16.9632 38.8464C17.5198 38.8464 17.8384 39.902 17.0438 39.8789C14.3684 39.7446 12.3531 39.7446 9.04045 39.7446C6.18072 39.7446 2.18094 39.8789 1.62435 39.8789C0.672383 39.8789 0.672383 39.0038 1.54374 38.9231C2.8143 38.8464 5.83524 38.6852 6.02333 33.8371C6.23445 28.8316 6.1001 7.73868 6.02333 5.43555C5.99646 3.84638 4.64529 1.69679 1.14836 1.69679C0.59177 1.69679 0.67238 0.744827 1.30574 0.744827H16.2493C16.8058 0.744827 17.1244 1.67376 16.1686 1.75437C15.2167 1.83114 11.5854 1.93862 11.4818 6.78672C11.3474 11.6348 11.3474 19.1584 11.3474 19.477C11.3474 19.8762 11.5048 20.2716 12.0614 19.8762C13.7849 18.7093 18.8979 13.7 22.7134 9.40846C24.222 7.71181 25.2584 6.23013 25.9723 4.85209C26.1297 4.56036 26.2909 4.13811 26.2909 3.65829H26.2909ZM45.1037 17.0933V3.60839C45.1037 1.93862 46.2937 1.46264 47.5642 1.38203C48.0441 1.38203 48.1208 0.744827 47.4875 0.744827H39.5378C38.9812 0.744827 38.9006 1.35516 39.4572 1.38203C40.651 1.51254 42.0828 2.096 42.0828 3.60839V17.0933C42.0828 18.6018 41.5262 19.5576 39.7758 19.5576C39.0887 19.5576 39.2461 20.1411 39.7758 20.1411H47.5642C47.9635 20.1411 48.0709 19.5576 47.4069 19.5576C45.7371 19.5576 45.1037 18.4444 45.1037 17.0933H45.1037ZM55.3565 28.751C55.5139 28.751 55.6214 28.6704 55.6713 28.513L56.9457 24.4595C57.0263 24.2176 56.9188 24.0602 56.7077 24.0602C56.6271 24.0602 56.5196 24.0871 56.4428 24.1677C56.201 24.4057 55.9131 24.6437 55.6713 24.6437C55.5408 24.6437 55.4333 24.5631 55.3028 24.4595C54.1627 23.0545 52.3356 22.8434 51.4604 22.8434C47.4069 22.8434 43.9099 25.492 41.8448 28.751C40.5972 30.6856 39.96 32.8045 39.96 34.8965C39.96 38.236 42.267 40.1169 45.288 40.1169C46.6391 40.1169 47.6717 39.9596 49.4989 39.188C49.8981 39.0306 50.3472 38.8464 50.6121 38.8464C51.0612 38.8464 51.088 39.5066 51.1418 40.1169C51.1418 40.3549 51.303 40.4317 51.4604 40.4317C51.5679 40.4317 51.6984 40.3818 51.779 40.1975L53.4756 35.3456C53.6061 34.9502 53.4488 34.7929 53.2875 34.7929C53.0495 34.7929 52.919 34.8965 52.7309 35.2151C51.9632 36.4089 51.4335 37.1766 48.758 38.474C47.6448 39.0038 46.3474 39.3224 45.3148 39.3224C43.0616 39.3224 42.1864 37.5988 42.1864 35.4262C42.1864 32.5665 43.5376 29.5724 45.6066 27.0812C46.9309 25.4383 48.9461 23.5843 51.303 23.5843C53.5524 23.5843 55.2222 25.254 54.9842 28.3518C54.9573 28.6166 55.1416 28.751 55.3565 28.751ZM50.2167 0.744827C49.6601 0.744827 49.6601 1.30142 49.9787 1.38203C50.5852 1.51254 51.8596 1.62002 51.8596 3.28979C51.8826 7.23583 51.8826 12.4025 51.7252 16.6173C51.6984 18.1258 51.2493 19.3964 49.9518 19.5576C49.4758 19.5845 49.4758 20.1411 49.7906 20.1411H55.5139C55.8325 20.1411 55.9361 19.6344 55.5408 19.5576C54.6656 19.3964 53.2338 19.3964 53.1301 16.6173C52.9958 13.9149 52.919 3.68516 52.919 3.68516L67.2752 19.6613H68.4652C68.4652 19.6613 68.4652 4.71774 68.5458 3.58152C68.6264 2.25722 69.0755 1.53941 70.5073 1.43577C71.2213 1.38203 71.0869 0.744827 70.6109 0.744827H64.784C64.0931 0.744827 64.2543 1.38203 64.5729 1.38203C65.2063 1.46264 67.1946 1.69679 67.2752 3.60839C67.352 6.38751 67.4864 15.055 67.4864 15.055L54.7193 0.744827H50.2167H50.2167ZM62.9799 27.1618C65.5249 27.1618 66.0008 29.3882 66.0008 31.4533C66.0008 34.7391 62.9799 39.9826 59.3294 39.9826C57.0263 39.9826 56.1511 38.1286 56.1511 36.2208C56.1511 31.6376 59.41 27.1618 62.9799 27.1618ZM63.5096 27.9026C60.9992 27.9026 57.3948 33.8639 57.3948 37.4952C57.3948 38.4472 57.817 39.1611 58.8266 39.1611C61.2909 39.1611 64.9683 33.0693 64.9683 29.8641C64.9683 28.9083 64.7034 27.9026 63.5096 27.9026ZM72.9448 23.9297C72.9448 24.0065 72.9179 24.1677 72.8373 24.3251C70.6916 28.989 68.5727 33.6259 66.5037 38.2898C66.4001 38.5278 66.1889 39.0038 66.1889 39.3224C66.1889 39.7177 66.4807 40.0632 66.9029 40.0632C67.114 40.0632 67.4058 39.9826 67.5631 39.902C68.7301 39.4298 69.9507 38.1554 70.6647 37.0691C70.8259 36.8311 70.5342 36.62 70.3461 36.7774C70.0582 37.0423 69.2329 38.1554 68.3577 38.6314C68.2003 38.712 68.043 38.712 68.1466 38.3934L74.772 23.6879C74.8794 23.4269 74.9332 23.2657 74.9332 23.1083C74.9332 22.9202 74.7988 22.8434 74.6107 22.8434C74.296 22.8434 73.9236 22.9202 73.4476 22.9739C73.0484 23.0008 72.3613 23.0545 71.751 23.1083C71.5936 23.1083 71.513 23.2657 71.513 23.3731C71.513 23.5305 71.6474 23.6111 71.8047 23.6111C72.1233 23.6111 72.4381 23.6111 72.7836 23.6879C72.9179 23.7416 72.9448 23.8223 72.9448 23.9297V23.9297ZM90.4832 13.7806C90.4832 12.1645 91.677 12.0072 92.7095 11.9266C93.1049 11.8728 93.1855 11.2356 92.6289 11.2356H84.5987C84.0459 11.2356 84.0459 11.9534 84.5987 12.0072C86.1917 12.1108 87.4622 12.4025 87.4622 13.938V16.8284C87.4622 17.4618 87.1436 17.9147 86.802 18.1796C85.3971 19.3427 83.6198 19.4233 82.5873 19.4233C77.5012 19.4233 75.2211 15.0281 75.2211 10.656C75.2211 7.10148 77.0214 1.51254 82.9059 1.51254C88.18 1.51254 90.084 4.9327 90.7212 6.23013C90.9361 6.62934 91.4351 6.54873 91.4351 6.23013V2.01539C91.4351 1.62002 90.8555 1.53941 90.7212 2.01539C90.6137 2.49521 90.2989 2.81381 89.8997 2.81381C89.5811 2.81381 89.2126 2.57198 89.0552 2.46834C87.4622 1.46264 85.9498 0.664217 82.9327 0.664217C78.0578 0.664217 72.0427 3.1017 72.0427 10.5216C72.0427 17.9915 77.6854 20.2985 82.6141 20.2985C87.4622 20.2985 90.0072 17.8341 90.4832 17.5155V13.7806ZM78.8523 23.9297C78.8523 24.0065 78.8255 24.1677 78.7449 24.3251C76.5991 28.989 74.4802 33.6259 72.4151 38.2898C72.3076 38.5278 72.0965 39.0038 72.0965 39.3224C72.0965 39.7177 72.3882 40.0632 72.8104 40.0632C73.0216 40.0632 73.3133 39.9826 73.4745 39.902C74.6414 39.4298 75.8583 38.1554 76.5722 37.0691C76.7335 36.8311 76.4417 36.62 76.2536 36.7774C75.9619 37.0423 75.1405 38.1554 74.2691 38.6314C74.1117 38.712 73.9505 38.712 74.058 38.3934L80.6795 23.6879C80.787 23.4269 80.8407 23.2657 80.8407 23.1083C80.8407 22.9202 80.7064 22.8434 80.5221 22.8434C80.2035 22.8434 79.8312 22.9202 79.3552 22.9739C78.956 23.0008 78.2689 23.0545 77.6624 23.1083C77.5012 23.1083 77.4206 23.2657 77.4206 23.3731C77.4206 23.5305 77.5511 23.6111 77.7123 23.6111C78.0309 23.6111 78.3495 23.6111 78.695 23.6879C78.8255 23.7416 78.8523 23.8223 78.8523 23.9297V23.9297ZM86.5909 37.1766C85.4777 38.6314 83.7273 39.9826 81.5547 39.9826C79.8849 39.9826 78.8792 38.7926 78.8792 37.2572C78.8792 32.5128 84.1265 27.5034 87.6235 27.5034C88.8134 27.5034 89.6886 27.9564 89.6886 29.2269C89.6886 31.081 88.0726 32.0905 85.1591 32.9619C84.3376 33.2037 82.5335 33.5991 81.6622 33.7833C81.263 34.4205 80.7601 35.6911 80.7601 36.6968C80.7601 38.0518 81.4242 38.8464 82.6679 38.8464C84.0997 38.8464 85.4508 37.7294 86.1917 36.858C86.4297 36.62 86.802 36.9386 86.5909 37.1766ZM84.9979 32.2479C86.6408 31.7182 88.1532 30.843 88.1532 29.3882C88.1532 28.6166 87.7808 28.3019 87.04 28.3019C86.1111 28.3019 85.209 28.989 84.6562 29.5455C83.7273 30.4438 82.8253 31.5339 82.0575 32.912C82.6679 32.8851 83.8847 32.5934 84.9979 32.2479ZM101.373 28.6166C101.692 28.6166 101.984 28.4592 101.984 27.9026C101.984 27.4267 101.531 27.2654 101.108 27.2654C100.632 27.2654 100.022 27.3998 99.3848 27.822C99.2274 27.9564 98.8282 28.1406 98.5902 27.9833C98.0874 27.6378 97.6383 27.3998 96.4445 27.3998C95.2545 27.3998 93.5041 28.1138 92.3909 29.6223C91.5964 30.7393 91.4351 31.5339 91.4351 32.3247C91.4351 33.1231 91.7576 33.7065 91.9956 34.0213C92.0455 34.1019 92.0724 34.1557 92.0724 34.2363C92.0724 34.4205 91.8344 34.5549 91.4352 34.6585C90.7212 34.8965 89.5312 35.5874 89.5312 36.8043C89.5312 37.5988 90.1646 38.3666 90.8824 38.8464C90.8824 38.8464 89.4237 39.2417 88.2568 39.8789C87.3548 40.3818 86.3491 41.1495 86.3491 42.2627C86.3491 43.5333 87.4354 45.6022 91.915 45.6022C94.5367 45.6022 96.1796 44.6464 96.8168 43.9325C97.2928 43.3759 97.3696 42.7387 97.3696 42.3433C97.3696 40.9115 95.7842 39.5603 94.0339 38.6084C92.9207 37.9712 91.2778 37.1996 91.2778 36.0634C91.2778 35.7717 91.3584 35.4531 91.677 35.2688C91.8881 35.1076 92.2336 35.0308 92.6021 35.0308C93.1049 35.0308 93.7421 35.1882 94.1912 35.1882C95.623 35.1882 97.5577 34.7122 98.7514 32.1673C99.0662 31.4533 99.2006 30.7393 99.2006 30.129C99.2006 29.3344 99.0662 29.1463 99.0662 28.7778C99.0662 28.4592 99.3848 28.275 99.9951 28.275C100.87 28.275 100.87 28.6166 101.373 28.6166H101.373ZM92.1261 44.8345C89.1858 44.8345 88.3106 43.134 88.3106 42.2896C88.3106 41.495 88.6292 40.9921 89.4237 40.4317C89.9803 40.0363 90.8018 39.641 91.4352 39.403C92.153 39.7177 93.2393 40.3549 93.5847 40.6735C95.1739 41.7829 95.4887 42.4201 95.4887 42.9767C95.4887 44.4852 93.2393 44.8345 92.1261 44.8345ZM97.93 29.0926C97.93 29.8641 97.6383 30.8967 96.9742 32.0099C95.7305 34.0213 94.7478 34.4205 93.9034 34.4205C93.1855 34.4205 92.8669 33.8371 92.8669 32.9887C92.8669 32.2479 93.1855 31.2921 93.7421 30.4207C94.5904 29.0696 95.7842 27.9564 96.8398 27.9564C97.5577 27.9564 97.93 28.3019 97.93 29.0926ZM94.7478 3.76577C94.0607 3.76577 93.2661 3.33969 93.2661 2.23035C93.2661 1.03656 94.2181 0.664217 94.9359 0.664217C95.9416 0.664217 96.7631 1.38203 96.7631 2.62572C96.7631 4.00376 95.7305 5.64667 93.9033 5.64667C93.7152 5.64667 93.6346 5.51616 93.6346 5.40868C93.6346 5.27817 93.7152 5.19756 93.8227 5.17069C95.0664 4.9327 95.5424 4.13811 95.5693 3.60839C95.4656 3.68516 95.0933 3.76577 94.7478 3.76577ZM109.403 4.64097C109.534 4.64097 109.691 4.56036 109.641 4.3761L109.135 0.825436C109.081 0.587446 108.977 0.506836 108.843 0.506836C108.766 0.506836 108.659 0.560579 108.582 0.717957C108.421 1.03656 108.179 1.30142 107.73 1.30142C106.939 1.30142 106.194 0.717957 104.314 0.717957C101.849 0.717957 98.5902 1.7774 98.5902 5.35494C98.5902 8.93248 101.454 10.0994 103.918 10.9976C106.513 11.9534 108.582 12.6674 108.582 15.3697C108.582 18.3907 106.459 19.3695 104.448 19.3695C102.222 19.3695 99.5959 18.3101 98.6708 14.7863C98.5902 14.4945 98.4866 14.4178 98.2716 14.4178C98.0874 14.4178 97.93 14.5483 97.93 14.8669V19.3964C97.93 19.6613 98.0874 19.7956 98.2448 19.7956C98.3522 19.7956 98.4866 19.715 98.5634 19.5845C98.7514 19.3196 98.9626 19.0778 99.4654 19.0778C100.471 19.0778 101.665 20.2985 104.552 20.2985C107.096 20.2985 111.388 19.5039 111.388 14.4945C111.388 12.51 110.567 9.96505 105.745 8.61388C102.325 7.66191 101.243 6.23013 101.243 4.47975C101.243 2.97119 102.141 1.51254 104.605 1.51254C105.822 1.51254 107.81 1.85801 109.135 4.45288C109.215 4.6141 109.296 4.64097 109.403 4.64097ZM108.022 37.1766C106.908 38.6314 105.162 39.9826 102.962 39.9826C101.293 39.9826 100.314 38.7926 100.314 37.2572C100.314 32.5128 105.557 27.5034 109.058 27.5034C110.248 27.5034 111.123 27.9564 111.123 29.2269C111.123 31.081 109.48 32.0905 106.594 32.9619C105.745 33.2037 103.968 33.5991 103.097 33.7833C102.697 34.4205 102.168 35.6911 102.168 36.6968C102.168 38.0518 102.855 38.8464 104.076 38.8464C105.507 38.8464 106.858 37.7294 107.626 36.858C107.864 36.62 108.21 36.9386 108.022 37.1766ZM106.432 32.2479C108.048 31.7182 109.561 30.843 109.561 29.3882C109.561 28.6166 109.215 28.3019 108.448 28.3019C107.546 28.3019 106.62 28.989 106.064 29.5455C105.162 30.4438 104.233 31.5339 103.492 32.912C104.076 32.8851 105.319 32.5934 106.432 32.2479Z" fill="#0F0C0C"/>
<path d="M2.52287 46.4161H9.35935C9.70482 46.4161 9.8123 46.9688 9.38622 46.9688C8.72598 46.9688 7.37481 47.2874 7.37481 48.7192V60.588C7.37481 61.943 8.03504 62.419 10.9754 62.419C13.8121 62.419 16.4876 62.0736 17.8119 58.3079C17.9193 57.9932 18.4222 58.02 18.3416 58.496L17.4664 63.1829H2.7647C2.25801 63.1829 2.36549 62.5764 2.68409 62.5764C3.63605 62.5764 4.80297 62.1235 4.80297 60.4038V49.0378C4.80297 47.5792 3.95465 46.9688 2.52287 46.9688C2.15437 46.9688 2.1275 46.4161 2.52287 46.4161ZM109.507 69.1212H2.7647V70.1269H109.507V69.1212ZM109.507 72.3532H2.7647V74.6602H109.507V72.3532ZM27.1664 63.3211C32.0644 63.3211 35.5921 59.9009 35.5921 54.6536C35.5921 50.0435 32.1719 46.3086 27.1664 46.3086C22.2915 46.3086 18.7945 50.1241 18.7945 54.6536C18.7945 59.5823 22.1034 63.3211 27.1664 63.3211ZM21.5199 54.6536C21.5199 50.3621 23.5083 47.0494 27.1664 47.0494C30.4254 47.0494 32.8859 50.2009 32.8859 54.6536C32.8859 60.1389 30.6634 62.5495 27.1664 62.5495C23.7463 62.5495 21.5199 59.2637 21.5199 54.6536ZM36.782 46.3892C36.4634 46.3892 36.3867 46.9458 36.8089 46.9458C37.2849 46.9458 38.2944 47.0763 38.2944 48.535L38.2138 60.2963C38.2138 61.5707 37.7609 62.6302 36.5709 62.6302C36.1755 62.6302 36.1755 63.1599 36.4903 63.1599H41.3921C41.7107 63.1599 41.7107 62.6302 41.3384 62.6302C40.6244 62.6302 39.3807 62.3116 39.3539 60.2963L39.2464 48.32C39.2464 48.32 51.8061 63.0793 51.8829 63.1599H52.7312L52.8118 49.0109C52.8118 47.606 53.4222 46.8652 54.9307 46.8652C55.2493 46.8652 55.2493 46.3892 54.9307 46.3892H49.4454C49.1307 46.3892 49.1307 46.8652 49.4454 46.8652C50.002 46.8652 51.6987 46.9688 51.7255 48.7998L51.8599 59.1064L41.0735 46.3892H36.782H36.782ZM56.5199 46.3086C55.9633 46.3086 56.0708 46.9458 56.3894 46.9458C57.0266 46.9458 58.086 47.2606 58.086 48.535V60.4844C58.086 61.755 57.7943 62.5495 56.2819 62.5495C55.9134 62.5495 55.9134 63.1599 56.255 63.1599H64.2277C67.7247 63.1599 73.5247 61.4901 73.5247 54.5769C73.5247 47.5792 68.7572 46.3086 64.1471 46.3086H56.5199H56.5199ZM60.654 48.6424C60.654 47.13 61.5254 47.0494 63.5905 47.0494C67.1681 47.0494 70.7725 48.8267 70.7725 54.4962C70.7725 60.0084 67.7515 62.3653 63.7518 62.3653H62.9034C61.8478 62.3653 60.654 62.1542 60.654 60.0583V48.6424ZM84.1499 63.3211C89.0517 63.3211 92.5755 59.9009 92.5755 54.6536C92.5755 50.0435 89.1592 46.3086 84.1499 46.3086C79.2749 46.3086 75.778 50.1241 75.778 54.6536C75.778 59.5823 79.0906 63.3211 84.1499 63.3211ZM78.511 54.6536C78.511 50.3621 80.4956 47.0494 84.1499 47.0494C87.4088 47.0494 89.8732 50.2009 89.8732 54.6536C89.8732 60.1389 87.6468 62.5495 84.1499 62.5495C80.7335 62.5495 78.511 59.2637 78.511 54.6536ZM93.6618 46.3892C93.3432 46.3892 93.2664 46.9458 93.6887 46.9458C94.1647 46.9458 95.1742 47.0763 95.1742 48.535L95.0936 60.2963C95.0936 61.5707 94.6445 62.6302 93.4507 62.6302C93.0515 62.6302 93.0515 63.1599 93.3739 63.1599H98.2719C98.5905 63.1599 98.5905 62.6302 98.2182 62.6302C97.5042 62.6302 96.2605 62.3116 96.2336 60.2963L96.1262 48.32C96.1262 48.32 108.686 63.0793 108.767 63.1599H109.611L109.692 49.0109C109.692 47.606 110.302 46.8652 111.81 46.8652C112.129 46.8652 112.129 46.3892 111.81 46.3892H106.325C106.007 46.3892 106.007 46.8652 106.325 46.8652C106.886 46.8652 108.578 46.9688 108.605 48.7998L108.74 59.1064L97.9571 46.3892H93.6618H93.6618Z" fill="#0F0C0C"/>
</g>
<defs>
<clipPath id="clip0_69:115">
<rect width="111.273" height="74.1533" fill="white" transform="translate(0.776367 0.506836)"/>
</clipPath>
</defs>
</svg>
