<svg width="210" height="39" viewBox="0 0 210 39" fill="none" xmlns="http://www.w3.org/2000/svg">
<path d="M0 37.8665H7.26923V10.0847H7.35278L11.4888 37.8665H17.0871L21.2231 10.0847H21.3066V37.8665H28.5759V0.580322H17.463L14.3298 22.67H14.2462L11.1129 0.580322H0V37.8665Z" fill="#252525"/>
<path d="M31.6935 8.83056C31.6935 11.6505 33.0305 14.7314 34.5343 17.2903C30.7325 19.8492 28.936 23.8181 28.936 28.1002C28.936 35.0979 33.1139 38.5967 38.0855 38.5967C41.2187 38.5967 43.0987 37.2911 45.3128 35.6723L46.608 37.8656H54.8802L50.8696 30.8678C53.2508 27.9434 54.2119 23.8703 54.3787 19.6926H47.8615C47.7779 21.3115 47.4855 22.8258 46.8587 24.079L43.4748 18.3871C46.7334 15.7759 48.6552 12.4339 48.6552 8.83069C48.6552 4.69554 46.5155 1.63174 43.009 0.570068H37.2968C33.833 1.63174 31.6935 4.69541 31.6935 8.83056ZM39.4225 31.2859C37.7931 31.2859 36.2056 29.4579 36.2056 27.0558C36.2056 25.9591 36.8321 24.445 38.0437 23.296L42.0127 30.0324C41.3861 30.659 40.2997 31.2859 39.4225 31.2859ZM40.1745 5.59271C41.4695 5.59271 42.3886 6.68932 42.3886 8.20383C42.3886 9.30043 41.762 10.7104 39.9238 12.7993C38.5451 10.6061 37.9602 9.30043 37.9602 8.20383C37.9602 6.68932 38.8794 5.59271 40.1745 5.59271Z" fill="#252525"/>
<path d="M54.4199 19.2225C54.4199 33.1134 56.3417 38.5967 65.0733 38.5967C70.0447 38.5967 74.9329 36.0899 74.9329 25.6457V22.878H67.413C67.413 29.9277 66.9952 32.0166 65.0735 32.0166C62.6921 32.0166 62.4414 29.3013 62.4414 19.2225C62.4414 9.14374 62.6921 6.42814 65.0735 6.42814C66.5774 6.42814 67.204 7.68147 67.204 11.9113V14.0003H74.7242V11.6504C74.7242 6.11731 73.1697 2.12633 69.2725 0.569824H60.6765C56.0339 2.41423 54.4199 7.97239 54.4199 19.2225Z" fill="#252525"/>
<path d="M77.1855 11.4938C77.1855 24.7058 89.3844 21.0502 89.3844 28.4133C89.3844 30.4501 88.4655 32.0166 86.8778 32.0166C85.3738 32.0166 84.3295 30.8677 84.3295 27.6824V26.7945H76.8096V28.1C76.8096 35.829 80.4024 38.5966 86.8362 38.5966C91.9349 38.5966 95.2969 36.6281 96.6841 32.3506L95.609 37.8655H103.881L104.675 31.3377H110.858L111.651 37.8655H118.613H119.923H126.885L127.678 31.3377H133.862L134.656 37.8655H142.928L135.658 0.579345H125.882L119.268 34.5039L112.654 0.579345H102.878L97.3185 29.0959C97.3753 28.4661 97.4058 27.8049 97.4058 27.1081C97.4058 13.4782 84.7054 17.0814 84.7054 9.71808C84.7054 8.04699 85.4574 6.42814 87.1285 6.42814C88.6326 6.42814 89.3427 8.2558 89.3427 10.4493V11.3369H96.612C96.612 5.41366 95.0256 1.96081 91.4483 0.569824H82.7738C79.0313 2.05432 77.1855 5.80012 77.1855 11.4938ZM130.728 8.20372H130.812L132.942 24.0268H128.598L130.728 8.20372ZM107.724 8.20372H107.808L109.939 24.0268H105.594L107.724 8.20372Z" fill="#252525"/>
<path d="M158.594 8.37644V0.579345H139.125V8.83045H144.974V37.8655H152.745V8.83045H158.5C157.968 11.5582 157.739 14.9869 157.739 19.2225C157.739 33.1134 159.66 38.5967 168.392 38.5967C173.364 38.5967 178.251 36.0899 178.251 25.6457V22.878H170.732C170.732 29.9277 170.313 32.0166 168.392 32.0166C166.011 32.0166 165.76 29.3013 165.76 19.2225C165.76 9.14374 166.011 6.42814 168.392 6.42814C169.896 6.42814 170.523 7.68147 170.523 11.9113V14.0003H178.042V11.6504C178.042 6.11731 176.488 2.12633 172.591 0.569824H163.996C161.199 1.68071 159.501 4.13841 158.594 8.37644Z" fill="#252525"/>
<path d="M192.037 37.8655H199.808V0.579346H192.037V14.2615H187.275V0.579346H179.504V37.8655H187.275V22.5124H192.037V37.8655Z" fill="#252525"/>
<path d="M209.897 0.579346H202.126V37.8655H209.897V0.579346Z" fill="#252525"/>
</svg>
