<svg width="125" height="38" viewBox="0 0 125 38" fill="none" xmlns="http://www.w3.org/2000/svg">
<g clip-path="url(#clip0_374:148)">
<path d="M1.94727 37.8861H122.601V0.929417H1.94727V37.8861ZM3.27371 2.29862H121.275V37.4836H3.27371V2.29862Z" fill="white"/>
<path d="M2.61328 37.8864H121.936V1.61206H2.61328V37.8864Z" fill="#18398A"/>
<path d="M2.6123 1.61366L2.61654 19.7902L20.0847 1.61366H2.6123Z" fill="#ED1C24"/>
<path d="M118.491 19.8896C118.491 12.0328 112.338 5.68529 105.02 5.68529C97.7051 5.68529 91.5519 12.0328 91.5519 19.8896C91.5519 27.7421 97.7051 34.094 105.02 34.094C112.338 34.094 118.491 27.7421 118.491 19.8896ZM111.503 19.8896C111.503 23.5731 108.592 26.8059 105.02 26.8059C101.489 26.8059 98.5442 23.7218 98.5442 19.8896C98.5442 16.0575 101.489 12.9734 105.02 12.9734C108.592 12.9734 111.503 16.2062 111.503 19.8896ZM91.2256 33.4203L86.1996 21.692C88.4964 20.1171 89.7678 17.9342 89.7678 15.0426C89.7678 9.28996 86.1657 6.35898 80.9574 6.35898H71.9649V33.4203H78.8089V22.2563H78.8809L83.5043 33.4203H91.2256ZM82.9238 15.7163C82.9238 18.1617 81.3558 19.0628 78.8089 19.0628V12.3741C81.3558 12.3741 82.9238 13.2752 82.9238 15.7163ZM64.6462 13.2009H70.0028L69.3078 6.35898H53.1449L52.4541 13.2009H57.8064V33.4203H64.6462V13.2009ZM43.1353 26.2809V23.4593H48.5215V16.32H43.1353V13.5027H51.3989L50.3395 6.35898H36.287V33.4203H50.5217L52.3058 26.2809H43.1353ZM26.9681 33.4203H33.9605L30.3541 6.35898H24.8958L20.1241 16.8843L15.5007 6.35898L9.12707 12.9384L6.29199 33.4203H13.2801L14.8099 22.2957H14.882L20.1241 33.6084L25.3662 22.2957H25.4383L26.9681 33.4203Z" fill="white"/>
<path d="M13.2602 5.55588L12.8365 5.1053L13.8196 4.11226L13.2348 3.49107L12.2474 4.48411L11.866 4.07289L13.0823 2.85238L12.4763 2.20931L10.4464 4.24788L13.078 7.03888L15.1079 5.00031L14.4807 4.33099L13.2602 5.55588ZM10.7176 5.22779L10.1116 4.58472L8.08592 6.62329L10.7133 9.41429L12.7432 7.37572L12.116 6.70641L10.8956 7.9313L10.4718 7.47634L11.455 6.48768L10.8701 5.86648L9.88274 6.85514L9.50133 6.4483L10.7176 5.22779ZM8.59445 7.73881C8.33595 7.46759 7.99692 7.3276 7.63247 7.40634C7.30193 7.47196 7.00952 7.69944 6.77644 7.93567L5.39916 9.31805L8.03083 12.109L8.86991 11.2647L7.86555 10.1973L8.12406 9.93924L9.52252 10.6086L10.4464 9.68114L8.81058 8.95496C8.98856 8.48687 8.93771 8.10628 8.59445 7.73881ZM7.75113 8.62686C7.97573 8.86746 7.78503 9.11244 7.60281 9.29617L7.30193 9.6024L6.80187 9.06869L7.13665 8.73185C7.21293 8.65311 7.30193 8.56562 7.40363 8.53062C7.53077 8.49125 7.66214 8.53499 7.75113 8.62686ZM5.86108 10.1448L5.23389 9.48428L3.28027 11.4441L5.91194 14.2351L6.71711 13.4258L5.73395 12.3803L6.61117 11.4966L6.02212 10.871L5.14066 11.7547L4.71264 11.2997L5.86108 10.1448Z" fill="white"/>
</g>
<defs>
<clipPath id="clip0_374:148">
<rect width="123.675" height="36.9567" fill="white" transform="translate(0.436523 0.929199)"/>
</clipPath>
</defs>
</svg>
