<svg width="136" height="55" viewBox="0 0 136 55" fill="none" xmlns="http://www.w3.org/2000/svg">
<g clip-path="url(#clip0_16:37)">
<path d="M135.89 0H0V55H135.89V0Z" fill="#005EB8"/>
<path d="M13.2825 5.3075H28.0638L37.125 36.0112H37.2625L43.4775 5.3075H54.6425L45.2513 49.5825H30.5388L21.2713 18.9475H21.1475L15.0013 49.5825H3.83626L13.2825 5.3075Z" fill="white"/>
<path d="M59.0013 5.3075H70.8675L67.375 22.2475H81.4L84.8925 5.3075H96.7587L87.56 49.5825H75.625L79.5575 30.6212H65.6013L61.6688 49.5825H49.8163L59.0013 5.3075Z" fill="white"/>
<path d="M127.957 15.3312C124.916 13.931 121.598 13.2354 118.25 13.2962C113.561 13.2962 109.753 13.9975 109.753 17.545C109.753 23.8287 126.94 21.4775 126.94 34.925C126.94 47.1625 115.582 50.3387 105.311 50.3387C100.643 50.2302 96.014 49.4618 91.5612 48.0562L94.3112 39.05C96.6625 40.5762 101.351 41.5937 105.215 41.5937C109.079 41.5937 114.661 40.8925 114.661 36.3275C114.661 29.2187 97.4738 31.8862 97.4738 19.3875C97.4738 7.97498 107.497 4.53748 117.205 4.53748C122.705 4.53748 127.793 5.11498 130.776 6.50373L127.957 15.3312Z" fill="white"/>
</g>
<defs>
<clipPath id="clip0_16:37">
<rect width="135.89" height="55" fill="white"/>
</clipPath>
</defs>
</svg>
