<svg width="92" height="23" viewBox="0 0 92 23" fill="none" xmlns="http://www.w3.org/2000/svg">
<g clip-path="url(#clip0_374:156)">
<path d="M2.36924 0.814697C1.58372 0.814697 0.943359 1.47574 0.943359 2.28661V21.3775C0.943359 22.1883 1.58372 22.8494 2.36924 22.8494H36.6159V0.814697H2.36924Z" fill="white"/>
<path d="M2.36924 22.8494H36.8465V22.3911H2.36924C1.83133 22.3911 1.38735 21.9416 1.38735 21.3775V2.28661C1.38735 1.73134 1.82279 1.28183 2.36924 1.28183H36.8465V0.814697H2.36924C1.58372 0.814697 0.943359 1.47574 0.943359 2.28661V21.3863C0.943359 22.1883 1.58372 22.8494 2.36924 22.8494Z" fill="#9D9D9C"/>
<path d="M36.8465 0.814697H2.36924C1.58372 0.814697 0.943359 1.47574 0.943359 2.28661V15.86C0.943359 15.3488 1.10559 14.8905 1.38735 14.5203V2.28661C1.38735 1.73134 1.82279 1.27302 2.3607 1.27302H36.8379V0.814697" fill="#B2B2B2"/>
<path d="M90.0564 0.814819H36.4707V22.8495H90.0564C90.8419 22.8495 91.4823 22.1885 91.4823 21.3864V2.28674C91.4823 1.47586 90.8334 0.814819 90.0564 0.814819Z" fill="#AB0000"/>
<path d="M24.962 20.4169C25.1925 20.5403 25.6621 20.6813 26.2513 20.699C27.2588 20.7166 27.8138 20.32 28.2236 19.3857L33.6624 6.86117C33.4404 6.73777 32.9452 6.59675 32.5354 6.58793C31.8353 6.57031 30.8961 6.72014 30.2984 8.20087L28.5395 12.4932L25.0816 6.68489C24.8596 6.61438 24.3131 6.51742 23.9204 6.51742C22.6994 6.51742 22.0249 6.98456 21.3162 7.77781L17.9607 11.5678L20.6588 15.9571C21.154 16.7591 21.8114 17.1646 22.8872 17.1646C23.5874 17.1646 24.168 16.9971 24.4412 16.8737L21.1796 11.7969L23.4849 9.27617L27.2673 15.4018L24.962 20.4169ZM17.8241 15.675C17.8241 16.6005 17.474 17.1293 15.7237 17.1293L15.1004 17.0853V4.83397C15.1004 3.90852 15.4078 2.93018 17.1666 2.93018L17.8155 3.00069V15.675H17.8241ZM14.221 13.8329C14.221 15.5516 13.1281 16.812 10.9167 17.0588C9.3115 17.2351 6.98911 17.0236 5.88768 16.8914L5.81083 16.292C5.81083 14.7848 6.59635 14.4411 7.33917 14.4411C8.10761 14.4411 9.32003 14.5733 10.2165 14.5733C11.207 14.5733 11.5058 14.2296 11.5058 13.8946C11.5058 13.4628 11.1045 13.2865 10.3361 13.1278L8.23568 12.7136C6.48535 12.3698 5.55469 11.1183 5.55469 9.79619C5.55469 8.19206 6.65612 6.83472 8.83336 6.58793C10.4727 6.40284 12.4706 6.60556 13.5721 6.7554L13.6318 7.33711C13.6318 8.83547 12.8634 9.16159 12.1291 9.16159C11.5656 9.16159 10.6776 9.05582 9.6701 9.05582C8.64552 9.05582 8.21861 9.34668 8.21861 9.70805C8.21861 10.0782 8.62844 10.2369 9.2688 10.3515L11.2753 10.7393C13.3415 11.1359 14.221 12.3434 14.221 13.8329Z" fill="black"/>
<path d="M90.0564 0.814819H36.4707V12.2464L91.4823 9.93718V2.29555C91.4823 1.46705 90.8419 0.814819 90.0564 0.814819Z" fill="#CB0002"/>
<path d="M78.6421 16.4858C78.5396 15.6309 78.8043 15.1814 79.2483 15.1814C79.7094 15.1814 80.8706 15.7366 82.5099 15.7366C84.2517 15.7366 84.9177 15.0756 84.9177 14.2118C84.9177 13.6301 84.6701 13.1366 83.0905 12.687L81.306 12.1758C79.3935 11.6382 78.625 10.651 78.625 9.40829C78.625 7.90993 79.7862 6.51733 82.4501 6.51733C83.654 6.51733 85.1482 6.81701 86.0447 7.17837C86.1301 8.01569 85.8825 8.4652 85.4641 8.4652C85.0458 8.4652 83.9443 7.954 82.4758 7.954C80.8535 7.954 80.2558 8.55334 80.2558 9.34659C80.2558 9.85779 80.4864 10.3337 81.9378 10.7656L83.7479 11.2768C85.7459 11.8762 86.5741 12.8457 86.5741 14.1678C86.5741 15.7543 85.3531 17.1733 82.4843 17.1733C81.1694 17.1733 79.5728 16.8736 78.6421 16.4858Z" fill="white"/>
<path d="M77.3105 6.90526L74.6551 16.3097C74.4929 16.8914 74.0745 17.0412 73.4939 17.0412C73.1609 17.0412 72.8279 16.9795 72.5376 16.8914L69.9847 8.52701L67.5769 16.3097C67.3891 16.909 66.9536 17.0412 66.4157 17.0412C66.0827 17.0412 65.7327 16.9795 65.4424 16.8914L62.6162 6.90526C62.8467 6.77305 63.2566 6.64966 63.6323 6.64966C64.0677 6.64966 64.3153 6.79949 64.4434 7.249L66.4755 15.1374H66.4926L69.0028 6.90526C69.276 6.75542 69.6432 6.64966 70.0188 6.64966C70.6421 6.64966 70.9751 6.81712 71.163 7.42528L73.4853 15.1374H73.511L75.4833 7.249C75.6114 6.79949 75.8334 6.64966 76.2944 6.64966C76.6701 6.64966 77.0885 6.77305 77.3105 6.90526Z" fill="white"/>
<path d="M61.5832 12.5196H53.8561C54.1037 14.5115 55.4527 15.6485 57.4507 15.6485C58.3045 15.6485 58.9705 15.4546 59.5938 15.2431C60.0121 15.0932 60.2341 15.0051 60.4049 15.0051C60.8233 15.0051 61.1306 15.4105 61.0282 16.336C60.1573 16.7414 58.8083 17.1733 57.3995 17.1733C54.3086 17.1733 52.1826 15.0051 52.1826 11.8145C52.1826 8.74725 54.4025 6.51733 57.1262 6.51733C60.1829 6.51733 61.6771 9.02047 61.6771 11.4707C61.6686 11.788 61.6429 12.1318 61.5832 12.5196ZM53.8646 11.127H60.0719C60.0121 9.37303 58.9107 7.97162 57.1262 7.97162C55.5467 7.97162 54.1293 9.06454 53.8646 11.127Z" fill="white"/>
<path d="M50.2949 10.889V16.3977C50.2949 16.8031 50.09 17.0411 49.4411 17.0411C49.1679 17.0411 48.8605 16.9971 48.6897 16.953V11.1006C48.6897 9.00287 47.6737 7.98927 46.1966 7.98927C45.0098 7.98927 43.7461 8.84422 43.2253 9.83137V16.3889C43.2253 16.7943 43.0204 17.0323 42.3715 17.0323C42.0812 17.0323 41.7653 16.9882 41.6201 16.9442V6.75533C41.7653 6.71126 42.0812 6.64956 42.3715 6.64956C43.0118 6.64956 43.2253 6.90516 43.2253 7.29297V8.17436C43.951 7.27535 45.0525 6.52617 46.5467 6.52617C48.5958 6.51735 50.2949 7.86588 50.2949 10.889Z" fill="white"/>
<path d="M10.3449 13.1454C10.6096 13.1983 10.823 13.2512 11.0023 13.3217H11.0108C10.8315 13.2512 10.6096 13.1983 10.3449 13.1454ZM11.9586 10.9155C11.9671 10.9155 11.9671 10.9155 11.9757 10.9243C11.9757 10.9155 11.9671 10.9155 11.9586 10.9155ZM11.9244 10.8979C11.933 10.8979 11.9415 10.9067 11.9415 10.9067C11.933 10.9067 11.9244 10.9067 11.9244 10.8979ZM11.8732 10.8891C11.8817 10.8891 11.8903 10.8979 11.8988 10.8979C11.8988 10.8979 11.8817 10.8891 11.8732 10.8891ZM11.8305 10.8715C11.8391 10.8715 11.8561 10.8803 11.8647 10.8803C11.8561 10.8803 11.8391 10.8803 11.8305 10.8715ZM11.7366 10.8538C11.7622 10.8626 11.7964 10.8715 11.822 10.8715C11.7964 10.8626 11.7707 10.8538 11.7366 10.8538ZM11.6939 10.8362C11.711 10.845 11.7195 10.845 11.7281 10.845C11.7195 10.845 11.711 10.845 11.6939 10.8362ZM11.6512 10.8274C11.6683 10.8274 11.6768 10.8362 11.6854 10.8362C11.6768 10.8274 11.6683 10.8274 11.6512 10.8274ZM11.4634 10.7833C11.5231 10.801 11.5829 10.8098 11.6427 10.8274C11.5914 10.8098 11.5317 10.7921 11.4634 10.7833ZM11.4207 10.7745C11.4378 10.7745 11.4463 10.7833 11.4634 10.7833C11.4463 10.7745 11.4378 10.7745 11.4207 10.7745ZM11.378 10.7657C11.3865 10.7657 11.4036 10.7745 11.4121 10.7745C11.4036 10.7657 11.3865 10.7657 11.378 10.7657ZM11.3353 10.7481C11.3438 10.7481 11.3609 10.7569 11.3695 10.7569C11.3524 10.7569 11.3438 10.7569 11.3353 10.7481ZM9.62766 9.06462C8.63723 9.07343 8.22739 9.36429 8.22739 9.71684C8.22739 10.0958 8.63723 10.2457 9.27759 10.3603L11.2841 10.7481C11.3011 10.7481 11.3097 10.7569 11.3268 10.7569C11.3097 10.7481 11.2926 10.7481 11.2841 10.7481L9.27759 10.3603C8.63723 10.2457 8.23593 10.087 8.23593 9.71684C8.22739 9.35547 8.63723 9.07343 9.62766 9.06462ZM13.5296 6.76419C13.5467 6.76419 13.5552 6.76419 13.5723 6.77301L13.6321 7.35472L13.5723 6.77301C13.5552 6.76419 13.5467 6.76419 13.5296 6.76419ZM8.83361 6.60554C6.6649 6.85233 5.56348 8.20086 5.56348 9.80498C5.56348 8.20086 6.6649 6.85233 8.83361 6.60554ZM10.2766 6.53503C9.83258 6.53503 9.38859 6.55266 8.97022 6.59673C9.38859 6.55266 9.83258 6.53503 10.2766 6.53503ZM10.2851 6.53503H10.3107H10.2851Z" fill="white"/>
<path d="M10.2851 6.53503C9.83258 6.53503 9.38859 6.55266 8.97022 6.59673C8.92753 6.60554 8.88484 6.60555 8.84214 6.61436C6.6649 6.85233 5.56348 8.20086 5.56348 9.8138C5.56348 11.1359 6.49414 12.3874 8.24447 12.7312L10.3449 13.1454C10.6096 13.1983 10.8315 13.2512 11.0108 13.3217L14.17 13.1895C13.9736 12.1759 13.282 11.3474 11.9842 10.9243C11.9757 10.9243 11.9757 10.9243 11.9671 10.9155C11.9586 10.9155 11.95 10.9067 11.95 10.9067C11.9415 10.9067 11.933 10.8979 11.933 10.8979C11.933 10.8979 11.9159 10.8979 11.9159 10.8891C11.9074 10.8891 11.8988 10.8803 11.8903 10.8803C11.8817 10.8803 11.8817 10.8803 11.8817 10.8803C11.8647 10.8803 11.8561 10.8715 11.8476 10.8715C11.8476 10.8715 11.8476 10.8715 11.8391 10.8715C11.8134 10.8626 11.7878 10.8538 11.7537 10.8538C11.7537 10.8538 11.7537 10.8538 11.7451 10.8538C11.7366 10.8538 11.7195 10.845 11.711 10.845H11.7024C11.6939 10.8362 11.6768 10.8362 11.6683 10.8362C11.6683 10.8362 11.6683 10.8362 11.6598 10.8362C11.6 10.8186 11.5402 10.8098 11.4804 10.7921H11.4719C11.4548 10.7921 11.4463 10.7833 11.4292 10.7833H11.4207C11.4121 10.7833 11.3951 10.7745 11.3865 10.7745C11.378 10.7745 11.378 10.7745 11.3695 10.7745C11.3609 10.7745 11.3438 10.7657 11.3353 10.7657C11.3268 10.7657 11.3268 10.7657 11.3268 10.7657C11.3097 10.7569 11.3011 10.7569 11.2841 10.7569L9.27759 10.3691C8.63723 10.2545 8.22739 10.0958 8.22739 9.72566C8.22739 9.3731 8.64577 9.09106 9.62766 9.07343C9.64474 9.07343 9.66181 9.07343 9.67889 9.07343C10.6864 9.07343 11.5658 9.18801 12.1379 9.18801C12.8807 9.18801 13.6406 8.8619 13.6406 7.36354L13.5808 6.78182C13.5638 6.78182 13.5552 6.78182 13.5382 6.77301C12.7526 6.67606 11.5402 6.54385 10.3193 6.54385H10.2851" fill="#3C3A38"/>
<path d="M21.1789 11.7969L21.8619 12.8634L21.1789 11.7969ZM23.9196 6.50854C22.6987 6.50854 22.0241 6.97568 21.3155 7.76893L17.96 11.5589L21.3155 7.76893C22.0156 6.97568 22.6987 6.50854 23.9196 6.50854C24.3209 6.50854 24.8588 6.6055 25.0894 6.67601L28.5473 12.4844L30.3062 8.192C30.8868 6.77296 31.7748 6.57906 32.4664 6.57906C32.492 6.57906 32.5176 6.57906 32.5432 6.57906C32.953 6.58787 33.4482 6.72889 33.6702 6.85229L31.2369 12.4579L33.6702 6.85229C33.4482 6.72889 32.953 6.58787 32.5432 6.57906C32.5176 6.57906 32.492 6.57906 32.4664 6.57906C31.7748 6.57906 30.8868 6.76415 30.3062 8.192L28.5473 12.4844L25.0894 6.67601C24.8588 6.61431 24.3124 6.50854 23.9196 6.50854Z" fill="white"/>
<path d="M23.9196 6.50854C22.6987 6.50854 22.0241 6.97568 21.3155 7.76893L17.96 11.5589L18.8394 12.9867L21.8705 12.8545L21.1874 11.7881L23.4842 9.2761L25.6016 12.7135L31.2283 12.4755L33.6617 6.86991C33.4397 6.74652 32.9445 6.6055 32.5347 6.59668C32.509 6.59668 32.4834 6.59668 32.4578 6.59668C31.7662 6.59668 30.8782 6.78178 30.2977 8.20962L28.5388 12.502L25.0808 6.69364C24.8588 6.61431 24.3124 6.50854 23.9196 6.50854Z" fill="#3C3A38"/>
<path d="M17.1668 2.93896C15.3994 2.93896 15.1006 3.90849 15.1006 4.84276V13.1542L17.8243 13.0397V3.00948L17.1668 2.93896Z" fill="#3C3A38"/>
</g>
<defs>
<clipPath id="clip0_374:156">
<rect width="90.5391" height="22.0347" fill="white" transform="translate(0.943359 0.814697)"/>
</clipPath>
</defs>
</svg>
