<svg width="63" height="31" viewBox="0 0 63 31" fill="none" xmlns="http://www.w3.org/2000/svg">
<g clip-path="url(#clip0_374:205)">
<path d="M0.148438 0.900269H66.9549V30.7556H0.148438V0.900269Z" fill="#EB1701"/>
<path d="M27.2784 10.2024C25.8084 7.22918 22.0797 5.60071 16.7376 5.60071C10.3438 5.60071 6.45968 7.8707 6.45968 11.6458C6.45968 14.0268 8.26429 15.6183 12.0647 16.6423L13.7259 17.0864L15.3393 17.5305L17.0005 17.9746C17.0722 17.9993 17.1917 18.024 17.2993 18.0857C17.8968 18.3324 18.2434 18.6902 18.2434 19.085C18.2434 19.8869 17.12 20.442 15.4588 20.442C12.7818 20.442 11.4313 19.8869 10.6784 18.5051L3.45996 19.5291C5.30042 22.9711 9.22037 24.6859 15.3154 24.6859C21.7929 24.6859 26.2626 22.0458 26.2626 18.2214C26.2626 16.1118 24.2309 14.1132 21.1475 13.336L19.7134 12.9782L18.2793 12.5957L16.8451 12.238C16.4269 12.1269 16.0564 12.0159 15.7217 11.9049C14.8971 11.6581 14.5147 11.325 14.5147 10.8562C14.5147 10.1037 15.4588 9.63488 16.9288 9.63488C18.9246 9.63488 20.3588 10.2764 20.8009 11.4361L27.2784 10.2024ZM45.5277 11.9419H39.11L37.6997 18.1227C37.2217 20.1953 36.2537 21.2439 34.8076 21.2439C34.0547 21.2439 33.6364 20.9108 33.6364 20.3063C33.6364 20.1089 33.6364 19.9486 33.8395 19.085L35.4888 11.9419H28.9635L27.2067 19.7512C27.0035 20.6888 26.8601 21.4783 26.8601 21.8855C26.8601 23.5016 28.856 24.7723 31.4015 24.7723C33.983 24.7723 35.5605 24.0321 37.138 22.1075L36.5883 24.4392H42.7072L45.5277 11.9419ZM46.914 11.9419L44.0577 24.4392H50.344L52.0649 16.9383C52.3756 15.6183 53.2003 14.9398 54.4671 14.9398C55.4949 14.9398 56.0446 15.2729 56.0446 15.9267C56.0446 16.0994 55.9729 16.5066 55.8773 16.9383L54.1922 24.4392H60.6219L62.546 15.902C62.6535 15.4456 62.7133 15.0138 62.7133 14.6313C62.7133 12.8055 60.7533 11.5594 57.8731 11.5594C55.2319 11.5594 53.3078 12.3984 52.3398 13.9651L52.8178 11.9419H46.914ZM35.6083 7.27853H36.8273L37.0305 6.34092H33.0508L32.8357 7.27853H34.0188L33.3018 10.4244H34.9032L35.6083 7.27853ZM40.0541 8.79597L39.6836 10.4244H41.2731L42.1933 6.3656H40.5919L40.2573 7.85837H38.8231L39.1578 6.3656H37.5683L36.648 10.4244H38.2375L38.608 8.79597H40.0541ZM46.1372 9.49918H43.6753L43.8426 8.78364H45.8265L46.0296 7.89538H44.0457L44.1892 7.25386H46.5555L46.7586 6.3656H42.8148L41.8946 10.4244H45.9221L46.1372 9.49918Z" fill="white"/>
</g>
<defs>
<clipPath id="clip0_374:205">
<rect width="66.8064" height="29.8554" fill="white" transform="translate(0.148438 0.900269)"/>
</clipPath>
</defs>
</svg>
